<svg xmlns="http://www.w3.org/2000/svg" width="1920.061" height="328.93" viewBox="0 0 1920.061 328.93">
  <g id="footershape" transform="translate(2396 1231.75)">
    <path id="Path_1868" data-name="Path 1868" d="M-2374.271-4158.426l1920-.424v-134.4s-428.658-332.069-613.924-106.769c-248.618,352.527-375.4,25.064-565.941,106.769-540.333,258.5-740.135-20.051-740.135-20.051Z" transform="translate(-21.729 3246.641)" fill="#fff"/>
    <path id="footershape-2" data-name="footershape" d="M-2371-2025.977s188.583,261.846,700.365,38.9c.8,2,100.588-66.978,202.19-5.914.932,1,221.412,134.327,357.437-52.558,35.371-43.157,120.839-227.019,403.262-111.912.873.429,175.4,76.74,256.807,151.52-.157.679-.083,118.44-.083,118.44l-1919.978-.01Z" transform="translate(-25 984.678)"/>
  </g>
</svg>
