<svg xmlns="http://www.w3.org/2000/svg" xmlns:xlink="http://www.w3.org/1999/xlink" width="1920" height="1725" viewBox="0 0 1920 1725">
  <defs>
    <clipPath id="clip-path">
      <rect id="Rectangle_498" data-name="Rectangle 498" width="1920" height="1725" transform="translate(0 4449)" fill="#fff" stroke="#707070" stroke-width="1"/>
    </clipPath>
    <linearGradient id="linear-gradient" x1="0.836" y1="0.218" x2="-0.127" y2="1.157" gradientUnits="objectBoundingBox">
      <stop offset="0" stop-color="#e8cd00"/>
      <stop offset="1"/>
    </linearGradient>
  </defs>
  <g id="shape5" transform="translate(0 -4449)" clip-path="url(#clip-path)">
    <path id="shape5-2" data-name="shape5" d="M5891.628,11326.8h-.052c-14.094,0-28.149-.491-41.775-1.46-13.033-.926-26.021-2.313-38.6-4.124-11.99-1.726-23.933-3.883-35.5-6.41-10.977-2.4-21.9-5.2-32.454-8.312a410.5,410.5,0,0,1-100.727-44.675,353.27,353.27,0,0,1-33.831-23.861,302.544,302.544,0,0,1-23.512-20.814c-12.094-11.929-17.935-19.97-18.178-20.307V9787.654c.245.336,6.1,8.384,18.182,20.3a302.541,302.541,0,0,0,23.517,20.814,353.325,353.325,0,0,0,33.834,23.86,410.508,410.508,0,0,0,100.728,44.676c10.569,3.119,21.488,5.916,32.453,8.313,11.549,2.525,23.491,4.683,35.494,6.41,12.577,1.811,25.563,3.2,38.6,4.125,13.63.968,27.684,1.459,41.771,1.459h.052c123.4-.01,263.287-36.99,415.771-109.913a176.154,176.154,0,0,1,16.784-6.215,164.46,164.46,0,0,1,16.478-4.228,161.092,161.092,0,0,1,16.2-2.413c5.235-.509,10.6-.767,15.95-.767a187.539,187.539,0,0,1,33.594,3.132,265.453,265.453,0,0,1,32.864,8.265c21.729,6.846,43.57,16.158,64.691,25.164l1.1.47.031.014c10.013,4.27,21.363,9.108,32.66,13.583,12.265,4.858,23.1,8.739,33.138,11.862a273.856,273.856,0,0,0,33.877,8.391c5.844,1.033,11.667,1.824,17.308,2.351,5.922.552,11.844.832,17.6.832,79.072,0,153.385-53.131,233.866-167.205a224.419,224.419,0,0,1,18.315-19.754,208.411,208.411,0,0,1,19.652-16.568,202.1,202.1,0,0,1,20.862-13.557,204.888,204.888,0,0,1,21.942-10.711,215.92,215.92,0,0,1,22.895-8.036,235.519,235.519,0,0,1,23.719-5.531,279.925,279.925,0,0,1,49.4-4.222,354.191,354.191,0,0,1,37.368,2.056c12.241,1.307,25,3.262,37.91,5.813,12.316,2.431,25.118,5.471,38.049,9.034,12.271,3.382,24.984,7.326,37.786,11.725,44.3,15.223,91.557,36.466,140.451,63.139,19.251,10.5,38.822,21.891,58.169,33.851,15.535,9.6,30.956,19.593,45.834,29.687,25.9,17.568,41.136,29.33,41.772,29.822,0,542.208.024,1404.236.024,1409.2-.136-.1-15.081-11.665-40.456-28.929-14.822-10.083-30.181-20.06-45.65-29.651-19.335-11.991-38.925-23.428-58.224-33.991-49.1-26.875-96.552-48.288-141.05-63.644-12.864-4.438-25.647-8.423-38-11.843-13-3.6-25.881-6.672-38.27-9.13-13-2.579-25.827-4.557-38.133-5.876a354.194,354.194,0,0,0-37.586-2.08,280.12,280.12,0,0,0-49.4,4.22,235.36,235.36,0,0,0-23.718,5.529,216.248,216.248,0,0,0-22.892,8.034,204.688,204.688,0,0,0-21.939,10.711,201.706,201.706,0,0,0-20.858,13.557,207.787,207.787,0,0,0-19.652,16.571,224.559,224.559,0,0,0-18.318,19.756c-11.216,15.9-22.485,30.818-33.495,44.349-10.712,13.166-21.5,25.408-32.061,36.386-10.253,10.656-20.595,20.431-30.737,29.054a314.126,314.126,0,0,1-29.519,22.355c-35.54,23.593-70.884,35.062-108.055,35.063-5.767,0-11.689-.279-17.6-.831-5.642-.526-11.465-1.317-17.308-2.351a273.617,273.617,0,0,1-33.876-8.39c-10.037-3.125-20.876-7-33.136-11.862-11.344-4.494-22.686-9.331-32.693-13.6l-1.088-.464c-21.123-9.007-42.965-18.32-64.7-25.167a265.474,265.474,0,0,0-32.869-8.267,187.446,187.446,0,0,0-33.6-3.133c-5.351,0-10.717.258-15.951.767a161.353,161.353,0,0,0-16.2,2.412,164.6,164.6,0,0,0-16.477,4.229,175.748,175.748,0,0,0-16.785,6.215c-21.028,10.057-42.1,19.56-62.641,28.242-19.966,8.441-39.981,16.345-59.49,23.49-18.938,6.936-37.911,13.342-56.391,19.042-17.927,5.529-35.874,10.542-53.341,14.9-16.929,4.223-33.868,7.942-50.345,11.059-15.944,3.016-31.891,5.547-47.4,7.523-14.977,1.91-29.95,3.354-44.5,4.293C5919.251,11326.341,5905.234,11326.8,5891.628,11326.8ZM7487.682,9400.3h0V9381.22l.011-.006C7487.689,9381.231,7487.686,9383.512,7487.682,9400.3Z" transform="translate(-5567.691 -5152.493)" fill="url(#linear-gradient)"/>
  </g>
</svg>
