<svg xmlns="http://www.w3.org/2000/svg" width="14.34" height="14.356" viewBox="0 0 14.34 14.356">
  <g id="attachment" transform="translate(-0.343 -0.001)" style="isolation: isolate">
    <g id="_x34__17_" transform="translate(0.343 0.001)">
      <g id="Group_1168" data-name="Group 1168" transform="translate(0 0)">
        <path id="Path_1664" data-name="Path 1664" d="M13.954,5.226l-7.3,7.215a3.12,3.12,0,0,1-4.378,0,3.037,3.037,0,0,1,0-4.329L8.847,1.618a2.08,2.08,0,0,1,2.918,0,2.025,2.025,0,0,1,0,2.886L5.2,11a1.04,1.04,0,0,1-1.459,0,1.013,1.013,0,0,1,0-1.443L9.576,3.783l-.73-.722L3.01,8.834a2.025,2.025,0,0,0,0,2.886,2.08,2.08,0,0,0,2.918,0l6.567-6.493a3.037,3.037,0,0,0,0-4.329A3.12,3.12,0,0,0,8.117.9L1.186,7.751l.025.025a4.046,4.046,0,0,0,.34,5.386A4.16,4.16,0,0,0,7,13.5l.025.025,7.661-7.576Z" transform="translate(-0.343 -0.001)" fill="#b1b1b1"/>
      </g>
    </g>
  </g>
</svg>
