<svg xmlns="http://www.w3.org/2000/svg" width="13.51" height="13.51" viewBox="0 0 13.51 13.51">
  <g id="calender" style="isolation: isolate">
    <g id="Group_1084" data-name="Group 1084">
      <g id="Group_1083" data-name="Group 1083">
        <path id="Path_1643" data-name="Path 1643" d="M11.927,1.055h-.633V0H10.238V1.055H3.272V0H2.217V1.055H1.583A1.585,1.585,0,0,0,0,2.639v9.288A1.585,1.585,0,0,0,1.583,13.51H11.927a1.585,1.585,0,0,0,1.583-1.583V2.639A1.585,1.585,0,0,0,11.927,1.055Zm.528,10.871a.528.528,0,0,1-.528.528H1.583a.528.528,0,0,1-.528-.528V4.961h11.4Zm0-8.022H1.055V2.639a.528.528,0,0,1,.528-.528h.633V3.166H3.272V2.111h6.966V3.166h1.055V2.111h.633a.528.528,0,0,1,.528.528Z"/>
      </g>
    </g>
    <g id="Group_1086" data-name="Group 1086" transform="translate(1.912 6.01)">
      <g id="Group_1085" data-name="Group 1085" transform="translate(0 0)">
        <rect id="Rectangle_232" data-name="Rectangle 232" width="1" height="1" transform="translate(0.144 0.046)"/>
      </g>
    </g>
    <g id="Group_1088" data-name="Group 1088" transform="translate(4.098 6.01)">
      <g id="Group_1087" data-name="Group 1087" transform="translate(0 0)">
        <rect id="Rectangle_233" data-name="Rectangle 233" width="1" height="1" transform="translate(-0.042 0.046)"/>
      </g>
    </g>
    <g id="Group_1090" data-name="Group 1090" transform="translate(6.283 6.01)">
      <g id="Group_1089" data-name="Group 1089" transform="translate(0 0)">
        <rect id="Rectangle_234" data-name="Rectangle 234" width="1" height="1" transform="translate(-0.227 0.046)"/>
      </g>
    </g>
    <g id="Group_1092" data-name="Group 1092" transform="translate(8.469 6.01)">
      <g id="Group_1091" data-name="Group 1091" transform="translate(0 0)">
        <rect id="Rectangle_235" data-name="Rectangle 235" width="1" height="1" transform="translate(-0.413 0.046)"/>
      </g>
    </g>
    <g id="Group_1094" data-name="Group 1094" transform="translate(10.381 6.01)">
      <g id="Group_1093" data-name="Group 1093" transform="translate(0 0)">
        <rect id="Rectangle_236" data-name="Rectangle 236" width="1" height="1" transform="translate(-0.325 0.046)"/>
      </g>
    </g>
    <g id="Group_1096" data-name="Group 1096" transform="translate(1.912 8.195)">
      <g id="Group_1095" data-name="Group 1095" transform="translate(0 0)">
        <rect id="Rectangle_237" data-name="Rectangle 237" width="1" height="1" transform="translate(0.144 -0.14)"/>
      </g>
    </g>
    <g id="Group_1098" data-name="Group 1098" transform="translate(4.098 8.195)">
      <g id="Group_1097" data-name="Group 1097" transform="translate(0 0)">
        <rect id="Rectangle_238" data-name="Rectangle 238" width="1" height="1" transform="translate(-0.042 -0.14)"/>
      </g>
    </g>
    <g id="Group_1100" data-name="Group 1100" transform="translate(6.283 8.195)">
      <g id="Group_1099" data-name="Group 1099" transform="translate(0 0)">
        <rect id="Rectangle_239" data-name="Rectangle 239" width="1" height="1" transform="translate(-0.227 -0.14)"/>
      </g>
    </g>
    <g id="Group_1102" data-name="Group 1102" transform="translate(8.469 8.195)">
      <g id="Group_1101" data-name="Group 1101" transform="translate(0 0)">
        <rect id="Rectangle_240" data-name="Rectangle 240" width="1" height="1" transform="translate(-0.413 -0.14)"/>
      </g>
    </g>
    <g id="Group_1104" data-name="Group 1104" transform="translate(1.912 10.381)">
      <g id="Group_1103" data-name="Group 1103" transform="translate(0 0)">
        <rect id="Rectangle_241" data-name="Rectangle 241" width="1" height="1" transform="translate(0.144 -0.325)"/>
      </g>
    </g>
    <g id="Group_1106" data-name="Group 1106" transform="translate(4.098 10.381)">
      <g id="Group_1105" data-name="Group 1105" transform="translate(0 0)">
        <rect id="Rectangle_242" data-name="Rectangle 242" width="1" height="1" transform="translate(-0.042 -0.325)"/>
      </g>
    </g>
    <g id="Group_1108" data-name="Group 1108" transform="translate(6.283 10.381)">
      <g id="Group_1107" data-name="Group 1107" transform="translate(0 0)">
        <rect id="Rectangle_243" data-name="Rectangle 243" width="1" height="1" transform="translate(-0.227 -0.325)"/>
      </g>
    </g>
    <g id="Group_1110" data-name="Group 1110" transform="translate(8.469 10.381)">
      <g id="Group_1109" data-name="Group 1109" transform="translate(0 0)">
        <rect id="Rectangle_244" data-name="Rectangle 244" width="1" height="1" transform="translate(-0.413 -0.325)"/>
      </g>
    </g>
    <g id="Group_1112" data-name="Group 1112" transform="translate(10.381 8.195)">
      <g id="Group_1111" data-name="Group 1111" transform="translate(0 0)">
        <rect id="Rectangle_245" data-name="Rectangle 245" width="1" height="1" transform="translate(-0.325 -0.14)"/>
      </g>
    </g>
  </g>
</svg>
