<svg xmlns="http://www.w3.org/2000/svg" width="16.084" height="14.255" viewBox="0 0 16.084 14.255">
  <g id="event" transform="translate(0 -29.109)" style="isolation: isolate">
    <path id="Path_1644" data-name="Path 1644" d="M33.766,175.363H30.358a.237.237,0,0,0-.237.237v8.243a.237.237,0,0,0,.237.237H44.076a.237.237,0,0,0,.237-.237V175.6a.237.237,0,0,0-.237-.237H34.713a.237.237,0,0,0,0,.473h9.126v7.77H30.594v-7.77h3.172a.237.237,0,1,0,0-.473Z" transform="translate(-29.175 -141.66)"/>
    <path id="Path_1645" data-name="Path 1645" d="M15.216,32.759H14.174L9.01,30.209a.919.919,0,1,0-1.8,0L2.045,32.759H.868A.869.869,0,0,0,0,33.627V42.5a.869.869,0,0,0,.868.868H10.947a.237.237,0,1,0,0-.473H.868A.4.4,0,0,1,.473,42.5V33.627a.4.4,0,0,1,.394-.394H9.907a.237.237,0,1,0,0-.473H3.114l4.305-2.126a.917.917,0,0,0,1.381,0l4.305,2.126H10.854a.237.237,0,1,0,0,.473h4.363a.4.4,0,0,1,.394.394V42.5a.4.4,0,0,1-.394.394H11.894a.237.237,0,1,0,0,.473h3.323a.869.869,0,0,0,.868-.868V33.627A.869.869,0,0,0,15.216,32.759ZM8.109,30.474a.446.446,0,1,1,.446-.446A.446.446,0,0,1,8.109,30.474Z"/>
    <path id="Path_1646" data-name="Path 1646" d="M89.691,261.243a.237.237,0,1,0,0-.473H88.675a.237.237,0,0,0-.237.237v2.531h0a.237.237,0,0,0,.237.237h1.016a.237.237,0,1,0,0-.473h-.78v-.793h.78a.237.237,0,1,0,0-.473h-.78v-.793h.78Z" transform="translate(-85.66 -224.384)"/>
    <path id="Path_1647" data-name="Path 1647" d="M226.821,263.776h1.016a.237.237,0,0,0,0-.473h-.78v-.793h.78a.237.237,0,0,0,0-.473h-.78v-.793h.78a.237.237,0,0,0,0-.473h-1.016a.237.237,0,0,0-.237.237v2.531h0A.237.237,0,0,0,226.821,263.776Z" transform="translate(-219.466 -224.385)"/>
    <path id="Path_1648" data-name="Path 1648" d="M145.164,261.068l.663,2.381a.443.443,0,0,0,.854,0l.663-2.381a.237.237,0,0,0-.456-.127l-.634,2.277-.635-2.277a.237.237,0,1,0-.456.127Z" transform="translate(-140.596 -224.381)"/>
    <path id="Path_1649" data-name="Path 1649" d="M290.217,263.535v-1.627l.98,1.744a.237.237,0,0,0,.443-.116V261a.237.237,0,1,0-.473,0v1.628l-.98-1.744a.237.237,0,0,0-.443.116v2.531a.237.237,0,1,0,.473,0Z" transform="translate(-280.642 -224.382)"/>
    <path id="Path_1650" data-name="Path 1650" d="M361.822,263.82a.237.237,0,0,0,.237-.237v-2.294h.58a.237.237,0,0,0,0-.473H361a.237.237,0,1,0,0,.473h.58v2.294A.237.237,0,0,0,361.822,263.82Z" transform="translate(-349.435 -224.428)"/>
  </g>
</svg>
