<svg xmlns="http://www.w3.org/2000/svg" width="39.62" height="39.62" viewBox="0 0 39.62 39.62">
  <g id="Facebook" transform="translate(0)" style="isolation: isolate">
    <g id="Group_1628" data-name="Group 1628" transform="translate(0)">
      <g id="Group_1627" data-name="Group 1627">
        <path id="Path_1847" data-name="Path 1847" d="M211.255,154.874v1.8h-1.8v2.7h1.8v8.1h3.6v-8.1h2.4l.306-2.7h-2.7V155.1c0-.729.072-1.117,1.2-1.117h1.5v-2.71h-2.413C212.263,151.272,211.255,152.623,211.255,154.874Z" transform="translate(-193.246 -139.566)" fill="#585976"/>
        <path id="Path_1848" data-name="Path 1848" d="M19.81,0A19.81,19.81,0,1,0,39.62,19.81,19.81,19.81,0,0,0,19.81,0Zm0,37.819A18.009,18.009,0,1,1,37.819,19.81,18.009,18.009,0,0,1,19.81,37.819Z" fill="#585976"/>
      </g>
    </g>
  </g>
</svg>
