<svg xmlns="http://www.w3.org/2000/svg" width="39.62" height="39.62" viewBox="0 0 39.62 39.62">
  <g id="ig" transform="translate(-462 -1144)">
    <g id="_002-twitter" data-name="002-twitter" transform="translate(462 1144)" style="isolation: isolate">
      <g id="Group_1630" data-name="Group 1630" transform="translate(0)">
        <g id="Group_1629" data-name="Group 1629">
          <path id="Path_1850" data-name="Path 1850" d="M19.81,0A19.81,19.81,0,1,0,39.62,19.81,19.81,19.81,0,0,0,19.81,0Zm0,37.819A18.009,18.009,0,1,1,37.819,19.81,18.009,18.009,0,0,1,19.81,37.819Z" fill="#585976"/>
        </g>
      </g>
    </g>
    <g id="_003-instagram" data-name="003-instagram" transform="translate(474 1156)" style="isolation: isolate">
      <path id="Path_1851" data-name="Path 1851" d="M16.056,4.6a5.718,5.718,0,0,0-.364-1.9A4.009,4.009,0,0,0,13.4.413,5.733,5.733,0,0,0,11.5.049C10.666.009,10.4,0,8.275,0S5.885.009,5.05.046a5.72,5.72,0,0,0-1.9.364,3.818,3.818,0,0,0-1.388.9A3.853,3.853,0,0,0,.862,2.7,5.734,5.734,0,0,0,.5,4.6C.458,5.436.449,5.7.449,7.826S.458,10.217.5,11.052a5.718,5.718,0,0,0,.364,1.9,4.008,4.008,0,0,0,2.29,2.29,5.734,5.734,0,0,0,1.9.364c.835.037,1.1.046,3.225.046s2.391-.009,3.225-.046a5.717,5.717,0,0,0,1.9-.364,4,4,0,0,0,2.29-2.29,5.738,5.738,0,0,0,.364-1.9c.037-.835.046-1.1.046-3.225S16.093,5.436,16.056,4.6ZM14.647,10.99a4.289,4.289,0,0,1-.269,1.452,2.6,2.6,0,0,1-1.486,1.486,4.3,4.3,0,0,1-1.452.269c-.825.037-1.073.046-3.161.046S5.94,14.234,5.117,14.2a4.287,4.287,0,0,1-1.452-.269,2.408,2.408,0,0,1-.9-.584,2.433,2.433,0,0,1-.584-.9,4.305,4.305,0,0,1-.269-1.452c-.037-.825-.046-1.073-.046-3.161s.009-2.339.046-3.161a4.287,4.287,0,0,1,.269-1.452,2.379,2.379,0,0,1,.587-.9,2.429,2.429,0,0,1,.9-.584,4.308,4.308,0,0,1,1.452-.269c.825-.037,1.073-.046,3.161-.046s2.339.009,3.161.046a4.289,4.289,0,0,1,1.452.269,2.406,2.406,0,0,1,.9.584,2.432,2.432,0,0,1,.584.9,4.307,4.307,0,0,1,.269,1.452c.037.825.046,1.073.046,3.161S14.683,10.165,14.647,10.99Zm0,0" transform="translate(-0.449 0)" fill="#585976"/>
      <path id="Path_1852" data-name="Path 1852" d="M128.969,124.5a4.02,4.02,0,1,0,4.02,4.02A4.021,4.021,0,0,0,128.969,124.5Zm0,6.628a2.608,2.608,0,1,1,2.608-2.608A2.608,2.608,0,0,1,128.969,131.128Zm0,0" transform="translate(-121.143 -120.694)" fill="#585976"/>
      <path id="Path_1853" data-name="Path 1853" d="M364.326,89.54a.939.939,0,1,1-.939-.939A.939.939,0,0,1,364.326,89.54Zm0,0" transform="translate(-351.382 -85.893)" fill="#585976"/>
    </g>
  </g>
</svg>
