<svg xmlns="http://www.w3.org/2000/svg" width="61.455" height="61.458" viewBox="0 0 61.455 61.458">
  <g id="nft-op-2" transform="translate(-1.272 -1.272)" style="isolation: isolate">
    <path id="Path_1573" data-name="Path 1573" d="M2.2,35a1,1,0,0,0-.92,1.12,30.91,30.91,0,0,0,6.09,14.7A1,1,0,0,0,8.83,51a3,3,0,0,1,4.2,4.2,1,1,0,0,0,.15,1.46A30.91,30.91,0,0,0,27.9,62.72a1.013,1.013,0,0,0,1.13-.92,3,3,0,0,1,5.94,0,1.019,1.019,0,0,0,1,.93h.13a30.91,30.91,0,0,0,14.72-6.09A1,1,0,0,0,51,55.17a3,3,0,0,1,4.2-4.2,1,1,0,0,0,1.46-.15A30.91,30.91,0,0,0,62.72,36.1,1,1,0,0,0,61.8,35a3,3,0,1,1,0-6,1,1,0,0,0,.92-1.12,30.91,30.91,0,0,0-6.09-14.72A1,1,0,0,0,55.17,13,3,3,0,0,1,51,8.83a1,1,0,0,0-.15-1.46A30.91,30.91,0,0,0,36.1,1.28a1.013,1.013,0,0,0-1.13.92A3,3,0,0,1,29,2.2a1.013,1.013,0,0,0-1.13-.92A30.91,30.91,0,0,0,13.18,7.37,1,1,0,0,0,13,8.83,3,3,0,0,1,8.83,13a1,1,0,0,0-1.46.15A30.91,30.91,0,0,0,1.28,27.9a1,1,0,0,0,.92,1.12,3,3,0,0,1,0,6Zm1.2-7.76a28.91,28.91,0,0,1,5-12.06A5,5,0,0,0,15.16,8.4a28.91,28.91,0,0,1,12.06-5,5,5,0,0,0,9.56,0,28.91,28.91,0,0,1,12.06,5,5,5,0,0,0,6.76,6.76,28.91,28.91,0,0,1,5,12.06,5,5,0,0,0,0,9.56,28.91,28.91,0,0,1-5,12.06,5,5,0,0,0-6.76,6.76,28.91,28.91,0,0,1-12.06,5,5,5,0,0,0-9.56,0,28.91,28.91,0,0,1-12.06-5A5,5,0,0,0,8.4,48.84a28.91,28.91,0,0,1-5-12.06,5,5,0,0,0,0-9.56Z" fill="#585976"/>
    <path id="Path_1574" data-name="Path 1574" d="M18.73,55.52A27.16,27.16,0,0,0,24.54,58l.57-2a25.14,25.14,0,0,1-5.4-2.25Z" fill="#585976"/>
    <path id="Path_1575" data-name="Path 1575" d="M45.23,8.46a27,27,0,0,0-5.75-2.4h-.11l-.48,2a25.26,25.26,0,0,1,5.36,2.23Z" fill="#585976"/>
    <path id="Path_1576" data-name="Path 1576" d="M10.21,19.73l-1.74-1a26.42,26.42,0,0,0-2.4,5.75v.11l1.94.5a25.16,25.16,0,0,1,2.2-5.36Z" fill="#585976"/>
    <path id="Path_1577" data-name="Path 1577" d="M38.7,56.09,39.23,58a27.06,27.06,0,0,0,5.87-2.41l-1-1.75a25.65,25.65,0,0,1-5.4,2.25Z" fill="#585976"/>
    <path id="Path_1578" data-name="Path 1578" d="M25.26,7.92,24.72,6a27.52,27.52,0,0,0-5.86,2.42l1,1.75a25.17,25.17,0,0,1,5.4-2.25Z" fill="#585976"/>
    <path id="Path_1579" data-name="Path 1579" d="M10.15,44.15a25.13,25.13,0,0,1-2.23-5.43L6,39.25a27.06,27.06,0,0,0,2.4,5.87Z" fill="#585976"/>
    <path id="Path_1580" data-name="Path 1580" d="M53.77,44.31l1.74,1A27.41,27.41,0,0,0,58,39.44v-.09l-2-.46a24.83,24.83,0,0,1-2.23,5.42Z" fill="#585976"/>
    <path id="Path_1581" data-name="Path 1581" d="M58,24.7a27,27,0,0,0-2.43-5.86l-1.74,1a25.17,25.17,0,0,1,2.24,5.43Z" fill="#585976"/>
    <path id="Path_1582" data-name="Path 1582" d="M32,54c12.68,0,23-9.87,23-22,0-10.83-8.22-19.84-19-21.66V10H34v.09A14.8,14.8,0,0,0,32,10C19.32,10,9,19.87,9,32S19.32,54,32,54ZM21.34,14.8,22,18.2a1,1,0,0,0,.74.77l2.33.58a2.013,2.013,0,1,0,.5-1.94l-1.71-.43-.67-3.31A21.66,21.66,0,0,1,32,12a13.269,13.269,0,0,1,2,.1v7.2L31.79,21a2.1,2.1,0,0,0-.79-.2,2,2,0,1,0,2,2,1.64,1.64,0,0,0,0-.23l2.62-2a1,1,0,0,0,.4-.8v-7.4a21.38,21.38,0,0,1,4,1.15V22a1,1,0,0,0,1,1H44.3a2,2,0,1,0,0-2H42V14.42A19.89,19.89,0,0,1,53,32a19.76,19.76,0,0,1-9.76,16.86l-.25-2a1,1,0,0,0-.75-.85l-2.33-.58a2,2,0,1,0-.48,1.96l1.66.41.27,2.08A21.82,21.82,0,0,1,32,52a13.27,13.27,0,0,1-2-.1V44.5l2.21-1.66A2.1,2.1,0,0,0,33,43a2,2,0,1,0-2-2,1.64,1.64,0,0,0,0,.23l-2.62,2a1,1,0,0,0-.4.8v7.63a21.38,21.38,0,0,1-4-1.15V43a1,1,0,0,0-1-1H20.72a2,2,0,1,0,0,2H22v5.58A19.89,19.89,0,0,1,11,32,19.83,19.83,0,0,1,21.34,14.8Z" fill="#585976"/>
    <path id="Path_1583" data-name="Path 1583" d="M20,31l4.2,5.6a1,1,0,0,0,.8.4,1.19,1.19,0,0,0,.32,0A1,1,0,0,0,26,36V27H24v6l-4.2-5.6A1,1,0,0,0,18,28v9h2Z" fill="#585976"/>
    <path id="Path_1584" data-name="Path 1584" d="M30,33h5V31H30V29h5V27H29a1,1,0,0,0-1,1v9h2Z" fill="#585976"/>
    <path id="Path_1585" data-name="Path 1585" d="M40,37h2V29h3V27H37v2h3Z" fill="#585976"/>
  </g>
</svg>
