<svg xmlns="http://www.w3.org/2000/svg" width="60" height="59.999" viewBox="0 0 60 59.999">
  <g id="nft-op-1" transform="translate(-2 -2)">
    <path id="Path_1566" data-name="Path 1566" d="M61,52H39a1,1,0,0,0-1,1v2H26V53a1,1,0,0,0-1-1H7V25a1,1,0,0,1,1-1h2a21.881,21.881,0,0,0,4.681,13.542l-3.128,1.564A1,1,0,0,0,11,40v2.184a3,3,0,1,0,2,0V40.618L16.027,39.1a22.152,22.152,0,0,0,3.218,2.8v2.276a3,3,0,1,0,2,0v-1A21.838,21.838,0,0,0,31,45.974v1.21a3,3,0,1,0,2,0v-1.21A21.836,21.836,0,0,0,43,43.04v1.144a3,3,0,1,0,2,0V41.733A22.181,22.181,0,0,0,47.973,39.1L51,40.618v1.566a3,3,0,1,0,2,0V40a1,1,0,0,0-.553-.9l-3.128-1.564A21.876,21.876,0,0,0,54,24h2a1,1,0,0,1,1,1V49a1,1,0,0,0,2,0V25a3,3,0,0,0-3-3H53.9A22,22,0,0,0,18,7.033a1,1,0,0,0,1.273,1.542,19.989,19.989,0,1,1-2.7,2.694,1,1,0,1,0-1.541-1.274,22.034,22.034,0,0,0-4.938,12H8a3,3,0,0,0-3,3V52H3a1,1,0,0,0-1,1v4a5.006,5.006,0,0,0,5,5H37a1,1,0,0,0,0-2H7a3,3,0,0,1-3-3V54H24v2a1,1,0,0,0,1,1H39a1,1,0,0,0,1-1V54H60v3a3,3,0,0,1-3,3H41a1,1,0,0,0,0,2H57a5.006,5.006,0,0,0,5-5V53a1,1,0,0,0-1-1ZM12,46a1,1,0,1,1,1-1A1,1,0,0,1,12,46Zm8.245,2a1,1,0,1,1,1-1A1,1,0,0,1,20.245,48ZM44,48a1,1,0,1,1,1-1A1,1,0,0,1,44,48Zm8-2a1,1,0,1,1,1-1A1,1,0,0,1,52,46ZM32,51a1,1,0,1,1,1-1A1,1,0,0,1,32,51Z" fill="#585976"/>
    <circle id="Ellipse_96" data-name="Ellipse 96" cx="1" cy="1" r="1" transform="translate(51 56)" fill="#585976"/>
    <circle id="Ellipse_97" data-name="Ellipse 97" cx="1" cy="1" r="1" transform="translate(55 56)" fill="#585976"/>
    <circle id="Ellipse_98" data-name="Ellipse 98" cx="1" cy="1" r="1" transform="translate(7 56)" fill="#585976"/>
    <circle id="Ellipse_99" data-name="Ellipse 99" cx="1" cy="1" r="1" transform="translate(11 56)" fill="#585976"/>
    <circle id="Ellipse_100" data-name="Ellipse 100" cx="1" cy="1" r="1" transform="translate(18 23)" fill="#585976"/>
    <circle id="Ellipse_101" data-name="Ellipse 101" cx="1" cy="1" r="1" transform="translate(44 23)" fill="#585976"/>
    <path id="Path_1567" data-name="Path 1567" d="M46.127,35.133A17.808,17.808,0,0,0,50,24,18,18,0,1,0,32,42a17.808,17.808,0,0,0,11.133-3.873A1,1,0,0,0,41.9,36.556,15.825,15.825,0,0,1,32,40,16,16,0,1,1,48,24a15.823,15.823,0,0,1-3.443,9.894,1,1,0,1,0,1.57,1.239Z" fill="#585976"/>
    <path id="Path_1568" data-name="Path 1568" d="M22.771,19.027A1,1,0,0,0,22,20v8a1,1,0,0,0,2,0V24.236l2.1,4.211A1,1,0,0,0,28,28V20a1,1,0,0,0-2,0v3.764l-2.1-4.211A1,1,0,0,0,22.771,19.027Z" fill="#585976"/>
    <path id="Path_1569" data-name="Path 1569" d="M35,21a1,1,0,0,0,0-2H31a1,1,0,0,0-1,1v8a1,1,0,0,0,2,0V25h2a1,1,0,0,0,0-2H32V21Z" fill="#585976"/>
    <path id="Path_1570" data-name="Path 1570" d="M41,29a1,1,0,0,0,1-1V21h1a1,1,0,0,0,0-2H39a1,1,0,0,0,0,2h1v7A1,1,0,0,0,41,29Z" fill="#585976"/>
    <path id="Path_1571" data-name="Path 1571" d="M38,17a1,1,0,0,0,.556-1.832l-6-4a1,1,0,0,0-1.109,0l-6,4a1,1,0,0,0,1.11,1.664L32,13.2l5.445,3.63A1,1,0,0,0,38,17Z" fill="#585976"/>
    <path id="Path_1572" data-name="Path 1572" d="M31.445,36.832a1,1,0,0,0,1.11,0l6-4a1,1,0,1,0-1.11-1.664L32,34.8l-5.445-3.63a1,1,0,0,0-1.11,1.664Z" fill="#585976"/>
  </g>
</svg>
