<svg xmlns="http://www.w3.org/2000/svg" width="62" height="62" viewBox="0 0 62 62">
  <g id="nft-op-4" transform="translate(-17.999 -18)" style="isolation: isolate">
    <path id="Path_1607" data-name="Path 1607" d="M18,49a30.8,30.8,0,0,0,9.08,21.92q.941.941,1.948,1.788L26.685,75.05H24.854a3.126,3.126,0,1,0,0,2.084h2.263a1.042,1.042,0,0,0,.737-.305l2.819-2.82a31.027,31.027,0,0,0,36.653,0l2.819,2.819a1.042,1.042,0,0,0,.737.306h2.263a3.126,3.126,0,1,0,0-2.084H71.313l-2.341-2.341q1-.849,1.948-1.789a31,31,0,0,0,0-43.84q-.941-.941-1.948-1.789l2.341-2.341h1.832a3.126,3.126,0,1,0,0-2.084H70.881a1.042,1.042,0,0,0-.737.305l-2.819,2.82a31.027,31.027,0,0,0-36.651,0l-2.82-2.82a1.042,1.042,0,0,0-.737-.305H24.854a3.126,3.126,0,1,0,0,2.084h1.832l2.342,2.342q-1,.849-1.948,1.788A30.8,30.8,0,0,0,18,49Zm3.908,28.134a1.042,1.042,0,1,1,1.042-1.042A1.042,1.042,0,0,1,21.907,77.134ZM76.091,75.05a1.042,1.042,0,1,1-1.042,1.042A1.042,1.042,0,0,1,76.091,75.05Zm0-54.184a1.042,1.042,0,1,1-1.042,1.042A1.042,1.042,0,0,1,76.091,20.866ZM21.907,22.95a1.042,1.042,0,1,1,1.042-1.042A1.042,1.042,0,0,1,21.907,22.95Zm5.924,6.355,1.3,1.3a27.038,27.038,0,0,0,0,36.792l-1.3,1.3a28.909,28.909,0,0,1,0-39.39Zm5.935.725a2.106,2.106,0,1,0,1.626-1.322l-.408-.409a24.959,24.959,0,0,1,28.034,0l-.409.409a2.088,2.088,0,1,0,1.626,1.322l.474-.474a24.975,24.975,0,0,1,0,38.888l-.474-.474a2.106,2.106,0,1,0-1.626,1.322l.409.409a24.959,24.959,0,0,1-28.034,0l.409-.409a2.088,2.088,0,1,0-1.626-1.322l-.474.474a24.975,24.975,0,0,1,0-38.888ZM29.3,70.169l1.3-1.3q.588.545,1.207,1.056l-1.3,1.3Q29.893,70.718,29.3,70.169ZM49,77.916a28.7,28.7,0,0,1-16.834-5.4L33.485,71.2a27.033,27.033,0,0,0,31.028,0l1.319,1.319A28.7,28.7,0,0,1,49,77.916Zm17.189-7.99q.62-.51,1.207-1.056l1.3,1.3q-.589.549-1.2,1.061Zm3.98-1.23-1.3-1.3a27.038,27.038,0,0,0,0-36.792l1.3-1.3a28.909,28.909,0,0,1,0,39.391ZM68.694,27.831l-1.3,1.3q-.588-.545-1.207-1.056l1.3-1.3Q68.106,27.282,68.694,27.831ZM49,20.084a28.7,28.7,0,0,1,16.833,5.4L64.513,26.8a27.033,27.033,0,0,0-31.027,0l-1.319-1.319A28.7,28.7,0,0,1,49,20.084ZM31.81,28.075q-.62.51-1.207,1.056l-1.3-1.3q.589-.549,1.2-1.061Z" fill="#585976"/>
    <path id="Path_1608" data-name="Path 1608" d="M112,102.183v20.455a1.042,1.042,0,0,0,.521.9l17.714,10.228a1.042,1.042,0,0,0,1.042,0l17.714-10.228a1.042,1.042,0,0,0,.521-.9V102.183a1.042,1.042,0,0,0-.521-.9L131.277,91.052a1.043,1.043,0,0,0-1.042,0L112.521,101.28A1.042,1.042,0,0,0,112,102.183Zm2.084.6,16.672-9.626,16.672,9.626v19.252l-16.672,9.626-16.672-9.626Z" transform="translate(-81.757 -63.416)" fill="#585976"/>
    <path id="Path_1609" data-name="Path 1609" d="M151.3,161.957h-.006a1.042,1.042,0,0,0-1.042,1.036l-.088,16.158-4.127-13.334a1.042,1.042,0,0,0-2.037.308V182.8a1.042,1.042,0,1,0,2.084,0v-9.782l4.09,13.215a1.042,1.042,0,0,0,2.038-.3L152.336,163A1.042,1.042,0,0,0,151.3,161.957Z" transform="translate(-109.589 -125.206)" fill="#585976"/>
    <path id="Path_1610" data-name="Path 1610" d="M306.555,162.068l2.578,1.388v18.775a1.042,1.042,0,1,0,2.084,0V164.578l1.59.856a1.042,1.042,0,0,0,.988-1.835l-3.019-1.626a1.035,1.035,0,0,0-.224-.12l-3.009-1.621a1.042,1.042,0,1,0-.988,1.835Z" transform="translate(-250.495 -123.598)" fill="#585976"/>
    <path id="Path_1611" data-name="Path 1611" d="M231.294,147.41a1.042,1.042,0,1,0,0-2.084h-5.21V133.665l2.38-1.464,3.342,1.8a1.042,1.042,0,1,0,.988-1.835l-3.87-2.084a1.042,1.042,0,0,0-1.04.03L224.5,132.2a1.042,1.042,0,0,0-.5.888v27.092a1.042,1.042,0,0,0,2.084,0V147.41Z" transform="translate(-179.169 -97.374)" fill="#585976"/>
  </g>
</svg>
