<svg xmlns="http://www.w3.org/2000/svg" width="59.085" height="59.999" viewBox="0 0 59.085 59.999">
  <g id="nft-op-5" transform="translate(-40 -38.299)" style="isolation: isolate">
    <path id="Path_1612" data-name="Path 1612" d="M42.149,46v1.074a1.074,1.074,0,0,0,2.149,0V46h1.074a1.074,1.074,0,0,0,0-2.149H44.3V42.775a1.074,1.074,0,1,0-2.149,0V43.85H41.074a1.074,1.074,0,1,0,0,2.149Z" transform="translate(0 -2.488)" fill="#585976"/>
    <path id="Path_1613" data-name="Path 1613" d="M87.085,40.6a1.149,1.149,0,1,0-1.148-1.148A1.149,1.149,0,0,0,87.085,40.6Z" transform="translate(-33.6)" fill="#585976"/>
    <path id="Path_1614" data-name="Path 1614" d="M243.085,246.3a1.149,1.149,0,1,0,1.149,1.149A1.148,1.148,0,0,0,243.085,246.3Z" transform="translate(-147.703 -152.138)" fill="#585976"/>
    <path id="Path_1615" data-name="Path 1615" d="M111.04,97.7a15.04,15.04,0,1,0,15.04,15.04A15.057,15.057,0,0,0,111.04,97.7Zm0,27.931a12.891,12.891,0,1,1,12.891-12.891A12.906,12.906,0,0,1,111.04,125.632Z" transform="translate(-40.96 -43.448)" fill="#585976"/>
    <path id="Path_1616" data-name="Path 1616" d="M148.3,139.85a1.074,1.074,0,1,0,0-2.149h-3.223A1.074,1.074,0,0,0,144,138.775v6.446a1.074,1.074,0,0,0,2.149,0v-2.149H148.3a1.074,1.074,0,1,0,0-2.149h-2.149V139.85Z" transform="translate(-76.069 -72.706)" fill="#585976"/>
    <path id="Path_1617" data-name="Path 1617" d="M121.371,137.7a1.074,1.074,0,0,0-1.074,1.074v1.7l-2.463-2.463a1.074,1.074,0,0,0-1.834.76v6.446a1.074,1.074,0,0,0,2.149,0v-3.852l2.149,2.149v1.7a1.074,1.074,0,0,0,2.149,0v-6.446A1.074,1.074,0,0,0,121.371,137.7Z" transform="translate(-55.589 -72.705)" fill="#585976"/>
    <path id="Path_1618" data-name="Path 1618" d="M169.074,137.7a1.074,1.074,0,1,0,0,2.149h1.074v5.371a1.074,1.074,0,1,0,2.149,0V139.85h1.074a1.074,1.074,0,1,0,0-2.149Z" transform="translate(-93.623 -72.706)" fill="#585976"/>
    <path id="Path_1619" data-name="Path 1619" d="M100.618,65.9a1.074,1.074,0,0,0-.767-.341,1.13,1.13,0,0,0-.778.315L95.9,69.049l-.76-.76,3.106-3.106a1.074,1.074,0,0,0-.075-1.588A25.771,25.771,0,0,0,61.894,99.875a1.074,1.074,0,0,0,1.588.075l3.643-3.643.76.76-3.709,3.709a1.073,1.073,0,0,0,.026,1.545A25.765,25.765,0,0,0,100.618,65.9ZM81.783,107.118A23.524,23.524,0,0,1,66.5,101.49l3.664-3.664a1.074,1.074,0,0,0,0-1.519l-2.279-2.279a1.074,1.074,0,0,0-1.519,0l-3.545,3.545A23.622,23.622,0,0,1,95.873,64.521L92.864,67.53a1.074,1.074,0,0,0,0,1.519l2.279,2.279a1.074,1.074,0,0,0,1.519,0L99.789,68.2a23.616,23.616,0,0,1-18.007,38.918Z" transform="translate(-11.703 -14.191)" fill="#585976"/>
    <path id="Path_1620" data-name="Path 1620" d="M73.005,45.7a29.005,29.005,0,1,0,29.005,29.005A29.038,29.038,0,0,0,73.005,45.7Zm0,55.862A26.857,26.857,0,1,1,99.862,74.706,26.887,26.887,0,0,1,73.005,101.563Z" transform="translate(-2.926 -5.414)" fill="#585976"/>
  </g>
</svg>
