<svg xmlns="http://www.w3.org/2000/svg" width="62" height="62" viewBox="0 0 62 62">
  <g id="nft-op-3" transform="translate(-1 -1)" style="isolation: isolate">
    <path id="Path_1586" data-name="Path 1586" d="M24,32.51l-3.15-5A.976.976,0,0,0,19,28v9h2V31.49l3.15,5A.976.976,0,0,0,26,36V27H24Z" fill="#585976"/>
    <path id="Path_1587" data-name="Path 1587" d="M28,28v9h2V33h4V31H30V29h4V27H29A1,1,0,0,0,28,28Z" fill="#585976"/>
    <path id="Path_1588" data-name="Path 1588" d="M36,29h3v8h2V29h3V27H36Z" fill="#585976"/>
    <path id="Path_1589" data-name="Path 1589" d="M32,58V57h3a1,1,0,0,0,1-1V52a1,1,0,0,0-1-1H32a1,1,0,0,0-1,1v4a16.676,16.676,0,0,1-2-.16V51H27v4.47c-.68-.14-1.34-.31-2-.51V52a1,1,0,0,0-1-1H21v2h2v1.24A24,24,0,0,1,23,9.76V11H21v2h3a1,1,0,0,0,1-1V9c.66-.2,1.32-.37,2-.51V13h2V8.19c.66-.08,1.33-.14,2-.16v4a1,1,0,0,0,1,1h3a1,1,0,0,0,1-1V8.34c.68.11,1.34.25,2,.42V13h2V9.38a23.91,23.91,0,0,1,9,5.7V21h2V17.36A23.89,23.89,0,0,1,56,32h2A26,26,0,1,0,32,58Zm1-5h1v2H33ZM33,9h1v2H33Z" fill="#585976"/>
    <path id="Path_1590" data-name="Path 1590" d="M32,63A31,31,0,1,0,1,32,31,31,0,0,0,32,63ZM32,3A29,29,0,1,1,3,32,29,29,0,0,1,32,3Z" fill="#585976"/>
    <path id="Path_1591" data-name="Path 1591" d="M50,23H14a3,3,0,0,0-3,3V38a3,3,0,0,0,3,3H50a3,3,0,0,0,3-3V26a3,3,0,0,0-3-3Zm1,15a1,1,0,0,1-1,1H14a1,1,0,0,1-1-1V26a1,1,0,0,1,1-1H50a1,1,0,0,1,1,1Z" fill="#585976"/>
    <path id="Path_1592" data-name="Path 1592" d="M27,43h2v6H27Z" fill="#585976"/>
    <path id="Path_1593" data-name="Path 1593" d="M35,43H32a1,1,0,0,0-1,1v4a1,1,0,0,0,1,1h3a1,1,0,0,0,1-1V44A1,1,0,0,0,35,43Zm-1,4H33V45h1Z" fill="#585976"/>
    <path id="Path_1594" data-name="Path 1594" d="M16,43h2v6H16Z" fill="#585976"/>
    <path id="Path_1595" data-name="Path 1595" d="M21,43a1,1,0,0,0-1,1v4a1,1,0,0,0,1,1h3a1,1,0,0,0,1-1V44a1,1,0,0,0-1-1Zm2,4H22V45h1Z" fill="#585976"/>
    <path id="Path_1596" data-name="Path 1596" d="M38,43h2v6H38Z" fill="#585976"/>
    <path id="Path_1597" data-name="Path 1597" d="M49,43h2v6H49Z" fill="#585976"/>
    <path id="Path_1598" data-name="Path 1598" d="M46,43H43a1,1,0,0,0-1,1v4a1,1,0,0,0,1,1h3a1,1,0,0,0,1-1V44A1,1,0,0,0,46,43Zm-1,4H44V45h1Z" fill="#585976"/>
    <path id="Path_1599" data-name="Path 1599" d="M27,15h2v6H27Z" fill="#585976"/>
    <path id="Path_1600" data-name="Path 1600" d="M35,21a1,1,0,0,0,1-1V16a1,1,0,0,0-1-1H32a1,1,0,0,0-1,1v4a1,1,0,0,0,1,1Zm-2-4h1v2H33Z" fill="#585976"/>
    <path id="Path_1601" data-name="Path 1601" d="M16,15h2v6H16Z" fill="#585976"/>
    <path id="Path_1602" data-name="Path 1602" d="M24,21a1,1,0,0,0,1-1V16a1,1,0,0,0-1-1H21a1,1,0,0,0-1,1v4a1,1,0,0,0,1,1Zm-2-4h1v2H22Z" fill="#585976"/>
    <path id="Path_1603" data-name="Path 1603" d="M38,15h2v6H38Z" fill="#585976"/>
    <path id="Path_1604" data-name="Path 1604" d="M46,21a1,1,0,0,0,1-1V16a1,1,0,0,0-1-1H43a1,1,0,0,0-1,1v4a1,1,0,0,0,1,1Zm-2-4h1v2H44Z" fill="#585976"/>
    <path id="Path_1605" data-name="Path 1605" d="M38,51h2v6H38Z" fill="#585976"/>
    <path id="Path_1606" data-name="Path 1606" d="M42,52v4h2V53h2V51H43A1,1,0,0,0,42,52Z" fill="#585976"/>
  </g>
</svg>
