<svg xmlns="http://www.w3.org/2000/svg" width="24.403" height="23" viewBox="0 0 24.403 23">
  <g id="nft" transform="translate(-31.172 -38)">
    <path id="Path_1653" data-name="Path 1653" d="M105.257,54.433V41.7a.411.411,0,0,0-.12-.29l-3.286-3.286a.411.411,0,0,0-.29-.12H90.06a1.234,1.234,0,0,0-1.232,1.232v19.3a1.234,1.234,0,0,0,1.232,1.232h6.352A2.1,2.1,0,0,0,98.317,61h6.9a2.1,2.1,0,0,0,2.1-2.1v-2.38A2.1,2.1,0,0,0,105.257,54.433ZM101.971,39.4l1.884,1.884h-1.884ZM90.06,58.947a.411.411,0,0,1-.411-.411v-19.3a.411.411,0,0,1,.411-.411h11.09V41.7a.411.411,0,0,0,.411.411h2.875V54.429H98.317a2.1,2.1,0,0,0-2.1,2.1V58.9c0,.014,0,.028,0,.042Zm16.429-.042a1.276,1.276,0,0,1-1.274,1.274h-6.9A1.276,1.276,0,0,1,97.042,58.9v-2.38a1.276,1.276,0,0,1,1.274-1.274h6.9a1.276,1.276,0,0,1,1.274,1.274Z" transform="translate(-51.735)"/>
    <path id="Path_1654" data-name="Path 1654" d="M206.471,214.821a.411.411,0,0,0,0-.821h-1.232a.411.411,0,0,0-.411.411v2.464a.411.411,0,1,0,.821,0v-.821h.821a.411.411,0,0,0,0-.821h-.821v-.411Z" transform="translate(-155.824 -157.928)"/>
    <path id="Path_1655" data-name="Path 1655" d="M178.882,214a.411.411,0,0,0-.411.411v.651l-.942-.942a.411.411,0,0,0-.7.29v2.464a.411.411,0,1,0,.821,0V215.4l.821.821v.651a.411.411,0,0,0,.821,0V214.41A.411.411,0,0,0,178.882,214Z" transform="translate(-130.7 -157.928)"/>
    <path id="Path_1656" data-name="Path 1656" d="M230.882,214h-1.643a.411.411,0,0,0,0,.821h.411v2.054a.411.411,0,0,0,.821,0v-2.054h.411a.411.411,0,1,0,0-.821Z" transform="translate(-177.36 -157.928)"/>
    <path id="Path_1657" data-name="Path 1657" d="M33.035,164.465a.411.411,0,0,0-.581,0l-.29.29-.29-.29a.411.411,0,1,0-.581.581l.29.29-.29.29a.411.411,0,1,0,.581.581l.29-.29.29.29a.411.411,0,0,0,.581-.581l-.29-.29.29-.29A.41.41,0,0,0,33.035,164.465Z" transform="translate(0 -113.371)"/>
    <path id="Path_1658" data-name="Path 1658" d="M34.684,164.571a.774.774,0,0,0-1.1,0l-.548.548-.548-.548a.774.774,0,0,0-1.1,1.1l.548.548-.548.548a.774.774,0,1,0,1.1,1.1l.548-.548.548.548a.774.774,0,0,0,1.1-1.1l-.548-.548.548-.548A.774.774,0,0,0,34.684,164.571Z" transform="translate(12.661 -118.13)" fill="rgba(0,0,0,0)" stroke="#e8cd00" stroke-width="1"/>
    <circle id="Ellipse_104" data-name="Ellipse 104" cx="0.411" cy="0.411" r="0.411" transform="translate(34.628 50.322)"/>
    <ellipse id="Ellipse_106" data-name="Ellipse 106" cx="0.55" cy="0.55" rx="0.55" ry="0.55" transform="translate(41.135 43.821)"/>
    <circle id="Ellipse_105" data-name="Ellipse 105" cx="0.411" cy="0.411" r="0.411" transform="translate(33.396 45.804)"/>
  </g>
</svg>
