<svg xmlns="http://www.w3.org/2000/svg" width="39.62" height="39.62" viewBox="0 0 39.62 39.62">
  <path id="pinterest" d="M33.817,5.8A19.81,19.81,0,0,0,5.8,33.818,19.81,19.81,0,0,0,33.817,5.8ZM19.81,37.3a17.465,17.465,0,0,1-4.275-.529l1.935-8.1a5.713,5.713,0,0,0,4.692,2.665,8.03,8.03,0,0,0,6.23-3.111A11.362,11.362,0,0,0,30.866,21,11.056,11.056,0,1,0,8.754,21a8.636,8.636,0,0,0,2.507,6.1,1.161,1.161,0,1,0,1.652-1.631A6.328,6.328,0,0,1,11.075,21a8.734,8.734,0,1,1,17.469,0c0,4.419-2.863,8.014-6.382,8.014-2,0-3.629-2.063-3.67-4.618l1.242-5.2a1.161,1.161,0,0,0-1.129-1.431,3.817,3.817,0,0,0-3.647,3.958,4.157,4.157,0,0,0,1.107,2.84l-2.744,11.48A17.487,17.487,0,1,1,19.81,37.3Z" fill="#585976"/>
</svg>
