<svg xmlns="http://www.w3.org/2000/svg" width="39.62" height="39.62" viewBox="0 0 39.62 39.62">
  <g id="twitter" transform="translate(0)" style="isolation: isolate">
    <g id="Group_1630" data-name="Group 1630" transform="translate(0)">
      <g id="Group_1629" data-name="Group 1629">
        <path id="Path_1849" data-name="Path 1849" d="M168.788,163.392a7.482,7.482,0,0,1-2.35.9,3.719,3.719,0,0,0-2.7-1.153,3.665,3.665,0,0,0-3.692,3.6,3.6,3.6,0,0,0,.1.828,10.544,10.544,0,0,1-7.618-3.8,3.556,3.556,0,0,0,1.144,4.826,3.728,3.728,0,0,1-1.675-.459v.045a3.656,3.656,0,0,0,2.962,3.6,3.774,3.774,0,0,1-1.666.063,3.692,3.692,0,0,0,3.449,2.521,7.483,7.483,0,0,1-4.565,1.576,7.661,7.661,0,0,1-.9-.054,10.58,10.58,0,0,0,5.664,1.639,10.355,10.355,0,0,0,10.543-10.164q0-.091,0-.182v-.468a7.483,7.483,0,0,0,1.8-1.882,7.472,7.472,0,0,1-2.125.576A3.665,3.665,0,0,0,168.788,163.392Z" transform="translate(-139.568 -150.516)" fill="#585976"/>
        <path id="Path_1850" data-name="Path 1850" d="M19.81,0A19.81,19.81,0,1,0,39.62,19.81,19.81,19.81,0,0,0,19.81,0Zm0,37.819A18.009,18.009,0,1,1,37.819,19.81,18.009,18.009,0,0,1,19.81,37.819Z" fill="#585976"/>
      </g>
    </g>
  </g>
</svg>
