<svg xmlns="http://www.w3.org/2000/svg" width="18.591" height="17.197" viewBox="0 0 18.591 17.197"><g transform="translate(0 -19.098)"><path d="M16.89,23.045h-.231V20.8a1.7,1.7,0,0,0-1.7-1.7H2.626A2.629,2.629,0,0,0,.014,21.466C-.006,21.56,0,20.724,0,33.67a2.628,2.628,0,0,0,2.625,2.625H16.89a1.7,1.7,0,0,0,1.7-1.7v-9.85a1.7,1.7,0,0,0-1.7-1.7ZM2.626,20.266H14.959a.533.533,0,0,1,.532.532v2.246H2.626a1.391,1.391,0,1,1,0-2.779ZM16.89,35.127H2.626A1.459,1.459,0,0,1,1.169,33.67v-9.9a2.61,2.61,0,0,0,1.457.443H16.89a.533.533,0,0,1,.532.532v2.367H13.028a2.714,2.714,0,1,0,0,5.428h4.395v2.054A.533.533,0,0,1,16.89,35.127Zm.532-3.754H13.028a1.546,1.546,0,1,1,0-3.093h4.395Z" transform="translate(0)" fill="#fff"/><circle cx="0.846" cy="0.846" r="0.846" transform="translate(12.397 28.98)" fill="#fff"/></g></svg>