<svg xmlns="http://www.w3.org/2000/svg" width="1002.811" height="719.843" viewBox="0 0 1002.811 719.843">
  <g id="gallery-illus" transform="translate(-960 -148.859)">
    <g id="Group_909" data-name="Group 909" transform="translate(973.297 161.375)" opacity="0.517">
      <path id="Path_1546" data-name="Path 1546" d="M345.728,0c190.94,0,635.991,128.926,277.78,249.565s-86.84,441.891-277.78,441.891S0,536.668,0,345.728,154.788,0,345.728,0Z" fill="#fff4a3"/>
      <path id="Path_1547" data-name="Path 1547" d="M338.776-31.971c37.262-13.279-21.118,55.549-97.087,213.58s87.2,280.064-127.4,287.464S21.3,465.794-.776,306.861C-.776,136.455,91.441,55.414,338.776-31.971Z" transform="translate(445.283 236.565)" fill="#fff7c3"/>
    </g>
    <g id="Group_908" data-name="Group 908" transform="translate(960 225.012)">
      <path id="Path_1414" data-name="Path 1414" d="M765.935,260.813C715.8,213.819,657.066,201.7,641.54,199.219c10.454-28.2,26.614-70.142,30.639-76.353a59.484,59.484,0,0,1,7.847-.449c11.406,0,35.814,2.374,71.127,18.264,50.993,22.948,64.644,48.764,67.325,55.078Z" transform="translate(-263.567 -102.184)" fill="#fff"/>
      <path id="Path_1415" data-name="Path 1415" d="M681.523,126.609c11.158,0,35.072,2.337,69.857,17.99,46.135,20.761,61.043,43.969,64.97,51.819L767.1,257.391c-29.637-26.982-61.58-41.888-83.672-49.733a233.377,233.377,0,0,0-36.181-9.8c11.553-31.048,24.127-63.011,28.347-71,1.371-.127,3.356-.249,5.928-.249m0-6.19a52.124,52.124,0,0,0-9.393.653c-3.624,1.209-33.328,81.769-33.328,81.769s70.505,7.192,128.927,63.624L823.5,197.42s-9.3-31.344-69.575-58.467c-35.319-15.893-59.936-18.535-72.4-18.535Z" transform="translate(-265.065 -103.278)" fill="#fff4a3"/>
      <path id="Path_1416" data-name="Path 1416" d="M757.809,224.992a.765.765,0,0,1-.523-.2c-42.039-38.595-110.906-45.947-111.6-46.016a.773.773,0,0,1-.692-.848.8.8,0,0,1,.846-.693c.7.071,70.075,7.48,112.489,46.419a.772.772,0,0,1-.523,1.343Z" transform="translate(-261.677 -72.181)"/>
      <path id="Path_1417" data-name="Path 1417" d="M684.18,193.333l25.863-50.289,26.581,52.444Z" transform="translate(-240.226 -90.893)" fill="#fff4a3"/>
      <path id="Path_1418" data-name="Path 1418" d="M740.148,196.071l-.031,0-52.446-2.156a.774.774,0,0,1-.656-1.126L712.878,142.5a.771.771,0,0,1,.689-.419h0a.772.772,0,0,1,.687.424l26.583,52.444a.775.775,0,0,1-.692,1.123Zm-51.2-3.653,49.917,2.052-25.3-49.916Z" transform="translate(-238.721 -91.421)" fill="#2a1e17"/>
      <path id="Path_1419" data-name="Path 1419" d="M798.062,183.917a.775.775,0,0,1-.593-.277c-47.548-56.507-124.752-64.082-125.526-64.152a.774.774,0,0,1,.139-1.541c.78.07,78.6,7.692,126.572,64.7a.775.775,0,0,1-.593,1.272Z" transform="translate(-247.309 -104.633)"/>
      <path id="Path_1420" data-name="Path 1420" d="M699.907,277.6c-4.266-3.138-7.07-5.243-7.07-5.243,1.184-1.578,19.89-21.506,30.72-37.564C723.557,234.8,701.654,278.889,699.907,277.6Z" transform="translate(-235.487 -40.668)" fill="#2a1e17"/>
      <path id="Path_1421" data-name="Path 1421" d="M539.816,196.7a.722.722,0,0,1-.161-.017.76.76,0,0,1-.594-.893c.379-1.889,4.213-2.86,10.024-4.121a26.842,26.842,0,0,0,4.008-1.029c1.065-.608,2.163-1.236-.8-8.526-2.864-7.05-10.96-11.316-16.816-10.861-1.473.113-2.649.285-3.595.422-2.965.436-4.325.634-6.156-2.417a.774.774,0,0,1,1.328-.8c1.3,2.166,1.736,2.1,4.6,1.682.969-.141,2.176-.317,3.7-.433,6.329-.5,15.248,4.144,18.366,11.822,2.953,7.265,2.394,9.159.132,10.453a21.514,21.514,0,0,1-4.447,1.2c-2.347.511-8.582,1.865-8.836,2.914A.794.794,0,0,1,539.816,196.7Z" transform="translate(-327.02 -77.182)" fill="#2a1e17"/>
      <path id="Path_1422" data-name="Path 1422" d="M557.524,422.006" transform="translate(-309.556 61.807)" fill="#eaecec"/>
      <path id="Path_1423" data-name="Path 1423" d="M635.567,415.277l-5.392-9.114-19.131,31.886,5.022,3.863Z" transform="translate(-280.26 53.135)" fill="#f9865f"/>
      <path id="Path_1424" data-name="Path 1424" d="M547.175,369.448s-9.913-16.118-5.66-24.015l31.626,3.384Z" transform="translate(-318.9 19.892)" fill="#f9865f"/>
      <path id="Path_1425" data-name="Path 1425" d="M546.281,370.375l1.894,4.353-5.841,22.785a7.8,7.8,0,0,0,2.459,7.841h0L573.714,362.6a9.944,9.944,0,0,0-1.468-12.856l-6.463-6Z" transform="translate(-318.005 18.966)"/>
      <path id="Path_1426" data-name="Path 1426" d="M540.025,195.844c9.057-.215,20.534-.789,18.239-7.675s-10.9-24.1-30.414-18.937c0,0-6.886,5.738,1.721,16.068S540.025,195.844,540.025,195.844Z" transform="translate(-327.227 -77.079)" fill="#2a1e33"/>
      <path id="Path_1427" data-name="Path 1427" d="M583.664,392.861s-15.46-45.645-2.378-65.687c10.8-16.54,46.07,10.364,50.9,13.988l25.238-45.581s-5.826-8.169-20.13-16.167-73.4-31.949-101.17,11.867c-10.264,16.193-10.42,85.682,9.264,112.314Z" transform="translate(-325.024 -23.771)" fill="#7595ec"/>
      <path id="Path_1428" data-name="Path 1428" d="M567.409,374.035a.774.774,0,0,1-.733-.526c-.636-1.877-15.429-46.233-2.293-66.357a12.076,12.076,0,0,1,8.347-5.428c12.729-2.239,32.679,10.96,43.418,19.031l.251.189a.774.774,0,1,1-.928,1.238l-.252-.19c-18.2-13.674-33.188-20.331-42.221-18.744A10.572,10.572,0,0,0,565.679,308c-12.73,19.5,2.309,64.563,2.464,65.017a.775.775,0,0,1-.486.981A.813.813,0,0,1,567.409,374.035Z" transform="translate(-308.768 -4.172)" fill="#2a1e17"/>
      <path id="Path_1429" data-name="Path 1429" d="M632.474,285c-11.479,12.084-45.51,70.945-53.164,99.078-10.236,37.631-6.386,68.84,49.875,129.951l27.2-39.612S637.26,445.38,640.83,418.009c5.164-39.6,33.343-77.99,47.6-102.343Z" transform="translate(-300.07 -13.189)" fill="#7595ec"/>
      <path id="Path_1430" data-name="Path 1430" d="M614.883,288.305l45.24,35.505,13.519-20.555Z" transform="translate(-278.159 -11.379)" fill="#2a1e17"/>
      <path id="Path_1431" data-name="Path 1431" d="M782.8,264.18q10.582,2.268,16.125,8.062c3.7,3.864,2.015,5.88.672,7.055s-6.55-.167-11.086-4.2S782.8,264.18,782.8,264.18Z" transform="translate(-186.242 -24.585)" fill="#ff8a66"/>
      <path id="Path_1432" data-name="Path 1432" d="M692.837,272.362c1.184-1.578,19.89-21.506,30.72-37.564,0,0,32.733,36.678,36.283,37.862,1.32.439,9.345.334,19.311.232,16.842-.175,39.229-.343,44.184,2.134,7.887,3.944,12.621,5.916,14.592,11.437s2.75,9.128-1.971,9.465c-5.521.395-9.071-6.7-9.071-6.7s-4.512,2.725-16.17,7.1c0,0-41.945,16.285-69.984,8.41C733.075,302.581,692.837,272.362,692.837,272.362Z" transform="translate(-235.487 -40.668)" fill="#f9865f"/>
      <path id="Path_1433" data-name="Path 1433" d="M530.111,164.671c-3.6,1.371-5.787,3.008-3.7,6.48s3.01,2.083,9.027,1.62,14.583,3.935,17.591,11.342,2.084,8.563.464,9.49-13.195,2.313-13.657,4.628,4.69,9.147,15.338,8.684l2.545-.463s22.392,21.869,25.633,25.109,27.054,19.375,40.173,22.654c9.971,2.494,30.172-.723,42.312-3.09,5.9-1.15,9.891-2.1,9.891-2.1s-9.111-16.41-10.962-41.639c0,0-21.795,3.5-36.277,6.679,0,0-33.8-18.841-50.23-27.174,0,0-14.35-17.592-21.063-19.907S534.971,162.819,530.111,164.671Z" transform="translate(-327.033 -79.469)" fill="#f9865f"/>
      <path id="Path_1434" data-name="Path 1434" d="M618.6,234.858c5.9-1.15,9.891-2.1,9.891-2.1s-11.021-13.889-12.871-39.12c0,0-4.982,5.369-3.434,19.658C614.133,231.254,618.6,234.858,618.6,234.858Z" transform="translate(-279.799 -63.199)" fill="#2a1e17"/>
      <path id="Path_1435" data-name="Path 1435" d="M628.111,193.384s.3,30.83,8.565,43.692l2.963-1.185s-38.926,45.537-51.514,75.291c-2.061,4.87,80.817,57.809,93.061,57.066,0,0,40.379-61.629,54.19-79.9l14.843,11.5S779.331,270.371,780.9,259.9c0,0-28.119-34.216-51.124-44.235S686.21,188.484,661.5,188.95C640.107,189.353,628.111,193.384,628.111,193.384Z" transform="translate(-292.826 -65.77)" fill="#e8cd00"/>
      <path id="Path_1436" data-name="Path 1436" d="M698.115,266.965l-14.842-11.5,2.364-6.442Z" transform="translate(-240.722 -32.883)" fill="#2a1e17"/>
      <path id="Path_1437" data-name="Path 1437" d="M732.551,191.317c-2.6,8.084-10.1,31.466-18.476,34.352s-17.086-.738-17.086-.738l-8.917,4.563c-.995,2.985-8.033,5.555-17.12,5.9-6.73.26-10.827-8.381-8.835-14.637.914-2.872,4.331-17.032,4.331-17.032s7.215-26.556,13.855-32.042,12.879-10.915,30.6-3.752C738.035,178.905,732.551,191.317,732.551,191.317Z" transform="translate(-252.58 -79.146)" fill="#f9865f"/>
      <path id="Path_1438" data-name="Path 1438" d="M677.347,200.3c-1.191,4.964-6.354,14.89-9.728,13.1s-4.566-6.354-2.183-15.089,4.367-28.588,11.116-32.161,9.729.594,9.729.594-2.977-14.491,5.758-16.477c0,0,2.977-1.391,1.786,8.535,0,0,3.376-9.131,14.295-7.941s14.691,16.478,14.691,16.478a5.5,5.5,0,0,1,5.758-4.169c4.964,0,12.508,7.345,10.72,15.485,0,0,12.7-3.975,19.457,6.155s5.956,21.243-10.324,25.609c-17.021,4.568-16.874-15.287-19.455-17.868s-5.362-5.558-14.89-1.985-19.455-6.948-19.455-6.948-1.589,12.706-3.177,13.9-4.764,2.779-3.971-3.177,1.787-5.36,1.192-6.948-3.284-6.6-8.935-2.185C673.377,190.173,677.347,200.3,677.347,200.3Z" transform="translate(-251.17 -86.975)" fill="#2a1e33"/>
      <path id="Path_1439" data-name="Path 1439" d="M676.348,192.037a.766.766,0,0,1-.5-.181c-3.813-3.2-6.951-9.151-3.248-15.378,2.36-3.969,5.693-5.544,8.025-5.7a4.211,4.211,0,0,1,3.7,1.371c2.047,2.606,2.369,6.6.86,10.683a.773.773,0,1,1-1.45-.537c1.318-3.574,1.085-7.011-.628-9.19a2.748,2.748,0,0,0-2.381-.783c-1.94.125-4.744,1.49-6.8,4.941-3.206,5.394-.433,10.592,2.914,13.4a.774.774,0,0,1-.5,1.366Z" transform="translate(-247.469 -75.718)" fill="#2a1e33"/>
      <path id="Path_1440" data-name="Path 1440" d="M615.772,438.688l1.894,4.353-5.841,22.785a7.8,7.8,0,0,0,2.459,7.841h0l28.922-42.754a9.943,9.943,0,0,0-1.47-12.856l-6.462-6Z" transform="translate(-279.967 56.359)"/>
      <path id="Path_1441" data-name="Path 1441" d="M681.87,165.161a.777.777,0,0,1-.74-.546c-.02-.068-2.183-6.83-8.326-8.585a.774.774,0,0,1,.427-1.489c6.962,1.99,9.283,9.308,9.377,9.619a.776.776,0,0,1-.738,1Z" transform="translate(-246.76 -84.616)" fill="#2a1e33"/>
      <path id="Path_1442" data-name="Path 1442" d="M587.8,307.176a.762.762,0,0,1-.45-.145.773.773,0,0,1-.178-1.079L667.3,194.025a.774.774,0,1,1,1.258.9L588.428,306.852A.771.771,0,0,1,587.8,307.176Z" transform="translate(-293.408 -63.165)" fill="#2a1e17"/>
      <path id="Path_1443" data-name="Path 1443" d="M673.9,221.39c-1.06,0-2.154-.04-3.285-.13-6.177-.487-9.02-4.067-10.317-6.982-2.462-5.541-1.24-12.713.684-15.214a.774.774,0,1,1,1.227.942c-1.654,2.152-2.7,8.692-.5,13.643,1.637,3.683,4.673,5.725,9.023,6.067,12.823,1.006,21.19-4.6,21.274-4.653a.774.774,0,0,1,.876,1.277C692.561,216.565,685.393,221.39,673.9,221.39Z" transform="translate(-254.052 -60.394)" fill="#2a1e17"/>
      <path id="Path_1444" data-name="Path 1444" d="M556.887,183.388a.773.773,0,0,1-.734-.529c-1.383-4.149-10.391-16.1-10.484-16.218a.774.774,0,1,1,1.236-.933c.376.5,9.252,12.274,10.716,16.662a.774.774,0,0,1-.49.978A.742.742,0,0,1,556.887,183.388Z" transform="translate(-316.13 -78.657)" fill="#2a1e17"/>
      <path id="Path_1445" data-name="Path 1445" d="M774.65,276.938c-4.659,0-7.072-1.916-7.232-2.049a.773.773,0,0,1,.981-1.195c.254.2,5.951,4.591,17.45-1.564,1.422-.761,1.992-1.944,1.521-3.163-.574-1.49-2.575-2.646-5.287-1.964-5.741,1.436-12.379-.625-12.658-.713a.773.773,0,1,1,.466-1.475c.063.019,6.513,2.013,11.817.685,3.587-.891,6.287.786,7.107,2.909.754,1.959-.124,3.955-2.234,5.083C781.657,276.129,777.679,276.938,774.65,276.938Z" transform="translate(-194.817 -24.257)" fill="#2a1e17"/>
      <path id="Path_1446" data-name="Path 1446" d="M790.143,276.6h-.031a.776.776,0,0,1-.743-.8c.122-3.086-3.948-8.543-5.526-10.385a.774.774,0,0,1,1.176-1.006c.248.288,6.066,7.127,5.9,11.451A.775.775,0,0,1,790.143,276.6Z" transform="translate(-185.773 -24.611)" fill="#2a1e17"/>
      <path id="Path_1447" data-name="Path 1447" d="M728.6,267.87a.786.786,0,0,1-.466-.155.774.774,0,0,1-.152-1.082c.224-.3,5.6-7.361,12.656-7.865a.774.774,0,1,1,.111,1.544c-6.347.453-11.48,7.181-11.531,7.249A.774.774,0,0,1,728.6,267.87Z" transform="translate(-216.337 -27.549)" fill="#2a1e17"/>
      <path id="Path_1448" data-name="Path 1448" d="M583.942,208.8a.774.774,0,0,1-.737-1.01c.131-.412,3.359-10.117,13.629-11.952a.773.773,0,0,1,.272,1.523c-9.335,1.67-12.4,10.812-12.429,10.9A.776.776,0,0,1,583.942,208.8Z" transform="translate(-295.519 -62.002)" fill="#2a1e17"/>
      <path id="Path_1449" data-name="Path 1449" d="M577.959,430.89a.774.774,0,0,1-.74-.545c-13.2-42.536,25.485-108.757,25.877-109.42L614.921,298.3a.774.774,0,1,1,1.373.716l-11.845,22.661c-.409.693-38.75,66.329-25.752,108.209a.773.773,0,0,1-.509.969A.751.751,0,0,1,577.959,430.89Z" transform="translate(-300.278 -6.135)" fill="#2a1e17"/>
      <path id="Path_1450" data-name="Path 1450" d="M623.692,412.863a.759.759,0,0,1-.39-.107.773.773,0,0,1-.279-1.057l38.429-65.877c.535-.778,50.426-73.174,55.5-83.314L734.737,229.6a.773.773,0,0,1,1.36.737l-17.775,32.884c-5.108,10.214-53.507,80.446-55.564,83.43l-38.4,65.826A.773.773,0,0,1,623.692,412.863Z" transform="translate(-273.76 -43.735)" fill="#2a1e17"/>
      <path id="Path_1451" data-name="Path 1451" d="M679.872,324.339a.631.631,0,0,1-.093-.006c-20.234-2.394-86.172-50.327-88.97-52.365a.775.775,0,0,1,.913-1.252c.682.5,68.405,49.733,88.24,52.082a.773.773,0,0,1-.09,1.541Z" transform="translate(-291.51 -21.088)" fill="#2a1e17"/>
      <path id="Path_1452" data-name="Path 1452" d="M622.593,236.946a.775.775,0,0,1-.647-.348c-8.458-12.867-8.5-43.228-8.494-44.514a.775.775,0,0,1,.774-.772h0a.772.772,0,0,1,.772.775c0,.309.037,31.183,8.24,43.66a.774.774,0,0,1-.221,1.072A.763.763,0,0,1,622.593,236.946Z" transform="translate(-278.941 -64.472)" fill="#2a1e17"/>
      <path id="Path_1453" data-name="Path 1453" d="M691.719,272.6a.773.773,0,0,1-.531-1.334c.281-.269,28.367-27.033,30.445-39.519a.774.774,0,0,1,1.527.254c-2.165,12.995-29.736,39.274-30.909,40.385A.77.77,0,0,1,691.719,272.6Z" transform="translate(-236.522 -42.695)" fill="#2a1e17"/>
      <path id="Path_1454" data-name="Path 1454" d="M706.911,256.121" transform="translate(-227.784 -28.997)" fill="#2a1e17"/>
      <path id="Path_1455" data-name="Path 1455" d="M789.613,315.892" transform="translate(-182.514 3.721)" fill="#f9865f"/>
      <circle id="Ellipse_84" data-name="Ellipse 84" cx="4.058" cy="4.058" r="4.058" transform="translate(268.958 341.563)" fill="#2a1e17"/>
      <path id="Path_1456" data-name="Path 1456" d="M820.82,395.591a.806.806,0,0,1-.2-.026.777.777,0,0,1-.566-.638L817.812,379.4A.773.773,0,0,1,819,378.65l13.24,8.8a.772.772,0,0,1-.263,1.4l-6.655,1.453-3.9,4.987A.776.776,0,0,1,820.82,395.591ZM819.591,380.9l1.735,12.012,2.951-3.779a.783.783,0,0,1,.446-.28l5.145-1.122Z" transform="translate(-167.082 38.004)" fill="#e8cd00"/>
      <path id="Path_1457" data-name="Path 1457" d="M768.052,523.093c-28.254,0-77.94-24.029-138.446-94.1C514,295.1,511.094,232.385,525.708,217.928c5.283-5.227,13.072-4.747,19.844,1.226a.774.774,0,0,1-1.024,1.161c-6.111-5.393-13.071-5.9-17.732-1.286-3.381,3.345-13.079,17.591,4.056,60.48,15.926,39.862,50.479,91.2,99.927,148.469,67.14,77.759,120.583,98.514,145.957,92.653,9.578-2.211,15.9-8.149,18.284-17.168,3.983-15.079,3.533-27.7.741-37.687a75.769,75.769,0,0,1-21.75-16.067c-4.611-5.089-6.278-9.055-4.695-11.172,1.289-1.724,4.322-1.656,8.115.18,7.359,3.557,15.635,12.379,19.629,26.022,42.867,21.612,117.114,20.395,171.913-6.228,23.82-11.571,36.649-26.535,38.128-44.475,1.824-22.109-14.36-40.613-16.164-41.891a.774.774,0,0,1,.894-1.264c3.267,2.316,18.59,21.724,16.811,43.284-1.527,18.522-14.646,33.911-38.993,45.739-32.545,15.808-73.162,23.534-111.457,21.185-23.534-1.444-44.382-6.484-60.6-14.4,2.545,10.016,2.807,22.459-1.078,37.167-2.538,9.611-9.258,15.932-19.431,18.281A40.269,40.269,0,0,1,768.052,523.093Zm4.262-84.24a2.139,2.139,0,0,0-1.758.61c-.78,1.043-.043,4.079,4.6,9.206a73.093,73.093,0,0,0,19.994,15.084c-3.983-12.356-11.588-20.354-18.394-23.644A10.72,10.72,0,0,0,772.313,438.853Z" transform="translate(-330.359 -51.88)"/>
      <circle id="Ellipse_85" data-name="Ellipse 85" cx="4.058" cy="4.058" r="4.058" transform="translate(635.987 402.952)"/>
      <path id="Path_1458" data-name="Path 1458" d="M773.018,418.806a.773.773,0,0,1-.379-1.447l120.281-67.8a.774.774,0,0,1,.76,1.348L773.4,418.707A.759.759,0,0,1,773.018,418.806Z" transform="translate(-192.021 22.098)"/>
      <circle id="Ellipse_86" data-name="Ellipse 86" cx="4.058" cy="4.058" r="4.058" transform="translate(213.124 167.076)" fill="#2a1e17"/>
      <circle id="Ellipse_87" data-name="Ellipse 87" cx="8.706" cy="8.706" r="8.706" transform="translate(311.946 78.65)" fill="#e8cd00"/>
      <path id="Path_1459" data-name="Path 1459" d="M503.759,122.884a3.827,3.827,0,1,0,3.828,3.827,3.826,3.826,0,0,0-3.828-3.827Z" transform="translate(-341.081 -101.929)"/>
      <circle id="Ellipse_88" data-name="Ellipse 88" cx="3.827" cy="3.827" r="3.827" transform="translate(671.652 488.626)" fill="#fad8b0"/>
      <path id="Path_1460" data-name="Path 1460" d="M805.036,337.514l-41.142-19.307a4.271,4.271,0,0,1,.094-7.776l76.542-33.679a4.276,4.276,0,0,1,3.4-.015L896.508,299.3Z" transform="translate(-197.936 -17.9)" fill="#2a1e33"/>
      <path id="Path_1461" data-name="Path 1461" d="M787.966,290.716c.105,17.024,2.549,63.452,2.549,63.452l91.472-38.21-2.052-64.608a5.555,5.555,0,0,0-7.856-4.879l-78.759,35.89A9.119,9.119,0,0,0,787.966,290.716Z" transform="translate(-183.415 -34.555)" fill="#c6cbcb"/>
      <path id="Path_1462" data-name="Path 1462" d="M789.886,355.186a.773.773,0,0,1-.3-1.487l90.98-38.005-2.035-64.076h0a5.866,5.866,0,0,0-2.114-3.872c-1.168-.786-2.761-.884-4.746-.291a.774.774,0,0,1-.444-1.482c2.457-.738,4.5-.566,6.069.5a7.354,7.354,0,0,1,2.779,5.054l2.055,64.651a.776.776,0,0,1-.477.737l-91.472,38.211A.779.779,0,0,1,789.886,355.186Z" transform="translate(-182.788 -34.797)" fill="#2a1e17"/>
      <path id="Path_1463" data-name="Path 1463" d="M818.5,292.094a.81.81,0,0,1-.3-.06.775.775,0,0,1-.41-1.015l6.176-14.6a.774.774,0,1,1,1.427.6l-6.176,14.6A.775.775,0,0,1,818.5,292.094Z" transform="translate(-167.126 -18.142)" fill="#2a1e17"/>
      <path id="Path_1464" data-name="Path 1464" d="M822.49,292.094a.8.8,0,0,1-.3-.06.776.776,0,0,1-.411-1.015l6.175-14.6a.775.775,0,1,1,1.427.6l-6.176,14.6A.775.775,0,0,1,822.49,292.094Z" transform="translate(-164.941 -18.142)" fill="#2a1e17"/>
      <circle id="Ellipse_89" data-name="Ellipse 89" cx="3.827" cy="3.827" r="3.827" transform="translate(175.349 424.756)" fill="#ff6d66"/>
      <circle id="Ellipse_90" data-name="Ellipse 90" cx="5.317" cy="5.317" r="5.317" transform="translate(496.537 442.226)"/>
      <path id="Path_1465" data-name="Path 1465" d="M542.19,423.061a113.576,113.576,0,0,0,48.325,10.361,2.176,2.176,0,0,1,2.162,2.454l-3.339,26.5a2.178,2.178,0,0,1-1.764,1.872c-6.773,1.272-34.075,5.018-54.5-12.3a2.175,2.175,0,0,1-.679-2.219l6.748-25.263A2.177,2.177,0,0,1,542.19,423.061Z" transform="translate(-323.351 62.267)"/>
      <g id="Group_907" data-name="Group 907" transform="translate(215.877 492.343)" style="isolation: isolate">
        <path id="Path_1466" data-name="Path 1466" d="M557.825,448.265a3.43,3.43,0,0,1-1.677-.35c-4.308-2.431-15.769-18.491-16.254-19.174a.773.773,0,1,1,1.26-.9c4.046,5.684,12.546,16.913,15.756,18.723,2.773,1.577,17.506-6.007,26.14-11.154a.774.774,0,1,1,.792,1.329C580.359,438.818,564.16,448.265,557.825,448.265Z" transform="translate(-535.162 -427.518)" fill="#fff"/>
        <path id="Path_1467" data-name="Path 1467" d="M570.448,452.559a.772.772,0,0,1-.554-.234L557.5,439.584a.774.774,0,1,1,1.109-1.079L571,451.245a.774.774,0,0,1-.554,1.314Z" transform="translate(-525.566 -421.632)" fill="#fff"/>
        <path id="Path_1468" data-name="Path 1468" d="M537.559,442.172a.773.773,0,0,1-.2-1.52l14.5-3.941a.774.774,0,1,1,.405,1.493l-14.5,3.941A.767.767,0,0,1,537.559,442.172Z" transform="translate(-536.785 -422.5)" fill="#fff"/>
      </g>
      <rect id="Rectangle_167" data-name="Rectangle 167" width="13.846" height="13.846" transform="translate(584.482 171.831)" fill="#ffe1c0"/>
      <path id="Path_1469" data-name="Path 1469" d="M779.121,341.086l4.115,7.128,4.115,7.128H770.89l4.115-7.128Z" transform="translate(-192.762 17.512)" fill="#a0c6f4"/>
      <g id="Group_906" data-name="Group 906" transform="translate(252.803 1.461)" style="isolation: isolate">
        <path id="Path_1470" data-name="Path 1470" d="M564.446,156.618a3.5,3.5,0,0,1-2.337-.806,5.16,5.16,0,0,1-1.456-4.2h0l1.074-32.361c-.113-2.954.992-4.551,3.584-5.125,8.914-1.973,35.8-7.92,64.965.7,4.279,1.264,4.193,3.76,4.13,5.585l-1.04,30.921a4.2,4.2,0,0,1-1.56,3.1,5.581,5.581,0,0,1-4.412,1.162c-7.545-1.1-18.457-1.628-31.629-1.518-11.885.1-22.651.967-30.313,2.443A5.36,5.36,0,0,1,564.446,156.618ZM562.2,151.66h0a3.759,3.759,0,0,0,.913,2.976,2.342,2.342,0,0,0,2.046.36c7.752-1.492,18.618-2.369,30.595-2.47,13.416-.1,24.135.4,31.865,1.535a4.035,4.035,0,0,0,3.194-.82,2.665,2.665,0,0,0,1.006-1.959l1.038-30.852c.062-1.817.111-3.194-3.021-4.119-28.784-8.509-55.375-2.627-64.11-.695-1.657.367-2.55,1.069-2.453,3.629Z" transform="translate(-560.649 -110.286)"/>
        <path id="Path_1471" data-name="Path 1471" d="M567.748,142a.773.773,0,0,1-.588-1.277l16.915-19.8a.777.777,0,0,1,.555-.271.694.694,0,0,1,.577.223l18.725,18.48a.774.774,0,0,1-.783,1.286c-6.217-2.027-35.02,1.321-35.311,1.356A.867.867,0,0,1,567.748,142Zm16.964-19.441-15.1,17.68c5.927-.647,23.53-2.412,31.438-1.558Z" transform="translate(-557.187 -104.613)"/>
        <path id="Path_1472" data-name="Path 1472" d="M611.013,142.136l-.037,0-17.277-.826a.771.771,0,0,1-.735-.809.79.79,0,0,1,.808-.737l16.439.786-.393-11.638-10.736-7.664-13.219,10.579a.773.773,0,1,1-.967-1.207l13.676-10.945a.766.766,0,0,1,.931-.026l11.525,8.226a.774.774,0,0,1,.325.6l.433,12.86a.772.772,0,0,1-.232.577A.764.764,0,0,1,611.013,142.136Z" transform="translate(-547.535 -105.24)"/>
        <path id="Path_1473" data-name="Path 1473" d="M571.654,124.873a4.086,4.086,0,0,1-4.19-3.335,3.235,3.235,0,0,1,.764-2.468,4.136,4.136,0,0,1,2.948-1.4A4.083,4.083,0,0,1,575.623,121h0a3.234,3.234,0,0,1-.766,2.468,4.133,4.133,0,0,1-2.948,1.4C571.824,124.872,571.739,124.873,571.654,124.873Zm-.215-5.66c-.059,0-.118,0-.178,0a2.6,2.6,0,0,0-1.851.851,1.683,1.683,0,0,0-.409,1.3,2.79,2.79,0,0,0,4.675,1.106,1.686,1.686,0,0,0,.407-1.3h0A2.526,2.526,0,0,0,571.439,119.213Z" transform="translate(-556.93 -106.247)"/>
      </g>
      <g id="Group_904" data-name="Group 904" transform="translate(534.544 460.591)" style="isolation: isolate">
        <path id="Path_1474" data-name="Path 1474" d="M757.3,459.027a3.553,3.553,0,0,1-3.355-2.324l-10.833-20.028a3.294,3.294,0,0,1-.173-2.714,4.322,4.322,0,0,1,2.485-2.5,163.3,163.3,0,0,0,20.628-10.779,131.707,131.707,0,0,0,18.318-12.8,2.963,2.963,0,0,1,2.556-.843,3.993,3.993,0,0,1,2.629,2.233L800.9,430.23c1.21,1.894,1.088,3.446-.41,4.836-4.945,4.579-19.842,18.374-41.618,23.749A6.533,6.533,0,0,1,757.3,459.027ZM786.47,408.55a1.688,1.688,0,0,0-1.083.5,133.151,133.151,0,0,1-18.545,12.964A162.335,162.335,0,0,1,746,432.9a2.81,2.81,0,0,0-1.608,1.588,1.761,1.761,0,0,0,.076,1.452l10.809,19.983c.616,1.142,1.049,1.927,3.222,1.394,21.39-5.28,36.067-18.874,40.888-23.338.758-.7,1.216-1.334.18-2.962l-11.375-21a2.576,2.576,0,0,0-1.543-1.447A.992.992,0,0,0,786.47,408.55Z" transform="translate(-742.724 -406.999)" fill="#fff4a3"/>
        <path id="Path_1475" data-name="Path 1475" d="M774.394,432.913a.724.724,0,0,1-.19-.023l-18.765-4.778a.773.773,0,0,1,.026-1.506c3.731-.812,15.921-9.482,21.847-13.951a.773.773,0,0,1,1.227.754l-3.383,18.867a.772.772,0,0,1-.763.638Zm-16.221-5.7,15.607,3.974,2.89-16.124C772.924,417.829,763.48,424.659,758.173,427.211Z" transform="translate(-736.084 -403.988)" fill="#fff4a3"/>
        <path id="Path_1476" data-name="Path 1476" d="M763.771,438c-.023,0-.047,0-.07,0l-10.377-.941a.774.774,0,0,1-.585-.359l-5.055-8.006a.774.774,0,0,1,.3-1.1l11.282-5.9a.774.774,0,1,1,.716,1.373l-10.538,5.507,4.4,6.976,9.414.854,4.41-11.489a.773.773,0,1,1,1.444.554L764.494,437.5A.773.773,0,0,1,763.771,438Z" transform="translate(-740.075 -399.004)" fill="#fff4a3"/>
        <path id="Path_1477" data-name="Path 1477" d="M774.026,426.786a2.919,2.919,0,0,1-2.368-1.106h0a2.577,2.577,0,0,1-.47-2.009,3.383,3.383,0,0,1,5.779-1.611,2.572,2.572,0,0,1,.47,2.007,3.258,3.258,0,0,1-1.444,2.121A3.578,3.578,0,0,1,774.026,426.786Zm-1.13-2.035a1.854,1.854,0,0,0,3.017-.947,1.039,1.039,0,0,0-.184-.814,1.852,1.852,0,0,0-3.018.944,1.045,1.045,0,0,0,.184.817Z" transform="translate(-727.165 -399.36)" fill="#fff4a3"/>
      </g>
      <path id="Path_1478" data-name="Path 1478" d="M737.163,182.693l46.1,35.288a2.278,2.278,0,0,0,3.217-.456l6.962-9.434a2.278,2.278,0,0,0-.41-3.13l-45.454-36.37a2.277,2.277,0,0,0-3.267.443L736.7,179.551A2.276,2.276,0,0,0,737.163,182.693Z" transform="translate(-211.713 -77.183)" fill="#fff"/>
      <path id="Path_1479" data-name="Path 1479" d="M784.92,219.5a3.028,3.028,0,0,1-1.846-.628l-46.1-35.288a3.032,3.032,0,0,1-.617-4.21l7.61-10.518a3.052,3.052,0,0,1,4.379-.593L793.8,204.629a3.044,3.044,0,0,1,.548,4.193l-6.96,9.436a3.033,3.033,0,0,1-2.029,1.21A3.161,3.161,0,0,1,784.92,219.5Zm-38.481-50.36a1.531,1.531,0,0,0-.206.014,1.489,1.489,0,0,0-1.017.61l-7.612,10.516a1.494,1.494,0,0,0,.3,2.075h0l46.1,35.288a1.506,1.506,0,0,0,2.125-.3l6.96-9.434a1.5,1.5,0,0,0-.269-2.066l-45.454-36.37A1.484,1.484,0,0,0,746.44,169.138Z" transform="translate(-211.988 -77.456)" fill="#2a1e17"/>
      <path id="Path_1480" data-name="Path 1480" d="M739.053,179.82l11.181,7.846,6.6-7.874-11.183-9.327Z" transform="translate(-210.189 -75.884)" fill="#ff6d66"/>
      <path id="Path_1481" data-name="Path 1481" d="M749,186.262l11.2,8.882,6-7.383-11.27-9.144Z" transform="translate(-204.745 -71.421)" fill="#fad8b0"/>
      <path id="Path_1482" data-name="Path 1482" d="M758.667,194.284l11.181,7.846,5.326-6.843-10.591-8.863Z" transform="translate(-199.453 -67.148)" fill="#a0c6f4"/>
      <path id="Path_1483" data-name="Path 1483" d="M796.307,148.043l10.505,88.288a3.488,3.488,0,0,0,3.937,3.044l17.789-2.436a3.487,3.487,0,0,0,3-3.793l-8.622-88.729a3.487,3.487,0,0,0-3.977-3.113l-19.67,2.877A3.487,3.487,0,0,0,796.307,148.043Z" transform="translate(-178.863 -91.866)" fill="#fff"/>
      <path id="Path_1484" data-name="Path 1484" d="M810.538,240.455a4.261,4.261,0,0,1-4.22-3.759l-10.505-88.288a4.235,4.235,0,0,1,3.615-4.72l19.672-2.877a4.264,4.264,0,0,1,4.857,3.8l8.622,88.73a4.247,4.247,0,0,1-3.664,4.633l-17.789,2.437A4.428,4.428,0,0,1,810.538,240.455Zm9.185-98.14a2.7,2.7,0,0,0-.4.028l-19.672,2.878a2.7,2.7,0,0,0-2.3,3.005h0l10.505,88.288a2.714,2.714,0,0,0,3.064,2.368l17.79-2.436a2.7,2.7,0,0,0,2.33-2.951l-8.622-88.729a2.713,2.713,0,0,0-2.692-2.451Z" transform="translate(-179.137 -92.141)" fill="#2a1e17"/>
      <path id="Path_1485" data-name="Path 1485" d="M799.77,147.954,803.1,168.6l15.688-1.168L817.082,145.2Z" transform="translate(-176.953 -89.713)" fill="#ff6d66"/>
      <path id="Path_1486" data-name="Path 1486" d="M802.657,166.009l2.207,21.773,14.512-1.3-2-22.135Z" transform="translate(-175.373 -79.231)" fill="#91ba83"/>
      <path id="Path_1487" data-name="Path 1487" d="M804.261,185.193l3.329,20.651,13.2-1.463-1.582-21.089Z" transform="translate(-174.495 -68.862)" fill="#fad8b0"/>
      <path id="Path_1488" data-name="Path 1488" d="M781.529,161.712l29.094,85.518a2.773,2.773,0,0,0,3.565,1.716l18.224-6.559a2.777,2.777,0,0,0,1.705-3.448L806.8,152.576a2.774,2.774,0,0,0-3.609-1.766l-20,7.406A2.775,2.775,0,0,0,781.529,161.712Z" transform="translate(-187.02 -86.737)" fill="#fff"/>
      <path id="Path_1489" data-name="Path 1489" d="M813.521,250.161a3.556,3.556,0,0,1-3.356-2.408l-29.094-85.518a3.529,3.529,0,0,1,2.126-4.47l20-7.406a3.548,3.548,0,0,1,4.614,2.258l27.319,86.363a3.537,3.537,0,0,1-2.182,4.409l-18.222,6.561A3.554,3.554,0,0,1,813.521,250.161Zm-9.092-98.476a2.02,2.02,0,0,0-.7.125l-20,7.406a1.987,1.987,0,0,0-1.2,2.521h0l29.094,85.518a2,2,0,0,0,2.57,1.238l18.222-6.561a1.994,1.994,0,0,0,1.23-2.485l-27.319-86.363a2,2,0,0,0-1.9-1.4Z" transform="translate(-187.294 -87.012)" fill="#2a1e17"/>
      <path id="Path_1490" data-name="Path 1490" d="M785.294,161.027l7.551,19.507,15.1-4.4-6.293-21.394Z" transform="translate(-184.877 -84.494)" fill="#a0c6f4"/>
      <path id="Path_1491" data-name="Path 1491" d="M791.953,177.9l6.686,20.838,13.925-4.287-6.558-21.236Z" transform="translate(-181.232 -74.379)" fill="#f9865f"/>
      <path id="Path_1492" data-name="Path 1492" d="M797.494,196.344l7.551,19.507,12.606-4.176-5.934-20.3Z" transform="translate(-178.199 -64.437)" fill="#fad8b0"/>
      <rect id="Rectangle_168" data-name="Rectangle 168" width="163.886" height="36.843" rx="5.484" transform="translate(219.846 182.993)"/>
      <rect id="Rectangle_169" data-name="Rectangle 169" width="85.699" height="5.606" rx="1.812" transform="translate(237.307 193.84)" fill="#e8cd00"/>
      <path id="Path_1493" data-name="Path 1493" d="M687.583,243.975H551.426a.774.774,0,1,1,0-1.547H687.583a.774.774,0,1,1,0,1.547Z" transform="translate(-313.318 -36.492)" fill="#e8cd00"/>
      <path id="Rectangle_170" data-name="Rectangle 170" d="M0,0H4.368a1.7,1.7,0,0,1,1.7,1.7v7a1.7,1.7,0,0,1-1.7,1.7H0a0,0,0,0,1,0,0V0A0,0,0,0,1,0,0Z" transform="matrix(0.674, 0.738, -0.738, 0.674, 168.447, 113.689)" fill="#2a1e17"/>
      <path id="Path_1494" data-name="Path 1494" d="M505.118,196.454a2.284,2.284,0,0,1-1.691-.744L492.5,183.749a2.291,2.291,0,0,1,.145-3.236l7.551-6.9a2.293,2.293,0,0,1,3.236.147h0l10.925,11.961a2.289,2.289,0,0,1-.147,3.236l-7.55,6.9A2.277,2.277,0,0,1,505.118,196.454Zm-3.376-21.889a.739.739,0,0,0-.5.195l-7.55,6.9a.74.74,0,0,0-.241.515.732.732,0,0,0,.193.534l10.926,11.961a.744.744,0,0,0,1.051.048l7.55-6.9a.745.745,0,0,0,.24-.515.733.733,0,0,0-.193-.534L502.29,174.806A.741.741,0,0,0,501.742,174.565Z" transform="translate(-345.477 -74.486)" fill="#2a1e17"/>
      <rect id="Rectangle_171" data-name="Rectangle 171" width="13.728" height="12.534" transform="translate(122.452 163.096)" fill="#e8cd00"/>
      <path id="Path_1495" data-name="Path 1495" d="M479.587,218.642h-8.21a.774.774,0,1,1,0-1.547h7.437V209.8a.774.774,0,1,1,1.547,0v8.065A.772.772,0,0,1,479.587,218.642Z" transform="translate(-357.136 -54.773)" fill="#2a1e17"/>
      <rect id="Rectangle_172" data-name="Rectangle 172" width="13.728" height="12.534" transform="translate(574.675 21.556)"/>
      <path id="Path_1496" data-name="Path 1496" d="M771.836,127.172h-8.209a.774.774,0,1,1,0-1.547h7.435v-7.291a.774.774,0,0,1,1.547,0V126.4A.772.772,0,0,1,771.836,127.172Z" transform="translate(-197.162 -104.843)"/>
      <path id="Path_1497" data-name="Path 1497" d="M650.976,427.049a.959.959,0,0,1-.114-.008c-.327-.05-32.8-4.989-53.823-18.621-67.51-43.783-115.248-86.193-141.889-126.052-22.434-33.564-28.32-64.35-16.576-86.685,19.118-36.348,79.172-43.588,142.79-17.216a.774.774,0,0,1-.593,1.43c-62.864-26.06-122.092-19.118-140.826,16.508C419.416,235.44,450.124,311.3,597.882,407.121c20.733,13.447,52.883,18.341,53.205,18.389a.773.773,0,0,1-.111,1.538Z" transform="translate(-377.902 -80.153)" fill="#e8cd00"/>
      <g id="Group_1076" data-name="Group 1076" style="isolation: isolate">
        <circle id="Ellipse_91" data-name="Ellipse 91" cx="4.058" cy="4.058" r="4.058" transform="translate(68.227 98.938)" fill="#e8cd00"/>
        <path id="Path_1498" data-name="Path 1498" d="M447.356,181.477a.775.775,0,0,1-.3-.06l-15.67-6.558a.776.776,0,0,1-.426-.439l-4.111-10.853a.779.779,0,0,1,.189-.832l4.441-4.263a.769.769,0,0,1,.919-.113l10.21,5.841a.77.77,0,0,1,.351.432l5.133,15.833a.777.777,0,0,1-.737,1.014Zm-15.064-7.918,13.807,5.78-4.518-13.945-9.448-5.405L428.48,163.5Z" transform="translate(-381.112 -82.567)" fill="#e8cd00"/>
        <path id="Path_1499" data-name="Path 1499" d="M428.454,165.071l-.045,0a.771.771,0,0,1-.551-.28l-2.488-3.02a.772.772,0,0,1,.062-1.049l4.263-4.087a.774.774,0,0,1,1.1.029l2.665,2.843a.774.774,0,0,1-.029,1.088l-4.441,4.263A.775.775,0,0,1,428.454,165.071Zm-1.433-3.731,1.5,1.82L431.807,160l-1.606-1.713Z" transform="translate(-381.992 -83.573)" fill="#e8cd00"/>
      </g>
      <path id="Path_1500" data-name="Path 1500" d="M443.964,177.77a.77.77,0,0,1-.572-.254l-10.19-11.2a.773.773,0,1,1,1.143-1.041l10.191,11.2a.773.773,0,0,1-.053,1.092A.763.763,0,0,1,443.964,177.77Z" transform="translate(-377.719 -78.86)" fill="#e8cd00"/>
      <path id="Path_1501" data-name="Path 1501" d="M456.04,358.3l11.062,57a2.275,2.275,0,0,0,2.708,1.793l11.469-2.436a2.28,2.28,0,0,0,1.772-2.614l-9.857-57.372a2.277,2.277,0,0,0-2.737-1.838l-12.675,2.813A2.28,2.28,0,0,0,456.04,358.3Z" transform="translate(-365.13 23.909)" fill="#fff"/>
      <path id="Path_1502" data-name="Path 1502" d="M469.6,418.184a3.053,3.053,0,0,1-2.986-2.471l-11.062-56.995h0a3.038,3.038,0,0,1,2.335-3.561l12.673-2.815a3.067,3.067,0,0,1,2.363.446,3.027,3.027,0,0,1,1.306,2.016l9.857,57.374a3.046,3.046,0,0,1-2.375,3.5l-11.469,2.436A2.994,2.994,0,0,1,469.6,418.184Zm-12.528-59.762,11.061,56.995a1.5,1.5,0,0,0,1.787,1.185l11.469-2.437a1.5,1.5,0,0,0,1.168-1.724l-9.855-57.374a1.507,1.507,0,0,0-1.807-1.213l-12.673,2.813a1.5,1.5,0,0,0-1.15,1.756Z" transform="translate(-365.405 23.636)" fill="#2a1e17"/>
      <path id="Path_1503" data-name="Path 1503" d="M458.351,357.972l3.155,13.29,10.161-1.51-2.173-14.4Z" transform="translate(-363.843 25.322)" fill="#ff6d66"/>
      <path id="Path_1504" data-name="Path 1504" d="M461.112,369.549l2.478,14.074,9.389-1.538-2.359-14.32Z" transform="translate(-362.331 32.116)" fill="#fad8b0"/>
      <path id="Path_1505" data-name="Path 1505" d="M463.069,381.969l3.155,13.29,8.525-1.583-2.038-13.659Z" transform="translate(-361.259 38.823)" fill="#a0c6f4"/>
      <g id="Group_903" data-name="Group 903" transform="translate(384.129 511.766)" style="isolation: isolate">
        <path id="Path_1506" data-name="Path 1506" d="M662.24,458.951a.774.774,0,0,1-.747-.579l-1.256-4.822a.772.772,0,0,1,.548-.942l46.745-12.514a.781.781,0,0,1,.93.491l1.783,5.066a.773.773,0,0,1-.536,1.006l-47.271,12.271A.772.772,0,0,1,662.24,458.951Zm-.314-5.046.868,3.33L708.5,445.369l-1.266-3.595Z" transform="translate(-637.476 -440.07)" fill="#e8cd00"/>
        <path id="Path_1507" data-name="Path 1507" d="M658.142,449.722a.775.775,0,0,1-.738-.54l-1.349-4.243a.774.774,0,1,1,1.475-.469l1.349,4.243a.776.776,0,0,1-.737,1.009Z" transform="translate(-639.771 -437.957)" fill="#e8cd00"/>
        <path id="Path_1508" data-name="Path 1508" d="M655.942,447.747a.774.774,0,0,1-.251-1.506l3.944-1.354a.773.773,0,0,1,.5,1.462l-3.944,1.354A.75.75,0,0,1,655.942,447.747Z" transform="translate(-640.236 -437.458)" fill="#e8cd00"/>
        <path id="Path_1509" data-name="Path 1509" d="M657.87,463.958a.772.772,0,0,1-.737-.54l-2.544-8a.774.774,0,1,1,1.475-.469l2.544,8.006a.774.774,0,0,1-.5.972A.834.834,0,0,1,657.87,463.958Z" transform="translate(-640.573 -432.224)" fill="#e8cd00"/>
        <path id="Path_1510" data-name="Path 1510" d="M653.926,460.023a.774.774,0,0,1-.234-1.512l7.024-2.231a.774.774,0,0,1,.469,1.475l-7.024,2.231A.783.783,0,0,1,653.926,460.023Z" transform="translate(-641.339 -431.218)" fill="#e8cd00"/>
        <path id="Path_1511" data-name="Path 1511" d="M651.74,458.016a.777.777,0,0,1-.74-.543l-3.316-10.6a.774.774,0,0,1,1.478-.463l3.318,10.6a.776.776,0,0,1-.509.97A.747.747,0,0,1,651.74,458.016Z" transform="translate(-644.352 -436.898)" fill="#e8cd00"/>
        <path id="Path_1512" data-name="Path 1512" d="M646.293,452.792a.774.774,0,0,1-.237-1.512l9.844-3.141a.774.774,0,0,1,.47,1.475l-9.843,3.141A.794.794,0,0,1,646.293,452.792Z" transform="translate(-645.518 -435.674)" fill="#e8cd00"/>
      </g>
      <g id="Group_905" data-name="Group 905" transform="translate(36.706)" style="isolation: isolate">
        <path id="Path_1513" data-name="Path 1513" d="M451.1,127.119a.527.527,0,0,1-.214-.046L421.3,113.72a.521.521,0,0,1-.274-.65l1.226-3.386a.524.524,0,0,1,.288-.3.53.53,0,0,1,.418.008l29.75,13.7a.52.52,0,0,1,.254.689l-1.394,3.038A.52.52,0,0,1,451.1,127.119Zm-28.93-14.146,28.675,12.942.962-2.1-28.767-13.249Z" transform="translate(-420.996 -109.342)" fill="#e8cd00"/>
        <path id="Path_1514" data-name="Path 1514" d="M441.013,126.152a.52.52,0,0,1-.481-.71l1.1-2.776a.519.519,0,0,1,.964.382l-1.1,2.776A.521.521,0,0,1,441.013,126.152Z" transform="translate(-410.323 -102.228)" fill="#e8cd00"/>
        <path id="Path_1515" data-name="Path 1515" d="M443.142,124.947a.524.524,0,0,1-.179-.033l-2.623-.972a.519.519,0,1,1,.361-.973l2.623.972a.519.519,0,0,1-.181,1.006Z" transform="translate(-410.593 -101.899)" fill="#e8cd00"/>
        <path id="Path_1516" data-name="Path 1516" d="M446.223,122.208a.52.52,0,0,1-.483-.71l2.08-5.236a.518.518,0,1,1,.964.382l-2.08,5.236A.517.517,0,0,1,446.223,122.208Z" transform="translate(-407.472 -105.734)" fill="#e8cd00"/>
        <path id="Path_1517" data-name="Path 1517" d="M449.966,119.891a.485.485,0,0,1-.19-.037l-4.594-1.823a.519.519,0,0,1,.382-.964l4.594,1.823a.519.519,0,0,1-.192,1Z" transform="translate(-407.937 -105.133)" fill="#e8cd00"/>
        <path id="Path_1518" data-name="Path 1518" d="M446.181,130.166a.5.5,0,0,1-.193-.039.517.517,0,0,1-.288-.675l2.779-6.914a.519.519,0,0,1,.962.387l-2.779,6.914A.521.521,0,0,1,446.181,130.166Z" transform="translate(-407.495 -102.296)" fill="#e8cd00"/>
        <path id="Path_1519" data-name="Path 1519" d="M451.379,127.311a.545.545,0,0,1-.19-.036l-6.446-2.549a.52.52,0,0,1,.384-.966l6.445,2.549a.519.519,0,0,1-.192,1Z" transform="translate(-408.177 -101.469)" fill="#e8cd00"/>
      </g>
      <path id="Path_1520" data-name="Path 1520" d="M524.1,305.259c-20.849-15.011-41.335-38.34-32.35-62.3,0,0,14.378-9.585,37.144,2.4l22.764,11.981Z" transform="translate(-346.75 -38.189)" fill="#525252"/>
      <path id="Path_1521" data-name="Path 1521" d="M526.145,400.178c-9.382-4.435-49.439-25.287-56.565-60.922-6.159-30.79,17.385-72.3,29.181-90.634-.758,24.342,23.687,44.942,35.482,53.434,11.944,8.6,20.73,12.808,32.853,17.359Z" transform="translate(-358.248 -33.101)" fill="#fff"/>
      <path id="Path_1522" data-name="Path 1522" d="M497.787,259.666c2.558,16.178,14.906,32.949,35.918,48.077a125.72,125.72,0,0,0,30.976,16.727L525.927,400.9c-11.808-5.875-46.747-25.78-53.25-58.3-5.407-27.034,12.924-62.891,25.111-82.938m6.281-17.993s-44.329,59.907-35.943,101.841,59.905,63.5,59.905,63.5l43.134-85.068c-13.479-4.942-22.236-8.966-34.747-17.973-20.849-15.011-41.335-38.34-32.35-62.3Z" transform="translate(-359.07 -36.905)"/>
      <path id="Path_1523" data-name="Path 1523" d="M510.364,302.176a.758.758,0,0,1-.365-.093,52.64,52.64,0,0,1-27.048-37.555.774.774,0,0,1,1.538-.167,51.052,51.052,0,0,0,26.241,36.359.774.774,0,0,1-.365,1.456Z" transform="translate(-350.379 -24.864)" fill="#e8cd00"/>
      <path id="Path_1524" data-name="Path 1524" d="M533.335,307.548a.767.767,0,0,1-.367-.091l-24.063-12.891a.773.773,0,0,1,.73-1.363L533.7,306.093a.773.773,0,0,1-.365,1.455Z" transform="translate(-336.393 -8.75)" fill="#e8cd00"/>
      <path id="Path_1525" data-name="Path 1525" d="M518.6,315.8a.769.769,0,0,1-.316-.068c-24.9-11.164-32.97-28.576-33.049-28.75a.774.774,0,1,1,1.411-.634c.076.169,7.937,17.065,32.271,27.974a.774.774,0,0,1-.317,1.479Z" transform="translate(-349.163 -12.701)" fill="#e8cd00"/>
      <path id="Path_1526" data-name="Path 1526" d="M486.059,313.169a.764.764,0,0,1-.347-.081c-12.3-6.149-13.283-23.967-13.317-24.723a.77.77,0,0,1,.733-.808.722.722,0,0,1,.811.733c.008.178.984,17.671,12.464,23.412a.773.773,0,0,1-.345,1.465Z" transform="translate(-356.155 -11.791)" fill="#e8cd00"/>
      <path id="Path_1527" data-name="Path 1527" d="M523.789,301.83a.772.772,0,0,1-.5-.187c-34.968-30.012-33.2-52.972-33.1-53.936a.774.774,0,0,1,1.541.147c-.006.057-.483,5.812,3.266,15.119,3.472,8.611,11.373,22.106,29.3,37.495a.774.774,0,0,1-.5,1.362Z" transform="translate(-346.44 -33.985)" fill="#e8cd00"/>
      <path id="Path_1528" data-name="Path 1528" d="M526.774,262.512a.756.756,0,0,1-.458-.152c-15.856-11.683-26.87-11.03-26.986-11.024a.774.774,0,0,1-.116-1.543c.455-.039,11.643-.746,28.02,11.322a.773.773,0,0,1-.46,1.4Z" transform="translate(-341.865 -32.471)" fill="#e8cd00"/>
      <path id="Path_1529" data-name="Path 1529" d="M526.418,378.9a.785.785,0,0,1-.311-.065C500.2,367.426,482.1,351.99,472.3,332.954a67.327,67.327,0,0,1-7.717-34.617.764.764,0,0,1,.82-.724.774.774,0,0,1,.724.822,65.773,65.773,0,0,0,7.548,33.812c9.634,18.711,27.485,33.909,53.055,45.174a.774.774,0,0,1-.311,1.482Z" transform="translate(-360.489 -6.286)" fill="#e8cd00"/>
      <path id="Path_1530" data-name="Path 1530" d="M723.128,283.13l-25.6,51.3s17.362,6.389,3.789,26.29c0,0,32.088,13.307,53.085-21.255S723.128,283.13,723.128,283.13Z" transform="translate(-232.918 -14.212)" fill="#fff4a3"/>
      <path id="Path_1532" data-name="Path 1532" d="M699.672,328.151l26.312,16.569.333.209.364.152a46.628,46.628,0,0,0,16.441,2.872,45.669,45.669,0,0,0,18.731-3.929l-30.541,52.249c-1,1.453-15.177,21.383-39.627,21.383-11.926,0-24.552-4.716-37.575-14.029l45.563-75.477m81.871-8.614c-11.862,19.528-27.265,23.774-38.422,23.774a41.884,41.884,0,0,1-14.663-2.519L698.141,321.7,647.955,404.84c16.806,12.955,31.465,17.459,43.729,17.459,28.039,0,43.559-23.553,43.559-23.553l46.3-79.209Z" transform="translate(-260.055 5.717)" fill="#fff4a3"/>
      <path id="Path_1533" data-name="Path 1533" d="M701.593,343.62a.773.773,0,0,1-.608-1.25c4.893-6.251,6.693-11.763,5.346-16.381-1.8-6.172-8.713-8.678-8.783-8.7a.773.773,0,0,1,.514-1.459c.316.111,7.734,2.8,9.755,9.73,1.493,5.122-.4,11.1-5.614,17.767A.77.77,0,0,1,701.593,343.62Z" transform="translate(-233.192 3.662)"/>
      <path id="Path_1534" data-name="Path 1534" d="M720.536,344.493c-14.559,0-39.714-22.886-40.78-23.864a.774.774,0,1,1,1.046-1.142c.257.235,25.773,23.458,39.732,23.458h.136c19.477-.215,32.749-6.881,40.576-20.376a.774.774,0,0,1,1.339.777c-8.124,14.007-21.827,20.924-41.9,21.147Z" transform="translate(-242.786 5.579)"/>
      <path id="Path_1535" data-name="Path 1535" d="M712.111,352.5c-16.605,0-30.129-11.813-30.286-11.952a.774.774,0,0,1,1.027-1.157c.176.156,17.793,15.514,37.1,10.59a.774.774,0,0,1,.384,1.5A33.188,33.188,0,0,1,712.111,352.5Z" transform="translate(-241.657 16.48)"/>
      <path id="Path_1536" data-name="Path 1536" d="M705.7,359.265a21.1,21.1,0,0,1-11.708-3.366.773.773,0,0,1,.925-1.239c.371.274,9.174,6.638,21.643.311a.774.774,0,1,1,.7,1.38A25.368,25.368,0,0,1,705.7,359.265Z" transform="translate(-235.024 24.859)"/>
      <path id="Path_1537" data-name="Path 1537" d="M699.362,374.492a51.34,51.34,0,0,1-17.962-3.2,45.874,45.874,0,0,1-15.331-9.15.774.774,0,0,1,1.091-1.1c.214.212,21.665,20.952,54.782,7.149a.774.774,0,1,1,.594,1.43A59.928,59.928,0,0,1,699.362,374.492Z" transform="translate(-250.265 28.314)"/>
      <path id="Path_1538" data-name="Path 1538" d="M688.553,357.136a.759.759,0,0,1-.265-.046c-5.56-2.024-14.16-8.153-14.525-8.412a.775.775,0,0,1,.9-1.261c.088.063,8.8,6.265,14.154,8.22a.773.773,0,0,1-.265,1.5Z" transform="translate(-246.105 20.9)"/>
      <path id="Path_1539" data-name="Path 1539" d="M739.278,326.285a.775.775,0,0,1-.769-.7c-1.195-13.165-6.985-21.109-11.633-25.456a30.266,30.266,0,0,0-9.93-6.363.774.774,0,0,1,.481-1.472,31.178,31.178,0,0,1,10.446,6.651c4.87,4.532,10.934,12.811,12.177,26.5a.773.773,0,0,1-.7.84C739.327,326.283,739.3,326.285,739.278,326.285Z" transform="translate(-222.582 -9.218)"/>
      <path id="Path_1540" data-name="Path 1540" d="M719.545,342.7a.773.773,0,0,1-.523-1.345c14.666-13.428,6.5-26.569,6.142-27.123a.773.773,0,0,1,1.3-.839c.094.147,9.258,14.77-6.4,29.1A.766.766,0,0,1,719.545,342.7Z" transform="translate(-221.292 2.162)"/>
      <path id="Path_1541" data-name="Path 1541" d="M692.8,397.678c-23.661,0-43.68-16.893-43.893-17.077a.774.774,0,0,1,1.006-1.176c.226.193,22.994,19.387,48.336,16.388,13.823-1.637,25.944-9.524,36.025-23.437a.774.774,0,1,1,1.255.907c-10.349,14.282-22.835,22.38-37.107,24.066A47.715,47.715,0,0,1,692.8,397.678Z" transform="translate(-259.682 34.466)"/>
      <path id="Path_1542" data-name="Path 1542" d="M429.874,273.829h-11.55a.774.774,0,0,1,0-1.547h11.55a.774.774,0,0,1,0,1.547Z" transform="translate(-386.176 -20.15)" fill="#e8cd00"/>
      <path id="Path_1543" data-name="Path 1543" d="M845.627,184.063h-11.55a.774.774,0,0,1,0-1.547h11.55a.774.774,0,0,1,0,1.547Z" transform="translate(-158.598 -69.287)" fill="#ff6d66"/>
      <rect id="Rectangle_173" data-name="Rectangle 173" width="11.548" height="1.547" transform="translate(365.777 33.991)" fill="#fad8b0"/>
      <rect id="Rectangle_174" data-name="Rectangle 174" width="1.548" height="11.549" transform="matrix(0.177, -0.984, 0.984, 0.177, 697.39, 174.664)" fill="#fad8b0"/>
      <path id="Path_1544" data-name="Path 1544" d="M566.7,409H555.153a.774.774,0,0,1,0-1.547H566.7a.774.774,0,0,1,0,1.547Z" transform="translate(-311.278 53.84)" fill="#a0c6f4"/>
      <circle id="Ellipse_92" data-name="Ellipse 92" cx="3.827" cy="3.827" r="3.827" transform="translate(718.581 314.275)" fill="#91ba83"/>
      <circle id="Ellipse_93" data-name="Ellipse 93" cx="3.827" cy="3.827" r="3.827" transform="translate(0 130.717)" fill="#e8cd00"/>
      <circle id="Ellipse_94" data-name="Ellipse 94" cx="4.058" cy="4.058" r="4.058" transform="translate(762.855 560.441)" fill="#e8cd00"/>
      <path id="Path_1545" data-name="Path 1545" d="M869.542,559.152a39.158,39.158,0,0,1-14.5-2.544c-3.782-1.5-5.776-5.47-5.766-11.477.028-16,14.531-48.1,46.873-83.759,25.906-28.56,71.55-68.405,141.876-96.039,52.865-20.772,88.052-23.336,104.578-7.622,17.215,16.368,7.127,47.181,7.024,47.491a.773.773,0,1,1-1.465-.492c.1-.3,9.872-30.2-6.63-45.882-16.051-15.257-50.685-12.585-102.942,7.946-70.047,27.523-115.5,67.2-141.293,95.638-32.065,35.353-46.445,67.02-46.473,82.722-.006,3.709.82,8.461,4.789,10.035,23.618,9.382,59.356-11.822,59.715-12.039a.774.774,0,0,1,.8,1.328C914.92,545.183,891.381,559.15,869.542,559.152Z" transform="translate(-149.852 21.063)" fill="#e8cd00"/>
    </g>
    <path id="Path_1548" data-name="Path 1548" d="M1649.074-7461.107s114.573-85.3,309.608-33.827" transform="translate(-512.341 7661)" fill="none" stroke="#e8cd00" stroke-linecap="round" stroke-width="1"/>
  </g>
</svg>
