<svg xmlns="http://www.w3.org/2000/svg" xmlns:xlink="http://www.w3.org/1999/xlink" width="901.116" height="573.265" viewBox="0 0 901.116 573.265"><defs><linearGradient id="a" x1="11.663" y1="0.231" x2="11.566" y2="-0.319" gradientUnits="objectBoundingBox"><stop offset="0" stop-color="#7ce1c5"/><stop offset="1" stop-color="#a0f7e2"/></linearGradient><linearGradient id="b" x1="0.029" y1="0.303" x2="0.821" y2="0.581" gradientUnits="objectBoundingBox"><stop offset="0" stop-color="#a59306"/><stop offset="1"/></linearGradient><linearGradient id="c" x1="1.082" y1="0.591" x2="0.325" y2="0.49" gradientUnits="objectBoundingBox"><stop offset="0" stop-color="#e8cd00"/><stop offset="1"/></linearGradient><linearGradient id="d" x1="0.5" y1="0.277" x2="0.5" y2="0.976" xlink:href="#c"/><linearGradient id="e" x1="0.5" y1="1.184" x2="0.5" y2="29.623" gradientUnits="objectBoundingBox"><stop offset="0" stop-color="#f4cc66"/><stop offset="0.284" stop-color="#f4a361"/><stop offset="0.593" stop-color="#f47e5e"/><stop offset="0.843" stop-color="#f4675b"/><stop offset="1" stop-color="#f55f5b"/></linearGradient><linearGradient id="f" x1="0.5" y1="-25.655" x2="0.5" y2="2.784" xlink:href="#e"/><linearGradient id="g" x1="0.5" y1="-14.937" x2="0.5" y2="13.502" xlink:href="#e"/><linearGradient id="h" x1="0.5" y1="-29.902" x2="0.5" y2="-1.457" xlink:href="#e"/><linearGradient id="i" x1="0.5" y1="0.783" x2="0.5" y2="0.108" xlink:href="#a"/><linearGradient id="j" x1="53.71" y1="0.959" x2="54.709" y2="0.212" xlink:href="#c"/><linearGradient id="k" x1="53.385" y1="0.5" x2="54.385" y2="0.5" gradientUnits="objectBoundingBox"><stop offset="0" stop-color="#a382f2"/><stop offset="1" stop-color="#d2d7f6"/></linearGradient><linearGradient id="l" x1="87.799" y1="0.5" x2="88.799" y2="0.5" xlink:href="#k"/><linearGradient id="m" x1="56.003" y1="0.5" x2="57.003" y2="0.5" xlink:href="#k"/><linearGradient id="n" x1="394.288" y1="0.5" x2="395.288" y2="0.5" xlink:href="#k"/><linearGradient id="o" x1="66.176" y1="0.5" x2="67.176" y2="0.5" xlink:href="#k"/><linearGradient id="p" x1="232.22" y1="0.5" x2="233.22" y2="0.5" xlink:href="#k"/><linearGradient id="q" x1="84.808" y1="0.5" x2="85.808" y2="0.5" xlink:href="#k"/><linearGradient id="r" x1="74.775" y1="0.5" x2="75.775" y2="0.5" xlink:href="#k"/><linearGradient id="s" x1="67.54" y1="0.5" x2="68.54" y2="0.5" xlink:href="#k"/><linearGradient id="t" x1="61.908" y1="0.5" x2="62.908" y2="0.5" xlink:href="#k"/><linearGradient id="u" x1="57.506" y1="0.5" x2="58.506" y2="0.5" xlink:href="#k"/><linearGradient id="v" x1="53.58" y1="0.5" x2="54.58" y2="0.5" xlink:href="#k"/><linearGradient id="w" x1="0.712" y1="1.085" x2="0.14" y2="-0.02" gradientUnits="objectBoundingBox"><stop offset="0"/><stop offset="0.15" stop-color="#060500"/><stop offset="1" stop-color="#ffe205"/></linearGradient><linearGradient id="x" x1="0.754" y1="0.619" x2="0.047" y2="0.388" gradientUnits="objectBoundingBox"><stop offset="0" stop-color="#e8cd00"/><stop offset="1" stop-color="#7454e5"/></linearGradient><linearGradient id="y" x1="-18.879" y1="2.388" x2="-17.094" y2="2.388" gradientUnits="objectBoundingBox"><stop offset="0" stop-color="#fff"/><stop offset="1" stop-color="#eee5f3"/></linearGradient><linearGradient id="z" x1="1.334" y1="0.754" x2="0.137" y2="0.391" xlink:href="#x"/><linearGradient id="aa" x1="0.274" y1="0.285" x2="0.734" y2="0.827" xlink:href="#y"/><linearGradient id="ab" x1="0.984" y1="0.572" x2="0.348" y2="0.498" gradientUnits="objectBoundingBox"><stop offset="0"/><stop offset="1"/></linearGradient><linearGradient id="ac" x1="0.531" y1="0.144" x2="0.486" y2="0.522" gradientUnits="objectBoundingBox"><stop offset="0" stop-color="#544f60"/><stop offset="1" stop-color="#271f35"/></linearGradient><linearGradient id="ad" x1="0.874" y1="0.235" x2="0.67" y2="0.505" xlink:href="#ac"/><linearGradient id="ae" y1="0.5" x2="1" y2="0.5" gradientUnits="objectBoundingBox"><stop offset="0" stop-color="#251932"/><stop offset="1" stop-color="#271f35"/></linearGradient><linearGradient id="af" x1="0.556" y1="0.174" x2="0.429" y2="0.638" xlink:href="#ac"/><linearGradient id="ah" x1="0" y1="0.5" x2="1" y2="0.5" xlink:href="#ae"/><linearGradient id="ai" x1="0" y1="0.5" x2="1" y2="0.5" xlink:href="#ae"/><linearGradient id="aj" x1="0.514" y1="0.169" x2="0.487" y2="0.672" xlink:href="#ac"/><linearGradient id="ak" x1="0.467" y1="0.122" x2="0.516" y2="0.589" xlink:href="#ac"/><linearGradient id="al" x1="0" y1="0.5" x2="1" y2="0.5" xlink:href="#y"/><linearGradient id="an" y1="0.5" x2="3.471" y2="0.5" gradientUnits="objectBoundingBox"><stop offset="0" stop-color="#181b6a"/><stop offset="0.143" stop-color="#1d1e71"/><stop offset="0.362" stop-color="#2d2886"/><stop offset="0.629" stop-color="#4738a9"/><stop offset="0.932" stop-color="#6b4ed9"/><stop offset="1" stop-color="#7454e5"/></linearGradient><linearGradient id="ao" x1="-0.234" y1="0.5" x2="1" y2="0.5" xlink:href="#an"/><linearGradient id="ap" y1="0.5" x2="1" y2="0.5" gradientUnits="objectBoundingBox"><stop offset="0"/><stop offset="1" stop-color="#7454e5"/></linearGradient><linearGradient id="aq" x1="29.888" y1="0.927" x2="29.35" y2="0.274" xlink:href="#a"/><linearGradient id="ar" x1="57.21" y1="0.082" x2="57.366" y2="0.365" xlink:href="#a"/></defs><g transform="translate(-750.252 -159)"><g transform="translate(750.252 159)"><g transform="translate(585.515 522.505)"><path d="M878.581,826.881s23.376-1.459,39.462-15.557,24.131-27.917,55.3-20.454,47.756-21.836,77.668-9.121,16.841,45.884,16.841,45.884Z" transform="translate(-878.581 -778.104)" fill="url(#a)"/><g transform="translate(160.764 1.962)"><path d="M1104.573,829.131l-.781-1.195c22.063-14.412,7.63-46.325,7.482-46.646l1.3-.6C1112.724,781.022,1127.672,814.042,1104.573,829.131Z" transform="translate(-1103.792 -780.691)" fill="#a1fff2"/></g><g transform="translate(169.153 32.138)"><path d="M1116.5,832.869l-.955-1.061c9.3-8.372,22.563-8.829,23.124-8.844l.038,1.428C1138.575,824.4,1125.4,824.856,1116.5,832.869Z" transform="translate(-1115.544 -822.964)" fill="#a1fff2"/></g><g transform="translate(152.925 0)"><path d="M1112.547,798.64c-12.547,0-19.442-19.383-19.736-20.226l1.348-.47c.068.2,6.856,19.269,18.411,19.269.253,0,.508-.01.766-.029l.1,1.424C1113.139,798.629,1112.841,798.64,1112.547,798.64Z" transform="translate(-1092.811 -777.943)" fill="#a1fff2"/></g><g transform="translate(143.608 19.369)"><path d="M1107.922,820.961c-17.809,0-28.06-14.933-28.163-15.088l1.184-.8c.1.151,10.372,15.11,28.129,14.435l.053,1.426C1108.722,820.953,1108.32,820.961,1107.922,820.961Z" transform="translate(-1079.759 -805.077)" fill="#a1fff2"/></g><g transform="translate(130.414 6.791)"><path d="M1077.249,830.64l-1.3-.587c12.074-26.762-14.4-41.193-14.672-41.335l.67-1.262C1062.227,787.605,1089.868,802.672,1077.249,830.64Z" transform="translate(-1061.276 -787.456)" fill="#a1fff2"/></g><g transform="translate(56.989 11.718)"><path d="M959.131,832.2l-.715-1.235c10.314-5.978,7.463-13.427,3.659-20.545-5.048-9.445,6.056-16,6.17-16.065l.715,1.236c-.412.238-10.022,5.931-5.625,14.156C967.577,817.688,970,825.9,959.131,832.2Z" transform="translate(-958.416 -794.358)" fill="#a1fff2"/></g><g transform="translate(47.407 21.943)"><path d="M950.628,836.844l-1.046-.972c2.232-2.4,3.262-4.6,3.146-6.734-.161-2.985-2.6-5.486-5.2-7.743A6.8,6.8,0,0,1,945,816.512c-.215-4.035,3.137-7.677,3.28-7.83l1.045.973c-.032.033-3.085,3.362-2.9,6.787a5.42,5.42,0,0,0,2.031,3.873c2.845,2.464,5.5,5.228,5.694,8.745C954.291,831.6,953.138,834.145,950.628,836.844Z" transform="translate(-944.992 -808.682)" fill="#a1fff2"/></g><g transform="translate(113.186 12.93)"><path d="M1048.031,833.886c-.094-.066-9.468-6.741-4.105-17.849,4.84-10.025-6.668-18.747-6.785-18.834l.851-1.146c.127.094,12.573,9.51,7.22,20.6a12.479,12.479,0,0,0,3.635,16.057Z" transform="translate(-1037.141 -796.056)" fill="#a1fff2"/></g><g transform="translate(76.635 9.85)"><path d="M1011.858,831.429l-.554-.149c-.177-.047-17.7-4.949-16.375-21.2,1.219-14.964-8.575-16.857-8.991-16.929l.24-1.408c.116.02,11.5,2.141,10.175,18.453-1.1,13.5,11.91,18.584,14.773,19.535,8.867-17.929-5.724-34.057-5.874-34.22l1.049-.969c.158.171,15.705,17.358,5.822,36.378Z" transform="translate(-985.938 -791.742)" fill="#a1fff2"/></g><g transform="translate(85.879 10.96)"><path d="M999.807,814.259l-.92-1.091c8.095-6.822,3.167-19.207,3.116-19.332l1.321-.54C1003.379,793.429,1008.7,806.763,999.807,814.259Z" transform="translate(-998.887 -793.296)" fill="#a1fff2"/></g><g transform="translate(64.497 10.728)"><path d="M969.62,821.74l-.686-1.251c14.744-8.074,7.958-26.234,7.662-27l1.331-.514C978.005,793.171,985.464,813.064,969.62,821.74Z" transform="translate(-968.934 -792.971)" fill="#a1fff2"/></g><g transform="translate(38.779 33.012)"><path d="M943.937,833.174a10.678,10.678,0,0,1-4.8-1.089,13.349,13.349,0,0,1-6.234-7.481l1.365-.415c.015.046,1.462,4.628,5.512,6.622,2.58,1.271,5.686,1.243,9.229-.08l.5,1.337A15.979,15.979,0,0,1,943.937,833.174Z" transform="translate(-932.906 -824.189)" fill="#a1fff2"/></g><g transform="translate(119.456 8.59)"><path d="M1046.766,825.749l-.841-1.154c17.361-12.636,7.925-33.139,7.515-34.006l1.29-.612C1054.836,790.2,1065.091,812.41,1046.766,825.749Z" transform="translate(-1045.925 -789.977)" fill="#a1fff2"/></g></g><g transform="translate(729.286 370.136)"><path d="M1022.57,752.428s11.6-32.1,14.754-42.458c4.242-13.941,6.292-50.214,6.292-50.214H1018C1018,699.856,1022.57,752.428,1022.57,752.428Z" transform="translate(-996.788 -659.756)" fill="url(#b)"/><path d="M1071.309,718.939s-26.314,67-31.3,87.384c-4.25,17.38,25.641,53.126,25.641,53.126l15.268-6.383C1080.919,784.641,1065.314,744.135,1071.309,718.939Z" transform="translate(-997.105 -657.374)" fill="url(#c)"/><g transform="translate(0.902)"><path d="M998.476,854.455h37.1c0-78.266,45.927-115.95,45.927-194.7h-37.1C1044.4,738.5,998.476,776.189,998.476,854.455Z" transform="translate(-998.476 -659.756)" fill="url(#d)"/></g><path d="M997.609,854.455h1.569c0-78.266,45.928-115.95,45.928-194.7h-1.569C1043.537,738.5,997.609,776.189,997.609,854.455Z" transform="translate(-997.609 -659.756)" fill="#fff"/><g transform="translate(36.773)"><path d="M1032.959,854.455h1.569c0-78.266,45.927-115.95,45.927-194.7h-1.568C1078.886,738.5,1032.959,776.189,1032.959,854.455Z" transform="translate(-1032.959 -659.756)" fill="#fff"/></g><rect width="2.353" height="3.012" transform="translate(66.78 9.875)" fill="#fff"/><rect width="2.353" height="3.012" transform="translate(72.763 14.401)" fill="#fff"/><rect width="2.352" height="3.011" transform="translate(40.061 11.382)" fill="#fff"/><rect width="2.352" height="3.013" transform="translate(57.091 170.823)" fill="#fff"/><rect width="2.353" height="3.011" transform="translate(34.022 11.382)" fill="#fff"/><rect width="2.352" height="3.012" transform="translate(47.555 54.54)" fill="#fff"/><rect width="2.353" height="3.012" transform="translate(45.703 63.691)" fill="#fff"/><rect width="2.352" height="3.012" transform="translate(23.748 2.501)" fill="#fff"/><rect width="2.352" height="3.011" transform="translate(35.198 28.028)" fill="#fff"/><rect width="2.353" height="3.013" transform="translate(66.78 132.353)" fill="#fff"/><rect width="2.352" height="3.012" transform="translate(55.973 63.419)" fill="#fff"/><rect width="2.352" height="3.011" transform="translate(72.083 118.798)" fill="#fff"/><rect width="2.353" height="3.012" transform="translate(66.183 104.126)" fill="#fff"/><rect width="2.353" height="3.011" transform="translate(67.956 45.942)" fill="#fff"/><rect width="2.352" height="3.012" transform="translate(54.797 130.848)" fill="#fff"/><rect width="2.353" height="3.013" transform="translate(66.78 140.583)" fill="#fff"/><rect width="2.353" height="3.012" transform="translate(28.231 45.497)" fill="#fff"/><rect width="2.353" height="3.012" transform="translate(29.17 162.949)" fill="#fff"/><rect width="2.352" height="3.012" transform="translate(44.527 100.74)" fill="#fff"/><rect width="2.352" height="3.012" transform="translate(44.527 107.942)" fill="#fff"/><rect width="2.353" height="3.012" transform="translate(65.604 92.54)" fill="#fff"/><rect width="2.352" height="3.013" transform="translate(15.409 153.854)" fill="#fff"/><rect width="2.352" height="3.011" transform="translate(28.311 136.861)" fill="#fff"/><rect width="2.352" height="3.012" transform="translate(57.149 32.115)" fill="url(#e)"/><rect width="2.352" height="3.012" transform="translate(29.407 112.968)" fill="url(#f)"/><rect width="2.352" height="3.013" transform="translate(53.032 80.679)" fill="url(#g)"/><rect width="2.352" height="3.012" transform="translate(36.773 125.744)" fill="url(#h)"/></g><g transform="translate(711.492 442.263)"><path d="M1348.779,704.021s-38.592-1.837-50.982,24.055c-8.582,17.932-3.145,32.079-17.417,40.246-24.328,13.921-34.28,39.584,3.565,65.7h57.939s16.385-23.671,1.247-38.56-24.227-38.311,0-50.127C1369.106,732.666,1334.068,715.108,1348.779,704.021Z" transform="translate(-1258.787 -703.697)" fill="url(#i)"/><g transform="translate(14.914)"><path d="M1301.937,743.862c1.636,20.236-3.828,25.558-12.1,33.615a93.856,93.856,0,0,0-11.034,12.252c-13.341,18.16,12.81,44.209,13.076,44.47l.544-.4c-.263-.255-26.074-25.962-13.012-43.743a93.408,93.408,0,0,1,10.966-12.176c8.09-7.877,13.936-13.568,12.279-34.059-2.273-28.11,45.378-39.447,45.86-39.558l-.187-.589C1347.839,703.783,1299.626,715.251,1301.937,743.862Z" transform="translate(-1275.012 -703.671)" fill="#a1fff2"/></g><g transform="translate(34.419 0.343)"><path d="M1318.145,737.825c1.339,24.7-2.245,30.337-11.824,45.4-1.477,2.318-3.151,4.951-4.948,7.881-13.144,21.431,3.042,42.877,3.207,43.091l.6-.334c-.162-.211-16.116-21.367-3.169-42.475,1.793-2.926,3.465-5.555,4.941-7.874,9.65-15.167,13.26-20.844,11.912-45.714-1.522-28.083,31.579-33.1,31.913-33.15l-.118-.6C1350.318,704.093,1316.595,709.194,1318.145,737.825Z" transform="translate(-1296.231 -704.044)" fill="#a1fff2"/></g><g transform="translate(58.179 0.373)"><path d="M1340.882,725.4c3,11.28.157,14.292-5.506,20.294-1.257,1.332-2.683,2.843-4.2,4.613-8.543,9.953-8.143,23.9-7.1,33.525a29.19,29.19,0,0,0,2.5,7.818c3.545,8.46,8.4,20.046-4.5,42.251l.643.27c13.036-22.438,8.121-34.163,4.533-42.726a28.783,28.783,0,0,1-2.464-7.67c-1.035-9.525-1.438-23.321,6.962-33.106,1.51-1.759,2.93-3.266,4.183-4.593,5.807-6.153,8.722-9.243,5.645-20.811-3.6-13.559,11.918-20.572,12.075-20.641l-.33-.541C1353.164,704.148,1337.153,711.372,1340.882,725.4Z" transform="translate(-1322.078 -704.077)" fill="#a1fff2"/></g></g><g transform="translate(735.576 478.336)"><path d="M980.976,868.709H938.592l-19.281-94.454h80.947Zm-40.237-2.629h38.09l18.21-89.2H922.531Z" transform="translate(-919.311 -774.255)" fill="#fff"/><g transform="translate(27.552)"><path d="M960.393,868.709h-14.4l-5.718-94.454h25.841Zm-11.929-2.629h9.453l5.4-89.2H943.064Z" transform="translate(-940.27 -774.255)" fill="#fff"/></g><g transform="translate(15.986 71.66)"><rect width="47.533" height="2.629" fill="#fff"/></g><g transform="translate(11.396 43.452)"><rect width="59.536" height="2.629" fill="#fff"/></g></g><g transform="translate(60.856 247.924)"><g transform="translate(110.494)"><g transform="translate(0.779 0.561)"><path d="M420.322,923.793V601.459L465.764,644.2l26.663,236.3v43.294Z" transform="translate(-420.322 -601.459)" fill="#f5da0d"/></g><g transform="translate(52.955 235.001)"><path d="M471.414,824.115l-11.4.258,5.871-44.577Z" transform="translate(-460.013 -779.797)" fill="#fff"/></g><g transform="translate(0.326 0.001)"><path d="M492.08,923.927l0-43.216L465.447,644.638l-44.563-41.913v321.2h-.906V601.594a.592.592,0,0,1,.25-.5.385.385,0,0,1,.477.058l45.443,42.74a.589.589,0,0,1,.174.367L492.99,880.634v43.293Z" transform="translate(-419.978 -601.033)" fill="#fff"/></g><g transform="translate(2.441 42.742)"><path d="M421.587,913.7,464.921,634a.473.473,0,0,1,.531-.447.564.564,0,0,1,.359.656L422.511,913.7Z" transform="translate(-421.587 -633.546)" fill="#fff"/></g><g transform="translate(0.325 29.96)"><path d="M489.527,916.758h-.919L466.124,738.044,439.8,916.758h-.924L465.7,734.666,452.222,627.553,420.895,817.115l15.528,99.643H435.5l-15.512-99.539a.762.762,0,0,1,0-.218L451.84,624.271a.537.537,0,0,1,.456-.448.5.5,0,0,1,.438.475l13.46,107,5.561-37.754a.472.472,0,0,1,.528-.448.564.564,0,0,1,.366.652l-6.03,40.928Z" transform="translate(-419.977 -623.823)" fill="#fff"/></g><g transform="translate(0 15.509)"><path d="M478.407,920.216h-.92l-11.271-84.444-11.723,84.444h-.92l12.193-87.826-28.83-216.009-16.289,92.772,31.286,211.063h-.924L419.735,709.243a.759.759,0,0,1,.005-.218l16.812-95.753a.525.525,0,0,1,.455-.442.5.5,0,0,1,.436.469l28.788,215.709,11.33-81.6a.477.477,0,0,1,.523-.46.563.563,0,0,1,.372.648l-11.772,84.793Z" transform="translate(-419.73 -612.83)" fill="#fff"/><path d="M464.646,865.625l9.393-78.786a.488.488,0,0,1,.514-.473.56.56,0,0,1,.385.636l-9.373,78.623Z" transform="translate(-405.6 -558.239)" fill="#fff"/></g><g transform="translate(0.324)"><path d="M464.806,923.927,419.983,601.689a.564.564,0,0,1,.372-.648c.252-.055.482.154.525.459l44.85,322.427Z" transform="translate(-419.976 -601.032)" fill="#fff"/><path d="M455.5,876.5l16.286-124.243a.476.476,0,0,1,.522-.463.556.556,0,0,1,.373.642L456.422,876.5Z" transform="translate(-408.8 -553.607)" fill="#fff"/></g><g transform="translate(0.325 54.953)"><path d="M420.663,642.913,471.689,680.2a.64.64,0,0,1,.159.769.447.447,0,0,1-.39.273.392.392,0,0,1-.233-.078L420.2,643.876a.641.641,0,0,1-.159-.768A.412.412,0,0,1,420.663,642.913Z" transform="translate(-419.977 -642.835)" fill="#fff"/></g><g transform="translate(0.324 110.287)"><path d="M420.616,684.977l56.641,31.687a.621.621,0,0,1,.225.741.46.46,0,0,1-.413.329.391.391,0,0,1-.188-.05L420.243,686a.619.619,0,0,1-.226-.739A.424.424,0,0,1,420.616,684.977Z" transform="translate(-419.977 -684.927)" fill="#fff"/></g><g transform="translate(0.324 164.857)"><path d="M420.567,726.463,482.5,750.495a.6.6,0,0,1,.3.7.48.48,0,0,1-.434.39.347.347,0,0,1-.137-.025L420.3,727.532a.6.6,0,0,1-.3-.7A.449.449,0,0,1,420.567,726.463Z" transform="translate(-419.977 -726.438)" fill="#fff"/></g><g transform="translate(0.585 222.883)"><path d="M420.692,770.584l66.814,11.558a.555.555,0,0,1,.385.632.5.5,0,0,1-.448.484.26.26,0,0,1-.064-.007l-66.812-11.558a.552.552,0,0,1-.386-.632A.485.485,0,0,1,420.692,770.584Z" transform="translate(-420.175 -770.579)" fill="#fff"/></g><g transform="translate(0.584 276.665)"><path d="M420.629,811.49h.012l71.846,2.378a.525.525,0,0,1,.442.575.514.514,0,0,1-.456.544h-.012l-71.843-2.375a.524.524,0,0,1-.443-.576A.514.514,0,0,1,420.629,811.49Z" transform="translate(-420.174 -811.49)" fill="#fff"/></g></g><g transform="translate(0 0.003)"><g transform="translate(0.454 0.558)"><path d="M336.023,923.793V880.5l40.928-236.3,69.754-42.741V923.793Z" transform="translate(-336.023 -601.459)" fill="url(#j)"/></g><g transform="translate(0 0)" style="mix-blend-mode:multiply;isolation:isolate"><path d="M446.361,923.926V602.5l-68.9,42.218L336.586,880.694v43.233h-.908V880.633a.881.881,0,0,1,.009-.117l40.927-236.3a.559.559,0,0,1,.245-.386l69.752-42.74a.389.389,0,0,1,.442.028.6.6,0,0,1,.216.476V923.926Z" transform="translate(-335.678 -601.034)" fill="url(#k)"/></g><g transform="translate(40.928 42.741)" style="mix-blend-mode:multiply;isolation:isolate"><path d="M433.288,913.7,366.83,634.263a.587.587,0,0,1,.308-.694.448.448,0,0,1,.563.379L434.233,913.7Z" transform="translate(-366.812 -633.547)" fill="url(#l)"/></g><g transform="translate(5.312 29.958)" style="mix-blend-mode:multiply;isolation:isolate"><path d="M421.231,916.758l23.837-99.642L396.708,626.493,375.819,734.664l41.168,182.094h-.943L375.385,736.91,340.651,916.758h-.932L374.88,734.685,365.637,693.8a.586.586,0,0,1,.315-.691.454.454,0,0,1,.559.388l8.8,38.938,20.891-108.181a.491.491,0,0,1,.427-.43.486.486,0,0,1,.448.392l48.895,192.73a.684.684,0,0,1,0,.326l-23.8,99.486Z" transform="translate(-339.719 -623.823)" fill="url(#m)"/></g><g transform="translate(6.134 15.506)" style="mix-blend-mode:multiply;isolation:isolate"><path d="M354.735,865.626l-14.38-78.579a.574.574,0,0,1,.342-.67.458.458,0,0,1,.543.422l14.426,78.828Z" transform="translate(-340.344 -558.24)" fill="url(#n)"/><path d="M393.452,920.216l48.023-211.059L416.2,615.384l-44.457,217,18.718,87.829h-.939l-18.241-85.581-17.533,85.581h-.936L370.8,832.394l-18.06-84.747a.581.581,0,0,1,.322-.684.455.455,0,0,1,.556.4l17.643,82.786,44.436-216.9a.489.489,0,0,1,.422-.422.449.449,0,0,1,.448.383l25.809,95.753a.673.673,0,0,1,.005.327L394.4,920.216Z" transform="translate(-336.447 -612.83)" fill="url(#o)"/></g><g transform="translate(14.005)" style="mix-blend-mode:multiply;isolation:isolate"><path d="M371.3,876.5,346.345,752.482a.579.579,0,0,1,.331-.678.46.46,0,0,1,.551.409L372.233,876.5Z" transform="translate(-346.332 -553.61)" fill="url(#p)"/><path d="M368.446,923.926h-.94l68.858-322.474a.451.451,0,0,1,.553-.4.577.577,0,0,1,.323.682Z" transform="translate(-339.671 -601.034)" fill="url(#q)"/></g><g transform="translate(32.355 54.95)" style="mix-blend-mode:multiply;isolation:isolate"><path d="M360.582,680.158l78.327-37.286a.434.434,0,0,1,.588.322.612.612,0,0,1-.262.723L360.908,681.2a.368.368,0,0,1-.163.037.464.464,0,0,1-.425-.358A.61.61,0,0,1,360.582,680.158Z" transform="translate(-360.29 -642.835)" fill="url(#r)"/></g><g transform="translate(23.74 110.284)" style="mix-blend-mode:multiply;isolation:isolate"><path d="M354.062,716.637l86.945-31.689a.453.453,0,0,1,.563.381.59.59,0,0,1-.306.694L354.319,717.71a.368.368,0,0,1-.128.024.476.476,0,0,1-.436-.4A.588.588,0,0,1,354.062,716.637Z" transform="translate(-353.737 -684.927)" fill="url(#s)"/></g><g transform="translate(15.616 164.852)" style="mix-blend-mode:multiply;isolation:isolate"><path d="M347.92,750.481l95.066-24.033a.469.469,0,0,1,.538.436.573.573,0,0,1-.355.663L348.1,751.579a.363.363,0,0,1-.092.011.488.488,0,0,1-.443-.447A.566.566,0,0,1,347.92,750.481Z" transform="translate(-347.557 -726.436)" fill="url(#t)"/></g><g transform="translate(7.725 222.882)" style="mix-blend-mode:multiply;isolation:isolate"><path d="M341.965,782.139,444.524,770.58a.51.51,0,0,1,.494.507.541.541,0,0,1-.411.609l-102.556,11.56h-.045a.5.5,0,0,1-.45-.509A.54.54,0,0,1,341.965,782.139Z" transform="translate(-341.555 -770.58)" fill="url(#u)"/></g><g transform="translate(0 276.659)" style="mix-blend-mode:multiply;isolation:isolate"><path d="M336.124,813.869l110.283-2.378c.268-.033.459.241.461.55a.52.52,0,0,1-.444.572l-110.285,2.375h-.009a.573.573,0,0,1-.007-1.119Z" transform="translate(-335.678 -811.488)" fill="url(#v)"/></g></g></g><g transform="translate(190.147 99.877)"><path d="M823.136,908.962H494.861S433.2,863.97,434.038,746.49,475.7,539.86,540.685,511.531,649,510.7,680.661,593.184s184.135,63.322,200.8,127.478S911.455,908.962,823.136,908.962Z" transform="translate(-434.03 -436.677)" fill="url(#w)"/><path d="M568.281,513.026s-35.827,19.719-57.213,26.106S477.186,611.306,487.184,666.3s24.023,82.8,43.6,94.464c0,0,11.109-27.774,4.028-57.351S611.468,653,626.049,649.252,692.7,638.837,692.7,638.837s-12.151-65.336-31.176-93.526S605.636,519.83,588.693,514,568.281,513.026,568.281,513.026Z" transform="translate(-425.242 -434.838)" fill="url(#x)"/><g transform="translate(164.754 114.241)"><path d="M598.423,660.828l-1.161-.191c3.735-22.874-5.256-35.853-13.19-47.3-6.2-8.95-11.557-16.678-8.355-26.85,6.877-21.855-1.618-42.448-1.706-42.654l1.085-.458c.088.209,8.753,21.184,1.742,43.466-3.027,9.622,2.176,17.131,8.2,25.825C592.7,623.721,602.235,637.482,598.423,660.828Z" transform="translate(-574.011 -543.373)" fill="url(#y)"/></g><path d="M716.742,777.4s-.648,4.86-9.964,11.055-20.011,8.321-18.049,24.672,73.224,41.879,133.192,34.053c0,0-.857-25.844-19.931-29.092S763.7,802.2,761.665,787.53s1.974-21.9,1.974-21.9S725.55,754.742,716.742,777.4Z" transform="translate(-388.997 -390.261)" fill="#dce0e4"/><path d="M514.367,535.594c-21.343,6.855-44.679,42.389-47.179,79.05s-31.245,105.813,32.494,105.4,47.075-75.821,36.244-80.819c0,0,7.138-35.764,1.667-67.488S525.116,532.143,514.367,535.594Z" transform="translate(-429.686 -430.641)" fill="url(#z)"/><path d="M658.621,593.8c3.5-.423-57.307,22.227-86.229,27.091-26.114,4.39-53.137,5.05-76.155,12.966s-25.977,35.655-22.227,48.986,14.432,25.73,35.679,20.937,26.015-7.6,60.954-31.948,63.4-41.107,80.271-54.646S658.621,593.8,658.621,593.8Z" transform="translate(-427.195 -420.209)" fill="#e6a19b"/><g transform="translate(146.845 65.074)"><path d="M618.2,623.651l29-115.993a7.994,7.994,0,0,1,9.679-5.823l122.835,30.43a8,8,0,0,1,5.833,9.709L759.912,644.133Z" transform="translate(-548.281 -501.599)" fill="#dce0e4"/><path d="M620.57,623.765l28.9-115.6a7.969,7.969,0,0,1,9.648-5.8l122.415,30.327a7.968,7.968,0,0,1,5.814,9.673L761.8,644.178Z" transform="translate(-547.863 -501.505)" fill="url(#aa)"/><path d="M631.5,605.476,558.8,644.753,707.6,665.746l62.821-40Z" transform="translate(-558.795 -483.215)" fill="#dce0e4"/></g><path d="M689.25,806.742c2.476-1.664,9.066-1.576,27.141,9.905s43.7,10.434,64.61,10.607,35.683,2.827,40.923,12.33-10.737,15.4-31.6,16.333c-21.108.945-45.031-2.988-71.562-20.445S686.038,808.9,689.25,806.742Z" transform="translate(-389 -382.66)" fill="url(#ab)"/><path d="M687.581,761.71c60.736-13.647,112.308-112.768,122.843-141.893s-8.207-56.794-58.285-36.433-110.408,54.123-135.41,89.063S624.885,775.8,687.581,761.71Z" transform="translate(-403.178 -423.29)" fill="url(#ac)"/><path d="M800.991,597.637c7.258,45.218,22.964,124.311,43.607,183.433,0,0-53.855-20.425-82.425,12.937s-48.128,28.848-88.231,2.414c0,0,32.326-60.511,46.183-140.3S795.51,563.5,800.991,597.637Z" transform="translate(-391.572 -422.669)" fill="url(#ad)"/><path d="M769.961,741.81c1.477.581,10.207,11.458,26.662,8.125s27.426,5.276,27.426,5.276l-39.715,75.126s-33.535-30.619-47.075-49.366S747.674,733.063,769.961,741.81Z" transform="translate(-381.063 -394.297)" fill="#e6a19b"/><g transform="translate(127.447)"><path d="M578.994,497.245l1.681,22.166c2.6,7.706-4.791,24.787-4.791,24.787s-19.475-15.1-25.308-23.658l.069-32.546A282.1,282.1,0,0,0,578.994,497.245Z" transform="translate(-540.851 -438.932)" fill="#e6a19b"/><path d="M577.357,510.685c-8.067,2.765-20.085,1.888-26.756-4.211l.039-18.48a255.764,255.764,0,0,0,28.347,10.716l-.026,11.537A14.061,14.061,0,0,0,577.357,510.685Z" transform="translate(-540.847 -438.932)" fill="#d97f77"/><path d="M577.323,515.713c-8.162-.074-23.029-11.224-26.313-18.7-1.17-2.663-.529-9.556-.521-13.133.027-12.875,7.044-20.395,15.358-23.311,3.5-1.219,14.717-.949,17.936-.277,10.613,2.247,12.15,12.483,12.192,23.321C596.024,495.775,591.713,515.844,577.323,515.713Z" transform="translate(-540.899 -443.935)" fill="#e6a19b"/><g transform="translate(42.427 31.242)"><path d="M578.825,494.143l-.464-1.721c2.27-.612,4.9-1.822,5.2-2.711.021-.061.055-.162-.117-.38-4.391-5.569-2.92-12.95-2.855-13.263l.044-.211.135-.166a8.377,8.377,0,0,1,9.217-2.319l-.572,1.688a6.633,6.633,0,0,0-7.118,1.594c-.2,1.218-.924,7.169,2.548,11.573a2.109,2.109,0,0,1,.411,2.046C584.506,492.512,579.766,493.89,578.825,494.143Z" transform="translate(-578.361 -472.854)" fill="url(#ae)"/></g><path d="M562.763,468.264c7.322,7.793,28.55-1.894,33.809,5.846,5.609,8.256,18.43-13.432,4.323-23.643-12.269-8.88-20.6-1.246-32.426,1.87s-15.522-1.756-22.844,8.371-1.169,28.923,5.609,39.83c2.968,4.777-2.8-19.184,5.919-19.806S562.763,468.264,562.763,468.264Z" transform="translate(-542.313 -446.309)" fill="url(#af)"/><path d="M569.356,492.142s1.115.523,1.81,2.775,2.572,7.309,6.246,6.611S586.223,493,582.2,494.4,569.356,492.142,569.356,492.142Z" transform="translate(-537.527 -438.198)" fill="#d97f77"/><g transform="translate(27.344 30.835)"><path d="M566.419,476.5l-.873-1.551c3.812-2.147,6.964-2.881,9.367-2.187a4.314,4.314,0,0,1,2.623,1.88l-1.561.859C575.956,475.466,573.952,472.26,566.419,476.5Z" transform="translate(-565.546 -472.508)" fill="url(#ae)"/></g><path d="M568.795,479.929a2.008,2.008,0,1,0,2.529-1.861A2.248,2.248,0,0,0,568.795,479.929Z" transform="translate(-537.645 -440.699)" fill="url(#ah)"/><path d="M582.438,479.929a2.008,2.008,0,1,0,2.528-1.861A2.249,2.249,0,0,0,582.438,479.929Z" transform="translate(-535.231 -440.699)" fill="url(#ai)"/><path d="M561.337,482.784a8.537,8.537,0,1,1-7.789-9.223A8.535,8.535,0,0,1,561.337,482.784Z" transform="translate(-541.963 -441.492)" fill="#e6a19b"/><g transform="translate(4.824 34.043)"><path d="M552.366,488.029a5.818,5.818,0,0,1-2.628-.792l.911-1.533a3.361,3.361,0,0,0,2.007.51.551.551,0,0,0,.354-.3c.144-.273.144-.273-.308-.754a3.621,3.621,0,0,1-1.16-3.412,6.9,6.9,0,0,1,1.3-2.857c.733-1.073.733-1.073-.039-1.615-1.461-1.024-4.225,1.405-5.08,2.339l-1.314-1.2c.446-.485,4.435-4.685,7.416-2.593,2.212,1.551,1.175,3.071.487,4.077a5.293,5.293,0,0,0-1.016,2.141,1.916,1.916,0,0,0,.7,1.9,2.2,2.2,0,0,1,.588,2.806,2.321,2.321,0,0,1-1.451,1.188A2.851,2.851,0,0,1,552.366,488.029Z" transform="translate(-546.412 -475.234)" fill="#d97f77"/></g></g><path d="M576.772,764.177c62.251,0,140.97-73.245,157.634-99.352s.012-62.842-53.312-53.955-119.587,28.6-151.64,57.212S512.512,764.177,576.772,764.177Z" transform="translate(-420.02 -417.426)" fill="url(#aj)"/><path d="M718.222,754.992s-24.287-43.222-84.387-43.222c-41.988,0-76.977,6.955-115.262,40.739Z" transform="translate(-419.068 -399.33)" fill="#5b5102"/><path d="M710.173,623.945c27.265,36.8,77.625,99.774,123.173,142.754,0,0-57.212,6.665-67.21,49.435s-29.44,47.77-77.209,42.771c0,0-10.922-76.105-35.362-153.315S689.589,596.163,710.173,623.945Z" transform="translate(-396.191 -416.615)" fill="url(#ak)"/><path d="M543.763,521.492s8.053-7.221,7.5-15.832c0,0,13.054,23.608,24.439,32.217l4.444-28.328a19.311,19.311,0,0,0,12.5,8.608l-13.887,27.773Z" transform="translate(-414.61 -435.806)" fill="url(#al)"/><path d="M895.753,715.425s-15.919-2.031-26.756,8.468-14.563,21-41.093,25.626-28.11,1.918-28.11,1.918-5.645,7.564.451,11.853c0,0-15.917,8.919-15.917,21.45s-.113,32.965-11.741,41.093,12.193,18.515,16.821,25.852S800.3,866.8,808.99,869.732C808.99,869.732,877.351,814.093,895.753,715.425Z" transform="translate(-374.674 -398.711)" fill="url(#al)"/><path d="M783.182,791.968c-1.342,8.471-4.255,16.56-10.6,20.993-6.452,4.51-1.984,9.717,4.059,14.712,2.445-3.7,5.4-14.044,8.121-17.633,5.361-7.064,19.342-19.125,21.054-20.917-.024-.048-.04-.085-.064-.137C805.238,788.173,789.117,786.248,783.182,791.968Z" transform="translate(-374.674 -385.838)" fill="url(#an)"/><path d="M857.7,732.322c-4.586,6.378-31.572,35.261-31.645,48.059-.046,8.079.789,13.558-.55,22.229-1.224,7.928-38.248,32.932-35.722,52.172a40.716,40.716,0,0,0,9.945,9.57c-14.838-9.771,33.138-56.437,35.92-60.543,1.111-1.639,1.916-8.631,1.344-10.467-1.351-4.338-.638-8.4.271-12.783,1.624-7.822,4.272-15.328,9.019-21.831,5.336-7.311,11.61-13.8,16.928-21.135C869.839,728.458,860.328,728.668,857.7,732.322Z" transform="translate(-371.093 -396.11)" fill="url(#ao)"/><path d="M891.28,715.909c-7.69-2.452-24.724,19.3-32.513,62.316s-68.074,72.816-58.592,88.056,35.223-15.241,52.158-47.414,27.094-31.836,38.269-63.333S895.325,717.2,891.28,715.909Z" transform="translate(-369.411 -398.631)" fill="url(#ap)"/></g><g transform="translate(147.338 339.642)" style="isolation:isolate"><g transform="translate(41.16)"><path d="M439.839,860.6c3.694-17.452,8.45-34.819,10.238-52.612a123.928,123.928,0,0,0-3.424-43.576c-3.808-14.7-10.693-28.332-13.237-43.381-2.782-16.451,4.376-50.633,4.61-50.228.394.674-5.729,31.041-3.52,46.827,2.06,14.721,8.384,27.861,12.5,42a127.245,127.245,0,0,1,5.262,39.3c-.473,16.226-4.237,32.2-7.844,47.956-2.172,9.479-4.409,18.954-6.146,28.525-1.742,9.606-2.905,19.1,4.671,26.6.309.305-.2.827-.538.547-4.922-4.119-6.877-9.921-6.762-16.234C435.805,877.729,438.068,868.975,439.839,860.6Z" transform="translate(-432.775 -670.801)" fill="#fff"/></g><g transform="translate(0 24.708)"><path d="M493.2,768.8c-6.047,6.19-14.495,9.377-22.828,11.714s-16.95,4.048-24.629,8.037l-.423.134A51.869,51.869,0,0,1,493.2,768.8Z" transform="translate(-387.67 -664.831)" fill="#fff"/><path d="M447.206,763.86c.1-.047.2-.085.3-.131-.256.426-.5.864-.723,1.316Z" transform="translate(-387.21 -666.276)" fill="#fff"/><path d="M463.637,755.494a37.327,37.327,0,0,1,10.252-3.109c7.036-.791,13.921,2.025,20.443,4.782-10.457,1.4-20.084,6.874-30.584,7.922-5.532.552-11.4-.085-16.419,2.251C450.8,761.562,457.345,758.157,463.637,755.494Z" transform="translate(-387.037 -669.888)" fill="#fff"/><path d="M483.523,717.1c-9.87,16.927-20.452,34.587-37.351,44.5l.5-1.108C457.312,744.687,468.628,728.979,483.523,717.1Z" transform="translate(-387.401 -680.946)" fill="#fff"/><path d="M452.826,727.477c4.475-2.737,9.528-4.354,14.527-5.946l13.6-4.332c-10.515,4.217-17.644,15.352-28.2,20.134-3.352,1.518-7,2.367-10.2,4.183l.338-2.282C444.441,734.223,448.351,730.212,452.826,727.477Z" transform="translate(-388.54 -680.914)" fill="#fff"/><path d="M471.765,717.453a23.486,23.486,0,0,1,3.336-1.061Q473.433,716.922,471.765,717.453Z" transform="translate(-379.35 -681.168)" fill="#fff"/><path d="M439.474,731.226a413.476,413.476,0,0,1,23-41.629c.561,7.882-.071,16.091-3.689,23.116-2.308,4.481-5.724,8.279-9.1,12.024q-4.961,5.5-9.921,11l-1.078.97C437.825,735,438.644,732.953,439.474,731.226Z" transform="translate(-389.87 -689.597)" fill="#fff"/><path d="M431.725,730.773a39.291,39.291,0,0,1,19.821,7.184c-6.411,1.63-12.871,3.217-19.473,3.61-6.9.409-14.033-.561-20.059-3.938C417.166,732.663,424.579,730.4,431.725,730.773Z" transform="translate(-398.146 -676.656)" fill="#fff"/><path d="M442.182,736.345c-.032-.022-.063-.043-.1-.063l.862-.219Z" transform="translate(-388.686 -674.98)" fill="#fff"/><path d="M447.423,750.387c-.457.1-.916.175-1.374.245a.435.435,0,0,0,0-.059Z" transform="translate(-387.439 -670.473)" fill="#fff"/><path d="M433.132,748.346c9.065.28,18.072,4.305,26.942,2.933a.865.865,0,0,1-.415.515,65.869,65.869,0,0,1-58.194,6.834C411.4,753.385,421.907,748,433.132,748.346Z" transform="translate(-401.465 -671.12)" fill="#fff"/><path d="M446.155,750.493a.3.3,0,0,1,0,.084l-.394.053C445.534,750.469,446.074,750.225,446.155,750.493Z" transform="translate(-387.547 -670.478)" fill="#fff"/><path d="M441.444,760.153c5.562,3.081,11.283,6.919,17.626,6.485l-2.082.148c-3.033,2.794-7.364,3.854-11.48,3.635a36.916,36.916,0,0,1-11.894-3.167A116.936,116.936,0,0,1,410.739,754.7C420.952,751.552,432.1,754.974,441.444,760.153Z" transform="translate(-398.548 -669.497)" fill="#fff"/><path d="M440.375,777.485c4.935,4.031,9.14,10,15.486,10.572l.344-.176c-3.489,1.963-7.851,1.832-11.65.569s-7.162-3.547-10.468-5.8q-10.518-7.178-21.039-14.354C422.731,769.415,432.827,771.319,440.375,777.485Z" transform="translate(-397.821 -664.841)" fill="#fff"/><path d="M453.986,791.031c4.552-.592,9.163.012,13.751.192a74.628,74.628,0,0,0,15.942-1.087,22.926,22.926,0,0,1-3.764,2.4c-11.524,5.933-25.838,3.046-37.865,7.874l.285-2.9C444.8,793.637,449.433,791.624,453.986,791.031Z" transform="translate(-388.698 -657.969)" fill="#fff"/><path d="M452.091,804.4l-.243.656c-5.132.711-10.379-.8-14.927-3.281s-8.513-5.893-12.44-9.277c-4.9-4.222-9.859-8.519-13.417-13.918a192.731,192.731,0,0,1,32.85,16.545C447.508,797.393,451.332,800.22,452.091,804.4Z" transform="translate(-398.445 -661.604)" fill="#fff"/><path d="M426.392,809.245c7.222-1.994,15.12-2,22.06.83l1.446,1c-4.367-.965-8.724,1.228-12.837,2.985a72.385,72.385,0,0,1-30.323,5.763A55.475,55.475,0,0,1,426.392,809.245Z" transform="translate(-399.806 -652.4)" fill="#fff"/><path d="M439.552,810.362a6.221,6.221,0,0,1,1.1.532c-.414.1-.826.218-1.232.357Z" transform="translate(-389.526 -651.606)" fill="#fff"/><path d="M465.983,817.759c5.972,3.662,11.666,7.859,18.087,10.656-5.157,1.346-10.572,2.681-15.755,1.438a32.868,32.868,0,0,1-6.462-2.557c-6.08-2.917-12.364-5.989-16.633-11.208-1.509-1.843-2.868-4.009-4.864-5.194a19.862,19.862,0,0,1,6.159-.477C453.5,810.888,460.011,814.1,465.983,817.759Z" transform="translate(-389.231 -651.606)" fill="#fff"/></g><path d="M437.853,725q-.629-.848-1.259-1.7a24.405,24.405,0,0,1,2.293,1.328Z" transform="translate(-390.414 -654.285)" fill="#fff"/><path d="M427.434,711.218a58.864,58.864,0,0,1,10.677,9.089c1.563,1.756,2.968,3.648,4.37,5.536q1.3,1.747,2.6,3.5a24.958,24.958,0,0,0-3.356-1.439c-3.777-1.286-7.822-1.652-11.576-3a30.5,30.5,0,0,1-11.963-8.421,77.71,77.71,0,0,1-8.559-12.018,6.487,6.487,0,0,1,4.091-.022C418.7,705.642,423.213,708.3,427.434,711.218Z" transform="translate(-398.898 -660.322)" fill="#fff"/><path d="M436,701.853a64.071,64.071,0,0,1,5.215-9.16,25.332,25.332,0,0,1,2.938-3.97,21.79,21.79,0,0,1,4.986-3.624,41.113,41.113,0,0,1,8.728-3.908c.334,3.171-1.578,6.1-3.446,8.685a195.488,195.488,0,0,1-21.036,24.973A32.137,32.137,0,0,1,436,701.853Z" transform="translate(-391.425 -667.533)" fill="#fff"/><path d="M433.556,707.216l-.741.319c.252-.243.493-.5.744-.741C433.559,706.935,433.553,707.075,433.556,707.216Z" transform="translate(-391.603 -659.479)" fill="#fff"/><path d="M435.622,703.826a86.192,86.192,0,0,1,3.952,12.256l-.308-.918c-4.569-3.862-9.169-7.755-12.93-12.407a86.618,86.618,0,0,1-5.172-7.343,43.959,43.959,0,0,1-3.423-5.959,46,46,0,0,1-2.766-10.174C423.415,686.017,431.3,693.931,435.622,703.826Z" transform="translate(-397.215 -668.134)" fill="#fff"/></g><g transform="translate(0)"><path d="M1088.974,772.727H355.77l-.226-.23c-25.509-25.893-43.949-52.558-54.807-79.251-10.274-25.256-13.6-50.03-9.874-73.635,7.047-44.694,38.978-82.126,89.91-105.4,53.335-24.372,62.366-53.623,74.867-94.105,9.757-31.6,21.9-70.931,60.943-117.816,26.193-31.456,59.4-56.086,98.71-73.207,33.4-14.548,71.309-23.762,112.677-27.385,71.942-6.3,140.793,5.324,181.238,18.3,66.3,21.272,115.972,52.882,151.871,96.638,31.323,38.177,48.077,80.625,62.858,118.075,11.34,28.732,22.051,55.87,37.733,77.577,20.26,28.048,39.259,99.867,22.237,161.758-6.182,22.473-16.6,41.976-30.968,57.969-16.3,18.148-37.786,31.831-63.854,40.67ZM356.38,770.96h732.359c48.94-16.627,80.448-49.407,93.657-97.431,16.863-61.3-1.917-132.385-21.955-160.127-15.813-21.89-26.565-49.132-37.949-77.974-30.746-77.9-65.6-166.2-213.718-213.728-70.881-22.745-279.3-52.388-391.035,81.795-38.813,46.612-50.9,85.744-60.606,117.188-12.16,39.383-21.767,70.49-75.763,95.165-50.411,23.036-82,60-88.95,104.071C284.773,668.408,306.89,720.631,356.38,770.96Z" transform="translate(-289.385 -199.937)" fill="#f5f5f5"/></g><g transform="translate(23.341 402.125)"><g transform="translate(18.271 146.509)"><path d="M368.9,850.985s-27.682-4.276-47.86-19.608C321.04,831.377,348.37,821.478,368.9,850.985Z" transform="translate(-321.04 -829.781)" fill="#a1fff2"/><g transform="translate(0 0.939)"><g transform="translate(12.906)"><path d="M335.942,835.4l-.273.267-4.811-4.905.273-.267Z" transform="translate(-330.858 -830.495)" fill="#fff"/></g><g transform="translate(17.005 7.16)"><rect width="7.029" height="0.382" transform="matrix(0.958, -0.285, 0.285, 0.958, 0, 2.004)" fill="#fff"/></g><g transform="translate(29.305 5.927)"><path d="M347.029,840.515l-.326.2-3.371-5.51.326-.2Z" transform="translate(-343.332 -835.004)" fill="#fff"/></g><g transform="translate(29.603 13.491)"><rect width="0.383" height="7.646" transform="translate(0 0.383) rotate(-88.465)" fill="#fff"/></g><path d="M368.547,850.28l-.192.291-.087-.016c-22.43-14.784-40.417-18.532-47.174-19.462-.017-.012-.036-.025-.054-.039,0,0,.269-.1.768-.242C329.08,831.9,346.736,835.888,368.547,850.28Z" transform="translate(-321.04 -830.396)" fill="#fff"/></g></g><g transform="translate(0 81.809)"><path d="M391.687,866.722c-23.619-85.879-84.546-86.158-84.546-86.158,23.787,42.745,60.922,73.657,77.566,86.158Z" transform="translate(-307.141 -780.564)" fill="url(#aq)"/><g transform="translate(27.163 10.361)"><path d="M335.187,805.015l-.755.417L327.8,788.861l.756-.416Z" transform="translate(-327.804 -788.445)" fill="#a1fff2"/></g><g transform="translate(29.514 36.614)"><path d="M345.046,809.569l-.028,1.01-15.426-1.153.027-1.01Z" transform="translate(-329.592 -808.416)" fill="#a1fff2"/></g><g transform="translate(57.274 40.065)"><path d="M354.734,827.8l-.818.2-3.207-16.762.818-.2Z" transform="translate(-350.709 -811.041)" fill="#a1fff2"/></g><g transform="translate(52.529 58.848)"><path d="M363.171,832.787l-.286.941L347.1,826.27l.285-.941Z" transform="translate(-347.1 -825.329)" fill="#a1fff2"/></g><path d="M389.663,866.722c-34.324-52.276-66.784-77.016-80.755-86.062-1.138-.093-1.767-.1-1.767-.1.028.05.057.1.084.149,13.012,8.194,46.152,32.549,81.381,86.009Z" transform="translate(-307.141 -780.564)" fill="#a1fff2"/></g><g transform="translate(41.167)"><path d="M393.214,886.3c12.727-65.1-49.476-167.967-49.476-167.967C322.777,804.656,369.964,868.6,385.049,886.3Z" transform="translate(-338.457 -718.332)" fill="#a1fff2"/><g transform="translate(4.784)"><g transform="translate(9.908 37.675)"><path d="M356.174,747.338a193.128,193.128,0,0,0-5.465,21.119l-1.077-.206a193.325,193.325,0,0,1,5.5-21.26Z" transform="translate(-349.633 -746.991)" fill="#fff"/></g><g transform="translate(0.133 62.723)"><path d="M358.468,785.61l-.785.765A133.648,133.648,0,0,1,342.2,766.621l.932-.576A132.486,132.486,0,0,0,358.468,785.61Z" transform="translate(-342.197 -766.045)" fill="#fff"/></g><g transform="translate(22.429 78.909)"><path d="M366.827,778.684a214.747,214.747,0,0,0-6.585,28.541l-1.085-.16a216.327,216.327,0,0,1,6.622-28.707Z" transform="translate(-359.158 -778.358)" fill="#fff"/></g><path d="M387.652,886.3c-32.115-71.787-43.036-154.03-44.632-167.248-.279-.472-.429-.719-.429-.719-.176.726-.33,1.445-.5,2.166,2.081,16.645,13.256,96.049,44.355,165.8Z" transform="translate(-342.096 -718.332)" fill="#fff"/></g></g><g transform="translate(75.406 26.723)"><path d="M384.388,797.832l-18.657-14.188s8.927,64.7,20.4,96.261h9.958c6.386-18.562,28.852-94.818-14.768-141.244a43.888,43.888,0,0,0-16.8,35.63Z" transform="translate(-364.502 -738.66)" fill="url(#ar)"/><g transform="translate(11.156 2.177)"><g transform="translate(4.242 39.774)"><path d="M376.215,771.3c.088.1,8.763,9.97,11.6,16.194l1-.453c-2.9-6.377-11.417-16.056-11.775-16.468Z" transform="translate(-376.215 -770.572)" fill="#a1fff2"/></g><g transform="translate(0 60.266)"><path d="M372.988,786.771c11.113,16.574,17.676,28.687,17.74,28.807l.965-.519c-.066-.121-6.652-12.281-17.794-28.9Z" transform="translate(-372.988 -786.16)" fill="#a1fff2"/></g><g transform="translate(16.677 51.615)"><path d="M385.674,794.747l1.032.369c1.666-4.659,7.782-14.871,7.845-14.972l-.941-.565C393.358,780,387.375,789.987,385.674,794.747Z" transform="translate(-385.674 -779.579)" fill="#a1fff2"/></g><path d="M386.433,877.334q.392,1.049.78,2.049h.043c7.7-53.305-2.911-116.278-7.012-137.356-.477-.573-.957-1.146-1.454-1.712C382.5,758.921,393.833,822.854,386.433,877.334Z" transform="translate(-371.163 -740.316)" fill="#a1fff2"/></g></g></g></g><g transform="translate(1278.349 287.73) rotate(16)"><path d="M83.825,55.232l7.237-43.522A10.061,10.061,0,0,0,81.138,0H6.238L.209,29.373a10.061,10.061,0,0,0,9.855,12.083H76.171Z" transform="translate(0 0)" fill="none" stroke="#e8cd00" stroke-linecap="round" stroke-linejoin="round" stroke-width="2"/><text transform="translate(24.919 28.108)" font-size="20" font-family="SegoeUI-Bold, Segoe UI" font-weight="700"><tspan x="0" y="0">NFT</tspan></text></g><path d="M1.207,59.236A1.207,1.207,0,0,1,.025,57.788,72.392,72.392,0,0,1,141.38,55.749a1.206,1.206,0,1,1-2.347.552A69.981,69.981,0,0,0,2.387,58.271,1.206,1.206,0,0,1,1.207,59.236Z" transform="matrix(0.848, -0.53, 0.53, 0.848, 1012.235, 282.997)" fill="#e8cd00"/><g transform="matrix(0.891, -0.454, 0.454, 0.891, 1504.085, 337.125)" style="isolation:isolate"><path d="M27.778,7.269H26.9A3.635,3.635,0,1,1,26.9,0h.881a3.635,3.635,0,1,1,0,7.269Zm-22.69,0H3.635A3.635,3.635,0,1,1,3.635,0H5.089a3.635,3.635,0,1,1,0,7.269Z" transform="translate(0 0)" fill="#e8cd00"/></g><g transform="translate(1539.225 466.404)" style="isolation:isolate"><path d="M-540.593,667.443a1.048,1.048,0,0,1-1.048-1.048V651.1a1.048,1.048,0,0,1,1.048-1.048,1.048,1.048,0,0,1,1.048,1.048V666.4A1.048,1.048,0,0,1-540.593,667.443Z" transform="translate(549.287 -650.054)"/><path d="M-545.746,672.6h-15.293a1.048,1.048,0,0,1-1.048-1.048,1.048,1.048,0,0,1,1.048-1.048h15.293a1.048,1.048,0,0,1,1.048,1.048A1.048,1.048,0,0,1-545.746,672.6Z" transform="translate(562.087 -662.854)"/></g><g transform="translate(1338.511 243.389)" style="isolation:isolate"><path d="M-540.593,667.443a1.048,1.048,0,0,1-1.048-1.048V651.1a1.048,1.048,0,0,1,1.048-1.048,1.048,1.048,0,0,1,1.048,1.048V666.4A1.048,1.048,0,0,1-540.593,667.443Z" transform="translate(549.287 -650.054)"/><path d="M-545.746,672.6h-15.293a1.048,1.048,0,0,1-1.048-1.048,1.048,1.048,0,0,1,1.048-1.048h15.293a1.048,1.048,0,0,1,1.048,1.048A1.048,1.048,0,0,1-545.746,672.6Z" transform="translate(562.087 -662.854)"/></g></g></svg>