<svg xmlns="http://www.w3.org/2000/svg" xmlns:xlink="http://www.w3.org/1999/xlink" width="745" height="495.657" viewBox="0 0 745 495.657"><defs><linearGradient id="a" x1="0.038" y1="1.05" x2="1.26" y2="-0.378" gradientUnits="objectBoundingBox"><stop offset="0" stop-color="#e8cd00"/><stop offset="1"/></linearGradient><linearGradient id="b" x1="0.513" y1="0.77" x2="0" y2="-0.039" gradientUnits="objectBoundingBox"><stop offset="0" stop-color="#fff4a3"/><stop offset="1" stop-color="#270f38"/></linearGradient><linearGradient id="c" x1="0.402" x2="0.691" y2="0.952" gradientUnits="objectBoundingBox"><stop offset="0" stop-color="#4d1d6f"/><stop offset="1" stop-color="#fff4a3"/></linearGradient><clipPath id="d"><rect width="424.011" height="6.714" fill="#fffce5"/></clipPath><clipPath id="e"><path d="M350.883,365.139l.735-.35-3.33-7.064-1.866.878,2.822,5.992A1.15,1.15,0,0,0,350.883,365.139Z" transform="translate(-346.422 -357.726)" fill="none"/></clipPath><clipPath id="f"><path d="M344.947,360.865l7.346-1.371-1.2-6.023-7.288,1.661Z" transform="translate(-343.809 -353.471)" fill="none"/></clipPath><linearGradient id="g" x1="0.937" y1="-0.448" x2="0.5" y2="1" gradientUnits="objectBoundingBox"><stop offset="0"/><stop offset="1" stop-color="#fff4a3"/></linearGradient></defs><g transform="translate(-52.679 -79.219)"><path d="M624.294,380.62a90.919,90.919,0,0,0,9.918-23.355l17.554-3.363.182-19.416.18-19.417-17.488-3.689a90.962,90.962,0,0,0-9.48-23.537l10.026-14.778-13.6-13.857-13.6-13.858-14.963,9.75a90.915,90.915,0,0,0-23.354-9.918L566.3,227.627l-19.416-.182-19.416-.18-3.691,17.488a90.965,90.965,0,0,0-23.537,9.48l-14.778-10.026-13.857,13.6-13.856,13.6,9.75,14.964a90.8,90.8,0,0,0-9.918,23.354l-17.555,3.365-.18,19.416-.182,19.414,17.489,3.691a90.915,90.915,0,0,0,9.48,23.537l-10.026,14.778,13.6,13.858,13.6,13.859,14.964-9.75a90.97,90.97,0,0,0,23.355,9.918l3.363,17.552,19.417.182,19.416.182,3.689-17.49a90.837,90.837,0,0,0,23.536-9.48l14.778,10.029,13.859-13.6,13.858-13.6ZM511.918,366.845a47.609,47.609,0,1,1,67.326.628A47.61,47.61,0,0,1,511.918,366.845Z" transform="translate(145.552 55.683)" fill="url(#a)"/><path d="M277.579,254.636a67.871,67.871,0,0,0,5.583-18.106l12.783-3.838L294.6,218.257,293.25,203.82l-13.271-1.406a67.911,67.911,0,0,0-8.839-16.76l6.32-11.744L266.3,164.656l-11.16-9.256-10.37,8.385a67.844,67.844,0,0,0-18.106-5.584l-3.838-12.783-14.437,1.347-14.437,1.347-1.405,13.273a67.836,67.836,0,0,0-16.76,8.837L164.044,163.9l-9.257,11.16-9.254,11.16,8.383,10.37a67.833,67.833,0,0,0-5.583,18.107l-12.783,3.838,1.346,14.436,1.349,14.437,13.271,1.406a67.9,67.9,0,0,0,8.839,16.758l-6.32,11.744,11.162,9.256,11.16,9.254,10.37-8.383a67.889,67.889,0,0,0,18.106,5.583l3.838,12.784,14.437-1.347,14.437-1.347,1.4-13.273a67.865,67.865,0,0,0,16.76-8.839l11.742,6.32,9.256-11.16,9.254-11.162Zm-84.525-1.655a35.551,35.551,0,1,1,50.059-4.672A35.551,35.551,0,0,1,193.054,252.981Z" transform="translate(31.169 24.899)" fill="#fff4a3"/><g transform="translate(314.022 216.139)"><path d="M665.719,534.1H664.5V447.585a34.947,34.947,0,0,0-34.909-34.909H540.585a36.168,36.168,0,0,1-36.127-36.127V214.842a34.947,34.947,0,0,0-34.908-34.908H242.592v-1.218H469.55a36.166,36.166,0,0,1,36.124,36.126V376.548a34.95,34.95,0,0,0,34.911,34.911h89.007a36.166,36.166,0,0,1,36.127,36.126Z" transform="translate(-242.592 -178.716)" fill="#fff"/></g><g transform="translate(323.861 161.344)"><g transform="translate(0 0)"><path d="M298.075,138.9s13.736,54.7-19.244,69.651-26.662-12.426-26.662-12.426-13.527-3.758,23.287-24.63C292.808,161.655,298.075,138.9,298.075,138.9Z" transform="translate(-249.742 -138.898)" fill="#bbd070"/></g><g transform="translate(7.743 4.774)"><path d="M382.33,142.367s6.761,47.678-55.656,68.288-71.3,46.752-71.3,46.752S253.5,151.733,382.33,142.367Z" transform="translate(-255.369 -142.367)" fill="#97a43c"/></g><g transform="translate(3.082 56.457)"><path d="M256.365,223.863c-18.507-7.064,25.483-44.941,59.293-43.919s56.719,13.535,79.365,8.248C395.023,188.193,347.5,258.649,256.365,223.863Z" transform="translate(-251.982 -179.924)" fill="#48753a"/></g></g><g transform="translate(211.295 113.486)"><g transform="translate(7.407 110.53)"><path d="M348.129,253.811q1.6-21.567,2.229-40.367c-3.471-1.839-7.64-3.987-10.977-5.571-10.331-4.918-24.722-11.541-33.957-15.779-5.405-2.484-10.7-4.3-10.7-4.3s-36.909-3.537-39.9-3.348c-.945.055-5.558,1.662-11.61,3.97-13.088,4.966-38.322,15.079-42.339,17.965-5.893,4.218-26.976,107.564-27.536,114.582-.546,6.817,28.674,16.146,55.734,23.292-.019,10.476-.231,25.154-.469,38.553-.036,2.29-.078,4.536-.122,6.715H346.881c-.158-2.3-.3-4.573-.414-6.715-.011-.286-.029-.566-.041-.848-.451-9.074-2.216-25.329-1.766-41.158,0,0-.286-16.687,1.369-23.869C346.212,285.218,348.129,253.811,348.129,253.811ZM197.988,314.574c.2-13.454,18.111-38.48,18.111-38.48a7.182,7.182,0,0,1,.839-.316c.012.012.925-.128.925-.116.019,0,2.784-2.637,2.8-2.637.658,2.393,6.593,36.192,8.048,55.868C211.887,325.587,197.89,320.991,197.988,314.574Z" transform="translate(-173.325 -184.441)" fill="#dbd8e3"/></g><path d="M1272.475,4657.211c-.353-2.186-.738-4.425-1.138-6.716-2.63-14.81-6.088-31.546-7.932-47.976v-.006c-3.409-30.445-8.1-60.276-10.636-78-6.592-46.139-15.384-66.782-15.384-66.782,3.77,1.125,41.5,18.889,49.184,22.515.454.189.889.393,1.3.614l.062.029s0,0,0,0c6,3.263,18.809,29.989,20.981,34.722s25.7,48.693,27.271,49.68,4.2,4.6,13.614,9.671c11.523,6.205,29.627,24.364,29.627,24.364l-13.395,19.56s-22.493-21.816-37.245-25.443c-6.821-1.678-15.8-11.094-24.34-22.162-2.812-3.645-5.573-7.47-8.2-11.255a.025.025,0,0,1-.007-.016c-4.213-6.082-8.059-12.064-11.152-17.041-.512,13.308-1.3,31.246-2.356,48.695a67.786,67.786,0,0,0-.663,14.908c.518,6.634,1.235,13.881,2.1,21.434.012.1.019.2.03.286.207,1.8.425,3.6.638,5.425,0,.031.012.049.012.079.665,5.484,1.4,11.084,2.18,16.692.312,2.242.626,4.482.957,6.716Z" transform="translate(-1102.627 -4341.595)" stroke="rgba(0,0,0,0)" stroke-miterlimit="10" stroke-width="1" fill="url(#b)"/><g transform="translate(0 112.449)"><path d="M275.184,327.788c1.826-17.155,3.469-34.274,2.678-43.653-6.392-75.415-24.478-95.377-27.1-98.3-2.027.773-9.746,3.671-12.005,4.566-12.37,4.877-37.585,13.813-40.982,16.255-5.893,4.219-29.124,112.564-29.825,119.57-.469,4.737,29.849,14.634,60.78,23.468-.286,8.48.516,20.442-2.3,32.933-.493,2.216-1.222,3.615-1.336,6.545L268.207,389c.261-2.229.535-4.463.811-6.715.82-6.739,1.679-13.641,2.531-20.978,12.931,3.347,21.722,5.5,21.722,5.5s12.146-20.534,15.67-28.849C309.543,336.543,293.909,332.788,275.184,327.788Zm-55.758-25.959c-.407-15.439-.336-26.211-.336-26.211,1.529,5.29,3.641,20.405,5.5,35.43C218.331,307.9,219.506,304.948,219.427,301.829Z" transform="translate(-167.942 -185.835)" fill="url(#c)"/></g><g transform="translate(86.964 76.372)"><path d="M231.137,194.966s4.694-8.87,3.4-34.055c-.358-6.977,36.649,16.545,36.649,16.545s-.129,2.405-.208,5.65c-.041,1.351-.066,2.831-.066,4.353,0,.42.006.839.006,1.261.007.688.012,1.369.023,2.052.019.846.051,1.673.092,2.471.043.907.1,1.764.19,2.55a23.17,23.17,0,0,0,1.369,4.943C274.287,204.651,244.992,204.877,231.137,194.966Z" transform="translate(-231.137 -159.618)" fill="#eea987"/></g><g transform="translate(113.717 127.738)"><path d="M254.851,196.945l6.82,9.162s-4,5.352-11.093,1.4Z" transform="translate(-250.578 -196.945)" fill="#e8734d"/></g><g transform="translate(117.347 137.028)"><path d="M258.854,203.941s24.988,61.029,19.656,138.55l-7.881,14.3-8.887-12.181s-1.434-102.956-8.526-140.917Z" transform="translate(-253.216 -203.696)" fill="#e8734d"/></g><g transform="translate(102.514 116.584)"><path d="M265.214,191.449l-7.3,8.544s-11.72-2.271-15.161-8.393S265.214,191.449,265.214,191.449Z" transform="translate(-242.437 -188.84)" fill="#eea987"/></g><g transform="translate(117.99 111.717)"><path d="M262.659,185.3s-.848,6.513-8.976,16.021l8.873,11.921,4.8-24.732Z" transform="translate(-253.683 -185.303)" fill="#c4c1cc"/></g><g transform="translate(85.432 103.884)"><path d="M233.785,179.611s16.945,19.168,28.8,23.854L257.07,217.1l-27.046-29.834Z" transform="translate(-230.024 -179.611)" fill="#c4c1cc"/></g><g transform="translate(125.328 264.579)"><path d="M289.119,334.352a14.283,14.283,0,0,1-4.489-.853s-2.35-1.507-4.086-2.477a13.087,13.087,0,0,0-1.372-.694,26.149,26.149,0,0,1-7.555-3.6c-2.959-2.253-12.6-11.275-12.6-11.275l6.232-9.581,2.877-9.487s22.482,2.236,25.48,4.018a8.877,8.877,0,0,1,.826.552c2.393,1.755,3.436,4.068,4.588,5.13.42.395,4.335,4.587,4.116,6.286a5.6,5.6,0,0,1-2.931,4.591s-.793,4.593-3.169,6.648c0,0-.594,4.263-4.276,5.975C292.76,329.585,291.671,333.842,289.119,334.352Z" transform="translate(-259.016 -296.385)" fill="#efaa88"/></g><g transform="translate(84.078 11.944)"><path d="M264.6,113.545s40.634-9.8,32.075,41.651-18.305,55.623-43.059,45.367S230.579,157.4,229.1,141.3,251.6,114.3,264.6,113.545Z" transform="translate(-229.04 -112.8)" fill="#eea886"/></g><g transform="translate(88.036 44.444)"><path d="M242.165,140.291c-.6-4.519-9.575-6.047-10.2.75s4.34,18.64,7.719,17.418S243,146.522,242.165,140.291Z" transform="translate(-231.916 -136.417)" fill="#eea886"/></g><g transform="translate(80.834)"><path d="M232.364,170.86s.815-16.182,6.711-16.774,6.9,5.906,6.9,5.906l5.979,1.038s-2.093-14.141,3.766-16.7,38.315,7.24,42.987,3.011,2.023-32.937-6.594-36.745-32.384-12.275-49.532-.3c0,0-13.523-1.342-15.366,9.583S228.575,162.813,232.364,170.86Z" transform="translate(-226.682 -104.12)" fill="#16202e"/></g><g transform="translate(70.511 250.829)"><path d="M290.776,300.143,274,328.989s-58.452-15.561-68.822-18.486v-29.54S277.841,294.38,290.776,300.143Z" transform="translate(-219.181 -286.393)" fill="#d1bd96"/></g><g transform="translate(96.606 90.997)"><path d="M268.394,189.246h-.006c-21.795-2.222-30.244-19-30.244-19a45.056,45.056,0,0,0,30.129,13.216c0,.42.006.839.006,1.261.007.688.012,1.369.023,2.052C268.321,187.621,268.353,188.448,268.394,189.246Z" transform="translate(-238.144 -170.246)" fill="#a77860"/></g></g><g transform="translate(627.197 476.529)"><path d="M482.1,370.578a6.633,6.633,0,0,0-11.58,1.863h0a6.63,6.63,0,0,0,5.674,8.729c.172.014.347.026.523.027.11,0,.22,0,.329-.007h.116a6.632,6.632,0,0,0,4.939-10.611Zm-3.6,8.663h0a5,5,0,0,1-1.427.29h0c-.11.005-.222.007-.333.007a4.975,4.975,0,0,1-4.906-5.035,4.884,4.884,0,0,1,.128-1.049,4.7,4.7,0,0,1,.132-.482,4.972,4.972,0,1,1,6.409,6.267Z" transform="translate(-470.171 -367.937)" fill="#4da8f2"/></g><g transform="translate(384.94 330.414)"><path d="M294.127,285.716c25.261,26,58.636,58.751,58.636,58.751L365.81,319.7s-29.644-34.753-49.741-57.941C309.91,264.779,298.6,271.984,294.127,285.716Z" transform="translate(-294.127 -261.758)" fill="#eea886"/></g><g transform="translate(366.233 389.337)"><path d="M283.637,304.576s6.8,3.286,8.576,4.749,8.971,6.852,10.716,8.119-2.631,4.871-15.5-.7S283.637,304.576,283.637,304.576Z" transform="translate(-280.533 -304.576)" fill="#eea886"/></g><g transform="translate(358.079 314.909)"><path d="M286.46,250.491,274.607,360.7H430.625l11.853-110.206Z" transform="translate(-274.607 -250.491)" fill="#ffc955"/></g><g transform="translate(365.761 308.605)"><path d="M437.431,357.333H280.19L292.173,245.91H449.415Zm-155.885-1.219H436.338l11.723-108.987H293.267Z" transform="translate(-280.19 -245.91)" fill="#ffc955"/></g><g transform="translate(345.663 415.2)"><rect width="26.058" height="9.915" transform="translate(26.058 9.915) rotate(180)" fill="#ffc955"/></g><g transform="translate(94.979 424.886)"><g clip-path="url(#d)"><path d="M83.418,330.409v0Z" transform="translate(-83.418 -330.409)" fill="#fffce5"/><rect width="6.523" height="6.714" fill="#fffce5"/><rect width="6.523" height="6.714" transform="translate(6.523)" fill="#fffce5"/><rect width="6.523" height="6.714" transform="translate(13.046)" fill="#fffce5"/><rect width="6.523" height="6.714" transform="translate(19.569)" fill="#fffce5"/><rect width="6.523" height="6.714" transform="translate(26.093)" fill="#fffce5"/><rect width="6.523" height="6.714" transform="translate(32.616)" fill="#fffce5"/><rect width="6.523" height="6.714" transform="translate(39.139)" fill="#fffce5"/><rect width="6.523" height="6.714" transform="translate(45.662)" fill="#fffce5"/><rect width="6.524" height="6.714" transform="translate(52.185)" fill="#fffce5"/><rect width="6.523" height="6.714" transform="translate(58.709)" fill="#fffce5"/><rect width="6.523" height="6.714" transform="translate(65.233)" fill="#fffce5"/><rect width="6.523" height="6.714" transform="translate(71.756)" fill="#fffce5"/><rect width="6.523" height="6.714" transform="translate(78.279)" fill="#fffce5"/><rect width="6.523" height="6.714" transform="translate(84.802)" fill="#fffce5"/><rect width="6.523" height="6.714" transform="translate(91.325)" fill="#fffce5"/><rect width="6.523" height="6.714" transform="translate(97.848)" fill="#fffce5"/><rect width="6.523" height="6.714" transform="translate(104.371)" fill="#fffce5"/><rect width="6.523" height="6.714" transform="translate(110.894)" fill="#fffce5"/><rect width="6.523" height="6.714" transform="translate(117.418)" fill="#fffce5"/><rect width="6.524" height="6.714" transform="translate(123.941)" fill="#fffce5"/><rect width="6.523" height="6.714" transform="translate(130.465)" fill="#fffce5"/><rect width="6.523" height="6.714" transform="translate(136.988)" fill="#fffce5"/><rect width="6.523" height="6.714" transform="translate(143.511)" fill="#fffce5"/><rect width="6.523" height="6.714" transform="translate(150.035)" fill="#fffce5"/><rect width="6.523" height="6.714" transform="translate(156.558)" fill="#fffce5"/><rect width="6.523" height="6.714" transform="translate(163.081)" fill="#fffce5"/><rect width="6.523" height="6.714" transform="translate(169.604)" fill="#fffce5"/><rect width="6.523" height="6.714" transform="translate(176.127)" fill="#fffce5"/><rect width="6.523" height="6.714" transform="translate(182.65)" fill="#fffce5"/><rect width="6.523" height="6.714" transform="translate(189.173)" fill="#fffce5"/><rect width="6.524" height="6.714" transform="translate(195.696)" fill="#fffce5"/><rect width="6.523" height="6.714" transform="translate(202.221)" fill="#fffce5"/><rect width="6.523" height="6.714" transform="translate(208.744)" fill="#fffce5"/><rect width="6.523" height="6.714" transform="translate(215.267)" fill="#fffce5"/><rect width="6.523" height="6.714" transform="translate(221.79)" fill="#fffce5"/><rect width="6.523" height="6.714" transform="translate(228.313)" fill="#fffce5"/><rect width="6.523" height="6.714" transform="translate(234.836)" fill="#fffce5"/><rect width="6.523" height="6.714" transform="translate(241.36)" fill="#fffce5"/><rect width="6.523" height="6.714" transform="translate(247.883)" fill="#fffce5"/><rect width="6.523" height="6.714" transform="translate(254.406)" fill="#fffce5"/><rect width="6.525" height="6.714" transform="translate(260.929)" fill="#fffce5"/><rect width="6.523" height="6.714" transform="translate(267.453)" fill="#fffce5"/><rect width="6.523" height="6.714" transform="translate(273.977)" fill="#fffce5"/><rect width="6.523" height="6.714" transform="translate(280.5)" fill="#fffce5"/><rect width="6.523" height="6.714" transform="translate(287.023)" fill="#fffce5"/><rect width="6.523" height="6.714" transform="translate(293.546)" fill="#fffce5"/><rect width="6.523" height="6.714" transform="translate(300.069)" fill="#fffce5"/><rect width="6.523" height="6.714" transform="translate(306.592)" fill="#fffce5"/><rect width="6.523" height="6.714" transform="translate(313.115)" fill="#fffce5"/><rect width="6.523" height="6.714" transform="translate(319.638)" fill="#fffce5"/><rect width="6.523" height="6.714" transform="translate(326.162)" fill="#fffce5"/><rect width="6.524" height="6.714" transform="translate(332.685)" fill="#fffce5"/><rect width="6.523" height="6.714" transform="translate(339.209)" fill="#fffce5"/><rect width="6.523" height="6.714" transform="translate(345.732)" fill="#fffce5"/><rect width="6.523" height="6.714" transform="translate(352.255)" fill="#fffce5"/><rect width="6.523" height="6.714" transform="translate(358.778)" fill="#fffce5"/><rect width="6.523" height="6.714" transform="translate(365.302)" fill="#fffce5"/><rect width="6.523" height="6.714" transform="translate(371.825)" fill="#fffce5"/><rect width="6.523" height="6.714" transform="translate(378.348)" fill="#fffce5"/><rect width="6.523" height="6.714" transform="translate(384.871)" fill="#fffce5"/><rect width="6.523" height="6.714" transform="translate(391.394)" fill="#fffce5"/><rect width="6.523" height="6.714" transform="translate(397.917)" fill="#fffce5"/><rect width="6.524" height="6.714" transform="translate(404.44)" fill="#fffce5"/><rect width="6.523" height="6.714" transform="translate(410.965)" fill="#fffce5"/><rect width="6.523" height="6.714" transform="translate(417.488)" fill="#fffce5"/><path d="M391.539,337.123v0Z" transform="translate(32.472 -330.409)" fill="#fffce5"/></g></g><g transform="translate(410.73 568.161)"><rect width="367.37" height="6.715" fill="#ffc955"/></g><g transform="translate(433.055 358.759)"><path d="M329.387,291.839c-1.255,6.135,1.609,11.9,6.393,12.879s9.68-3.2,10.933-9.34-1.609-11.9-6.392-12.88S330.642,285.7,329.387,291.839Z" transform="translate(-329.092 -282.356)" fill="#cfa345"/></g><g transform="translate(724.944 321.559)"><path d="M547.163,258.324s3.6,6.1,5.119,7.1c2.061,1.351.769,2.721-.211,2.721s-5.982.359-7.084-.892-1.649-5-2.674-5.981-2.085-4.877.5-5.825C545.1,254.609,547.163,258.324,547.163,258.324Z" transform="translate(-541.202 -255.323)" fill="#6069a8"/></g><g transform="translate(726.382 321.681)"><path d="M545.211,255.607s4.122,7.145,4.833,8.2-1.338,1.053-2.608.55-4.46-5.624-4.92-6.559a3.442,3.442,0,0,1-.1-2.389Z" transform="translate(-542.246 -255.412)" fill="#202338"/></g><g transform="translate(725.172 325.721)"><path d="M541.367,258.348l.951,7.325.5.021-.157-5.269Z" transform="translate(-541.367 -258.348)" fill="#6069a8"/></g><g transform="translate(689.242 321.581)"><path d="M521.233,258.318s3.6,6.1,5.118,7.1c2.063,1.351.771,2.721-.209,2.721s-5.982.359-7.084-.892-1.648-5-2.674-5.981-2.119-4.979.5-5.825C519.179,254.7,521.233,258.318,521.233,258.318Z" transform="translate(-515.258 -255.339)" fill="#6069a8"/></g><g transform="translate(690.693 321.681)"><path d="M519.495,255.623s3.905,7.13,4.614,8.187-1.336,1.053-2.6.55-4.461-5.624-4.92-6.559a3.441,3.441,0,0,1-.1-2.389Z" transform="translate(-516.312 -255.412)" fill="#202338"/></g><g transform="translate(689.484 325.721)"><path d="M515.434,258.348l.951,7.325.5.021-.157-5.269Z" transform="translate(-515.434 -258.348)" fill="#6069a8"/></g><g transform="translate(679.25 263.958)"><path d="M508,218.546l32.567,14.84a6.261,6.261,0,0,1,4.043,5.218c1.27,12.6,10.7,32.585,10.7,32.585,3.023,1.479,2.791.2,2.791.2-1.9-6.117-4.225-31.327-5.053-41.462-.175-2.147-.284-3.618-.305-4.087-.016-.319-.367-.739-.97-1.228-4.468-3.623-22.857-11.126-22.857-11.126C515.1,213.132,508,218.546,508,218.546Z" transform="translate(-507.997 -213.465)" fill="#202338"/></g><g transform="translate(672.981 261.72)"><path d="M503.572,225.53c1.007,8.8,13.574,7.794,13.574,7.794h15.23a95.1,95.1,0,0,0-5.546,16.41c-1.638,7.968-5.5,22.066-5.5,22.066s.255.479,3.01.211c0,0,11.954-23.826,16.531-29.816.983-1.289,3.8-8.286,4.291-12.459.164-1.4.063-2.489-.461-2.928a37.912,37.912,0,0,0-3.363-2.3c-4.77-3.008-13.054-7.639-17.669-8.676-6.183-1.39-15.96-3.993-15.96-3.993S502.564,216.727,503.572,225.53Z" transform="translate(-503.441 -211.839)" fill="#202338"/></g><g transform="translate(682.002 191.05)"><path d="M511.471,177.041A14.184,14.184,0,0,1,510.3,168.1c1.111-4.609,5.387-9.2,11.649-7.093s11.323,6.973,7.569,12.6,3.4,8.165,1.576,10.841-1.131,5.47-.36,6.093,3.259,2.842,2.986,5.469-12.148-7.657-12.148-7.657S515.107,175.361,511.471,177.041Z" transform="translate(-509.997 -160.485)" fill="#464240"/></g><g transform="translate(677.294 260.802)"><path d="M531.842,213.288s-.943,4.581-25.267-1.2C506.575,212.086,514.73,209.377,531.842,213.288Z" transform="translate(-506.575 -211.172)" fill="#eb4747"/></g><g transform="translate(672.074 219.175)"><path d="M507.726,224.749l-1.131,2.159,26.673.778c-1.405-4.71-.949-11.087-.7-15.929.3-5.912,3.567-10.024,3.219-16,1.759.283,2.063.339,3.824.608-2.693-7.677-3.617-11.48-11.986-14.434a15.629,15.629,0,0,0-7.464-.91c-9.693.8-12.616.914-17.376,9.7,7.452,1.186,6.226,3.863,8.485,11.276,1.1,3.615,2.253,7.65,1.661,11.463C512.347,217.207,507.726,221.325,507.726,224.749Z" transform="translate(-502.782 -180.922)" fill="#5f8cc9"/></g><g transform="translate(689.288 211.511)"><path d="M518.489,185.883c-3.967-.75-3.122-2.956-3.122-2.956s.183-1.245.255-2.818c.019-.4.03-.828.029-1.259a17.183,17.183,0,0,0-.11-1.951c-.325-2.663,7.2-1.075,7.2-1.075s-.433,5.389.6,7S522.456,186.631,518.489,185.883Z" transform="translate(-515.291 -175.354)" fill="#eea886"/></g><g transform="translate(684.919 218.348)"><g transform="translate(0 0)"><path d="M512.116,181.045s8,9.238,10.959,11.38c0,0,3.4-3.072,1.3-11.181C524.378,181.244,520.517,179.309,512.116,181.045Z" transform="translate(-512.116 -180.322)" fill="#eea886"/></g></g><g transform="translate(683.28 195.345)"><path d="M512.781,165.1s-4.154,8.006-.033,15.59,12.219-3.3,12.743-4.58,3.3-8.5-2.224-10.7S513.958,162.922,512.781,165.1Z" transform="translate(-510.925 -163.606)" fill="#eea886"/></g><g transform="translate(683.124 193.686)"><path d="M514.206,168.389s-2.86,3.757-3.2,6.532a14.879,14.879,0,0,1,2.081-10.291c3.22-5.043,11.407-.239,12.5,1.775s4.31,3.79-1.089,12.448C524.5,178.854,514.793,172.109,514.206,168.389Z" transform="translate(-510.812 -162.4)" fill="#464240"/></g><g transform="translate(689.618 213.224)"><path d="M519.072,176.6s-.721,1.576-3.541,3.043c.019-.4.03-.828.029-1.259A6.738,6.738,0,0,0,519.072,176.6Z" transform="translate(-515.531 -176.598)" fill="#a77860"/></g><g transform="translate(642.918 255.513)"><path d="M489.839,207.613s-1.976.878-2.912.48a8.747,8.747,0,0,0-2.843-.478c-.611,0-2.524-.684-2.489.063s3.1,1.269,3.733,1.5-1.881,1.614-2.115,2.228,2.6,4.64,4.2,3.493,2.463-3.438,2.789-3.583a11.481,11.481,0,0,0,1.2-.789Z" transform="translate(-481.595 -207.329)" fill="#eea886"/></g><g transform="translate(640.121 259.237)"><path d="M484.28,210.035s-4.632,3.841-4.705,4.36.171.761.621.42,4.593-3.579,4.593-3.579-4.642,5.482-4.8,5.888c-.091.238.354.733.612.574s5.2-5.321,5.2-5.321-4.324,5.127-4.349,5.511a.5.5,0,0,0,.85.34c.35-.358,4.651-4.881,4.651-4.881s-2.893,3.936-2.714,4.282c.109.212.475.656,1.186-.384s2.671-3.308,2.671-3.308Z" transform="translate(-479.563 -210.035)" fill="#eea886"/></g><g transform="translate(672.982 261.72)"><path d="M530.786,233.326h-13.64s-12.567,1.007-13.573-7.8,4.131-13.691,4.131-13.691,6.638,1.767,12.433,3.168a44.911,44.911,0,0,1,10.483-.915s24.568,8.119,23.829,12.393C554.449,226.485,544.172,220.99,530.786,233.326Z" transform="translate(-503.442 -211.839)" fill="#ffc955"/></g><g transform="translate(691.447 267.58)"><path d="M516.86,216.48l26.007-.382-13.131,6.667Z" transform="translate(-516.86 -216.098)" fill="#5e5853"/></g><g transform="translate(686.168 262.179)"><path d="M526.382,214.633a22.251,22.251,0,0,1-13.022.217l-.336-2.678,14.766.822Z" transform="translate(-513.024 -212.173)" fill="#5f8cc9"/></g><g transform="translate(691.447 267.963)"><path d="M529.736,222.66l-12.876-4.988v-1.3l13.894,5.012Z" transform="translate(-516.86 -216.375)" fill="#91887f"/></g><g transform="translate(648.89 218.495)"><g transform="translate(48.291 0.776)"><path d="M523.283,227.6a1.285,1.285,0,0,0,1.788,1.276l1.51-.644a1.075,1.075,0,0,0,.64-1.16c-.629-3.933-1.977-19.245-.007-21.873a9.514,9.514,0,0,0,1.441-2.566c1.3,3.356,2.92,7.679,3.564,10l12.287,16.346,4.119,1.044a139.161,139.161,0,0,0-9.27-18.949c-.8-2.159-3.11-8.7-5.152-14.517-1.29-3.676-2.473-7.065-3.11-8.887a4.17,4.17,0,0,0-1.8-2.2c-1.9-1.138-5.074-2.93-7.95-4.327l-.036-.017c-.091-.044-.182-.089-.275-.132h-.007c5.469,8.273,3.336,31.636,2.257,46.575Z" transform="translate(-521.027 -180.992)" fill="#e8cd00"/></g><path d="M516.183,181.91c-1.752.271-6.095,4.486-8.4,8.742-2.632,4.856-5.31,10.387-7.32,12.206-3.692,3.345-14.027,15.169-14.519,14.883a32.3,32.3,0,0,0,3.219,3.7c.193.084,16.988-14.47,18.6-16.687,1.529-2.1,5.62-10.925,6.843-10.731l0,.006v0a65.478,65.478,0,0,1,2.992,8.143l.07.235c.971,3.289.882,6.86.356,10.871-.4,3.03-2.659,7.98-4.022,10.39a1.634,1.634,0,0,0,.055,1.261h0a.9.9,0,0,0,.447.522l4.932,1.828,1.159.428a2.526,2.526,0,0,0,3.381-2.039c1.1-8.434,2.484-17.051,3.589-20.3a30.741,30.741,0,0,0-1.9-24.946S517.721,181.336,516.183,181.91Z" transform="translate(-485.935 -180.428)" fill="#e8cd00"/></g><g transform="translate(704.323 253.127)"><path d="M526.217,226.715l7.735-21.12L558.89,206l-7.372,19.463Z" transform="translate(-526.217 -205.595)" fill="#6e6760"/></g><g transform="translate(719.589 260.503)"><path d="M537.76,212.922c-.761,1.522-.533,3.179.513,3.7s2.507-.286,3.268-1.808.531-3.177-.513-3.7S538.519,211.4,537.76,212.922Z" transform="translate(-537.31 -210.955)" fill="#807066"/></g><g transform="translate(692.193 204.637)"><path d="M518.96,170.527s1.6,2.485.121,4.631.373,4.252.692,6.52-6.159,8.3,1.047,11.336,9.5-1.982,7.662-4.743-3.143-5-3.3-8.939S523.732,169.259,518.96,170.527Z" transform="translate(-517.402 -170.358)" fill="#464240"/></g><g transform="translate(658.525 194.489)"><path d="M492.936,162.984h15.037v13.194l-2.3-2.3H492.936Z" transform="translate(-492.936 -162.984)" fill="#ffcb55"/></g><g transform="translate(480.078 327.917)"><g transform="translate(72.844 33.81)"><path d="M437.4,284.512s-32.77,31.184-16.829,55.464,23.4,3.014,23.4,3.014,10.782,3.255-5.221-26.683C431.208,302.2,437.4,284.512,437.4,284.512Z" transform="translate(-416.196 -284.512)" fill="#bbd070"/></g><g transform="translate(24.461)"><path d="M390.03,259.943S365,289.362,398.465,330.1s28.281,62.275,28.281,62.275S473.336,321.546,390.03,259.943Z" transform="translate(-381.038 -259.943)" fill="#97a43c"/></g><g transform="translate(0 35.741)"><path d="M440.978,370.31c15.575,3.149,2.972-42.138-20.383-55.945s-44.252-15.154-57.333-28.45C363.262,285.915,364.282,354.8,440.978,370.31Z" transform="translate(-363.262 -285.915)" fill="#48753a"/></g></g><g transform="translate(418.446 442.525)"><g transform="translate(37.56 21.644)"><path d="M345.769,362.7s.716-1.768.833-2.037a4.616,4.616,0,0,1,1.636-1.131,5.318,5.318,0,0,1,2.293-.56.811.811,0,0,1,.5.465,1.582,1.582,0,0,1,.129.787.957.957,0,0,1,.34.861.834.834,0,0,1,.19.908.7.7,0,0,1,.194.746,6.3,6.3,0,0,0-.9.673,13.306,13.306,0,0,1-3.253,1.6S346.092,365.048,345.769,362.7Z" transform="translate(-345.769 -358.956)" fill="#eea886"/></g><g transform="translate(39.972 24.424)"><path d="M347.642,360.976a4.636,4.636,0,0,1-.114,1.228c-.129.272,1.943.875,1.943.875S348.807,360.984,347.642,360.976Z" transform="translate(-347.522 -360.976)" fill="#cf8c6c"/></g><g transform="translate(1.401 115.242)"><path d="M319.493,429.792l.906-2.821,3.83.62-.572,2.544Z" transform="translate(-319.493 -426.972)" fill="#3b3f66"/></g><g transform="translate(32.803 116.265)"><path d="M342.313,429.18l.215,1.549,4.193-.7-.223-2.315Z" transform="translate(-342.313 -427.715)" fill="#555c94"/></g><g transform="translate(1.451 61.622)"><path d="M341.8,400.676s-.617,3.366-1.335,7.1c-.125.651-.252,1.313-.38,1.971-.7,3.6-1.409,7.062-1.671,7.779-.594,1.629-13.436,25.16-13.436,25.16s-5.251-.4-5.448-1.075c0,0,10.765-25.552,10.7-26.482s1.316-27.123,1.316-27.123S341.515,399.163,341.8,400.676Z" transform="translate(-319.529 -388.007)" fill="#354c70"/></g><g transform="translate(13.373 57.398)"><path d="M344.408,387.664s5.024,25.731,5.454,27.7,2.334,28.327,2.334,28.327-1.13,2.328-5.3,1.452c0,0-5.687-28.319-6.166-29.269-1.861-3.682-10.99-21.524-11.875-24.07a15.3,15.3,0,0,1-.625-5.518S335.012,382.475,344.408,387.664Z" transform="translate(-328.193 -384.937)" fill="#354c70"/></g><g transform="translate(24.945 24.53)"><path d="M339.133,363.321s2.2,5.494,2.758,5.332,6.888-7.6,6.888-7.6,2.9,3.616,2.509,4.031c-.539.578-8.02,13.014-9.049,12.79s-5.628-7.826-5.628-7.826S336.349,364.314,339.133,363.321Z" transform="translate(-336.602 -361.053)" fill="#deb135"/></g><g transform="translate(12.077 16.307)"><path d="M333.225,355.077a92.257,92.257,0,0,1,7.293,6.1c1.576,1.731,5.93,8.917,5.616,11.078a157.173,157.173,0,0,0-1.812,21c-.032,4.925,1.537,6.181.56,6.254-1.122.085-15.5,5.3-17.631,5.931,0,0,1.4-17.343,2.1-19.344S327.091,363.129,333.225,355.077Z" transform="translate(-327.251 -355.077)" fill="#f2c344"/></g><g transform="translate(40.623 8.022)"><path d="M362.231,349.057l1.281,6.459,1.283,6.461a35.206,35.206,0,0,0-15.664-.644l-.566-2.849-.57-2.866A35.352,35.352,0,0,0,362.231,349.057Z" transform="translate(-347.995 -349.057)" fill="#d9d0c4"/></g><g transform="translate(32.488 117.416)"><path d="M342.614,430.414s3.164-.612,3.277-.707.79-1.347,1.278-1.13.5,1.739.974,2,4.256,2.81,4.721,3.275,3.326.191,3.654,1,.355,2.716-3.914,2.266-9.143.245-10.062-.259S342.32,431.643,342.614,430.414Z" transform="translate(-342.083 -428.552)" fill="#84bdff"/></g><g transform="translate(0 116.86)"><path d="M319.825,429.281s3.224-.1,3.348-.176.995-1.2,1.444-.908.212,1.8.641,2.127,3.754,3.455,4.137,3.988,3.252.721,3.447,1.57-.084,2.738-4.225,1.611-9.064-1.221-9.892-1.865S319.338,430.446,319.825,429.281Z" transform="translate(-318.475 -428.147)" fill="#84bdff"/></g><g transform="translate(23.117 61.317)"><path d="M338.537,387.785s.387,1.567,1,1.907-2.884,3.688-2.884,3.688a29.458,29.458,0,0,1-1.383-3.417C335.314,389.651,338.537,387.785,338.537,387.785Z" transform="translate(-335.273 -387.785)" fill="#eea987"/></g><g transform="translate(11.068 21.041)"><path d="M330.962,360.558s-4.1,19.511-4.438,21.509c-.318,1.891,12.026,19.941,12.026,19.941l4.1-2.436s-9.959-18.11-9.944-18.935,4.779-16.556,4.779-16.556,1.991-3.424-1.541-5.087A3.521,3.521,0,0,0,330.962,360.558Z" transform="translate(-326.518 -358.517)" fill="#ffd255"/></g><g transform="translate(22.751 62.664)"><path d="M341.042,388.764s1.335,6.634,1.254,8.665-7.658-3.2-7.274-5.22Z" transform="translate(-335.008 -388.764)" fill="#3c5780"/></g><g transform="translate(18.051 9.729)"><path d="M331.592,356.875s10.409,11.371,9.768,10.11c-2.286-4.494-3.881-5.253-3.849-6.091.026-.643.277-2.511.319-3.138.081-1.193.169-2.16.169-2.16s-5.169-7.259-4.94-4.785S331.592,356.875,331.592,356.875Z" transform="translate(-331.592 -350.297)" fill="#eea886"/></g><g transform="translate(17.561 0.879)"><path d="M341.639,345.909a26.367,26.367,0,0,1,1.452,4.145,16.759,16.759,0,0,0-.058,2.3c.127.939.914,2.906.816,3.451-.117.659-1.5.315-1.693,1.4s-1.2,3.12-1.7,3.161c-1.288.106-6.223-1.906-6.538-2.938s-2.1-6.79-2.657-7.885,8.693-7.094,9.536-5.361Z" transform="translate(-331.237 -343.866)" fill="#eea886"/></g><g transform="translate(15.299)"><path d="M329.678,348.642c-.652-2.85,2.623-3.2,2.623-3.2s2.134-2.485,7.24-2.189,4.327,6.958,4.327,6.958a18.941,18.941,0,0,0-5.068-.139,23.928,23.928,0,0,0-.021,3.55l-1.927-.172s.215-2.525-.71-2.645-1.234,5.346-2.956,6.55a1.9,1.9,0,0,0-.233-.764h0a21.717,21.717,0,0,1-1.339-2.788A31.457,31.457,0,0,1,329.678,348.642Z" transform="translate(-329.593 -343.227)" fill="#16202e"/></g><g transform="translate(20.219 7.088)"><path d="M336.081,349.478a1.463,1.463,0,0,0-2.41-.678c-1.232.912.034,4.165,1.234,4.149S336.59,351.162,336.081,349.478Z" transform="translate(-333.168 -348.378)" fill="#eea886"/></g><g transform="translate(19.956 13.535)"><path d="M332.985,353.063a3.751,3.751,0,0,0,.528,1.262,11.024,11.024,0,0,0,3.822,2l-.2,2.017S332.761,356.655,332.985,353.063Z" transform="translate(-332.977 -353.063)" fill="#c48a6f"/></g><g transform="translate(38.458 19.952)"><g clip-path="url(#e)"><path d="M346.422,357.726v0Z" transform="translate(-346.422 -357.726)" fill="#96cbff"/><rect width="0.079" height="7.729" transform="translate(0 -0.001)" fill="#96cbff"/><rect width="0.081" height="7.729" transform="translate(0.079 -0.001)" fill="#95caff"/><rect width="0.079" height="7.729" transform="translate(0.16 -0.001)" fill="#94c9ff"/><rect width="0.081" height="7.729" transform="translate(0.239 -0.001)" fill="#93c9ff"/><rect width="0.079" height="7.729" transform="translate(0.32 -0.001)" fill="#92c8ff"/><rect width="0.081" height="7.729" transform="translate(0.399 -0.001)" fill="#91c7ff"/><rect width="0.079" height="7.729" transform="translate(0.48 -0.001)" fill="#90c6ff"/><rect width="0.081" height="7.729" transform="translate(0.559 -0.001)" fill="#8fc6ff"/><rect width="0.079" height="7.729" transform="translate(0.639 -0.001)" fill="#8ec5ff"/><rect width="0.081" height="7.729" transform="translate(0.719 -0.001)" fill="#8dc4ff"/><rect width="0.079" height="7.729" transform="translate(0.799 -0.001)" fill="#8cc3ff"/><rect width="0.081" height="7.729" transform="translate(0.879 -0.001)" fill="#8bc2ff"/><rect width="0.079" height="7.729" transform="translate(0.959 -0.001)" fill="#8ac2ff"/><rect width="0.081" height="7.729" transform="translate(1.039 -0.001)" fill="#89c1ff"/><rect width="0.079" height="7.729" transform="translate(1.119 -0.001)" fill="#88c0ff"/><rect width="0.081" height="7.729" transform="translate(1.198 -0.001)" fill="#87bfff"/><rect width="0.079" height="7.729" transform="translate(1.279 -0.001)" fill="#86bfff"/><rect width="0.079" height="7.729" transform="translate(1.358 -0.001)" fill="#85beff"/><rect width="0.081" height="7.729" transform="translate(1.438 -0.001)" fill="#84bdff"/><rect width="0.081" height="7.729" transform="translate(1.518 -0.001)" fill="#83bcff"/><rect width="0.079" height="7.729" transform="translate(1.599 -0.001)" fill="#82bbff"/><rect width="0.079" height="7.729" transform="translate(1.678 -0.001)" fill="#81bbff"/><rect width="0.081" height="7.729" transform="translate(1.758 -0.001)" fill="#80baff"/><rect width="0.081" height="7.729" transform="translate(1.838 -0.001)" fill="#7fb9ff"/><rect width="0.079" height="7.729" transform="translate(1.919 -0.001)" fill="#7eb8ff"/><rect width="0.079" height="7.729" transform="translate(1.998 -0.001)" fill="#7db7ff"/><rect width="0.081" height="7.729" transform="translate(2.077 -0.001)" fill="#7cb7ff"/><rect width="0.081" height="7.729" transform="translate(2.158 -0.001)" fill="#7bb6ff"/><rect width="0.079" height="7.729" transform="translate(2.239 -0.001)" fill="#7ab5ff"/><rect width="0.079" height="7.729" transform="translate(2.318 -0.001)" fill="#79b4ff"/><rect width="0.081" height="7.729" transform="translate(2.397 -0.001)" fill="#78b4ff"/><rect width="0.079" height="7.729" transform="translate(2.478 -0.001)" fill="#77b3ff"/><rect width="0.081" height="7.729" transform="translate(2.557 -0.001)" fill="#76b2ff"/><rect width="0.079" height="7.729" transform="translate(2.638 -0.001)" fill="#74b1ff"/><rect width="0.081" height="7.729" transform="translate(2.717 -0.001)" fill="#73b0ff"/><rect width="0.079" height="7.729" transform="translate(2.798 -0.001)" fill="#72b0ff"/><rect width="0.081" height="7.729" transform="translate(2.877 -0.001)" fill="#71afff"/><rect width="0.079" height="7.729" transform="translate(2.958 -0.001)" fill="#70aeff"/><rect width="0.081" height="7.729" transform="translate(3.037 -0.001)" fill="#6fadff"/><rect width="0.079" height="7.729" transform="translate(3.118 -0.001)" fill="#6eadff"/><rect width="0.081" height="7.729" transform="translate(3.197 -0.001)" fill="#6dacff"/><rect width="0.079" height="7.729" transform="translate(3.277 -0.001)" fill="#6cabff"/><rect width="0.081" height="7.729" transform="translate(3.357 -0.001)" fill="#6baaff"/><rect width="0.079" height="7.729" transform="translate(3.437 -0.001)" fill="#6aa9ff"/><rect width="0.081" height="7.729" transform="translate(3.517 -0.001)" fill="#69a9ff"/><rect width="0.079" height="7.729" transform="translate(3.597 -0.001)" fill="#68a8ff"/><rect width="0.081" height="7.729" transform="translate(3.677 -0.001)" fill="#67a7ff"/><rect width="0.079" height="7.729" transform="translate(3.757 -0.001)" fill="#66a6ff"/><rect width="0.081" height="7.729" transform="translate(3.836 -0.001)" fill="#65a6ff"/><rect width="0.079" height="7.729" transform="translate(3.917 -0.001)" fill="#64a5ff"/><rect width="0.081" height="7.729" transform="translate(3.996 -0.001)" fill="#63a4ff"/><rect width="0.079" height="7.729" transform="translate(4.077 -0.001)" fill="#62a3ff"/><rect width="0.081" height="7.729" transform="translate(4.156 -0.001)" fill="#61a2ff"/><rect width="0.079" height="7.729" transform="translate(4.237 -0.001)" fill="#60a2ff"/><rect width="0.081" height="7.729" transform="translate(4.316 -0.001)" fill="#5fa1ff"/><rect width="0.079" height="7.729" transform="translate(4.397 -0.001)" fill="#5ea0ff"/><rect width="0.081" height="7.729" transform="translate(4.476 -0.001)" fill="#5d9fff"/><rect width="0.079" height="7.729" transform="translate(4.557 -0.001)" fill="#5c9eff"/><rect width="0.081" height="7.729" transform="translate(4.636 -0.001)" fill="#5b9eff"/><rect width="0.079" height="7.729" transform="translate(4.717 -0.001)" fill="#5a9dff"/><rect width="0.081" height="7.729" transform="translate(4.796 -0.001)" fill="#599cff"/><rect width="0.079" height="7.729" transform="translate(4.877 -0.001)" fill="#589bff"/><rect width="0.081" height="7.729" transform="translate(4.956 -0.001)" fill="#579bff"/><rect width="0.079" height="7.729" transform="translate(5.037 -0.001)" fill="#569aff"/><rect width="0.081" height="7.729" transform="translate(5.116 -0.001)" fill="#59f"/><path d="M350.2,365.454v0Z" transform="translate(-345.002 -357.726)" fill="#59f"/></g></g><g transform="translate(39.922 21.661)"><path d="M349.662,359.071s-2.083,1.144-1.94,1.5a.609.609,0,0,0,.411.4l-.644.859s-.1.811.808.688c0,0-.176.747.691.524,0,0,.1.544.523.512a7.937,7.937,0,0,0,1.731-.824s.2-.292-.194-.746a.819.819,0,0,0-.19-.908.9.9,0,0,0-.34-.861s.193-1.017-.633-1.252C349.885,358.968,349.75,359.023,349.662,359.071Z" transform="translate(-347.485 -358.968)" fill="#db9c7c"/></g><g transform="translate(34.862 14.096)"><g clip-path="url(#f)"><path d="M343.809,353.471v0Z" transform="translate(-343.808 -353.471)" fill="#96cbff"/><rect width="0.13" height="7.394" fill="#96cbff"/><rect width="0.13" height="7.394" transform="translate(0.13)" fill="#95caff"/><rect width="0.132" height="7.394" transform="translate(0.261)" fill="#94c9ff"/><rect width="0.13" height="7.394" transform="translate(0.392)" fill="#93c9ff"/><rect width="0.13" height="7.394" transform="translate(0.523)" fill="#92c8ff"/><rect width="0.13" height="7.394" transform="translate(0.653)" fill="#91c7ff"/><rect width="0.13" height="7.394" transform="translate(0.783)" fill="#90c6ff"/><rect width="0.13" height="7.394" transform="translate(0.914)" fill="#8fc6ff"/><rect width="0.13" height="7.394" transform="translate(1.044)" fill="#8ec5ff"/><rect width="0.13" height="7.394" transform="translate(1.174)" fill="#8dc4ff"/><rect width="0.132" height="7.394" transform="translate(1.305)" fill="#8cc3ff"/><rect width="0.13" height="7.394" transform="translate(1.437)" fill="#8bc2ff"/><rect width="0.13" height="7.394" transform="translate(1.567)" fill="#8ac2ff"/><rect width="0.13" height="7.394" transform="translate(1.697)" fill="#89c1ff"/><rect width="0.13" height="7.394" transform="translate(1.828)" fill="#88c0ff"/><rect width="0.13" height="7.394" transform="translate(1.958)" fill="#87bfff"/><rect width="0.13" height="7.394" transform="translate(2.088)" fill="#86bfff"/><rect width="0.13" height="7.394" transform="translate(2.219)" fill="#85beff"/><rect width="0.132" height="7.394" transform="translate(2.349)" fill="#84bdff"/><rect width="0.13" height="7.394" transform="translate(2.481)" fill="#83bcff"/><rect width="0.13" height="7.394" transform="translate(2.611)" fill="#82bbff"/><rect width="0.13" height="7.394" transform="translate(2.741)" fill="#81bbff"/><rect width="0.13" height="7.394" transform="translate(2.872)" fill="#80baff"/><rect width="0.13" height="7.394" transform="translate(3.002)" fill="#7fb9ff"/><rect width="0.13" height="7.394" transform="translate(3.132)" fill="#7eb8ff"/><rect width="0.13" height="7.394" transform="translate(3.263)" fill="#7db7ff"/><rect width="0.13" height="7.394" transform="translate(3.393)" fill="#7cb7ff"/><rect width="0.13" height="7.394" transform="translate(3.524)" fill="#7bb6ff"/><rect width="0.13" height="7.394" transform="translate(3.654)" fill="#7ab5ff"/><rect width="0.132" height="7.394" transform="translate(3.784)" fill="#79b4ff"/><rect width="0.13" height="7.394" transform="translate(3.916)" fill="#78b4ff"/><rect width="0.13" height="7.394" transform="translate(4.046)" fill="#77b3ff"/><rect width="0.13" height="7.394" transform="translate(4.177)" fill="#76b2ff"/><rect width="0.13" height="7.394" transform="translate(4.307)" fill="#74b1ff"/><rect width="0.13" height="7.394" transform="translate(4.437)" fill="#73b0ff"/><rect width="0.13" height="7.394" transform="translate(4.568)" fill="#72b0ff"/><rect width="0.13" height="7.394" transform="translate(4.698)" fill="#71afff"/><rect width="0.132" height="7.394" transform="translate(4.829)" fill="#70aeff"/><rect width="0.13" height="7.394" transform="translate(4.96)" fill="#6fadff"/><rect width="0.13" height="7.394" transform="translate(5.091)" fill="#6eadff"/><rect width="0.13" height="7.394" transform="translate(5.221)" fill="#6dacff"/><rect width="0.13" height="7.394" transform="translate(5.351)" fill="#6cabff"/><rect width="0.13" height="7.394" transform="translate(5.482)" fill="#6baaff"/><rect width="0.13" height="7.394" transform="translate(5.612)" fill="#6aa9ff"/><rect width="0.13" height="7.394" transform="translate(5.742)" fill="#69a9ff"/><rect width="0.13" height="7.394" transform="translate(5.873)" fill="#68a8ff"/><rect width="0.132" height="7.394" transform="translate(6.003)" fill="#67a7ff"/><rect width="0.13" height="7.394" transform="translate(6.135)" fill="#66a6ff"/><rect width="0.13" height="7.394" transform="translate(6.265)" fill="#65a6ff"/><rect width="0.13" height="7.394" transform="translate(6.395)" fill="#64a5ff"/><rect width="0.13" height="7.394" transform="translate(6.526)" fill="#63a4ff"/><rect width="0.13" height="7.394" transform="translate(6.656)" fill="#62a3ff"/><rect width="0.13" height="7.394" transform="translate(6.786)" fill="#61a2ff"/><rect width="0.13" height="7.394" transform="translate(6.917)" fill="#60a2ff"/><rect width="0.132" height="7.394" transform="translate(7.047)" fill="#5fa1ff"/><rect width="0.13" height="7.394" transform="translate(7.179)" fill="#5ea0ff"/><rect width="0.13" height="7.394" transform="translate(7.309)" fill="#5d9fff"/><rect width="0.13" height="7.394" transform="translate(7.44)" fill="#5c9eff"/><rect width="0.13" height="7.394" transform="translate(7.57)" fill="#5b9eff"/><rect width="0.13" height="7.394" transform="translate(7.7)" fill="#5a9dff"/><rect width="0.13" height="7.394" transform="translate(7.831)" fill="#599cff"/><rect width="0.13" height="7.394" transform="translate(7.961)" fill="#589bff"/><rect width="0.13" height="7.394" transform="translate(8.091)" fill="#579bff"/><rect width="0.132" height="7.394" transform="translate(8.222)" fill="#569aff"/><rect width="0.13" height="7.394" transform="translate(8.353)" fill="#59f"/><path d="M349.974,360.865v0Z" transform="translate(-341.49 -353.471)" fill="#59f"/></g></g><g transform="translate(38.315 23.309)"><path d="M346.457,360.167a8.137,8.137,0,0,1,2.532.318c.2.084.385.2.385.422s-.319.5-1.024.556a5.984,5.984,0,0,0-1.591.45S346.018,361.76,346.457,360.167Z" transform="translate(-346.318 -360.166)" fill="#eea886"/></g><g transform="translate(17.833 72.323)"><path d="M335.986,404.853c-.125.651-.252,1.313-.38,1.971l-4.172-11.041C331.986,396.9,335.986,404.853,335.986,404.853Z" transform="translate(-331.434 -395.783)" fill="#293b57"/></g></g><g transform="translate(136.692 270.812)"><path d="M6.4,0H77.022a6.4,6.4,0,0,1,6.4,6.4V115.172a6.4,6.4,0,0,1-6.4,6.4H6.4a6.4,6.4,0,0,1-6.4-6.4V6.4A6.4,6.4,0,0,1,6.4,0Z"/></g><g transform="translate(145.554 281.448)"><g transform="translate(61.372 67.874)"><rect width="4.323" height="32.894" fill="#e3f2ff"/></g><g transform="translate(52.833 71.56)"><rect width="4.322" height="29.208" fill="#e3f2ff"/></g><g transform="translate(43.555 76.355)"><rect width="4.322" height="24.413" fill="#e3f2ff"/></g><g transform="translate(34.027 82.401)"><rect width="4.322" height="18.366" fill="#e3f2ff"/></g><g transform="translate(7.3)"><path d="M126.411,304.679l-.937-.333,8.15-22.866,17.675-4.674,6.352-25.1,13.64-6.02,3.055-19.514.982.154-3.139,20.05L158.5,252.424l-6.377,25.193-17.735,4.693Z" transform="translate(-125.475 -226.175)" fill="#e3f2ff"/></g><g transform="translate(30.883 48.384)"><path d="M147.318,262.308a2.652,2.652,0,1,1-3.732-.376A2.654,2.654,0,0,1,147.318,262.308Z" transform="translate(-142.612 -261.335)" fill="#ffc955"/></g><g transform="translate(30.388 47.887)"><path d="M147.393,266.561a3.15,3.15,0,1,1,.444-4.433A3.151,3.151,0,0,1,147.393,266.561Zm-3.356-4.106a2.155,2.155,0,1,0,3.032.3A2.155,2.155,0,0,0,144.037,262.455Z" transform="translate(-142.252 -260.974)" fill="#e3f2ff"/></g><g transform="translate(37.32 23.39)"><path d="M152,244.146a2.652,2.652,0,1,1-3.732-.374A2.651,2.651,0,0,1,152,244.146Z" transform="translate(-147.29 -243.173)" fill="#ffc955"/></g><g transform="translate(36.823 22.894)"><path d="M152.07,248.4a3.15,3.15,0,1,1,.445-4.432A3.153,3.153,0,0,1,152.07,248.4Zm-3.356-4.106a2.154,2.154,0,1,0,3.032.3A2.155,2.155,0,0,0,148.714,244.293Z" transform="translate(-146.928 -242.812)" fill="#e3f2ff"/></g><g transform="translate(50.749 17.198)"><path d="M161.754,239.647a2.653,2.653,0,1,1-3.732-.376A2.652,2.652,0,0,1,161.754,239.647Z" transform="translate(-157.048 -238.673)" fill="#ffc955"/></g><g transform="translate(50.253 16.703)"><path d="M161.829,243.9a3.15,3.15,0,1,1,.446-4.433A3.154,3.154,0,0,1,161.829,243.9Zm-3.358-4.108a2.155,2.155,0,1,0,3.033.305A2.158,2.158,0,0,0,158.472,239.792Z" transform="translate(-156.688 -238.313)" fill="#e3f2ff"/></g><g transform="translate(13.276 53.292)"><path d="M134.525,265.875a2.653,2.653,0,1,1-3.733-.374A2.652,2.652,0,0,1,134.525,265.875Z" transform="translate(-129.818 -264.902)" fill="#ffc955"/></g><g transform="translate(12.781 52.796)"><path d="M134.6,270.128a3.15,3.15,0,1,1,.446-4.432A3.151,3.151,0,0,1,134.6,270.128Zm-3.356-4.106a2.155,2.155,0,1,0,3.032.3A2.155,2.155,0,0,0,131.243,266.022Z" transform="translate(-129.458 -264.541)" fill="#e3f2ff"/></g><g transform="translate(0 23.871)"><path d="M1.383,0H25.172a1.383,1.383,0,0,1,1.383,1.383V4.118A1.383,1.383,0,0,1,25.172,5.5H1.384A1.384,1.384,0,0,1,0,4.117V1.383A1.383,1.383,0,0,1,1.383,0Z" fill="#ebebeb"/></g><g transform="translate(0 14.254)"><path d="M1.383,0H25.172a1.383,1.383,0,0,1,1.383,1.383V4.117A1.384,1.384,0,0,1,25.171,5.5H1.384A1.384,1.384,0,0,1,0,4.117V1.383A1.383,1.383,0,0,1,1.383,0Z" fill="#ebebeb"/></g></g><g transform="translate(96.933 305.873)"><g transform="translate(25.517 9.374)"><path d="M107.424,250.736s-.769,7.593.633,9.5c0,0-3.714-.809-4.574-2.088S107.424,250.736,107.424,250.736Z" transform="translate(-103.38 -250.736)" fill="#16202e"/></g><g transform="translate(52.268 32.493)"><path d="M123.306,268.666s1.347-.905,1.558-1.038a3.918,3.918,0,0,1,1.694-.015,4.508,4.508,0,0,1,1.882.7.692.692,0,0,1,.133.567,1.351,1.351,0,0,1-.285.618.815.815,0,0,1-.172.767.714.714,0,0,1-.3.733.6.6,0,0,1-.219.618,5.279,5.279,0,0,0-.952.045,11.366,11.366,0,0,1-3.059-.424S122.067,270.912,123.306,268.666Z" transform="translate(-122.82 -267.536)" fill="#eea886"/></g><g transform="translate(54.403 34.25)"><path d="M125.016,268.813a4.008,4.008,0,0,1-.621.85c-.215.14,1.038,1.488,1.038,1.488S125.863,269.33,125.016,268.813Z" transform="translate(-124.371 -268.813)" fill="#cf8c6c"/></g><g transform="translate(50.899 33.403)"><path d="M122.882,268.548a5.489,5.489,0,0,0,1.372-.336c.523-.242-.1,2.639-.1,2.639a5.389,5.389,0,0,0-2.1-.9C121.229,269.924,122.882,268.548,122.882,268.548Z" transform="translate(-121.825 -268.198)" fill="#eea886"/></g><g transform="translate(13.358 110.413)"><path d="M98.016,324.242a47.8,47.8,0,0,0,3.575,4.7s1.849.959,1.906,1.726c.109,1.449.184,2.3-2.247,2.371s-3.952-.007-4.4-1.479a11.147,11.147,0,0,0-1.214-2.63l-.186,3.834H94.9s-.245-3.842-.281-4.391-.394-2.654.764-3.589A3.211,3.211,0,0,1,98.016,324.242Z" transform="translate(-94.545 -324.159)" fill="#162d40"/></g><g transform="translate(13.95 109.407)"><path d="M101.781,329.411a6.133,6.133,0,0,1-2.879-.022c-1.565-.394-3.066-4.138-3.523-4.45l-.4-1.511h3.048a5.434,5.434,0,0,0,.517,2.074A36.372,36.372,0,0,0,101.781,329.411Z" transform="translate(-94.975 -323.428)" fill="#162d40"/></g><g transform="translate(29.943 108.271)"><path d="M110.686,323.379a9.805,9.805,0,0,0,1.148,1.917c.552.718,2.262,3.667,3.016,3.872s3.083.616,3.288,1.918.308,2.227-1.987,2.33-3.8.239-4.9-1.371a11.932,11.932,0,0,0-2.843-2.776v4.2h-.89a37.836,37.836,0,0,0-.651-4.679c-.239-.31-.856-3.667,1.267-5.414S110.686,323.379,110.686,323.379Z" transform="translate(-106.597 -322.603)" fill="#162d40"/></g><g transform="translate(30.998 108.586)"><path d="M114.561,329.082s-2.056.513-2.844,0-3.466-5.041-4.354-5.312c0,0,.86-1.745,3.034-.478C110.4,323.293,113.978,328.328,114.561,329.082Z" transform="translate(-107.363 -322.832)" fill="#162d40"/></g><g transform="translate(10.812 44.919)"><path d="M97.546,277.782a21.492,21.492,0,0,0-3.685,8.239c-.786,4.47.465,19.475.429,21.685s-1.949,9.085-1.539,13.247,2.565,21.536,2.565,21.536l5.021-.092s-1.006-18.745-.75-20.492,1.075-9.18,1.177-9.9,5.722-19.742,5.722-22.965S104.534,272.526,97.546,277.782Z" transform="translate(-92.694 -276.566)" fill="#1d3b54"/></g><g transform="translate(20.257 46.666)"><path d="M109.524,278.779s4.761,18.172,5.326,20.691,1.7,5.806,1.644,6.268-.6,8.221-.6,8.221l-1.354,26.412h-5.017s-1.61-16.8-1.869-20.195,1.851-8.632,1.336-10.072-8.273-18.034-8.273-18.034S94.845,273.5,109.524,278.779Z" transform="translate(-99.558 -277.835)" fill="#1d3b54"/></g><g transform="translate(27.072 20.409)"><path d="M106.186,258.755a5.77,5.77,0,0,1,3.344,1.722A22.115,22.115,0,0,1,112.7,265.3c.376.822,5.659,8.441,5.932,8.612s2.582-.435,4.432-.589a40.589,40.589,0,0,0,7.534-1.789l.67,3.41S120.16,278.526,117.6,277.9c-3.133-.773-10.347-10.028-10.347-10.028S101.872,261.565,106.186,258.755Z" transform="translate(-104.51 -258.755)" fill="#eddad3"/></g><g transform="translate(12.207 18.945)"><path d="M106.927,257.82a25.741,25.741,0,0,0,3.322,1.335c.857.172,4.181,4.489,4.763,6.065s0,3.938-1.2,6.713-.069,3.7-.617,6.476a77.581,77.581,0,0,0-.444,11.88c.1,1.541-15.86,4.449-19.044,1.64,0,0,2.155-7.11,4.71-9.78.55-.578.493-4.427.117-5.385s-4.627-8.119-4.627-8.119-.311-7.262,1.543-8.7c1.609-1.251,6-1.7,6.786-1.971A13.441,13.441,0,0,1,106.927,257.82Z" transform="translate(-93.708 -257.691)" fill="#eddad3"/></g><g transform="translate(26.143 18.196)"><path d="M103.907,263.523l1.5-1.755-1.3-4.621A30.563,30.563,0,0,0,103.907,263.523Z" transform="translate(-103.835 -257.147)" fill="#d1c0ba"/></g><g transform="translate(6.533 20.305)"><path d="M99.87,258.783a4.293,4.293,0,0,0-4.889,2.536c-1.781,3.425-1.336,5.275-1.748,6.816s-2.055,11.853-2.156,12.3-1.679,5.687-1.474,7.3,1.679,13.805,1.61,14.217,2.843-.394,2.843-.394-.12-12.453-.017-13.48.205-6.422.976-7.811,2.672-9.865,3.083-10.739S102.492,259.9,99.87,258.783Z" transform="translate(-89.585 -258.679)" fill="#eea886"/></g><g transform="translate(20.736 12.851)"><path d="M105.774,256.639a58.7,58.7,0,0,0-.389,6s-2.564,2.568-5.478-3a7.638,7.638,0,0,0,.3-5.421C99.287,251.092,105.774,256.639,105.774,256.639Z" transform="translate(-99.906 -253.263)" fill="#eea886"/></g><g transform="translate(23.459 22.13)"><path d="M104.64,260.1v2.346l-2.755-2.442Z" transform="translate(-101.885 -260.006)" fill="#eea886"/></g><g transform="translate(19.319 18.945)"><path d="M105.771,263.318l-1.224-1.516-4.126-4.112-1.545.687Z" transform="translate(-98.876 -257.691)" fill="#d1c0ba"/></g><g transform="translate(26.411 18.196)"><path d="M105.331,261.768l1.889.521-3.19-5.142Z" transform="translate(-104.03 -257.147)" fill="#fae6de"/></g><g transform="translate(19.256 18.659)"><path d="M104.564,261.881l-1.726,2.764-4.009-6.288,1.717-.874Z" transform="translate(-98.83 -257.483)" fill="#fae6de"/></g><g transform="translate(32.492 27.612)"><path d="M109.734,270.587s.617-4.1-.04-6.6c0,0-.362,2.013-1.245,5.148Z" transform="translate(-108.449 -263.989)" fill="#d1c0ba"/></g><g transform="translate(14.619 27.714)"><path d="M95.461,270.015s1.705-5.642,1.805-5.952a47.956,47.956,0,0,1-.769,7.752S95.87,270.719,95.461,270.015Z" transform="translate(-95.461 -264.063)" fill="#d1c0ba"/></g><g transform="translate(51.304 5.39)"><path d="M148.957,247.841l-26.838,33.814.935.722Z" transform="translate(-122.119 -247.841)" fill="#54281a"/></g><g transform="translate(54.682 33.18)"><path d="M127.574,268.091s-2.013-.19-2.085.132a.511.511,0,0,0,.1.48l-.864.3s-.461.52.239.871c0,0-.479.44.238.7,0,0-.187.431.124.61a6.775,6.775,0,0,0,1.613.246s.281-.109.219-.618a.7.7,0,0,0,.3-.733.761.761,0,0,0,.172-.767s.621-.626.151-1.185A1.834,1.834,0,0,0,127.574,268.091Z" transform="translate(-124.574 -268.036)" fill="#db9c7c"/></g><g transform="translate(53.66 32.584)"><path d="M124.546,267.6a6.915,6.915,0,0,1,1.632,1.434c.1.158.176.327.072.482s-.465.2-.988-.095a5.082,5.082,0,0,0-1.338-.444S123.476,268.517,124.546,267.6Z" transform="translate(-123.831 -267.602)" fill="#eea886"/></g><g transform="translate(19.256 0.825)"><path d="M104.1,244.525s4.541-.117,5.375,5.258-1.1,10.1-1.851,10.856-5.3.183-6.367-2.609-2.637-4.829-2.4-7.229S98.515,244.435,104.1,244.525Z" transform="translate(-98.831 -244.524)" fill="#eea886"/></g><g transform="translate(16.335)"><path d="M110.466,252.044s1.216-6.706-4.812-7.906-8.141,2.923-8.715,5.375.1,9.369.1,9.369,4.018,3.523,6.418,4.437c0,0-2.009-7.36-1.252-12.631,0,0,4.9.769,8.151-.033C110.36,250.655,110.458,251.755,110.466,252.044Z" transform="translate(-96.708 -243.924)" fill="#16202e"/></g><g transform="translate(22.78 15.832)"><path d="M105.112,256.834a7.665,7.665,0,0,1-3.721-1.405A8.827,8.827,0,0,0,105,258.017S105.127,257.075,105.112,256.834Z" transform="translate(-101.391 -255.429)" fill="#a77860"/></g><g transform="translate(0 51.86)"><rect width="17.769" height="13.141" transform="matrix(0.987, -0.161, 0.161, 0.987, 0, 2.864)" fill="#366e9c"/></g><g transform="translate(6.977 60.978)"><path d="M90.486,294.724a2.385,2.385,0,0,1-.3-.7s-.011-.467-.037-.8a2.105,2.105,0,0,0-.033-.253,4.44,4.44,0,0,1-.2-1.382,29.4,29.4,0,0,1,.883-3.252l1.552.055,1.46-.158a29.651,29.651,0,0,1,1.8,3.948,1.342,1.342,0,0,1,0,.167,5.6,5.6,0,0,1-.283,1.113c-.015.095-.231,1.027-.487,1.156a.938.938,0,0,1-.908.021,2.241,2.241,0,0,1-1.216.18,1.386,1.386,0,0,1-1.225-.037S90.794,295.03,90.486,294.724Z" transform="translate(-89.908 -288.236)" fill="#eea886"/></g><g transform="translate(6.548 20.305)"><path d="M99.866,258.783a4.293,4.293,0,0,0-4.889,2.536,15.66,15.66,0,0,0-2.011,6.559c-.224,1.581-2.4,10.962-2.5,11.408s-.816,6.31-.867,8.444c-.039,1.624.343,12.264.274,12.675s4.92-.721,4.92-.721-.552-9.812-.449-10.84.321-6.151.823-7.658c.59-1.767,2.92-10.679,3.33-11.553S102.487,259.9,99.866,258.783Z" transform="translate(-89.596 -258.679)" fill="#eddad3"/></g></g><g transform="translate(222.702 299.957)"><g transform="translate(47.298 115.548)"><path d="M215.023,326.6l.323-3.011s-4.247-.032-4.745.326c0,0,.362,2.529.406,2.908S215.023,326.6,215.023,326.6Z" transform="translate(-210.602 -323.591)" fill="#5c544d"/></g><g transform="translate(40.772 118.289)"><path d="M209.589,332.149c5.053-.043,7.49.3,8.031-.517s-.783-6.048-.783-6.048a10.611,10.611,0,0,1-4.087.172,10.758,10.758,0,0,1-2.474,2.189c-1.218.663-3.129.928-3.849,1.614C205.908,330.056,204.536,332.193,209.589,332.149Z" transform="translate(-205.86 -325.584)" fill="#3c4145"/></g><g transform="translate(18.852 115.548)"><path d="M194.351,326.6l.322-3.011s-4.247-.032-4.742.326c0,0,.359,2.529.406,2.908S194.351,326.6,194.351,326.6Z" transform="translate(-189.931 -323.591)" fill="#5c544d"/></g><g transform="translate(9.991 118.289)"><path d="M189.554,332.149c5.052-.132,7.49.3,8.031-.517s-.783-6.048-.783-6.048a9.607,9.607,0,0,1-4.086.172,10.778,10.778,0,0,1-2.476,2.189c-1.215.663-5.693,1.21-6.413,1.9C183.308,330.338,182.445,332.337,189.554,332.149Z" transform="translate(-183.492 -325.584)" fill="#3c4145"/></g><g transform="translate(34.902 50.572)"><path d="M212.581,276.375s2.112,6.275,1.834,11.686,1.093,11.328,1.653,16.979c.625,6.3,3.183,21.211,3.275,24.58s-.4,14.13-.4,14.13l-5.118.12s-4.3-26.072-5.411-28.732-6.636-21.627-6.82-23.755S212.581,276.375,212.581,276.375Z" transform="translate(-201.594 -276.375)" fill="#dbd8e3"/></g><g transform="translate(18.16 49.847)"><path d="M195.64,277.689s-2.811,14.826-3.182,18.136-.618,16.022-.8,18.09-1.239,27.077-2.227,30.152h6.543s5.021-18.181,5.021-26.782,3.881-18.7,6.387-24.374,8.237-5.81,9.777-16.339C217.157,276.573,197.726,274.351,195.64,277.689Z" transform="translate(-189.428 -275.848)" fill="#dbd8e3"/></g><g transform="translate(28.484 0.55)"><path d="M206.115,240.5s-5.158-1.927-7.534,2-2.15,11.786.45,12.752,6.5.461,7.836-2,2.533-6.008,2.476-8.382A5.17,5.17,0,0,0,206.115,240.5Z" transform="translate(-196.93 -240.025)" fill="#eea886"/></g><g transform="translate(31.301 10.78)"><path d="M199.127,252.212a4.315,4.315,0,0,1-.136,2.017c-.344.666,6.488.684,6.488.684a44.849,44.849,0,0,1,1.606-6.684C208.136,245.169,199.127,252.212,199.127,252.212Z" transform="translate(-198.978 -247.459)" fill="#eea886"/></g><g transform="translate(29.082)"><path d="M207.691,251.176s-.472.778-2.4.476-4.274-2.862-5.078-3.143-.809-.753-.809-.753l-.505.733-.853.055s.779-2.291-.4-3.226,1.219-7.414,7.393-5.257c0,0,4.424.874,4.691,3.563A12.214,12.214,0,0,1,207.691,251.176Z" transform="translate(-197.365 -239.625)" fill="#fccca2"/></g><g transform="translate(30.909 15.599)"><path d="M198.693,252.833s.022-1.273.6-1.394,6.366-.68,7.073-.4v1.482S205,253.36,198.693,252.833Z" transform="translate(-198.693 -250.961)" fill="#e2d2ca"/></g><g transform="translate(31.1 6.167)"><path d="M198.982,245.09c.109-.453,1.258-1.745,1.7-.361s-.666,3.245-1.283,3.085S198.71,246.236,198.982,245.09Z" transform="translate(-198.831 -244.107)" fill="#eea886"/></g><g transform="translate(9.434 17.159)"><path d="M204.563,252.406s-3.173,1.141-6.85,2.7a7.716,7.716,0,0,0-4.687,6.249c-.242,2.478-2.882,15.634-3.378,16.749s-6.347,19-6.553,19.368,4.777,2.441,5.107,2.276,5.668-16.312,6.2-17.508c0,0,3.074-9.681,3.155-11.125,0,0,.089,4.113.253,5.268s-2.732,23.573-2.649,24.191,13.167,1.405,18.4.827a64.1,64.1,0,0,0,9.462-1.781s-4.12-17.693-3.993-19.654c.275-4.276,1.7-12.325,1.7-12.325l4.27,8.049-5.466,14.063,1.251,4.271s10.157-15.346,10.486-16.749-.5-3.187-1.033-4.342-4.057-9.94-4.881-11.178-2.218-6.19-5.586-7.569a52.592,52.592,0,0,0-7.544-2.1Z" transform="translate(-183.087 -252.094)" fill="#63a4ff"/></g><g transform="translate(0 47.819)"><g transform="translate(0 0)"><rect width="24.7" height="17.232" transform="translate(4.28 0) rotate(14.381)" fill="#f25f54"/></g></g><g transform="translate(6.379 66.191)"><path d="M181.845,287.725s-.684,1.1-.934,1.42.615.513.984.193S181.845,287.725,181.845,287.725Z" transform="translate(-180.867 -287.725)" fill="#c98462"/></g><g transform="translate(7.302 62.169)"><path d="M186.575,292.6a2.682,2.682,0,0,0,.493-.691s.12-.505.227-.857a2.4,2.4,0,0,1,.094-.27,4.849,4.849,0,0,0,.546-1.453c.107-.681.4-3.743.4-3.743l-1.854-.468L185,284.8s-3.217,3.209-3.389,3.834a1.459,1.459,0,0,0-.04.18,6.186,6.186,0,0,0,.047,1.276c-.006.107.01,1.171.257,1.371a1.039,1.039,0,0,0,.984.235,2.487,2.487,0,0,0,1.278.482,1.548,1.548,0,0,0,1.34.249S186.169,292.858,186.575,292.6Z" transform="translate(-181.538 -284.802)" fill="#de9d7d"/></g><g transform="translate(9.441 48.662)"><path d="M193.226,276.929s-4.247,12.861-5.027,14.213a14,14,0,0,1-5.107-2.276l4.662-13.878Z" transform="translate(-183.092 -274.987)" fill="#63a4ff"/></g></g><g transform="translate(516.952 305.177)"><g transform="translate(9.297)"><path d="M495.928,308.856s15.763-46.228-14.317-60.559-55.621,6.384-60.446,17.594-3.548,31.594.567,45.808,3.516,35.851-5.423,43.088-20.023,19.255-19.475,43.719c.341,15.177,59.725-38.824,59.725-38.824Z" transform="translate(-396.814 -243.419)" fill="#252e3b"/></g><g transform="translate(0 119.178)"><path d="M456.2,331.273s-24.725,5.48-34.539,11.215-31.605,32.116-31.605,43.459,95.306,21.94,95.306,21.94l18.064,65.95s48.172-11.755,53.907-21.5-18.3-79.622-22.409-93.763c-4.2-14.426-21.462-24.484-41.534-27.3A137.844,137.844,0,0,0,456.2,331.273Z" transform="translate(-390.058 -330.023)" fill="url(#g)"/></g><g transform="translate(57.932 118.444)"><path d="M475.844,331.246s-.555,30.049-24.388,30.942-18.871-28.823-18.871-28.823S450.017,326.3,475.844,331.246Z" transform="translate(-432.156 -329.49)" fill="#eea886"/></g><g transform="translate(88.043 29.52)"><path d="M477.7,264.87s8.43,48.332-15.578,83.245C437.255,384.274,477.7,264.87,477.7,264.87Z" transform="translate(-454.037 -264.87)" fill="#252e3b"/></g><g transform="translate(61.196 89.089)"><path d="M469.836,318.022s-1.657,14.374,1.111,23.314-36.44,9.186-36.419,1.834c.026-8.349,4.011-15.324.257-29.637S469.836,318.022,469.836,318.022Z" transform="translate(-434.528 -308.158)" fill="#eea886"/></g><g transform="translate(66.092 100.786)"><path d="M438.086,316.658s12.38,12.9,28.209,1.346c0,0-1.307,8.243-12.693,9.307S438.086,316.658,438.086,316.658Z" transform="translate(-438.086 -316.658)" fill="#a77860"/></g><g transform="translate(46.811 12.135)"><path d="M458.858,252.863s31.286,9.259,26.816,52.676-24.9,41.18-26.816,41.5-26.178,1.914-33.839-50.759S458.858,252.863,458.858,252.863Z" transform="translate(-424.075 -252.237)" fill="#eea886"/></g><g transform="translate(44.541 9.463)"><path d="M451.4,272.954s17,27.042,34.893,33.316c0,0,9.769-45.376-30.582-54.884s-34.03,45.832-31.019,60.588C424.694,311.974,433.1,290.264,451.4,272.954Z" transform="translate(-422.425 -250.295)" fill="#252e3b"/></g><g transform="translate(50.717 7.52)"><path d="M426.913,269.412s8.949-17.331,24.059-18.1,24.1,12.334,24.1,12.334-5.9-14.759-24.078-14.759S426.913,269.412,426.913,269.412Z" transform="translate(-426.913 -248.883)" fill="#88c0ff"/></g></g><g transform="translate(489.544 469.523)"><path d="M509.783,362.846l10.61,98.638H380.75l-10.61-98.638Z" transform="translate(-370.141 -362.846)"/></g><g transform="translate(484.828 464.92)"><path d="M518.321,459.356H377.453L366.714,359.5H507.58Zm-139.774-1.215H516.964l-10.478-97.422H368.068Z" transform="translate(-366.714 -359.501)" fill="#525252"/></g><g transform="translate(555.711 507.766)"><path d="M435.846,400.117c1.254,6.136-1.609,11.9-6.393,12.883s-9.68-3.205-10.935-9.34,1.609-11.9,6.393-12.883S434.591,393.981,435.846,400.117Z" transform="translate(-418.223 -390.636)" fill="#525252"/></g><g transform="translate(626.595 558.246)"><rect width="26.057" height="9.915" transform="translate(26.057 9.915) rotate(180)" fill="#525252"/></g><g transform="translate(524.09 229.031)"><path d="M416.728,231.052a21.483,21.483,0,1,1,21.484-21.484A21.507,21.507,0,0,1,416.728,231.052Zm0-41.749a20.265,20.265,0,1,0,20.266,20.265A20.288,20.288,0,0,0,416.728,189.3Z" transform="translate(-395.245 -188.085)" fill="#fff"/></g><g transform="translate(52.679 372.673)"><path d="M166.711,410.2l-.015-1.826c3.643-.03,7.314-.132,10.911-.3l.085,1.826C174.072,410.071,170.377,410.173,166.711,410.2Zm-10.99-.111c-3.61-.1-7.3-.27-10.977-.5l.114-1.822c3.654.231,7.326.4,10.915.5Zm32.935-.925-.158-1.818c3.6-.314,7.255-.706,10.853-1.164l.231,1.812C195.96,408.459,192.283,408.854,188.656,409.167Zm-54.869-.454c-3.746-.37-7.419-.846-10.913-1.416l.293-1.8c3.458.564,7.093,1.036,10.8,1.4Zm76.665-2.32-.3-1.8c3.52-.589,7.131-1.265,10.734-2.008l.369,1.79C217.626,405.119,213.993,405.8,210.452,406.393Zm-98.377-1.267c-3.681-.893-7.244-1.927-10.592-3.078l.594-1.726c3.293,1.13,6.8,2.15,10.427,3.027Zm119.9-3.147-.427-1.777c3.352-.8,6.817-1.683,10.595-2.689l.471,1.766C238.817,400.287,235.337,401.171,231.971,401.978ZM91.252,397.886a79.889,79.889,0,0,1-9.641-5.429l1.007-1.523a78.263,78.263,0,0,0,9.421,5.3Zm161.933-1.515-.5-1.757q2.3-.644,4.54-1.281,3.045-.861,6.005-1.693l.493,1.759q-2.962.83-6,1.691Q255.48,395.725,253.185,396.371Zm95.207-1.526c-3.367-1.594-6.74-3-10.029-4.172l.615-1.72c3.344,1.2,6.775,2.622,10.2,4.241Zm-74.108-4.294-.453-1.77c3.932-1.006,7.434-1.822,10.706-2.5l.369,1.788C281.662,388.742,278.188,389.553,274.284,390.551Zm53.678-2.945a85.888,85.888,0,0,0-10.687-1.77l.183-1.818a88.268,88.268,0,0,1,10.915,1.807Zm-32.331-1.349-.231-1.811a105.183,105.183,0,0,1,11-.848l.04,1.826A103.028,103.028,0,0,0,295.631,386.258Zm-222.744-.637a61.319,61.319,0,0,1-7.419-8.251l1.464-1.091a59.616,59.616,0,0,0,7.2,8Zm-13.2-17.73a64.705,64.705,0,0,1-3.994-10.351l1.753-.511a62.817,62.817,0,0,0,3.881,10.058Zm-6.263-21.2a87.071,87.071,0,0,1-.744-11.043l1.826-.011a85.449,85.449,0,0,0,.728,10.812Zm1.62-21.9-1.816-.186c.366-3.575.919-7.251,1.643-10.921l1.792.354C55.949,317.651,55.4,321.269,55.043,324.789Zm4.186-21.33-1.755-.508a98.229,98.229,0,0,1,3.588-10.485l1.679.718A97.916,97.916,0,0,0,59.229,303.459Z" transform="translate(-52.679 -292.467)" fill="#c2bebc"/></g><g transform="translate(219.88 79.219)"><path d="M593.816,162.026c-.03-.026-3.081-2.734-8.544-6.8l1.09-1.466c5.533,4.113,8.638,6.871,8.67,6.9Zm-17.481-13.087c-3-2.005-6.109-3.973-9.228-5.85l.941-1.565c3.146,1.891,6.274,3.875,9.3,5.9Zm-18.718-11.262c-3.209-1.731-6.484-3.4-9.732-4.953l.788-1.649c3.275,1.569,6.576,3.249,9.81,4.994Zm-19.694-9.422c-3.374-1.411-6.8-2.738-10.176-3.945l.615-1.72c3.407,1.218,6.861,2.558,10.266,3.981Zm-138.777-2.236-.04-1.825a77.212,77.212,0,0,0,10.774-1.011l.3,1.8A79.162,79.162,0,0,1,399.146,126.018Zm-11.052-.567a81.522,81.522,0,0,1-10.86-2.136l.471-1.764a79.948,79.948,0,0,0,10.615,2.088Zm32.862-2.949-.515-1.753c1.171-.344,2.367-.721,3.553-1.119,2.283-.767,4.61-1.485,6.919-2.134l.5,1.757c-2.28.643-4.58,1.351-6.834,2.108C423.368,121.767,422.151,122.15,420.956,122.5Zm96.419-1.576c-3.506-1.033-7.054-1.966-10.547-2.774l.412-1.779c3.527.815,7.112,1.759,10.651,2.8ZM366.75,119.854c-3.216-1.254-6.513-2.7-10.083-4.434l.8-1.644c3.526,1.709,6.78,3.14,9.951,4.377Zm75.239-3.149-.359-1.79c3.582-.72,7.244-1.311,10.881-1.757l.223,1.812C449.14,115.411,445.525,115.994,441.989,116.706Zm54.149-.673c-3.6-.593-7.233-1.071-10.8-1.416l.176-1.818c3.61.35,7.285.833,10.922,1.433Zm-320.963-1.739-.994-1.532c3.128-2.028,6.261-3.989,9.311-5.829l.944,1.565C181.4,110.326,178.286,112.276,175.175,114.293Zm288.4-.238-.084-1.825c3.633-.171,7.331-.209,11.019-.111l-.047,1.826C470.821,113.849,467.17,113.886,463.579,114.055ZM346.9,110.369c-3.1-1.683-6.169-3.413-9.578-5.337l.9-1.591c3.4,1.92,6.468,3.647,9.552,5.323Zm-153.005-7.336-.885-1.6c3.274-1.807,6.549-3.527,9.735-5.11l.813,1.635C200.391,99.53,197.14,101.237,193.891,103.033Zm133.881-3.341c-3.577-1.961-6.739-3.625-9.666-5.088l.816-1.633c2.949,1.472,6.131,3.147,9.728,5.119Zm-114.331-6.34-.728-1.676c3.44-1.494,6.878-2.872,10.218-4.093l.628,1.715C220.252,90.507,216.848,91.871,213.442,93.352Zm94.777-3.325c-3.5-1.479-6.828-2.73-10.178-3.826l.568-1.735c3.4,1.111,6.773,2.379,10.321,3.879ZM233.907,85.91l-.505-1.755c3.6-1.038,7.2-1.924,10.706-2.631l.362,1.79C241.015,84.012,237.462,84.886,233.907,85.91Zm53.665-2.566a99.348,99.348,0,0,0-10.7-1.741l.193-1.816a101.554,101.554,0,0,1,10.9,1.772Zm-32.364-1.694-.194-1.816a106.955,106.955,0,0,1,11.027-.614l.005,1.826A105.234,105.234,0,0,0,255.208,81.649Z" transform="translate(-174.181 -79.219)" fill="#c2bebc"/></g><g transform="translate(366.041 477.594)"><path d="M326.3,386.208l-45.906-13.347,13.761-4.15Z" transform="translate(-280.393 -368.711)" fill="#d6d6d6"/><g transform="translate(18.187 0.263)"><path d="M321.329,386.136,304.171,368.9l-10.561,2.145Z" transform="translate(-293.609 -368.902)" fill="#e8e8e8"/></g><g transform="translate(10.557 7.218)"><path d="M288.065,373.956l.37,5.312,34.979,4.967Z" transform="translate(-288.065 -373.956)" fill="#c2c2c2"/></g></g><g transform="translate(180.895 121.111)"><path d="M145.852,133.21l40.465-22.631-13.909-.917Z" transform="translate(-145.852 -109.661)" fill="#d6d6d6"/><g transform="translate(0 3.241)"><path d="M145.852,132.324,158.3,112.295l10.448-.278Z" transform="translate(-145.852 -112.017)" fill="#e8e8e8"/></g><g transform="translate(0 6.122)"><path d="M177.01,114.11l.81,5.1-31.969,12.327Z" transform="translate(-145.852 -114.11)" fill="#c2c2c2"/></g></g></g></svg>