<svg xmlns="http://www.w3.org/2000/svg" xmlns:xlink="http://www.w3.org/1999/xlink" width="775.684" height="451.923" viewBox="0 0 775.684 451.923"><defs><linearGradient id="a" x1="23.88" y1="0.5" x2="24.88" y2="0.5" gradientUnits="objectBoundingBox"><stop offset="0" stop-color="#a382f2"/><stop offset="1" stop-color="#d2d7f6"/></linearGradient><linearGradient id="b" x1="38.966" y1="0.5" x2="39.966" y2="0.5" xlink:href="#a"/><linearGradient id="c" x1="25.024" y1="0.5" x2="26.024" y2="0.5" xlink:href="#a"/><linearGradient id="d" x1="179.393" y1="0.5" x2="180.393" y2="0.5" xlink:href="#a"/><linearGradient id="e" x1="29.461" y1="0.5" x2="30.461" y2="0.5" xlink:href="#a"/><linearGradient id="f" x1="105.108" y1="0.5" x2="106.108" y2="0.5" xlink:href="#a"/><linearGradient id="g" x1="37.605" y1="0.5" x2="38.605" y2="0.5" xlink:href="#a"/><linearGradient id="h" x1="33.223" y1="0.5" x2="34.223" y2="0.5" xlink:href="#a"/><linearGradient id="i" x1="30.063" y1="0.5" x2="31.063" y2="0.5" xlink:href="#a"/><linearGradient id="j" x1="27.603" y1="0.5" x2="28.603" y2="0.5" xlink:href="#a"/><linearGradient id="k" x1="25.684" y1="0.5" x2="26.684" y2="0.5" xlink:href="#a"/><linearGradient id="l" x1="23.969" y1="0.5" x2="24.969" y2="0.5" xlink:href="#a"/><linearGradient id="m" x1="0.5" x2="0.5" y2="1" gradientUnits="objectBoundingBox"><stop offset="0" stop-color="#e8cd00"/><stop offset="1"/></linearGradient><linearGradient id="n" x1="0.5" x2="0.5" y2="1" gradientUnits="objectBoundingBox"><stop offset="0"/><stop offset="1" stop-color="#e8cd00"/></linearGradient></defs><g transform="translate(-758.757 3519.409)"><g transform="translate(1073.559 -3264.326)" style="isolation:isolate"><g transform="translate(19.039 36.23)"><rect width="250.815" height="143.449" transform="translate(250.815 143.449) rotate(180)" fill="#e8cd00"/></g><rect width="78.931" height="6.667" transform="translate(98.919 22.525) rotate(180)" fill="#e8cd00"/><rect width="40.265" height="6.667" transform="translate(155.088 22.525) rotate(180)" fill="#e8cd00"/><g transform="translate(0 0)"><path d="M1345.193,602.841H1075.409a9.489,9.489,0,0,1-9.479-9.478V415.478a9.489,9.489,0,0,1,9.479-9.478h269.784a9.491,9.491,0,0,1,9.48,9.478V593.363A9.491,9.491,0,0,1,1345.193,602.841ZM1075.409,406.92a8.568,8.568,0,0,0-8.559,8.558V593.363a8.568,8.568,0,0,0,8.559,8.558h269.784a8.568,8.568,0,0,0,8.559-8.558V415.478a8.568,8.568,0,0,0-8.559-8.558Z" transform="translate(-1065.93 -406)" fill="#e8cd00"/></g></g><g transform="translate(815.166 -3311.393)"><g transform="translate(85.07 0)"><g transform="translate(0.6 0.409)"><path d="M913.349,820.593V585.526L948.335,616.7l20.529,172.326v31.572Z" transform="translate(-913.349 -585.526)" fill="#e8cd00"/></g><g transform="translate(40.771 171.379)"><path d="M983.434,878.773l-8.778.189,4.519-32.507Z" transform="translate(-974.656 -846.455)" fill="#fff"/></g><g transform="translate(0.251 0.001)"><path d="M968.329,820.378l0-31.515L947.824,616.7l-34.309-30.566V820.378h-.7V585.313a.422.422,0,0,1,.194-.367.308.308,0,0,1,.367.043l34.986,31.168a.424.424,0,0,1,.134.268l20.532,172.383v31.571Z" transform="translate(-912.816 -584.904)" fill="#fff"/></g><g transform="translate(1.88 31.17)"><path d="M915.3,836.778,948.665,632.8a.361.361,0,0,1,.41-.325.411.411,0,0,1,.277.479L916.014,836.778Z" transform="translate(-915.302 -632.473)" fill="#fff"/></g><g transform="translate(0.251 21.849)"><path d="M966.362,831.873h-.708l-17.311-130.33-20.266,130.33h-.71l20.649-132.793-10.376-78.115L913.523,759.208l11.955,72.666h-.713l-11.943-72.591a.489.489,0,0,1,0-.158l24.525-140.551a.405.405,0,0,1,.351-.327.374.374,0,0,1,.338.345L948.4,696.626l4.281-27.531a.359.359,0,0,1,.406-.328.408.408,0,0,1,.282.475l-4.643,29.849Z" transform="translate(-912.815 -618.247)" fill="#fff"/></g><g transform="translate(0 11.311)"><path d="M957.609,826.328H956.9l-8.677-61.581L939.2,826.328h-.708l9.387-64.049-22.2-157.526-12.54,67.654,24.086,153.921h-.711L912.438,672.475a.467.467,0,0,1,0-.16l12.945-69.828a.394.394,0,0,1,.35-.322.373.373,0,0,1,.336.341l22.165,157.31,8.723-59.507a.361.361,0,0,1,.4-.335.408.408,0,0,1,.286.471l-9.063,61.838Z" transform="translate(-912.432 -602.164)" fill="#fff"/><path d="M981.815,913.863l7.23-57.456a.368.368,0,0,1,.4-.343.4.4,0,0,1,.3.462l-7.216,57.337Z" transform="translate(-936.353 -689.699)" fill="#fff"/></g><g transform="translate(0.25)"><path d="M947.329,820.377l-34.509-235a.41.41,0,0,1,.286-.472.357.357,0,0,1,.4.335l34.53,235.134Z" transform="translate(-912.814 -584.902)" fill="#fff"/><path d="M967.69,896.422l12.538-90.605a.362.362,0,0,1,.4-.339.406.406,0,0,1,.287.47L968.4,896.422Z" transform="translate(-931.734 -660.947)" fill="#fff"/></g><g transform="translate(0.251 40.076)"><path d="M913.343,646.121l39.285,27.19a.449.449,0,0,1,.122.56.344.344,0,0,1-.3.2.316.316,0,0,1-.179-.056l-39.285-27.192a.449.449,0,0,1-.123-.559A.326.326,0,0,1,913.343,646.121Z" transform="translate(-912.815 -646.065)" fill="#fff"/></g><g transform="translate(0.25 80.428)"><path d="M913.307,707.685l43.609,23.109a.437.437,0,0,1,.174.539.35.35,0,0,1-.318.24.3.3,0,0,1-.144-.037l-43.607-23.108a.439.439,0,0,1-.174-.539A.33.33,0,0,1,913.307,707.685Z" transform="translate(-912.815 -707.649)" fill="#fff"/></g><g transform="translate(0.251 120.225)"><path d="M913.27,768.4l47.681,17.524a.426.426,0,0,1,.229.513.36.36,0,0,1-.334.286.3.3,0,0,1-.1-.019L913.06,769.182a.427.427,0,0,1-.229-.512A.345.345,0,0,1,913.27,768.4Z" transform="translate(-912.815 -768.385)" fill="#fff"/></g><g transform="translate(0.451 162.541)"><path d="M913.519,832.971l51.439,8.43a.4.4,0,0,1,.3.461.372.372,0,0,1-.345.352.2.2,0,0,1-.049,0l-51.441-8.429a.4.4,0,0,1-.3-.461A.366.366,0,0,1,913.519,832.971Z" transform="translate(-913.12 -832.967)" fill="#fff"/></g><g transform="translate(0.45 201.762)"><path d="M913.469,892.825h.01l55.314,1.734a.387.387,0,0,1,.34.419.382.382,0,0,1-.351.4h-.009l-55.312-1.733a.387.387,0,0,1-.341-.419A.381.381,0,0,1,913.469,892.825Z" transform="translate(-913.12 -892.825)" fill="#fff"/></g></g><g transform="translate(0 0.002)"><g transform="translate(0.351 0.407)"><path d="M783.138,820.593V789.021L814.648,616.7l53.7-31.169V820.593Z" transform="translate(-783.138 -585.526)" fill="#e8cd00"/></g><g transform="translate(0 0)" style="mix-blend-mode:multiply;isolation:isolate"><path d="M867.818,820.378V585.972L814.769,616.76,783.3,788.849v31.529h-.7V788.807a.463.463,0,0,1,.008-.085L814.12,616.4a.409.409,0,0,1,.187-.281l53.7-31.168a.313.313,0,0,1,.34.019.435.435,0,0,1,.166.348V820.378Z" transform="translate(-782.602 -584.905)" fill="url(#a)"/></g><g transform="translate(31.512 31.169)" style="mix-blend-mode:multiply;isolation:isolate"><path d="M881.875,836.778,830.708,633a.422.422,0,0,1,.237-.506.344.344,0,0,1,.432.277L882.6,836.778Z" transform="translate(-830.694 -632.475)" fill="url(#b)"/></g><g transform="translate(4.091 21.847)" style="mix-blend-mode:multiply;isolation:isolate"><path d="M851.6,831.873l18.351-72.664L832.722,620.194l-16.083,78.885,31.7,132.795h-.727L816.3,700.717,789.563,831.873h-.717L815.917,699.1,808.8,669.279a.422.422,0,0,1,.243-.5.348.348,0,0,1,.43.283l6.777,28.4,16.085-78.892a.339.339,0,0,1,.674-.029l37.644,140.552a.459.459,0,0,1,0,.236L852.33,831.873Z" transform="translate(-788.846 -618.247)" fill="url(#c)"/></g><g transform="translate(4.723 11.309)" style="mix-blend-mode:multiply;isolation:isolate"><path d="M800.891,913.862l-11.072-57.306a.413.413,0,0,1,.264-.488.35.35,0,0,1,.418.309l11.106,57.485Z" transform="translate(-789.81 -689.697)" fill="url(#d)"/><path d="M840.3,826.328l36.973-153.917-19.46-68.384-34.228,158.25,14.411,64.05h-.721l-14.044-62.41-13.5,62.41h-.721l13.852-64.045-13.905-61.8a.418.418,0,0,1,.248-.5.35.35,0,0,1,.428.292l13.584,60.372,34.21-158.173a.366.366,0,0,1,.326-.308.341.341,0,0,1,.345.278l19.87,69.829a.47.47,0,0,1,0,.239L841.022,826.328Z" transform="translate(-796.406 -602.164)" fill="url(#e)"/></g><g transform="translate(10.784 0)" style="mix-blend-mode:multiply;isolation:isolate"><path d="M818.281,896.422,799.07,805.98a.417.417,0,0,1,.255-.494.35.35,0,0,1,.424.3L819,896.422Z" transform="translate(-799.059 -660.949)" fill="url(#f)"/><path d="M832.49,820.378h-.723l53.014-235.169a.344.344,0,0,1,.425-.29.419.419,0,0,1,.25.5Z" transform="translate(-810.336 -584.905)" fill="url(#g)"/></g><g transform="translate(24.911 40.073)" style="mix-blend-mode:multiply;isolation:isolate"><path d="M820.844,673.281l60.3-27.191a.34.34,0,0,1,.454.235.435.435,0,0,1-.2.527l-60.3,27.192a.322.322,0,0,1-.126.026.354.354,0,0,1-.327-.261A.435.435,0,0,1,820.844,673.281Z" transform="translate(-820.621 -646.063)" fill="url(#h)"/></g><g transform="translate(18.279 80.427)" style="mix-blend-mode:multiply;isolation:isolate"><path d="M810.75,730.774l66.938-23.109a.346.346,0,0,1,.432.276.422.422,0,0,1-.235.507l-66.938,23.109a.329.329,0,0,1-.1.016.361.361,0,0,1-.335-.292A.424.424,0,0,1,810.75,730.774Z" transform="translate(-810.499 -707.649)" fill="url(#i)"/></g><g transform="translate(12.023 120.221)" style="mix-blend-mode:multiply;isolation:isolate"><path d="M801.232,785.917l73.192-17.526a.357.357,0,0,1,.413.318.413.413,0,0,1-.273.483l-73.192,17.526a.29.29,0,0,1-.071.008.368.368,0,0,1-.341-.326A.41.41,0,0,1,801.232,785.917Z" transform="translate(-800.952 -768.382)" fill="url(#j)"/></g><g transform="translate(5.948 162.541)" style="mix-blend-mode:multiply;isolation:isolate"><path d="M792,841.4l78.96-8.43a.38.38,0,0,1,.38.369.394.394,0,0,1-.316.444l-78.959,8.431h-.033a.375.375,0,0,1-.347-.37A.394.394,0,0,1,792,841.4Z" transform="translate(-791.68 -832.97)" fill="url(#k)"/></g><g transform="translate(0 201.758)" style="mix-blend-mode:multiply;isolation:isolate"><path d="M782.945,894.558l84.909-1.734c.207-.025.352.175.355.4a.386.386,0,0,1-.343.415l-84.907,1.733h-.007a.413.413,0,0,1-.006-.816Z" transform="translate(-782.602 -892.822)" fill="url(#l)"/></g></g></g><path d="M570.087,167.686c-21.031-15.849-33.507-30.285-38.57-36.715L531.5,98.263l-5.292,1.164v31.541c-5.067,6.431-17.538,20.868-38.574,36.718h30.635a10.353,10.353,0,0,0,20.706,0h31.107Z" transform="translate(580.317 -3613.848)" fill="#e8cd00"/><path d="M658.061,201.353c-21.032-15.847-33.507-30.283-38.57-36.713l.065-61.967-4.929-1.37-.442,63.334c-5.065,6.428-17.538,20.868-38.572,36.715h30.635a10.353,10.353,0,0,0,20.707,0h31.108Z" transform="translate(560.315 -3617.19)" fill="#e8cd00"/><g transform="translate(1016.759 -3230.235)"><path d="M598.235,544.632c-2.657-5.065-21.484-21.718-33.248-20.185-9.66,1.256-33.655,21.738-41.555,29.035,2.906-5.645,9.167-18.981,12.014-24.527,6.654-12.946,13.766-42.084,13.174-41.516-10.5,10.084-19.507,21.969-24.287,35.852a118.11,118.11,0,0,0-3.251,12.563,73.092,73.092,0,0,0-2.918-14.421c-2.924-9.174-8.359-16.7-14.419-24.047-7.2-8.731-14.479-17.381-23.274-24.565a1.172,1.172,0,0,0-1.832,1.413c9.554,19.8,19.21,39.855,24.275,61.366.076.338.139.675.214,1.014-2.632-6.593-6.207-13.167-11.191-17.737-13.3-12.209-43.123-14.735-53.112-11.954-1.044.292,28.787,6.507,44.785,20.808,5.753,5.144,16.919,29.2,17.793,30.732-2.4-2.963-18.462-21.452-26.782-22.847-32.291-5.412-53.549,16.39-53.238,16.9-.053.739,26.373-7.381,50.233-4.041,18.823,2.632,26.1,16.645,36.892,24.929a27.066,27.066,0,0,0,6.275,11.322,1.152,1.152,0,0,0,1.956-.717,1.2,1.2,0,0,0,1.3-.76,40.745,40.745,0,0,0,1.276-3.973A106.848,106.848,0,0,1,590.8,566.915a1.176,1.176,0,0,0,1.136-1.948c-9.657-10.469-24.439-15.391-38.406-12.024A86.708,86.708,0,0,0,523,567.219a37.8,37.8,0,0,1,6.214-8.624C569.819,519.664,598.784,545.682,598.235,544.632Z" transform="translate(-421.378 -472.516)" fill="#dbcac2"/><path d="M553.394,655.163h-43.22l-12.422-58.041h68.063Z" transform="translate(-438.742 -500.845)" fill="#e6d4cb"/><path d="M521.292,655.163H510.174l-12.422-58.041h10.923Z" transform="translate(-438.742 -500.845)" fill="#faf4f0"/></g><g transform="translate(1268.539 -3201.831)"><rect width="178.27" height="53.187" transform="translate(0 0)" fill="#faf4f0"/><rect width="152.471" height="37.614" transform="translate(12.898 7.786)" fill="#dbcac2"/><rect width="64.94" height="5.62" transform="translate(32.823 23.637)" fill="#faf4f0"/><rect width="64.938" height="5.62" transform="translate(56.748 23.637)" fill="#faf4f0"/><rect width="64.938" height="5.62" transform="translate(80.862 23.637)" fill="#faf4f0"/></g><g transform="translate(1268.539 -3137.268)"><rect width="178.27" height="53.186" fill="#faf4f0"/><rect width="152.471" height="37.617" transform="translate(12.898 7.784)" fill="#dbcac2"/><rect width="64.94" height="5.622" transform="translate(32.823 23.637)" fill="#faf4f0"/><rect width="64.938" height="5.622" transform="translate(56.748 23.637)" fill="#faf4f0"/><rect width="64.938" height="5.622" transform="translate(80.862 23.637)" fill="#faf4f0"/></g><g transform="translate(1226.88 -3444.432)"><path d="M757.169,232.087l-41.962,21.836a5.693,5.693,0,0,1-7.678-2.422l-13.557-26.055a5.691,5.691,0,0,1,2.422-7.676l41.962-21.836a5.692,5.692,0,0,1,7.676,2.422l13.558,26.053A5.692,5.692,0,0,1,757.169,232.087Z" transform="translate(-693.328 -195.29)" fill="#e8cd00"/><path d="M761.347,238.467,719.385,260.3a5.693,5.693,0,0,1-7.678-2.422l13.24-31.669a4.658,4.658,0,0,1,5.289-2.752l33.534,7.329A5.692,5.692,0,0,1,761.347,238.467Z" transform="translate(-697.506 -201.67)" fill="#fff4a3"/><path d="M730.668,232.4l-36.7-6.955a5.691,5.691,0,0,1,2.422-7.676l41.962-21.836a5.692,5.692,0,0,1,7.676,2.422Z" transform="translate(-693.328 -195.29)" fill="#fff"/></g><g transform="translate(865.788 -3425.745)"><path d="M241.919,296.1a44.291,44.291,0,0,0,9.761,11.832l-4.335,10.183,15.424,8.2,6.017-9.29a44.01,44.01,0,0,0,15.269,1.475l4.138,10.267,16.726-5.111-2.309-10.825a44.328,44.328,0,0,0,11.833-9.761l10.183,4.335,8.2-15.424-9.288-6.017a44.315,44.315,0,0,0,1.475-15.269l10.264-4.138-5.109-16.726-10.826,2.313a44.05,44.05,0,0,0-9.761-11.835l4.338-10.183-15.428-8.2-6.016,9.29a44.184,44.184,0,0,0-15.269-1.476l-4.138-10.266-16.724,5.11,2.31,10.826a44.071,44.071,0,0,0-11.835,9.76l-10.183-4.335-8.2,15.427,9.29,6.016a44.01,44.01,0,0,0-1.475,15.269l-10.266,4.138,5.11,16.726Zm8.532-12.755a31.56,31.56,0,1,1,39.407,20.956A31.56,31.56,0,0,1,250.45,283.349Z" transform="translate(-225.983 -219.476)" fill="#dbcac2"/><g transform="translate(2.853)"><path d="M245.614,296.1a44.276,44.276,0,0,0,9.761,11.832l-4.338,10.183,15.428,8.2,6.017-9.29a44.009,44.009,0,0,0,15.268,1.475l4.141,10.267,16.722-5.111L306.3,312.839a44.308,44.308,0,0,0,11.834-9.761l10.183,4.335,8.2-15.424-9.29-6.017a44.372,44.372,0,0,0,1.477-15.269l10.264-4.138-5.11-16.726L323.04,252.15a44.144,44.144,0,0,0-9.759-11.835l4.333-10.183-15.424-8.2-6.02,9.29a44.166,44.166,0,0,0-15.267-1.476l-4.141-10.266-16.724,5.11,2.311,10.826a44.052,44.052,0,0,0-11.833,9.76l-10.186-4.335-8.2,15.427,9.288,6.016a44.1,44.1,0,0,0-1.476,15.269l-10.266,4.138,5.114,16.726Zm8.532-12.755a31.56,31.56,0,1,1,39.407,20.956A31.56,31.56,0,0,1,254.146,283.349Z" transform="translate(-229.676 -219.476)" fill="#faf4f0"/></g></g><g transform="translate(992.278 -3402.027)"><g transform="translate(0 0)"><path d="M401.244,305.7a32.073,32.073,0,0,0,7.073,8.577l-3.144,7.377,11.181,5.946,4.362-6.731a32,32,0,0,0,11.067,1.069l3,7.438,12.121-3.7-1.673-7.847a32.059,32.059,0,0,0,8.576-7.071l7.38,3.142,5.946-11.179-6.733-4.36a32.18,32.18,0,0,0,1.072-11.067l7.439-3L465.2,272.176l-7.844,1.674a32.043,32.043,0,0,0-7.073-8.575l3.142-7.381-11.18-5.944-4.36,6.731a32.143,32.143,0,0,0-11.064-1.07l-3-7.439-12.121,3.7,1.674,7.844a32.022,32.022,0,0,0-8.579,7.074l-7.378-3.143-5.945,11.18L398.2,281.2a31.953,31.953,0,0,0-1.071,11.064l-7.44,3,3.706,12.117Zm6.182-9.24a22.872,22.872,0,1,1,28.559,15.186A22.87,22.87,0,0,1,407.426,296.464Z" transform="translate(-389.693 -250.173)" fill="#dbcac2"/></g><g transform="translate(2.071 0)"><path d="M403.922,305.7A32.109,32.109,0,0,0,411,314.282l-3.144,7.377,11.18,5.946,4.362-6.731a31.987,31.987,0,0,0,11.063,1.069l3,7.438,12.121-3.7-1.674-7.847a32.035,32.035,0,0,0,8.576-7.071l7.381,3.142,5.943-11.179-6.731-4.36a32.1,32.1,0,0,0,1.069-11.067l7.44-3-3.706-12.121-7.844,1.674a31.99,31.99,0,0,0-7.074-8.575l3.142-7.381-11.176-5.944-4.364,6.731a32.13,32.13,0,0,0-11.064-1.07l-3-7.439-12.119,3.7,1.672,7.844a31.945,31.945,0,0,0-8.575,7.074l-7.382-3.143-5.943,11.18,6.733,4.362a31.842,31.842,0,0,0-1.071,11.064l-7.44,3,3.706,12.117Zm6.182-9.24a22.872,22.872,0,1,1,28.561,15.186A22.875,22.875,0,0,1,410.1,296.464Z" transform="translate(-392.373 -250.173)" fill="#faf4f0"/></g></g><path d="M109.2,541.87s-32.243-42.559-16.843-93.586,54.949-90.017,42.19-149.057c-15.152-70.111,20.131-127.412,83.144-121.612,113.536,10.455,180.949-66.78,219.469-74.736C551.284,79.313,572.1,165.5,633.7,173.9c132.937,18.127,174.027,76.137,169.271,187.4-1.567,36.6,100.228,109.895,41.78,180.567Z" transform="translate(671.134 -3617.788)" fill="none" stroke="#e8cd00" stroke-width="1"/><g transform="translate(1398.698 -3235.875)"><g transform="translate(8.466)"><g transform="translate(16.699 8.211)"><path d="M987.527,479.492c-18.046-16.318-41.464,26.419-39.084,43.218l8.959-.06C966.079,518.393,1002.14,492.7,987.527,479.492Z" transform="translate(-948.275 -475.844)" fill="#bcb469"/></g><g transform="translate(20.791 11.524)"><path d="M954.349,523.823c13.12-24.392,34.455-42.838,34.67-43.02l-.576-.672c-.215.185-21.673,18.734-34.873,43.273Z" transform="translate(-953.57 -480.131)" fill="#8c843d"/></g><g transform="translate(31.872 34.192)"><path d="M968.009,513.782c.637-.07,15.632-1.746,20.191-3.488l-.314-.825c-4.454,1.7-19.819,3.417-19.974,3.434Z" transform="translate(-967.912 -509.469)" fill="#8c843d"/></g><g transform="translate(40.081 10.139)"><path d="M981.2,492.292l.818-.335c-2.121-5.179-2.591-13.535-2.6-13.619l-.883.046C978.556,478.735,979.02,486.977,981.2,492.292Z" transform="translate(-978.537 -478.339)" fill="#8c843d"/></g><g transform="translate(16.699 27.533)"><path d="M956.191,500.851c-5.436,9.67-8.712,20.735-7.748,27.544C960.893,517.388,958.186,502.633,956.191,500.851Z" transform="translate(-948.275 -500.851)"/></g><path d="M936.543,465.928c-15.961-6.508-10.9,33.185,3.22,54.39l6.517-.043C949.5,514.934,949.467,471.2,936.543,465.928Z" transform="translate(-926.662 -465.216)" fill="#bcb469"/><g transform="translate(6.735 4.841)"><path d="M945.079,521.813l.864-.19c-2.58-11.771-9.623-49.758-9.694-50.141l-.869.161C935.45,472.024,942.5,510.026,945.079,521.813Z" transform="translate(-935.379 -471.482)" fill="#8c843d"/></g><g transform="translate(6.494 34.688)"><g transform="translate(0 0)"><rect width="0.884" height="9.86" transform="translate(0 0.628) rotate(-45.272)" fill="#8c843d"/></g></g><g transform="translate(11.113 20.337)"><g transform="translate(0 0)"><rect width="9.682" height="0.884" transform="translate(0 5.615) rotate(-35.446)" fill="#8c843d"/></g></g></g><g transform="translate(3.676 54.939)"><path d="M971.844,536.321l.037,5.48a36.34,36.34,0,0,1-4.522,17.8l-1.194,2.163-8.381,79.582-23.009.154-8.3-79.469-1.222-2.148a36.339,36.339,0,0,1-4.76-17.738l-.036-5.478Z" transform="translate(-920.462 -536.321)" fill="#fff"/></g><g transform="translate(16.56 68.284)"><g transform="translate(0 0)"><rect width="38.276" height="0.884" transform="matrix(1, -0.007, 0.007, 1, 0, 0.257)" fill="#312113"/></g></g><g transform="translate(9.466 80.055)"><g transform="translate(0 0)"><rect width="13.698" height="0.884" transform="translate(0 0.092) rotate(-0.385)" fill="#312113"/></g></g><g transform="translate(3.672 54.494)"><path d="M956.936,641.661l1.246-.008,8.413-79.885,1.151-2.085a36.872,36.872,0,0,0,4.576-18.017l-.039-5.921-51.826.346.007.884,50.94-.341.034,5.037a35.982,35.982,0,0,1-4.467,17.585l-1.246,2.328-8.339,79.19-.456,0Z" transform="translate(-920.457 -535.746)" fill="#312113"/></g><g transform="translate(0 42.199)"><path d="M931.7,532.866l.823-.323c-3.327-8.472-16.011-12.542-16.549-12.71l-.265.843C915.832,520.717,928.523,524.79,931.7,532.866Z" transform="translate(-915.704 -519.833)" fill="#312113"/></g><g transform="translate(43.639 40.19)"><path d="M972.976,532.006c.059-.121,6.05-12.028,14.52-13.91l-.192-.864c-8.885,1.976-14.87,13.875-15.12,14.382Z" transform="translate(-972.184 -517.232)" fill="#312113"/></g><g transform="translate(43.739 44.817)"><path d="M972.781,533.857c.226-.142,22.952-14.113,39.423-8.377l.291-.836c-16.876-5.871-39.951,8.319-40.182,8.463Z" transform="translate(-972.313 -523.222)" fill="#312113"/></g><g transform="translate(30.893 2.786)"><path d="M955.813,501.034l.882-.071c-.018-.216-1.628-21.777,8.619-31.5l-.609-.641C954.15,478.836,955.74,500.133,955.813,501.034Z" transform="translate(-955.687 -468.822)" fill="#312113"/></g></g><g transform="translate(1259.923 -3287.713)"><g transform="translate(71.544 60.778)"><g transform="translate(17.459 0.867)"><path d="M899.306,540.148h7.175s19.744-3.121,15.171-41.225a13.093,13.093,0,0,0-8.48-10.745,181.681,181.681,0,0,0-61.133-10.269s-.285.026-.752.113A179.775,179.775,0,0,1,906,488.177a13.077,13.077,0,0,1,8.48,10.745C919.05,537.027,899.306,540.148,899.306,540.148Z" transform="translate(-851.287 -477.908)"/></g><g transform="translate(0.905 0.867)"><path d="M831.314,497.176c6.034,18.1,12.214,33.4,12.214,33.4s2.939,9.57,14.86,9.57h7.174c-11.92,0-14.868-9.57-14.868-9.57s-6.18-15.3-12.206-33.4c-5.2-15.586,5-18.62,7.927-19.155q-3.151-.117-6.423-.113S825.28,479.084,831.314,497.176Z" transform="translate(-829.861 -477.908)"/></g><path d="M842.422,530.649c-.063-.152-6.26-15.535-12.232-33.449-2.137-6.411-1.989-11.523.44-15.193,3.107-4.7,8.753-5.2,8.991-5.218l.069,0a182.638,182.638,0,0,1,61.43,10.326,13.877,13.877,0,0,1,9.041,11.455c4.623,38.485-15.055,42.044-15.895,42.176l-36.184.011C845.671,540.754,842.427,530.682,842.422,530.649Zm66.023-31.875a12.153,12.153,0,0,0-7.917-10.036,180.838,180.838,0,0,0-60.8-10.223c-.414.043-5.116.6-7.658,4.445-2.121,3.206-2.2,7.812-.243,13.693,5.955,17.863,12.133,33.2,12.219,33.417.114.366,2.93,8.957,14.035,8.957h35.97C895.19,538.8,912.751,534.614,908.445,498.773Z" transform="translate(-828.691 -476.786)" fill="#fff4a3"/></g><g transform="translate(0 119.872)"><path d="M738.025,557.131h84.807v-3.862H738.025a1.931,1.931,0,0,0-1.931,1.932h0A1.931,1.931,0,0,0,738.025,557.131Z" transform="translate(-736.094 -553.269)" fill="#f2cd5d"/></g><g transform="translate(85.382 121.45)"><path d="M849.171,634.948h0a2.372,2.372,0,0,0,2.57-2.1V555.311H846.6v77.535A2.372,2.372,0,0,0,849.171,634.948Z" transform="translate(-846.6 -555.311)" fill="#e8cd00"/></g><g transform="translate(86.352 122.342)"><rect width="0.864" height="75.847"/></g><g transform="translate(61.873 192.604)"><path d="M816.174,663.58h.865v-7.2a8.119,8.119,0,0,1,8.11-8.11h34.114a8.119,8.119,0,0,1,8.111,8.11v6.029h.865v-6.029a8.985,8.985,0,0,0-8.976-8.975H825.148a8.984,8.984,0,0,0-8.974,8.975Z" transform="translate(-816.174 -647.403)" fill="#312113"/></g><g transform="translate(48.752 192.604)"><path d="M799.192,663.58h.865v-7.2a8.119,8.119,0,0,1,8.11-8.11h60.356a8.119,8.119,0,0,1,8.11,8.11v6.029h.864v-6.029a8.984,8.984,0,0,0-8.974-8.975H808.166a8.985,8.985,0,0,0-8.974,8.975Z" transform="translate(-799.192 -647.403)" fill="#312113"/></g><g transform="translate(58.048 203.254)"><path d="M811.223,665.457a4.271,4.271,0,1,0,4.271-4.271A4.271,4.271,0,0,0,811.223,665.457Z" transform="translate(-811.223 -661.186)" fill="#312113"/></g><g transform="translate(45.15 203.254)"><path d="M794.53,665.457a4.272,4.272,0,1,0,4.272-4.271A4.271,4.271,0,0,0,794.53,665.457Z" transform="translate(-794.53 -661.186)" fill="#312113"/></g><g transform="translate(122.431 203.254)"><path d="M894.551,665.457a4.271,4.271,0,1,0,4.271-4.271A4.271,4.271,0,0,0,894.551,665.457Z" transform="translate(-894.551 -661.186)" fill="#312113"/></g><g transform="translate(108.968 203.254)"><path d="M877.126,665.457a4.272,4.272,0,1,0,4.272-4.271A4.272,4.272,0,0,0,877.126,665.457Z" transform="translate(-877.126 -661.186)" fill="#312113"/></g><g transform="translate(73.412 0.433)"><path d="M896.955,521.654H831.108c2.973-.577,17.984-5.612,14.135-48.224-2.3-25.412,13.142-64.381,17.913-74.747h68.228c.19,1.2-.291,3.022-2.64,5.665-5.3,5.959-16.553,52.087-18.1,65.329C909.144,482.55,921.4,513.065,896.955,521.654Z" transform="translate(-831.108 -398.684)" fill="url(#m)"/></g><g transform="translate(73.411)"><path d="M831.107,521.959h65.921l.07-.025c18.527-6.511,16.3-25.739,14.677-39.78-.579-5-1.079-9.317-.7-12.554,1.612-13.823,12.808-59.261,17.992-65.092,2.082-2.343,3.006-4.368,2.744-6.019l-.058-.365h-30.3v.865h29.539c.026,1.32-.855,3.019-2.568,4.946-5.548,6.242-16.769,53.268-18.2,65.566-.389,3.336.117,7.7.7,12.753,1.678,14.5,3.767,32.537-14.036,38.841H831.107Z" transform="translate(-831.107 -398.124)" fill="#312113"/></g><g transform="translate(3.861 60.778)"><g transform="translate(17.459 0.867)"><path d="M811.707,540.148h7.175s19.743-3.121,15.171-41.225a13.092,13.092,0,0,0-8.48-10.745,181.674,181.674,0,0,0-61.133-10.269s-.285.026-.753.113a179.775,179.775,0,0,1,54.71,10.156,13.078,13.078,0,0,1,8.481,10.745C831.45,537.027,811.707,540.148,811.707,540.148Z" transform="translate(-763.687 -477.908)"/></g><g transform="translate(0.905 0.867)"><path d="M743.714,497.176c6.034,18.1,12.215,33.4,12.215,33.4s2.938,9.57,14.859,9.57h7.175c-11.92,0-14.868-9.57-14.868-9.57s-6.181-15.3-12.206-33.4c-5.2-15.586,5.005-18.62,7.927-19.155q-3.15-.117-6.423-.113S737.68,479.084,743.714,497.176Z" transform="translate(-742.261 -477.908)"/></g><path d="M754.822,530.649c-.063-.152-6.26-15.535-12.232-33.449-2.137-6.411-1.989-11.523.441-15.193,3.107-4.7,8.753-5.2,8.991-5.218l.069,0a182.633,182.633,0,0,1,61.43,10.326,13.878,13.878,0,0,1,9.042,11.455c4.623,38.485-15.056,42.044-15.9,42.176l-36.184.011C758.071,540.754,754.828,530.682,754.822,530.649Zm66.023-31.875a12.151,12.151,0,0,0-7.917-10.036,180.835,180.835,0,0,0-60.8-10.223c-.414.043-5.116.6-7.658,4.445-2.122,3.206-2.2,7.812-.243,13.693,5.955,17.863,12.133,33.2,12.219,33.417.115.366,2.93,8.957,14.035,8.957h35.971C807.591,538.8,825.151,534.614,820.845,498.773Z" transform="translate(-741.091 -476.786)" fill="#fff4a3"/></g><g transform="translate(118.336 25.419)"><rect width="45.686" height="0.865" fill="#312113"/></g><g transform="translate(115.743 34.064)"><rect width="45.686" height="0.864" fill="#312113"/></g><g transform="translate(112.285 42.708)"><rect width="45.686" height="0.865" fill="#312113"/></g></g><g transform="translate(1209.659 -3336.576)"><path d="M798.977,416.128h-114.7a5.979,5.979,0,0,1-5.947-5.355l-7.256-69.289a5.978,5.978,0,0,1,5.946-6.6h114.7a5.978,5.978,0,0,1,5.946,5.356l7.257,69.288A5.979,5.979,0,0,1,798.977,416.128Z" transform="translate(-671.039 -334.883)" fill="#fff"/><g transform="translate(12.849 2.095)"><path d="M802.758,414.65h-114.7c-.131,0-.26-.007-.387-.018l.1-.994c.1.008.193.014.292.014h114.7a2.888,2.888,0,0,0,2.87-3.186l-7.257-69.288a2.878,2.878,0,0,0-2.87-2.585H716.992v-1H795.5a3.874,3.874,0,0,1,3.862,3.479l7.257,69.288a3.884,3.884,0,0,1-3.863,4.288Z" transform="translate(-687.669 -337.595)"/></g><g transform="translate(44.777 46.51)"><path d="M728.992,444.753h20.09l7.286-37.949a9.865,9.865,0,0,0-9.688-11.725h0a9.864,9.864,0,0,0-9.687,8Z" transform="translate(-728.992 -395.079)" fill="#fff"/></g><g transform="translate(50.577 47.74)"><path d="M751.161,436.655l-.981-.189,5.706-29.72a7.636,7.636,0,0,0-15-2.88l-3.408,17.756-.981-.189,3.409-17.756a8.635,8.635,0,0,1,16.96,3.258Z" transform="translate(-736.498 -396.671)" fill="#312113"/></g><g transform="translate(49.09 92.799)"><rect width="53.207" height="3.386" transform="translate(53.207 3.386) rotate(180)" fill="#fff"/></g><g transform="translate(58.657 92.299)"><rect width="43.64" height="0.999" fill="#312113"/></g><g transform="translate(44.035 20.827)"><path d="M728.031,367.136c0,2.926,7.958,5.3,17.772,5.3s17.772-2.374,17.772-5.3-7.957-5.3-17.772-5.3S728.031,364.21,728.031,367.136Z" transform="translate(-728.031 -361.838)" fill="#f2cd5d"/></g><g transform="translate(4.779 2.9)"><path d="M796.031,414.082H689.515a5.552,5.552,0,0,1-5.521-4.973l-6.739-64.343a5.552,5.552,0,0,1,5.522-6.13H789.292a5.552,5.552,0,0,1,5.521,4.974l6.738,64.343A5.551,5.551,0,0,1,796.031,414.082Z" transform="translate(-677.224 -338.636)" fill="#e8cd00"/></g><g transform="translate(12.839 6.274)"><path d="M781.5,343H694.577c-4.108,0-7.2,2.344-6.9,5.226l6.112,58.245c.3,2.882,3.89,5.226,8,5.226h86.927c4.107,0,7.2-2.344,6.9-5.226L789.5,348.229C789.2,345.347,785.612,343,781.5,343Zm13.215,63.471c.266,2.536-2.458,4.6-6.072,4.6H701.721c-3.615,0-6.771-2.063-7.037-4.6l-6.112-58.245c-.266-2.536,2.458-4.6,6.072-4.6h86.926c3.614,0,6.771,2.062,7.037,4.6Z" transform="translate(-687.656 -343.003)"/><g transform="translate(5.995 3.94)"><g transform="translate(0.219)"><path d="M695.7,350.636l.68.444,3.346-2.534-.68-.444Z" transform="translate(-695.699 -348.103)" fill="#312113"/></g><path d="M695.415,348.546l3.878,2.534.586-.444L696,348.1Z" transform="translate(-695.415 -348.103)" fill="#312113"/></g><g transform="translate(22.523 17.775)"><g transform="translate(36.017)"><path d="M780.328,408.983H766.883l-3.462-42.975h13.445Zm-12.753-.75h11.94l-3.341-41.474h-11.94Z" transform="translate(-763.421 -366.008)" fill="#312113"/></g><g transform="translate(0 14.191)"><path d="M732.569,413.158H719.125l-2.319-28.783h13.445Zm-12.753-.75h11.941l-2.2-27.283h-11.94Z" transform="translate(-716.806 -384.375)" fill="#312113"/></g></g><g transform="translate(89.68 5.951)"><path d="M803.79,351.333h5.794l-.066-.628h-5.794Z" transform="translate(-803.724 -350.705)" fill="#312113"/></g><g transform="translate(20.026 13.798)"><g transform="translate(53.782)"><path d="M787.111,409.635H799.8l-3.93-48.774H783.182Z" transform="translate(-783.182 -360.861)" fill="#fff4a3"/></g><g transform="translate(36.017 6.549)"><path d="M763.591,411.563h12.693l-3.4-42.225H760.19Z" transform="translate(-760.19 -369.338)" fill="#fff"/></g><g transform="translate(18.326 14.009)"><path d="M740.093,413.758h12.692l-2.8-34.765H737.292Z" transform="translate(-737.292 -378.993)" fill="#f2cd5d"/></g><g transform="translate(0 20.741)"><path d="M715.832,415.738h12.693L726.267,387.7H713.574Z" transform="translate(-713.574 -387.705)" fill="#fff"/></g></g><g transform="translate(76.304 11.225)"><path d="M803.848,407.055H790.4l-3.99-49.524h13.445Zm-12.753-.75h11.94l-3.869-48.024h-11.94Z" transform="translate(-786.413 -357.531)" fill="#312113"/></g><g transform="translate(40.848 25.235)"><path d="M756.83,411.178H743.385l-2.861-35.515h13.445Zm-12.753-.75h11.94l-2.741-34.014h-11.94Z" transform="translate(-740.524 -375.663)" fill="#312113"/></g></g></g><g transform="translate(1004.305 -3454.267)"><g transform="translate(55.65 0.94)"><path d="M501.631,202.2c-.189-9.483,16.15-9.332,16.15-9.332-18.206-19.913-32.839-2.184-36.886,6.69-5.289,11.6-4.715,34.169,1.386,36.827l1.776-1.6,1.39,3.158c3.405,2.447,12.52,5.6,15.156,5.02C500.6,242.955,501.643,202.782,501.631,202.2Z" transform="translate(-477.285 -183.777)"/></g><g transform="translate(89.899 344.125)"><path d="M550.984,627.946H523.628s2.379,10.875-.169,19.03-3.059,15.463,2.378,15.463,27.7.509,38.06,1.019,35.342,0,35.342,0A19.5,19.5,0,0,0,581.5,652.52C570.455,652.52,556.761,642.728,550.984,627.946Z" transform="translate(-521.611 -627.946)" fill="#904823"/><g transform="translate(2.483 15.996)"><path d="M539.46,664.642h-.894c0-13.567-13.181-15.047-13.742-15.1l.088-.89C525.058,648.664,539.46,650.258,539.46,664.642Z" transform="translate(-524.824 -648.649)" fill="#312113"/></g><g transform="translate(13.702 10.77)"><path d="M540.1,654.379l-.757-.476c.074-.118,7.64-11.933,22.38-12.018l.005.893C547.493,642.86,540.175,654.263,540.1,654.379Z" transform="translate(-539.345 -641.885)" fill="#312113"/></g><g transform="translate(15.994 14.167)"><path d="M543.072,659.622l-.761-.468c.079-.128,8.031-12.781,23.529-12.872l0,.894C550.838,647.265,543.149,659.5,543.072,659.622Z" transform="translate(-542.311 -646.282)" fill="#312113"/></g><g transform="translate(52.083 23.643)"><path d="M589.913,666.462h-.894a7.483,7.483,0,0,1,6.605-7.916l.077.89C595.464,659.457,589.913,660.023,589.913,666.462Z" transform="translate(-589.019 -658.546)" fill="#312113"/></g><g transform="translate(0.063 30.927)"><path d="M521.692,667.973c.467,2.718,2.118,3.566,4.163,3.566,5.437,0,27.7.51,38.061,1.02s35.342,0,35.342,0a17.8,17.8,0,0,0-2.431-3.779Z" transform="translate(-521.692 -667.973)" fill="#fff"/></g></g><g transform="translate(75.149 135.552)"><path d="M530.162,358.079c-5.521.18-17.636,1.569-22.711,9.978s-9.912,22.009,5.55,39c0,0-2.718,132.225,4.758,168.247a186.031,186.031,0,0,0,63.888-2.379s-22.063-203.876-25.572-209.664S535.131,357.917,530.162,358.079Z" transform="translate(-502.522 -358)" fill="#a9b55b"/></g><g transform="translate(113.245 237.742)"><path d="M554.911,605.914c-5.555-25.756-1.916-114.759-1.879-115.654l.893.037c-.037.9-3.672,89.785,1.86,115.429Z" transform="translate(-551.827 -490.26)" fill="#cdd889"/></g><g transform="translate(28.042 123.82)"><path d="M550.335,348.258c6.915,7.869,10.589,19.707,10.589,40.034,0,18.444-18.709,119.993-34.6,152.3s-40.1,47.745-48.935,49.445-35.682,5.862-35.682-29.564c0-12.818-.066-21.666-.152-27.738a32.376,32.376,0,0,1,8.122-21.9c17-19.236,54.251-55.266,63.037-110.133,0,0-18.565-29.788,1.494-54.476C518.627,340.788,544.958,342.137,550.335,348.258Z" transform="translate(-441.553 -342.815)" fill="#b6c172"/></g><g transform="translate(113.503 26.618)"><path d="M560.728,221.108a.351.351,0,0,1-.179-.074,18.225,18.225,0,0,0-8.076-3.315.355.355,0,0,1,.084-.705,18.619,18.619,0,0,1,8.434,3.465.355.355,0,0,1-.263.63Z" transform="translate(-552.161 -217.012)" fill="#312113"/></g><g transform="translate(79.872 132.03)"><path d="M509.029,561.746l-.395-.8a22.891,22.891,0,0,0,2.282-1.3l.484.753A23.888,23.888,0,0,1,509.029,561.746Zm5.295-3.482-.565-.693c.664-.541,1.334-1.125,2-1.741l.608.654C515.688,557.114,515,557.712,514.324,558.265Zm4.582-4.331-.654-.609c.589-.634,1.182-1.3,1.761-1.989l.683.578C520.106,552.61,519.5,553.29,518.905,553.933Zm4.033-4.827-.712-.54q.774-1.021,1.568-2.15l.732.515C523.991,547.692,523.461,548.415,522.939,549.106Zm3.59-5.154-.751-.485q.7-1.087,1.411-2.261l.765.463Q527.236,542.854,526.529,543.952Zm3.227-5.385-.78-.437q.637-1.136,1.279-2.343l.789.419Q530.4,537.426,529.757,538.568Zm2.924-5.548-.8-.4q.581-1.172,1.164-2.4l.808.382Q533.266,531.842,532.681,533.019Zm2.663-5.677-.816-.363q.533-1.2,1.065-2.45l.822.348Q535.881,526.139,535.344,527.343Zm2.44-5.774-.829-.334q.49-1.218.98-2.486l.834.321Q538.277,520.345,537.784,521.569Zm2.244-5.852-.84-.307q.453-1.236.9-2.516l.844.3Q540.483,514.476,540.028,515.717ZM542.1,509.8l-.848-.284q.419-1.251.836-2.541l.851.274Q542.518,508.55,542.1,509.8Zm1.915-5.964-.854-.264q.388-1.261.775-2.561l.857.256Q544.405,502.574,544.014,503.841Zm1.777-6.007-.86-.244q.36-1.272.721-2.578l.862.237Q546.153,496.558,545.791,497.834Zm1.651-6.041-.865-.227q.337-1.281.671-2.591l.865.22Q547.78,490.51,547.442,491.793Zm1.536-6.071-.868-.212q.309-1.266.614-2.559l.881.161-.011.044Q549.288,484.453,548.978,485.721Zm1.446-6.091-.87-.2.611-2.611.871.2Zm1.422-6.1-.871-.2.6-2.612.871.2Zm1.4-6.1-.871-.2.593-2.616.872.2Zm1.375-6.11-.873-.194.58-2.618.873.192Zm1.344-6.116-.874-.19.566-2.62.873.187Zm1.308-6.122-.875-.184.548-2.625.875.182Zm1.267-6.143-.876-.178q.268-1.315.53-2.633l.876.175Q558.81,441.624,558.543,442.94Zm1.221-6.149-.878-.171q.256-1.318.507-2.635l.878.168Q560.02,435.47,559.765,436.79Zm1.165-6.153-.878-.162q.243-1.319.48-2.636l.88.159Q561.175,429.315,560.93,430.637Zm1.1-6.158-.88-.154q.229-1.32.45-2.635l.882.148Q562.263,423.157,562.034,424.479Zm1.035-6.171-.882-.144q.215-1.327.419-2.646l.883.138Q563.284,416.979,563.069,418.308Zm.957-6.192-.884-.131q.2-1.332.382-2.653l.885.124Q564.222,410.78,564.026,412.116Zm.865-6.205-.886-.117q.176-1.339.339-2.659l.886.109Q565.067,404.57,564.89,405.911Zm.756-6.224-.888-.1q.151-1.34.286-2.663l.889.09Q565.8,398.342,565.647,399.687Zm.627-6.238-.89-.079q.119-1.344.222-2.669l.892.07Q566.394,392.1,566.274,393.449Zm.471-6.254-.892-.054q.081-1.35.144-2.673l.893.041Q566.827,385.839,566.745,387.2Zm.277-6.269-.895-.023q.036-1.355.046-2.674l.893.007Q567.056,379.564,567.022,380.926Zm-.868-6.261q-.028-1.356-.084-2.669l.892-.039q.058,1.324.085,2.692Zm-.305-6.221q-.11-1.356-.261-2.653l.888-.1q.152,1.311.264,2.684Zm-.766-6.165c-.158-.9-.334-1.781-.523-2.606l.871-.2c.192.841.371,1.733.532,2.653Zm-1.463-6.012c-.283-.866-.6-1.7-.932-2.47l.82-.355c.346.8.67,1.654.962,2.546Z" transform="translate(-508.634 -353.442)" fill="#cdd889"/></g><g transform="translate(28.013 303.297)"><path d="M477.382,642.844c15.483-3.143,5.763-36.416-5.8-51.994-6.341-8.543-13.032-12.836-18.672-15.125a8.258,8.258,0,0,0-11.395,7.762c.1,6.074.183,15.446.183,29.792C441.7,648.706,468.565,644.635,477.382,642.844Z" transform="translate(-441.516 -575.105)" fill="#312113"/></g><g transform="translate(86.395 37.515)"><path d="M536.227,238.308V255.64c-.954,1.405-6.116,7.529-19.151-1.064V231.115A172.815,172.815,0,0,0,536.227,238.308Z" transform="translate(-517.076 -231.115)" fill="#e6a19b"/><g transform="translate(8.77 10.217)"><path d="M538.809,246.589v7.69c-10.15.2-10.4-9.955-10.382-9.94A14.506,14.506,0,0,0,538.809,246.589Z" transform="translate(-528.426 -244.339)" fill="#312113"/></g></g><g transform="translate(74.376 55.456)"><path d="M507.339,263.325s2.294-5.294,5.867-5.715,18.77-4.5,20.41-2.908a20.011,20.011,0,0,1,3.112,3.674c2.941,4.536,5.255,7.934,18.779,14.679,6.36,3.173,9.675,8.523,8.107,22.758-.759,6.893,16.949,38,1.191,33.3,0,0-27.454-2.355-57.809,15.825-10.374,0-1.507-43.376-3.405-51.828C501.662,284.521,498.767,265.85,507.339,263.325Z" transform="translate(-501.521 -254.335)" fill="url(#n)"/></g><g transform="translate(0 303.373)"><g transform="translate(2.956)"><path d="M458.205,584.045c-6.73,5.033-16.168,26.327-21.139,40.152-1.737,4.821-3.8,9.452-2.74,14.761.927,4.632,4.607,8.7,7.965,10.88,1.08.7,1.08,1.873-.207,1.863-4.647-.038-11.442-.085-16-.085-7.516,0-16.443-4.272-13.946-15.164s.78-19.077-2.146-30.926,1.149-20,14.146-22.171a28.984,28.984,0,0,0,11.29-4.4,29.279,29.279,0,0,0,4.173-3.335S445.736,572.367,458.205,584.045Z" transform="translate(-409.085 -575.203)" fill="#904823"/></g><g transform="translate(2.974 8.402)"><path d="M431.189,638.155c-1.664-9.439-.49-19.323,0-23.838.564-5.2,3.265-12.744.6-19.913-3.21-8.627-8.308-8.386-8.8-8.3-11.911,2-15.835,10.454-12.994,21.939,2.931,11.852,4.64,20.034,2.146,30.924s6.435,15.165,13.953,15.165c3.463,0,8.944.027,13.1.056a1.38,1.38,0,0,0,.858-2.471C436.858,649.263,432.4,645.04,431.189,638.155Z" transform="translate(-409.108 -586.078)" fill="#fff"/></g><g transform="translate(0 8.402)"><path d="M427.34,638.155c-1.663-9.439-.489-19.323,0-23.838.565-5.2,3.265-12.744.6-19.913-3.209-8.627-8.307-8.386-8.8-8.3-11.911,2-15.835,10.454-12.994,21.939,2.931,11.852,4.641,20.034,2.146,30.924s6.435,15.165,13.954,15.165c3.833,0,10.136.015,14.378.039a.959.959,0,0,0,.57-1.736C434.022,650.14,428.686,645.793,427.34,638.155Z" transform="translate(-405.259 -586.078)" fill="#dbcac2"/></g><g transform="translate(3.305 11.536)" style="mix-blend-mode:multiply;isolation:isolate"><path d="M409.537,601.213c0,6.119,3.861,11.08,8.623,11.08s8.624-4.961,8.624-11.08-3.861-11.079-8.624-11.079S409.537,595.094,409.537,601.213Z" transform="translate(-409.537 -590.134)" fill="#dbcac2"/></g><g transform="translate(24.82 5.645)"><path d="M439.11,609.406l-.692-.567c8.119-9.9,5.86-17.6,4.511-20.448-1.55-3.274-3.964-4.988-5.547-4.988v-.893c2.209,0,4.822,2.261,6.354,5.5C445.159,591.011,447.553,599.107,439.11,609.406Z" transform="translate(-437.383 -582.509)" fill="#312113"/></g><g transform="translate(28.273 29.173)"><path d="M447.6,626.209l-.849-.279c2.836-8.65-4.578-12.013-4.895-12.151l.359-.819C442.3,613,450.683,616.8,447.6,626.209Z" transform="translate(-441.852 -612.96)" fill="#312113"/></g><g transform="translate(31.331 22.928)"><path d="M451.554,618.127l-.849-.279c2.831-8.63-4.579-12.012-4.895-12.151l.359-.819C446.254,604.916,454.641,608.715,451.554,618.127Z" transform="translate(-445.81 -604.878)" fill="#312113"/></g></g><g transform="translate(70.707 97.083)"><rect width="0.894" height="26.733" transform="translate(0 0.19) rotate(-12.246)" fill="#312113"/></g><g transform="translate(86.267 14.692)"><path d="M535.166,239.234c-5.51-.039-15.561-7.544-17.789-12.584-.794-1.8-.481-6.567.243-8.871,2.282-7.221,4.112-13.771,9.719-15.751,2.364-.829,11.988-.263,14.208-.263,5.085,0,4.863,7.862,4.907,15.178C546.5,225.151,544.881,239.3,535.166,239.234Z" transform="translate(-516.91 -201.577)" fill="#e6a19b"/></g><g transform="translate(107.962 27.207)"><path d="M545.223,229.943l-.234-.862c1.082-.294,2.771-1,2.96-1.568.013-.042.039-.12-.076-.266-2.456-3.1-1.651-8.146-1.616-8.359l.031-.189.159-.107a6.241,6.241,0,0,1,5.322-.437l-.285.847a5.509,5.509,0,0,0-4.373.234c-.118.945-.488,4.992,1.463,7.455a1.135,1.135,0,0,1,.225,1.1C548.391,229.027,545.749,229.8,545.223,229.943Z" transform="translate(-544.989 -217.774)" fill="#312113"/></g><g transform="translate(79.848)"><path d="M536.849,182.561c-8.895,0-16.276,2.124-24.749,8.747-8.517,6.659,1.014,32.96,2.489,35.275a2.653,2.653,0,0,0,.6.7V215.489l6.507-2.063c.468-3.094-.747-4.156-.747-6.543,0-6.72,13.392-7.92,21.709-7.307C549.171,200.056,553.279,182.561,536.849,182.561Z" transform="translate(-508.603 -182.561)"/></g><g transform="translate(81.794 26.836)"><path d="M521.175,220.874a5.149,5.149,0,1,1-6.474-3.333A5.148,5.148,0,0,1,521.175,220.874Z" transform="translate(-511.121 -217.294)" fill="#e6a19b"/></g><g transform="translate(83.332 28.066)"><path d="M516.3,225.668a3.349,3.349,0,0,1-1.354-.321l.38-.809c.012.006,1.222.535,1.578-.027a.338.338,0,0,0,.059-.128,1.7,1.7,0,0,0-.206-.2,1.647,1.647,0,0,1-.627-1.769,2.824,2.824,0,0,1,.8-1.354c.375-.4.433-.459-.054-1.038a.621.621,0,0,0-.5-.24c-.906.007-2.2,1.272-2.6,1.721l-.671-.59c.183-.208,1.822-2.024,3.26-2.024h.018a1.511,1.511,0,0,1,1.171.558c.923,1.1.556,1.657.021,2.226a1.971,1.971,0,0,0-.582.943c-.112.483.073.651.355.9a1.03,1.03,0,0,1,.3,1.472A1.514,1.514,0,0,1,516.3,225.668Z" transform="translate(-513.112 -218.886)" fill="#312113"/></g><g transform="translate(102.44 41.924)"><path d="M546.021,237.141s-4.586,2.487-8.178-.32c0,0,1.827,4.885,4.445,4.927S546.021,237.141,546.021,237.141Z" transform="translate(-537.843 -236.821)" fill="#312113"/></g><g transform="translate(98.578 25.11)"><path d="M539.207,217.555c-.056-.1-1.432-2.351-6.177-1.342l-.186-.875c5.438-1.154,7.074,1.658,7.142,1.778Z" transform="translate(-532.844 -215.06)" fill="#312113"/></g><g transform="translate(99.578 29.238)"><path d="M534.138,222.139a1.736,1.736,0,1,0,1.736-1.736A1.736,1.736,0,0,0,534.138,222.139Z" transform="translate(-534.138 -220.403)" fill="#312113"/></g><g transform="translate(110.028 29.238)"><path d="M547.663,222.139A1.736,1.736,0,1,0,549.4,220.4,1.736,1.736,0,0,0,547.663,222.139Z" transform="translate(-547.663 -220.403)" fill="#312113"/></g><g transform="translate(43.125 68.519)"><path d="M542.2,277.357c3.542,6.129,4.029,16.793-6.758,23.454s-33.326,31.539-57.379,39.866c0,0-23.179-31.441-15.383-55.085,0,0,42.265-8.848,55.229-11.628C527.539,271.9,536.589,267.654,542.2,277.357Z" transform="translate(-461.074 -271.242)" fill="#e8cd00"/><g transform="translate(26.243 18.84)"><path d="M508.853,298.851a88.416,88.416,0,0,1-13.814-1.187l.156-.88c.185.032,18.609,3.222,27.017-1.158l.413.792C519.025,298.294,513.794,298.851,508.853,298.851Z" transform="translate(-495.039 -295.626)"/></g><g transform="translate(16.839 26.095)"><path d="M483.161,348.78l-.292-.845c.246-.085,25.113-8.928,62.121-42.92l.6.657C508.43,339.809,483.409,348.694,483.161,348.78Z" transform="translate(-482.869 -305.015)" fill="#312113"/></g></g><g transform="translate(88.22 26.618)"><g transform="translate(7.9 0.338)" opacity="0.6"><path d="M541.96,221.733c.05,2.435-2.663,4.464-6.059,4.533s-6.188-1.848-6.238-4.283,2.663-4.464,6.058-4.533S541.91,219.3,541.96,221.733Z" transform="translate(-529.663 -217.449)" fill="#904823"/></g><g transform="translate(22.244 0.338)" opacity="0.6"><path d="M560.525,221.733c.049,2.435-2.662,4.464-6.058,4.533s-6.188-1.848-6.238-4.283,2.663-4.464,6.059-4.533S560.476,219.3,560.525,221.733Z" transform="translate(-548.228 -217.449)" fill="#904823"/></g><g transform="translate(19.625 3.314)"><path d="M547.845,222.552a.358.358,0,0,1-.236-.083,1.478,1.478,0,0,0-2.152.018.355.355,0,1,1-.529-.472,2.173,2.173,0,0,1,3.137-.09.355.355,0,0,1-.22.627Z" transform="translate(-544.839 -221.301)" fill="#312113"/></g><path d="M528.006,221.108a.351.351,0,0,1-.179-.074,18.221,18.221,0,0,0-8.076-3.315.355.355,0,0,1,.085-.705,18.621,18.621,0,0,1,8.433,3.465.355.355,0,0,1-.263.63Z" transform="translate(-519.439 -217.012)" fill="#312113"/></g><g transform="translate(111.431 130.064)"><path d="M563.442,350.9s-2.419.756-4.294,4.467-9.67-1.8-9.67-1.8Z" transform="translate(-549.479 -350.897)" fill="#fff4a3"/></g><g transform="translate(80.922 133.826)"><path d="M537.272,355.766s-2.557-.053-7.094,7.308-21.852,6.8-20.055,2.88C514.514,356.368,537.272,355.766,537.272,355.766Z" transform="translate(-509.992 -355.766)" fill="#fff4a3"/></g><g transform="translate(87.797 125.836)"><path d="M519.343,355.671c-.151,0-.3,0-.452-.015l.057-.892c6.375.4,13.192-9.242,13.26-9.34l.732.512C532.656,346.343,526.048,355.671,519.343,355.671Z" transform="translate(-518.891 -345.425)" fill="#312113"/></g></g><g transform="translate(911.54 -3461.469)"><g transform="translate(129.36 30.058)"><path d="M476.589,322.227s21.766-13.849,14.917-41.887-8.352-40.161-4.185-58.794-28.427-10.914-31.415,35.228S444.391,315.789,476.589,322.227Z" transform="translate(-452.622 -212.143)" fill="#e6a19b"/><g transform="translate(23.727 68.092)"><path d="M483.812,342.641l-.481-.754c.215-.137,21.413-14.015,14.722-41.4l.868-.212C505.767,328.3,484.032,342.5,483.812,342.641Z" transform="translate(-483.331 -300.271)" fill="#312113"/></g><g transform="translate(4.667 45.92)"><path d="M458.662,271.575a20.157,20.157,0,0,0,2.067,4.5,11.537,11.537,0,0,0,3.272,3.5,8.763,8.763,0,0,0,4.471,1.54l.6.066c.2.019.406-.017.61-.017l1.231-.049c.823-.066,1.629-.27,2.473-.364-.784.287-1.583.581-2.4.8a11.146,11.146,0,0,1-2.551.264,8.46,8.46,0,0,1-1.3-.077l-1.28-.28a9.241,9.241,0,0,1-2.359-1.14,10.568,10.568,0,0,1-3.375-3.889A13.359,13.359,0,0,1,458.662,271.575Z" transform="translate(-458.662 -271.575)" fill="#312113"/></g></g><g transform="translate(16.842)"><path d="M323.753,173.24l72.259,7.211c7.31,0,14.4,5.947,15.8,13.257l39.452,168.267c1.352,7.043-4.775,19.278-15.9,19.278l-78.859.026c-7.31,0-14.4-5.948-15.8-13.258L307.227,193.708C305.824,186.4,310.736,173.24,323.753,173.24Z" transform="translate(-306.996 -173.24)"/><g transform="translate(5.802)"><path d="M325.46,173.24h78.072c7.311,0,14.4,5.948,15.8,13.258l33.473,174.313c1.352,7.043-3.06,12.82-9.925,13.232l-78.859.026c-7.31,0-14.4-5.948-15.8-13.258L314.749,186.5C313.345,179.188,318.15,173.24,325.46,173.24Z" transform="translate(-314.505 -173.24)" fill="#312113"/></g><g transform="translate(8.801 2.946)"><path d="M326.909,177.053h78.072a13.093,13.093,0,0,1,12.291,10.312l33.473,174.313c1.094,5.7-2.636,10.312-8.331,10.312H364.342a13.093,13.093,0,0,1-12.291-10.312L318.577,187.365C317.484,181.67,321.213,177.053,326.909,177.053Z" transform="translate(-318.387 -177.053)" fill="#fff"/></g><g transform="translate(43.583 4.665)"><path d="M364.214,179.278H388.52a1.246,1.246,0,0,1,1.17.981.787.787,0,0,1-.793.982H364.591a1.246,1.246,0,0,1-1.171-.982A.788.788,0,0,1,364.214,179.278Z" transform="translate(-363.402 -179.278)" fill="#312113"/></g></g><g transform="translate(0 33.912)"><path d="M295.884,262.932s-21.262-6.089-3.805-30.125,35.522-15.7,35.14-6.088.09,15.81-14.168,23.821c0,0,14.2-.855,15.376,9.988s-6.58,18.427-6.58,18.427,12.456-3.365,15.524,1.283,1.25,18.587-10.444,26.6c0,0,14.469.8,9.143,17.146S327.182,336,327.182,336l4.641,19.548s-27.271-2.456-24.749-34.29c0,0-18.615-8.973-3.569-27.988C303.5,293.27,276.89,283.442,295.884,262.932Z" transform="translate(-285.197 -217.131)" fill="#e8cd00"/><g transform="translate(18.944 62.251)"><path d="M326.614,297.7c-1.631.725-3.2,1.543-4.744,2.394a50.482,50.482,0,0,0-4.46,2.811,37.548,37.548,0,0,0-4.09,3.3,38.363,38.363,0,0,0-3.605,3.883,20.163,20.163,0,0,1,3.111-4.376,25.624,25.624,0,0,1,4.069-3.542A28.482,28.482,0,0,1,326.614,297.7Z" transform="translate(-309.715 -297.7)" fill="#312113"/></g><g transform="translate(23.383 90.132)"><path d="M332.36,333.785c-1.63.725-3.2,1.543-4.744,2.394a50.57,50.57,0,0,0-4.46,2.811,37.558,37.558,0,0,0-4.09,3.3,38.269,38.269,0,0,0-3.6,3.883,20.136,20.136,0,0,1,3.11-4.376,25.626,25.626,0,0,1,4.069-3.542A28.487,28.487,0,0,1,332.36,333.785Z" transform="translate(-315.461 -333.785)" fill="#312113"/></g><g transform="translate(10.954 33.409)"><path d="M316.274,260.371c-1.632.724-3.2,1.542-4.745,2.394a50.728,50.728,0,0,0-4.461,2.81,37.636,37.636,0,0,0-4.089,3.3,38.277,38.277,0,0,0-3.605,3.884,20.169,20.169,0,0,1,3.111-4.376,25.624,25.624,0,0,1,4.069-3.541A28.479,28.479,0,0,1,316.274,260.371Z" transform="translate(-299.374 -260.371)" fill="#312113"/></g></g><path d="M425.118,331.057c0,3.768-13.283,6.823-29.668,6.823s-29.668-3.055-29.668-6.823,13.283-6.823,29.668-6.823S425.118,327.289,425.118,331.057Z" transform="translate(-303.519 -207.569)" fill="#e8cd00"/><g transform="translate(63.239 136.26)"><g transform="translate(0.879 4.2)"><path d="M390.3,357.47h-21.6l-.51-2.438h21.6Z" transform="translate(-368.183 -355.032)" fill="#312113"/><path d="M407.429,357.47h-9.068l-.51-2.438h9.067Z" transform="translate(-374.928 -355.032)" fill="#312113"/></g><path d="M386.787,349.6h31.726l.51,2.437H387.3Z" transform="translate(-371.533 -349.596)" fill="#312113"/><path d="M367.045,349.6h13.316l.51,2.437H367.555Z" transform="translate(-367.045 -349.596)" fill="#312113"/></g><g transform="translate(41.975 28.028)" style="isolation:isolate"><g transform="translate(0.879 4.201)"><path d="M362.776,217.39h-21.6l-.51-2.437h21.6Z" transform="translate(-340.662 -214.953)" fill="#e8cd00"/><path d="M379.908,217.39H370.84l-.51-2.437H379.4Z" transform="translate(-347.407 -214.953)" fill="#e8cd00"/></g><path d="M359.266,209.515h31.726l.51,2.438H359.776Z" transform="translate(-344.012 -209.515)" fill="#e8cd00"/><path d="M339.524,209.515H352.84l.511,2.438H340.034Z" transform="translate(-339.524 -209.515)" fill="#e8cd00"/></g><g transform="translate(122.608 126.598)"><path d="M452.083,337.09a10.767,10.767,0,0,1,10.393,9.261,8.027,8.027,0,0,1-8.13,9.262,10.767,10.767,0,0,1-10.393-9.262A8.026,8.026,0,0,1,452.083,337.09Z" transform="translate(-443.884 -337.09)" fill="#e8cd00"/><g transform="translate(4.624 3.939)"><path d="M457.849,342.706l-3.666,7.389-3.111-1.572a.838.838,0,0,0-1.1.443.854.854,0,0,0,.308,1.155l3.814,1.928a.743.743,0,0,0,.615.019.945.945,0,0,0,.487-.461l4.062-8.188a.852.852,0,0,0-.308-1.155A.837.837,0,0,0,457.849,342.706Z" transform="translate(-449.868 -342.187)" fill="#fff"/></g></g><g transform="translate(30.973 6.802)"><path d="M331.837,182.043a.635.635,0,0,1,.6.49l.24,1.25a.4.4,0,0,1-.415.49.633.633,0,0,1-.6-.49l-.24-1.25A.4.4,0,0,1,331.837,182.043Z" transform="translate(-326.678 -182.043)" fill="#312113"/><path d="M330.141,182.043h0a.634.634,0,0,1,.6.49l.24,1.25a.4.4,0,0,1-.415.49h0a.633.633,0,0,1-.6-.49l-.24-1.25A.4.4,0,0,1,330.141,182.043Z" transform="translate(-326.292 -182.043)" fill="#312113"/><path d="M328.444,182.043h0a.634.634,0,0,1,.6.49l.24,1.25a.4.4,0,0,1-.416.49h0a.634.634,0,0,1-.6-.49l-.239-1.25A.4.4,0,0,1,328.444,182.043Z" transform="translate(-325.907 -182.043)" fill="#312113"/><path d="M326.747,182.043h0a.634.634,0,0,1,.6.49l.24,1.25a.4.4,0,0,1-.416.49h0a.633.633,0,0,1-.6-.49l-.24-1.25A.4.4,0,0,1,326.747,182.043Z" transform="translate(-325.521 -182.043)" fill="#312113"/><path d="M326.054,183.964h-.509l-.26-1.355h.509Z" transform="translate(-325.285 -182.172)" fill="#312113"/></g><g transform="translate(41.047 6.556)"><path d="M341.593,184.984a.61.61,0,0,1,.58.471.386.386,0,0,1-.4.472.61.61,0,0,1-.58-.472A.385.385,0,0,1,341.593,184.984Z" transform="translate(-338.973 -182.466)" fill="#312113"/><path d="M341.012,183.316a2.648,2.648,0,0,1,1.348.386.336.336,0,0,1,.133.488.323.323,0,0,1-.414.038,1.848,1.848,0,0,0-.943-.27,1.353,1.353,0,0,0-.84.27.353.353,0,0,1-.429-.038.313.313,0,0,1-.054-.488A1.938,1.938,0,0,1,341.012,183.316Z" transform="translate(-338.64 -182.087)" fill="#312113"/><path d="M340.458,181.725a4.213,4.213,0,0,1,2.34.747.3.3,0,1,1-.326.5,3.414,3.414,0,0,0-1.89-.6,2.43,2.43,0,0,0-1.66.6.35.35,0,0,1-.454-.018.317.317,0,0,1-.063-.478A3,3,0,0,1,340.458,181.725Z" transform="translate(-338.323 -181.725)" fill="#312113"/></g><g transform="translate(102.424 6.251)"><path d="M429.025,181.331a1.1,1.1,0,0,1,.989.637,2.67,2.67,0,0,1,.285.817,1.813,1.813,0,0,1-.025.98.674.674,0,0,1-.7.437,1.089,1.089,0,0,1-.939-.535,2.561,2.561,0,0,1-.357-.943,1.805,1.805,0,0,1,.013-.946A.693.693,0,0,1,429.025,181.331Zm.494,2.551c.236,0,.377-.132.424-.4a1.983,1.983,0,0,0-.037-.687,2.255,2.255,0,0,0-.314-.86.62.62,0,0,0-.527-.292.37.37,0,0,0-.415.308,2.09,2.09,0,0,0,.029.783,1.982,1.982,0,0,0,.341.9A.649.649,0,0,0,429.519,183.882Z" transform="translate(-420.14 -181.331)" fill="#312113"/><path d="M426.034,181.331a1.1,1.1,0,0,1,.988.637,2.69,2.69,0,0,1,.286.817,1.811,1.811,0,0,1-.025.98.673.673,0,0,1-.7.437,1.089,1.089,0,0,1-.939-.535,2.562,2.562,0,0,1-.357-.943,1.815,1.815,0,0,1,.012-.946A.694.694,0,0,1,426.034,181.331Zm.494,2.551q.353,0,.424-.4a1.982,1.982,0,0,0-.037-.687,2.267,2.267,0,0,0-.314-.86.621.621,0,0,0-.528-.292.37.37,0,0,0-.414.308,2.074,2.074,0,0,0,.029.783,1.973,1.973,0,0,0,.341.9A.649.649,0,0,0,426.528,183.882Z" transform="translate(-419.46 -181.331)" fill="#312113"/><path d="M424.819,184.824H424.4l-.082-.426h.423Z" transform="translate(-419.25 -182.028)" fill="#312113"/><path d="M421.548,181.331a1.1,1.1,0,0,1,.989.637,2.648,2.648,0,0,1,.284.817,1.8,1.8,0,0,1-.024.98.674.674,0,0,1-.7.437,1.086,1.086,0,0,1-.938-.535,2.547,2.547,0,0,1-.358-.943,1.815,1.815,0,0,1,.012-.946A.694.694,0,0,1,421.548,181.331Zm.494,2.551c.236,0,.377-.132.423-.4a1.98,1.98,0,0,0-.036-.687,2.254,2.254,0,0,0-.314-.86.621.621,0,0,0-.528-.292.37.37,0,0,0-.414.308,2.1,2.1,0,0,0,.029.783,1.982,1.982,0,0,0,.342.9A.649.649,0,0,0,422.042,183.882Z" transform="translate(-418.44 -181.331)" fill="#312113"/><path d="M418.557,181.331a1.1,1.1,0,0,1,.988.637,2.669,2.669,0,0,1,.285.817,1.805,1.805,0,0,1-.025.98.674.674,0,0,1-.7.437,1.088,1.088,0,0,1-.939-.535,2.575,2.575,0,0,1-.358-.943,1.823,1.823,0,0,1,.013-.946A.694.694,0,0,1,418.557,181.331Zm.494,2.551q.353,0,.423-.4a1.983,1.983,0,0,0-.037-.687,2.241,2.241,0,0,0-.314-.86.619.619,0,0,0-.527-.292.37.37,0,0,0-.414.308,2.072,2.072,0,0,0,.029.783,1.981,1.981,0,0,0,.342.9A.649.649,0,0,0,419.051,183.882Z" transform="translate(-417.76 -181.331)" fill="#312113"/></g><g transform="translate(49.395 36.191)"><path d="M387.959,311.407c1.616,2.269,4.141,5.925,3.467,8.539s-10.477-1.012-10.477-1.012l-16.008-42.389,15.988.447S386.343,309.138,387.959,311.407Z" transform="translate(-352.722 -232.918)"/><g transform="translate(17.327 49.34)"><rect width="0.519" height="34.163" transform="matrix(0.941, -0.339, 0.339, 0.941, 0, 0.176)" fill="#312113"/></g><path d="M352.319,253.748l50-30.97L414.9,272.036,356.342,269.5c-2.451.626-5.338-2.394-6.449-6.744S349.867,254.374,352.319,253.748Z" transform="translate(-349.202 -220.693)"/><path d="M352.319,261.694l6.4-3.965a22.343,22.343,0,0,0,4.385,20.012l-6.763-.292c-2.451.626-5.338-2.394-6.449-6.744S349.867,262.32,352.319,261.694Z" transform="translate(-349.202 -228.64)" fill="#fff"/><g transform="translate(0 1.678)"><path d="M415.16,272.191l-18.707-.811.022-.518,18.009.779-12.406-48.576-49.731,30.8-.039.009c-2.309.59-3.313,4.491-2.239,8.7a11.654,11.654,0,0,0,2.659,5.123c1.15,1.2,2.387,1.713,3.475,1.433l.037-.009.038,0,29.164,1.262-.022.518-29.126-1.261c-1.269.307-2.667-.256-3.94-1.587a12.183,12.183,0,0,1-2.787-5.353c-1.139-4.459.015-8.623,2.574-9.315L402.4,222.252Z" transform="translate(-349.127 -222.252)" fill="#312113"/></g><path d="M414.855,220.439a11.853,11.853,0,0,1,4.823-.2c7.975,1.274,15.632,10.336,18.623,22.039,3.74,14.646-.7,28-10.1,30.406a11.838,11.838,0,0,1-4.823.2c-7.975-1.275-15.632-10.339-18.623-22.041C401.013,236.2,405.451,222.841,414.855,220.439Z" transform="translate(-361.473 -220.08)" fill="#fff"/><path d="M415.945,223.024c8.223-2.1,17.649,7,21.054,20.334s-.5,25.84-8.724,27.94-17.65-7-21.055-20.334S407.721,225.125,415.945,223.024Z" transform="translate(-362.055 -220.681)"/><path d="M416.989,249.159l1.8,8.767-9.046,6.025a38.995,38.995,0,0,1-2.514-7.026,38.28,38.28,0,0,1-1.188-8l10.493.128Z" transform="translate(-362.068 -226.638)" fill="#e8cd00"/><path d="M419.145,249.077c1.38-.352,3.006,1.347,3.632,3.8s.014,4.722-1.367,5.074-3.006-1.347-3.631-3.8S417.764,249.43,419.145,249.077Z" transform="translate(-364.679 -226.662)" fill="#fff4a3"/><g transform="translate(75.967 9.196)"><rect width="9.965" height="1.015" transform="matrix(0.88, -0.475, 0.475, 0.88, 0, 4.731)" fill="#312113"/></g><g transform="translate(78.547 41.038)"><rect width="1.015" height="19.034" transform="translate(0 0.966) rotate(-72.125)" fill="#312113"/></g><g transform="translate(81.706 31.065)"><rect width="7.235" height="1.015" transform="translate(0 0.043) rotate(-0.34)" fill="#312113"/></g><g transform="translate(81.319 24.705)"><rect width="17.894" height="1.015" transform="matrix(0.984, -0.176, 0.176, 0.984, 0, 3.142)" fill="#312113"/></g></g><g transform="translate(65.676 159.064)"><g transform="translate(6.907 3.835)"><path d="M440.99,399.581a41.4,41.4,0,0,0-15.624-12.165,36.978,36.978,0,0,0-18.069-3.23l-8.141,1.717a29.336,29.336,0,0,0-18.238,18.214,32.845,32.845,0,0,0-1.511,14.939h11.208c-1.011-8.217,2.268-16.211,9.358-20.612,10.134-6.289,24.355-2.955,32.509,7.363q.515.652,1,1.341a26.246,26.246,0,0,1,4.629,11.908h11.155A39.3,39.3,0,0,0,441,399.6.121.121,0,0,0,440.99,399.581Z" transform="translate(-379.138 -384.072)" fill="#e8cd00"/></g><path d="M370.2,406.373l7.226,1.99,11.27,3.1q.126-.765.305-1.524a20.235,20.235,0,0,1,11.19-13.836l-9.678-17A36.152,36.152,0,0,0,370.2,406.373Z" transform="translate(-370.199 -379.109)" fill="#fff"/><g transform="translate(23.678 2.894)"><path d="M400.844,385.857l6.312,11.1a22.654,22.654,0,0,1,12.523-1.742l.04-12.042a37.035,37.035,0,0,0-4.838-.318A33.269,33.269,0,0,0,400.844,385.857Z" transform="translate(-400.844 -382.855)"/></g><g transform="translate(61.469 16.179)" style="isolation:isolate"><path d="M449.755,411.1a29.107,29.107,0,0,1,4.426,11.587h18.467a43.775,43.775,0,0,0-8.928-22.639Z" transform="translate(-449.755 -400.049)"/></g></g></g></g></svg>