<svg xmlns="http://www.w3.org/2000/svg" width="760" height="577.499" viewBox="0 0 760 577.499"><g transform="translate(-146.535 -4842.374)"><g transform="translate(146.535 4843.554)"><path d="M699.15,209.34s-5.307-24.762-23.878-30.953-22.994,6.191-28.3,13.266-13.266-3.538-24.763,0-7.075,13.265-14.151,16.8-19.456-4.422-27.415,1.769-9.728,11.5-9.728,11.5H738.947S712.416,196.958,699.15,209.34Z" transform="translate(-64.845 182.315)" fill="#fff4a3"/><path d="M321.555,410.868s-5.181-24.18-23.317-30.227S275.785,386.687,270.6,393.6s-12.953-3.455-24.18,0S239.515,406.549,232.607,410s-19-4.319-26.772,1.726-9.5,11.227-9.5,11.227H360.416S334.51,398.777,321.555,410.868Z" transform="translate(-196.337 31.174)" fill="#fff4a3"/><path d="M419.521,143.965s-5.318-24.815-23.929-31.019-23.042,6.2-28.36,13.294-13.294-3.546-24.815,0-7.09,13.294-14.18,16.838-19.5-4.431-27.473,1.773-9.75,11.521-9.75,11.521H459.4S432.815,131.557,419.521,143.965Z" transform="translate(-129.61 52.237)" fill="#fff4a3"/><path d="M324.035,320.568s-4.367-20.374-19.648-25.468-18.92,5.095-23.285,10.915-10.915-2.91-20.375,0-5.821,10.915-11.642,13.825-16.009-3.638-22.559,1.456-8,9.46-8,9.46H356.78S334.949,310.382,324.035,320.568Z" transform="translate(-188.058 -0.653)" fill="#fff4a3"/><path d="M577.186,320.38s-11.134-51.956-50.1-64.945-48.246,12.989-59.378,27.834-27.833-7.422-51.956,0-14.844,27.833-29.69,35.255-40.822-9.277-57.521,3.712-20.411,24.121-20.411,24.121H660.687S605.019,294.4,577.186,320.38Z" transform="translate(-154.617 -16.255)" fill="#fff4a3"/><g transform="translate(69.403 0)"><g transform="translate(0 336.674)"><path d="M254.987,511.111l-9.46-11.172-11.013,1.326L200.141,470.2l-21.372,19.388-6.169-1.544-21.915,23.07Z" transform="translate(-150.685 -271.468)" fill="#e8cd00"/><path d="M804.348,522.87l-30.8-36.374-17.7,2.131L700.6,438.689l-34.352,31.163-9.916-2.481-52.719,55.5Z" transform="translate(-113.751 -283.226)" fill="#e8cd00"/><path d="M832.1,565.119,724.624,438.188l-41.734,5.024L552.63,325.475l-80.991,73.473L448.261,393.1l-163.4,172.02Z" transform="translate(-232.706 -325.475)" fill="#b4a00d"/><path d="M301.884,565.119,461.856,430.811l24.116,7.043L553.3,349.416l72.349,68.344-2-19.093,59.246,44.544L552.63,325.475l-80.991,73.473L448.261,393.1l-163.4,172.02Z" transform="translate(-232.706 -325.475)" fill="#e8cd00"/><path d="M485.125,459.554,460,504.772l-17.772,32.811h3.346L522.3,436.442l51.248,7.034L554.46,413.33l-20.1-2.01-24.116-12.058-80.389,97.471,9.044,15.073Z" transform="translate(-178.593 -297.939)" fill="#fff4a3"/></g><g transform="translate(415.352 298.665)"><path d="M565.17,300.352l1.7,13.788,20.749-2.555-1.7-13.788Zm19.086,11.268-14.12,1.738-1.316-10.682,14.12-1.74Z" transform="translate(-543.448 -297.796)" fill="#212264"/><rect width="66.642" height="52.427" transform="translate(0 13.274) rotate(-7.021)" fill="#fec422"/><path d="M549.352,309.676l36.275,21.945,29.867-30.09" transform="translate(-549.352 -296.402)" fill="none" stroke="#212264" stroke-linecap="round" stroke-linejoin="round" stroke-width="0.5"/><rect width="6.277" height="15.138" transform="translate(31.802 26.841) rotate(-7.021)" fill="#fff"/></g><path d="M565.388,263.375l7.425,42.778s-3.551,5.811-3.39,6.457,1.615,8.07,1.615,8.07a6.435,6.435,0,0,0,2.583.485c.968-.162,1.614-1.453,1.614-1.453s5.327-.323,6.134-1.453.323-10.008,0-11.3-.807-3.712-.807-3.712l-.645-43.906Z" transform="translate(-128.015 -13.481)" fill="#f9b294"/><g transform="translate(327.502 294.187)"><path d="M500.066,294.535S484.838,311.8,485.391,312.54,522.865,374.2,522.865,374.2s-7.2,10.707-7.937,11.444-6.093,4.8-5.907,6.462,2.215,1.107,6.091.184,5.723-1.476,7.385-2.4,7.014-7.937,9.968-8.861,4.985-2.954,4.246-5.537-5.538-7.385-5.907-7.938-19.384-52.612-19.384-52.612l15.138-9.784Z" transform="translate(-485.376 -294.535)" fill="#f9b294"/><path d="M530.287,354.215a9.8,9.8,0,0,0-1.48-2.672,8.882,8.882,0,0,1-3.319,4.15c-4.246,2.4-9.969,9.045-11.631,9.784-1.3.577-3.592-1.311-4.54-2.17-.4.548-.695.943-.813,1.061-.739.739-6.093,4.8-5.907,6.461s2.215,1.108,6.092.185,5.723-1.476,7.385-2.4,7.014-7.937,9.968-8.861S531.025,356.8,530.287,354.215Z" transform="translate(-478.952 -273.26)" fill="#212264"/></g><g transform="translate(386.77 313.115)"><path d="M533.895,308.319s-5.538,23.446-5.353,24.738,20.86,67.934,20.86,67.934-2.216,15.137-1.292,18.09,4.983,7.753,6.091,6.83,3.877-6.277,3.693-10.707-3.323-14.953-3.323-14.953l-3.876-67.2,6.645-12.923Z" transform="translate(-528.538 -308.319)" fill="#f9b294"/><path d="M552.253,383.925c-.909,1.435-3.294,4.834-5.34,4.543-2.584-.369-3.877-3.139-3.877-3.139l-.275-.22a21.261,21.261,0,0,0,.091,5.758c.923,2.954,4.983,7.753,6.091,6.83s3.876-6.277,3.693-10.707A24.563,24.563,0,0,0,552.253,383.925Z" transform="translate(-523.279 -280.104)" fill="#212264"/></g><path d="M540.365,180c-4.32,2.411-8.731,6.519-9.872,10.226-.82,2.663-.409,6.76-1.639,8.4s-6.021,3.476-5,5.524a16.867,16.867,0,0,0,2.948,3.9s1.024,13.931,1.64,13.931,12.5-.82,12.5-.82l1.024,6.351s-14.342,5.533-14.546,6.351S509.8,263.569,509.8,263.569l-9.014,1.844,5.531,19.258L518.2,279.96l8.6-3.278,3.279,8.4-4.508,19.873-29.5,33.19L568.6,373.588s18.233-32.781,17.209-49.17-14.136-28.683-14.136-28.683l-.82-12.293L572.9,268.9l15.571,20.693,1.434,7.171,17.824-5.737-5.122-7.58L579.049,235.5l-23.561-7.991.82-11.473,3.265-1.973a16.518,16.518,0,0,0,8-12.572c1.576-13.865-7.184-26.012-22.077-23.477A16.884,16.884,0,0,0,540.365,180Z" transform="translate(-153.882 -43.957)" fill="#f64d42"/><path d="M545.015,215.62l.282-3.931-10.31-2.148-4.21,1.63.717,4.449s-3.665,1.414-7.316,2.918a79.486,79.486,0,0,0,.552,12.121,73.093,73.093,0,0,0,3.749,16.5s16.164-12.481,21.8-19.119a68.006,68.006,0,0,0,6.133-8.56Z" transform="translate(-143.41 -32.066)" fill="#f5f8ff"/><path d="M520.161,258.887l-6.285-18.242,3.62-15.285" transform="translate(-147.239 -26.163)" fill="none" stroke="#212264" stroke-linecap="round" stroke-linejoin="round" stroke-width="0.5"/><line x1="5.52" y1="8.848" transform="translate(413.5 216.091)" fill="none" stroke="#212264" stroke-linecap="round" stroke-linejoin="round" stroke-width="0.5"/><line x2="8.4" y2="16.39" transform="translate(355.918 219.612)" fill="none" stroke="#212264" stroke-linecap="round" stroke-linejoin="round" stroke-width="0.5"/><line y1="6.146" x2="14.136" transform="translate(434.59 239.485)" fill="none" stroke="#212264" stroke-linecap="round" stroke-linejoin="round" stroke-width="0.5"/><path d="M585.809,295.973c-1.024-16.389-14.136-28.682-14.136-28.682L570.854,255l.155-1.1c-2.641,1.428-8.749,4.1-19.716,5.664-10.644,1.52-17.865-.758-21.344-2.333l-4.374,19.284-29.5,33.19L568.6,345.144S586.833,312.364,585.809,295.973Z" transform="translate(-153.882 -15.513)" fill="#212264"/><g transform="translate(369.832 126.998)"><path d="M547.976,227.511l.82-11.473,3.265-1.973a16.518,16.518,0,0,0,8-12.572c1.576-13.865-7.184-26.012-22.077-23.477A16.885,16.885,0,0,0,532.853,180c-4.32,2.411-8.731,6.519-9.872,10.226-.82,2.663-.409,6.76-1.64,8.4s-6.021,3.476-5,5.524a16.867,16.867,0,0,0,2.948,3.9s1.024,13.931,1.64,13.931,12.5-.82,12.5-.82l1.024,6.351-3.016,31.543L549.13,227.9Z" transform="translate(-516.202 -170.954)" fill="#f9b294"/><g transform="translate(6.238)"><path d="M534.9,178.016A16.885,16.885,0,0,0,529.766,180a28.623,28.623,0,0,0-5.289,3.846c1.778-1.277,6.3-3.958,9.848-1.174,4.507,3.543-1.288,6.44-.161,10.948s3.863,8.692,7.244,10.3c0,0,3.543-4.992,6.117-.806s-1.449,8.694-3.058,9.177-2.737.8-2.737.8a12.169,12.169,0,0,0,3.966,3.1l.012-.165,3.265-1.973a16.518,16.518,0,0,0,8-12.572C558.553,187.628,549.792,175.481,534.9,178.016Z" transform="translate(-519.353 -170.954)" fill="#212264"/><path d="M544.544,185.465s1.449-9.5,13.523-12.074,18.031,3.541,19.48,8.694,6.439,10.624,13.362,7.083c4.358-2.23,16.743-5.634,22.538,6.762s.8,23.344-7.083,27.208-12.4,2.414-12.4,2.414,3.263-2.814-.161-9.659c-2.093-4.185-6.878-5.984-15.616.965-7.084,5.636-20.124-.161-22.056-9.176s-1.288-14.49-3.864-17.066c-3.617-3.617-5.474-1.77-5.474-1.77Z" transform="translate(-511.864 -172.782)" fill="#212264"/><path d="M524.626,194.076c0,1.156-.4,2.093-.886,2.093s-.886-.937-.886-2.093.4-2.093.886-2.093S524.626,192.92,524.626,194.076Z" transform="translate(-519.958 -165.616)" fill="#212264"/><path d="M522.738,190.03s2.737-2.738,4.669.8" transform="translate(-520.001 -166.722)" fill="none" stroke="#212264" stroke-linecap="round" stroke-linejoin="round" stroke-width="0.5"/><path d="M520.745,201.23a7.292,7.292,0,0,0,6.922-.806" transform="translate(-520.745 -162.466)" fill="none" stroke="#212264" stroke-linecap="round" stroke-linejoin="round" stroke-width="0.5"/></g></g><path d="M513.6,241.57l-36.624,3.88-6.692-2.8-8.559,3.112,2.571,10.072,10.61-3L517.6,255.41Z" transform="translate(-166.7 -20.113)" fill="#f9b294"/><g transform="translate(252.442 6.083)"><g transform="translate(154.365 41.266)"><path d="M569.638,114.779s.7,10.465,30.7,5.929,62.786,5.233,70.81,12.907,10.813,11.86,10.813,11.86-10.464-12.209-36.277-8.372-40.462,8.721-40.462,8.721,36.974,0,51.625,11.161,21.277,22.325,23.37,28.255a82.026,82.026,0,0,1,3.139,12.558s-2.441-12.907-25.812-25.464-35.579-4.534-66.624,1.744-36.277,6.628-40.811,4.884-6.976-2.792-6.976-2.792Z" transform="translate(-543.129 -114.779)" fill="#fff4a3"/><path d="M561.248,153.353l-18.119,10.413,4.746-15.748A27.076,27.076,0,0,1,561.248,153.353Z" transform="translate(-543.129 -102.375)" fill="#c7b001"/></g><path d="M623.049,102.925,603.2,176.979s-21.095-3.32-59.983,8.677a202.551,202.551,0,0,1-19.884,5.093c-5.462,1.071-10.573,1.826-15.316,2.3-19.339,1.95-32.741-.685-40.082-3.671A55.009,55.009,0,0,1,450.159,177.8s-19.075-90.387-19.444-93.076c0,0,24.4,19.023,71.98,15.72a264.179,264.179,0,0,0,31.2-3.916c5.866-1.107,10.943-2.266,15.6-3.355,13.56-3.2,23.484-5.708,38.819-3.9C616.444,92.6,623.049,102.925,623.049,102.925Z" transform="translate(-430.715 -84.728)" fill="#e8cd00"/></g><line x2="72.579" y2="353.425" transform="translate(250.966)" fill="none" stroke="#212264" stroke-linecap="round" stroke-linejoin="round" stroke-width="2"/><path d="M466.579,241.429s-6.141,1.233-6.335,2.008,1.883,9.218,2.657,10.67,1.105,1.527,1.957,1.78,4.236-.909,4.817-1.392S466.579,241.429,466.579,241.429Z" transform="translate(-167.258 -20.166)" fill="#fac2aa"/><path d="M473.134,250.852c-3.014.67-4.466-3.684-4.466-3.684s.557,2.679.669,4.019-.893,1.451-1.674,1.451-3.238-8.931-3.238-8.931,1.451-3.462,2.792-3.8,8.129,6.854,8.129,6.854" transform="translate(-165.693 -20.737)" fill="#fac2aa"/><path d="M616.452,407.556l-19.585,29.807L574.718,412.58Z" transform="translate(-124.534 41.831)" fill="#e8cd00"/></g></g><g transform="translate(519.487 4891.836)" style="isolation:isolate"><text transform="translate(32.446 19.63)" fill="#fff" font-size="19" font-family="SegoeUI-Bold, Segoe UI" font-weight="700"><tspan x="0" y="0">Sway</tspan></text><g transform="translate(0 0)" style="isolation:isolate"><path d="M179.946,136.967a13.4,13.4,0,0,1,0-26.79l.011,1.052a12.343,12.343,0,0,0,0,24.685Z" transform="translate(-166.69 -109.494)" fill="#fff"/><path d="M245.356,139.559h-6.329a.526.526,0,1,1,0-1.052h5.8v-5.588a.526.526,0,1,1,1.052,0v6.114A.526.526,0,0,1,245.356,139.559Z" transform="translate(-227.053 -128.168)" fill="#fff"/><path d="M241.316,173.943h-14.4a.526.526,0,0,1,0-1.052H240.79v-1.968a.526.526,0,0,1,1.052,0v2.494A.526.526,0,0,1,241.316,173.943Z" transform="translate(-216.872 -160.114)" fill="#fff"/><path d="M239.418,202.389h-14.3a.526.526,0,1,1,0-1.052h14.3a.526.526,0,1,1,0,1.052Z" transform="translate(-215.363 -186.122)" fill="#fff"/><path d="M247.449,221.768H245.3a.526.526,0,0,1-.526-.526v-2.907H238.13a.526.526,0,1,1,0-1.052H245.3a.526.526,0,0,1,.526.526v2.907h1.624a.526.526,0,1,1,0,1.052Z" transform="translate(-226.299 -199.526)" fill="#fff"/><path d="M250.938,271.125a.644.644,0,1,1-.644-.644A.644.644,0,0,1,250.938,271.125Z" transform="translate(-236.426 -244.243)" fill="#fff"/><path d="M247.521,269.52a1.17,1.17,0,1,1,1.17-1.17A1.171,1.171,0,0,1,247.521,269.52Zm0-1.287a.118.118,0,1,0,.117.118A.118.118,0,0,0,247.521,268.233Z" transform="translate(-233.652 -241.469)" fill="#fff"/><path d="M250.938,109.838a.644.644,0,1,1-.644-.644A.644.644,0,0,1,250.938,109.838Z" transform="translate(-236.426 -108.668)" fill="#fff"/><path d="M247.521,108.233a1.17,1.17,0,1,1,1.17-1.17A1.171,1.171,0,0,1,247.521,108.233Zm0-1.287a.117.117,0,1,0,.117.117A.118.118,0,0,0,247.521,106.945Z" transform="translate(-233.652 -105.893)" fill="#fff"/><g transform="translate(0.327 3.163)"><path d="M175.092,139.661a2.439,2.439,0,0,1-.811-.149,6.352,6.352,0,0,1-3.432-3.752c-.07-.409-.345-.524-1.054-.729a5.849,5.849,0,0,1-.735-.248.526.526,0,0,1,.422-.964,5,5,0,0,0,.6.2c.68.2,1.61.464,1.8,1.561a5.444,5.444,0,0,0,2.744,2.938.9.9,0,0,0,.941-.075,5.461,5.461,0,0,0-.839-1.394c-.661-.916-1.232-1.706-1-2.4a1.027,1.027,0,0,1,.713-.659,3.445,3.445,0,0,1,1.432-.179c.276.018.35.023.867-.785a4.421,4.421,0,0,1,2.984-1.617,3.716,3.716,0,0,0,1-.307,1.5,1.5,0,0,0-.746-.963,1.82,1.82,0,0,0-1.659-.241,1.881,1.881,0,0,1-2.444-.456,1.114,1.114,0,0,1,.381-1.494,1.933,1.933,0,0,0,.706-1.015,1.119,1.119,0,0,0-.288.028,4.656,4.656,0,0,1-2.625-.214.526.526,0,1,1,.4-.972,3.631,3.631,0,0,0,2.016.155c.98-.2,1.335.243,1.459.522.341.762-.385,1.848-1.041,2.339a.307.307,0,0,0-.11.12.4.4,0,0,0,.148.105,1.17,1.17,0,0,0,.961-.076,2.807,2.807,0,0,1,2.663.316,2.406,2.406,0,0,1,1.228,1.869c0,.9-.967,1.12-1.82,1.312a3.521,3.521,0,0,0-2.33,1.158c-.73,1.138-1.095,1.314-1.822,1.267a2.407,2.407,0,0,0-1.039.13l-.035.013a5.527,5.527,0,0,0,.855,1.431c.737,1.021,1.5,2.077.721,2.766A1.8,1.8,0,0,1,175.092,139.661Z" transform="translate(-168.744 -125.734)" fill="#fff"/></g><g transform="translate(4.354 17.208)"><path d="M195.364,221.578a.524.524,0,0,1-.317-.107,2.486,2.486,0,0,1-.864-2.883,3.991,3.991,0,0,1,1.591-1.817,3.408,3.408,0,0,0,.625-.51,3.22,3.22,0,0,0,.428-.9c.245-.667.551-1.5,1.378-1.526.624-.019,1.06.518,1.564,1.145a4.458,4.458,0,0,0,1.754,1.539,3.657,3.657,0,0,0,.931.154,2.809,2.809,0,0,1,1.215.279.526.526,0,0,1-.534.907,2.223,2.223,0,0,0-.766-.137,4.523,4.523,0,0,1-1.206-.213,5.332,5.332,0,0,1-2.215-1.868c-.23-.286-.577-.717-.722-.754-.106.006-.321.59-.413.84a3.877,3.877,0,0,1-.621,1.225,4.291,4.291,0,0,1-.814.681A2.975,2.975,0,0,0,195.152,219a1.478,1.478,0,0,0,.53,1.634.526.526,0,0,1-.318.945Z" transform="translate(-194.001 -213.837)" fill="#fff"/></g><path d="M231.53,125.17a.526.526,0,0,1-.526-.526v-1.72a.526.526,0,1,1,1.052,0v1.72A.526.526,0,0,1,231.53,125.17Z" transform="translate(-220.751 -119.767)" fill="#fff"/><path d="M240.885,125.958a.526.526,0,0,1-.526-.526v-2.508a.526.526,0,1,1,1.052,0v2.508A.526.526,0,0,1,240.885,125.958Z" transform="translate(-228.615 -119.767)" fill="#fff"/><path d="M250.69,127.308a.526.526,0,0,1-.526-.526v-3.858a.526.526,0,1,1,1.052,0v3.858A.526.526,0,0,1,250.69,127.308Z" transform="translate(-236.857 -119.767)" fill="#fff"/><path d="M231.53,243.862h-2.5a.526.526,0,1,1,0-1.052h2.5a.526.526,0,1,1,0,1.052Z" transform="translate(-218.651 -220.983)" fill="#fff"/><path d="M241.568,252.623h-2.087a.526.526,0,1,1,0-1.052h2.087a.526.526,0,0,1,0,1.052Z" transform="translate(-227.435 -228.348)" fill="#fff"/><path d="M232.768,261.383h-2.087a.526.526,0,0,1,0-1.052h2.087a.526.526,0,1,1,0,1.052Z" transform="translate(-220.038 -235.711)" fill="#fff"/><g transform="translate(16.89 2.017)"><path d="M274.072,121.409a1.433,1.433,0,1,1,1.433-1.433A1.434,1.434,0,0,1,274.072,121.409Zm0-1.956a.523.523,0,1,0,.523.523A.524.524,0,0,0,274.072,119.454Z" transform="translate(-272.639 -118.544)" fill="#fff"/></g><g transform="translate(23.028 7.935)"><path d="M312.573,158.535a1.433,1.433,0,1,1,1.433-1.433A1.434,1.434,0,0,1,312.573,158.535Zm0-1.956a.523.523,0,1,0,.523.523A.524.524,0,0,0,312.573,156.579Z" transform="translate(-311.14 -155.669)" fill="#fff"/></g><g transform="translate(23.696 14.358)"><path d="M316.767,198.823a1.433,1.433,0,1,1,1.433-1.433A1.434,1.434,0,0,1,316.767,198.823Zm0-1.956a.523.523,0,1,0,.523.523A.524.524,0,0,0,316.767,196.868Z" transform="translate(-315.334 -195.958)" fill="#fff"/></g><g transform="translate(20.817 20.203)"><path d="M298.708,235.491a1.433,1.433,0,1,1,1.433-1.433A1.434,1.434,0,0,1,298.708,235.491Zm0-1.956a.523.523,0,1,0,.523.523A.524.524,0,0,0,298.708,233.535Z" transform="translate(-297.275 -232.625)" fill="#fff"/></g></g><text transform="translate(32.446 19.63)" fill="#fff" font-size="19" font-family="SegoeUI-Bold, Segoe UI" font-weight="700"><tspan x="0" y="0">Sway</tspan></text></g></g></svg>