<svg xmlns="http://www.w3.org/2000/svg" width="14.984" height="14.984" viewBox="0 0 14.984 14.984">
  <g id="discord" transform="translate(-6 -6)" style="isolation: isolate">
    <path id="Path_28" data-name="Path 28" d="M161.521,239.94v0A1.057,1.057,0,1,1,160.485,241,1.047,1.047,0,0,1,161.521,239.935Z" transform="translate(-146.203 -226.924)" fill="#fff"/>
    <path id="Path_29" data-name="Path 29" d="M13.492,6A7.492,7.492,0,1,1,6,13.492,7.492,7.492,0,0,1,13.492,6ZM10.72,17.445s.377-.42.649-.79a3.262,3.262,0,0,1-1.8-1.111,6.82,6.82,0,0,0,3.924,1.122,6.82,6.82,0,0,0,3.924-1.122,3.261,3.261,0,0,1-1.8,1.111c.272.37.649.79.649.79a4.333,4.333,0,0,0,3.164-1.363,12.033,12.033,0,0,0-1.484-5.546,5.075,5.075,0,0,0-2.8-1l-.151.143A6.655,6.655,0,0,1,17.507,10.9a9.429,9.429,0,0,0-4.014-.965,9.432,9.432,0,0,0-4.014.965,6.655,6.655,0,0,1,2.515-1.215l-.151-.143a5.073,5.073,0,0,0-2.8,1,12.033,12.033,0,0,0-1.484,5.546A4.332,4.332,0,0,0,10.72,17.445Z" fill="#fff"/>
    <path id="Path_30" data-name="Path 30" d="M283.39,239.933v0a1.055,1.055,0,1,1-1.036,1.052A1.05,1.05,0,0,1,283.39,239.938Z" transform="translate(-271.724 -226.922)" fill="#fff"/>
  </g>
</svg>
