<svg xmlns="http://www.w3.org/2000/svg" width="15.32" height="15" viewBox="0 0 15.32 15">
  <g id="github" transform="translate(0 -5.329)" style="isolation: isolate">
    <g id="Group_12" data-name="Group 12" transform="translate(0 5.329)">
      <path id="Path_31" data-name="Path 31" d="M7.659,5.329a7.695,7.695,0,0,0-2.42,14.987c.383.071.523-.167.523-.371,0-.183-.007-.666-.011-1.308-2.13.464-2.58-1.031-2.58-1.031a2.031,2.031,0,0,0-.85-1.125c-.7-.477.052-.467.052-.467a1.609,1.609,0,0,1,1.173.793,1.628,1.628,0,0,0,2.23.639,1.642,1.642,0,0,1,.486-1.028c-1.7-.194-3.489-.854-3.489-3.8a2.981,2.981,0,0,1,.789-2.064,2.771,2.771,0,0,1,.075-2.035s.643-.207,2.106.788a7.23,7.23,0,0,1,3.836,0c1.462-.995,2.1-.788,2.1-.788a2.775,2.775,0,0,1,.077,2.035,2.975,2.975,0,0,1,.787,2.064c0,2.954-1.79,3.6-3.5,3.794a1.84,1.84,0,0,1,.52,1.424c0,1.028-.01,1.857-.01,2.109,0,.206.138.445.527.37A7.7,7.7,0,0,0,7.659,5.329Z" transform="translate(0 -5.329)" fill="#fff"/>
    </g>
  </g>
</svg>
