<svg width="2462" height="877" viewBox="0 0 2462 877" fill="none" xmlns="http://www.w3.org/2000/svg">
<path d="M1158.32 727.966C1156.16 728.08 1153.99 728.422 1151.83 729.105C1147.16 730.7 1142.95 733.889 1140.1 737.989C1137.59 741.748 1136.57 746.19 1136.23 750.632C1136 754.049 1136.34 757.579 1137.93 760.655C1139.64 763.958 1142.6 766.805 1145.11 769.539C1147.39 771.93 1149.67 774.322 1152.17 776.486C1154.45 778.65 1157.07 780.359 1159.35 782.637C1162.65 785.94 1163.9 793.457 1161.51 797.557C1158.66 802.113 1151.94 802.796 1147.5 801.315C1145.22 800.518 1143.17 798.81 1141.24 797.443C1140.1 796.646 1138.73 796.304 1137.93 797.671C1137.48 798.354 1137.25 799.151 1137.02 799.835C1136.23 802.682 1135.2 805.302 1135.09 808.377C1134.97 811.908 1141.69 812.933 1144.2 813.502C1155.36 816.122 1168.8 814.072 1174.61 803.024C1175.75 800.746 1176.54 798.354 1177 795.848C1177.11 794.937 1177.23 794.14 1177.23 793.229C1177.68 785.94 1174.72 779.789 1170.28 774.322C1165.5 768.4 1159.46 764.299 1153.88 759.174C1150.46 755.985 1149.21 750.973 1150.23 746.418C1151.26 741.52 1156.84 740.267 1161.05 741.52C1162.31 741.862 1163.33 742.431 1164.47 743.115C1165.16 743.456 1165.84 743.912 1166.75 743.912C1168.34 744.026 1168.57 742.773 1168.91 741.52C1169.71 738.673 1171.08 736.395 1171.65 733.661C1172.22 730.586 1169.71 730.017 1167.21 729.219C1164.24 728.422 1161.4 727.853 1158.32 727.966V727.966ZM1269.77 749.493C1272.16 756.554 1272.73 764.185 1272.73 771.703C1272.73 777.967 1271.59 784.003 1270 790.04C1267.95 797.215 1264.53 803.707 1258.38 807.921C1253.82 811.224 1249.04 813.388 1243.46 813.958C1242.66 813.958 1241.98 814.072 1241.18 814.072C1240.5 814.072 1239.81 813.958 1239.02 813.958C1233.44 813.388 1228.65 811.224 1223.98 807.921C1217.95 803.707 1214.42 797.215 1212.48 790.04C1210.77 784.003 1209.75 777.967 1209.75 771.703C1209.75 764.185 1210.31 756.554 1212.71 749.493C1216.92 737.306 1228.54 728.65 1241.18 728.422C1253.82 728.65 1265.44 737.306 1269.77 749.493ZM1258.72 780.017C1259.86 773.069 1259.4 766.008 1258.04 759.06C1256.67 752.796 1253.94 746.645 1248.7 742.887C1247.79 742.203 1246.76 741.634 1245.74 741.292C1244.26 740.609 1242.66 740.381 1241.18 740.381C1239.7 740.381 1238.22 740.609 1236.74 741.292C1235.6 741.634 1234.69 742.203 1233.78 742.887C1228.42 746.645 1225.69 752.796 1224.44 759.06C1223.07 766.008 1222.62 773.069 1223.75 780.017C1224.89 786.281 1227.17 794.71 1233.09 797.899C1235.6 799.265 1238.33 800.177 1241.18 800.29C1244.03 800.177 1246.88 799.265 1249.38 797.899C1255.3 794.71 1257.58 786.281 1258.72 780.017V780.017ZM1305.25 747.215C1305.25 758.718 1305.36 770.336 1305.59 781.725C1305.7 788.673 1305.59 796.532 1308.89 802.91C1313.11 811.111 1322.45 814.755 1331.44 814.186C1337.59 813.73 1343.29 812.136 1347.73 807.58C1355.25 799.493 1353.77 786.851 1353.88 776.486C1354.11 761.566 1354.45 747.67 1354.45 732.636C1354.45 730.13 1353.65 728.764 1351.15 728.65C1348.07 728.536 1345 728.65 1341.92 728.878C1340.67 728.878 1339.64 730.017 1339.64 731.383C1339.76 742.317 1339.99 753.365 1339.87 764.413C1339.76 773.867 1341.01 784.345 1337.48 793.343C1336.11 796.646 1333.04 799.151 1329.39 799.151C1320.28 798.924 1320.62 788.104 1320.28 781.725C1319.6 767.83 1320.62 753.593 1320.96 739.698C1320.96 737.078 1320.96 734.459 1321.08 731.839C1321.19 730.472 1321.42 728.764 1319.6 728.65H1317.55C1314.7 728.878 1311.85 728.536 1309.01 728.65C1306.27 728.878 1305.36 729.675 1305.36 732.408C1305.36 737.306 1305.25 742.317 1305.25 747.215V747.215ZM1411.91 814.072C1413.62 814.072 1419.88 814.186 1421.14 813.958C1421.93 813.73 1422.39 811.68 1422.62 810.997C1423.3 808.833 1423.76 806.555 1424.33 804.391C1425.58 798.696 1438.22 750.86 1442.66 732.978C1442.89 732.181 1443.12 731.269 1442.89 730.472C1442.55 728.764 1441.52 728.536 1440.16 728.536C1437.54 728.65 1434.92 728.536 1432.3 728.536C1429.34 728.536 1428.2 728.878 1427.29 732.181C1422.84 747.443 1419.88 765.666 1415.78 781.156L1415.1 782.978C1415.1 783.092 1414.64 782.978 1414.64 782.978C1414.42 782.409 1414.07 781.953 1413.96 781.384C1409.86 765.097 1403.14 732.864 1402 729.789C1401.32 727.966 1399.61 728.536 1398.02 728.536C1394.83 728.536 1391.87 728.65 1388.79 728.65C1387.65 728.764 1386.85 729.219 1386.97 730.358C1386.97 731.269 1388.22 736.281 1388.45 737.648L1389.7 742.431C1390.5 746.076 1391.64 750.632 1392.43 754.163C1396.76 772.272 1401.43 790.381 1406.56 808.263C1407.01 809.858 1407.36 812.591 1408.49 813.502C1409.41 814.3 1410.89 813.958 1411.91 814.072V814.072ZM1475.64 790.609H1475.52C1475.52 793.457 1475.41 796.418 1475.52 799.379C1475.64 803.024 1475.86 806.669 1476.09 810.313C1476.09 811.566 1476.43 811.908 1477.57 812.136C1479.96 812.705 1482.24 812.819 1484.63 812.819C1490.78 812.591 1496.93 813.047 1503.08 812.819C1505.59 812.705 1506.73 812.933 1509.23 812.477C1511.51 812.022 1512.31 810.769 1512.31 807.352C1512.08 805.188 1512.2 804.277 1512.2 801.657C1512.2 797.899 1509.58 796.646 1507.3 796.76C1505.7 796.874 1498.07 796.646 1495 796.646C1489.87 796.76 1490.67 797.443 1490.67 792.09C1490.67 787.762 1490.78 782.181 1490.78 777.739C1490.78 775.347 1491.01 774.55 1493.29 774.55H1507.53C1509.8 774.892 1511.4 773.297 1511.4 770.905C1511.4 768.513 1511.63 768.4 1511.63 766.008L1511.29 762.591C1511.06 760.655 1510.37 759.971 1508.44 759.971C1507.18 759.971 1505.93 760.085 1504.68 760.199C1499.78 760.541 1497.5 759.857 1492.72 760.199C1491.13 760.199 1490.9 759.971 1490.78 758.491C1490.33 754.049 1490.78 749.151 1491.24 744.709C1491.35 742.887 1491.81 742.545 1493.52 742.431L1509.58 742.317C1511.74 742.09 1512.42 742.203 1512.31 740.039C1512.08 736.736 1512.42 733.32 1512.08 730.017C1511.85 728.194 1511.29 727.853 1509.23 727.853C1505.82 727.966 1505.02 727.966 1501.6 728.194C1498.19 728.308 1484.52 728.308 1481.22 728.308C1476.43 728.308 1476.09 727.966 1475.98 733.775C1475.75 738.331 1475.86 743.001 1475.86 747.67C1475.86 755.643 1475.41 784.231 1475.64 790.609V790.609ZM1593.35 731.156C1593.69 732.75 1593.46 808.605 1593.46 810.541C1593.46 813.958 1592.21 813.844 1589.93 813.844C1586.51 813.844 1581.73 814.414 1580.7 813.275C1579.79 812.477 1562.94 771.816 1560.55 766.691C1560.32 766.236 1559.75 765.097 1559.29 765.324C1558.72 765.552 1558.95 766.349 1558.95 766.805C1558.84 770.791 1559.52 805.188 1559.52 810.655C1559.52 813.388 1559.41 813.844 1557.13 813.844H1551.43C1549.95 813.844 1548.13 813.73 1546.65 813.958C1545.51 813.958 1544.94 813.616 1544.83 812.477V803.48C1545.06 793.912 1544.83 737.192 1544.83 732.978C1544.83 729.333 1545.85 728.65 1549.5 728.65C1552 728.536 1554.51 728.536 1557.01 728.536C1557.81 728.536 1558.27 728.65 1558.72 729.675C1561.8 736.85 1574.9 769.766 1576.95 773.753C1577.29 774.55 1578.54 777.739 1579.22 778.081H1579.34C1579.79 777.625 1579.68 775.347 1579.68 774.664C1579.68 772.955 1578.77 732.978 1578.77 732.181C1578.77 731.042 1578.43 730.017 1579 729.219C1579.34 728.764 1580.82 728.65 1581.39 728.536C1584.58 728.308 1588.34 728.65 1591.52 728.536C1593.12 728.536 1593.01 729.675 1593.35 731.156V731.156ZM1641.81 784.573C1641.47 771.589 1641.58 757.807 1641.7 744.937C1641.7 740.951 1641.47 736.623 1641.47 732.636C1641.47 728.308 1639.76 728.536 1637.48 728.422C1634.18 728.308 1632.7 728.308 1629.4 728.308C1627.23 728.194 1626.32 728.764 1626.32 730.928C1626.32 742.09 1625.98 773.639 1626.09 778.195C1626.21 782.75 1626.66 803.48 1626.43 808.035C1626.32 809.63 1626.43 811.224 1626.55 812.819C1626.66 813.388 1627 813.958 1627.91 813.958C1631.67 813.73 1635.2 813.73 1638.96 813.616C1640.33 813.502 1641.47 813.161 1642.04 811.68C1642.15 810.883 1641.81 790.04 1641.81 784.573V784.573ZM1688.68 805.416C1688.68 802.454 1688.68 783.776 1688.79 782.295C1688.91 781.953 1689.13 781.27 1689.59 781.27C1690.04 781.27 1690.27 781.498 1690.39 781.839C1694.94 790.723 1698.93 799.607 1703.03 808.263C1703.6 809.516 1704.85 813.161 1705.19 813.502C1705.65 814.186 1706.45 813.958 1707.13 813.958L1719.66 814.072C1721.14 814.072 1721.48 813.161 1721.14 811.908C1720.23 808.491 1713.74 796.418 1712.25 793.457C1711.23 791.179 1704.4 777.967 1704.17 776.942C1703.94 776.486 1705.65 775.689 1705.88 775.347C1711.34 770.45 1716.24 765.438 1717.27 757.807C1718.41 750.29 1716.7 742.09 1711.8 736.053C1708.04 731.611 1703.14 728.992 1697.33 728.65C1693.8 728.422 1690.39 728.764 1686.86 728.65C1683.78 728.536 1681.62 728.536 1677.74 728.536C1675.92 728.536 1674.78 729.561 1674.67 731.497V732.864C1674.44 741.634 1674.67 750.404 1674.78 759.06C1674.78 772.272 1674.56 807.124 1674.56 812.136C1674.56 813.616 1674.78 813.958 1676.15 813.958C1676.95 813.958 1677.86 814.072 1678.66 814.072C1681.84 814.072 1683.78 813.958 1687.08 813.958C1689.59 813.958 1688.68 809.858 1688.68 805.416V805.416ZM1688.68 760.996L1688.79 749.493C1688.91 747.784 1688.34 744.367 1689.93 743.115C1692.1 741.52 1696.54 743.115 1698.47 744.481C1704.17 748.354 1703.71 757.921 1700.64 763.274C1699.16 765.78 1696.65 767.261 1693.8 768.058C1692.1 768.513 1688.91 769.083 1688.79 766.349C1688.79 764.527 1688.68 760.996 1688.68 760.996ZM1777 727.966C1774.84 728.08 1772.68 728.422 1770.51 729.105C1765.84 730.7 1761.63 733.889 1758.78 737.989C1756.28 741.748 1755.25 746.19 1754.91 750.632C1754.68 754.049 1755.02 757.579 1756.62 760.655C1758.33 763.958 1761.29 766.805 1763.79 769.539C1766.07 771.93 1768.35 774.322 1770.85 776.486C1773.13 778.65 1775.75 780.359 1778.03 782.637C1781.33 785.94 1782.59 793.457 1780.19 797.557C1777.35 802.113 1770.63 802.796 1766.18 801.315C1763.91 800.518 1761.86 798.81 1759.92 797.443C1758.78 796.646 1757.41 796.304 1756.62 797.671C1756.16 798.354 1755.93 799.151 1755.71 799.835C1754.91 802.682 1753.88 805.302 1753.77 808.377C1753.66 811.908 1760.38 812.933 1762.88 813.502C1774.04 816.122 1787.48 814.072 1793.29 803.024C1794.43 800.746 1795.23 798.354 1795.68 795.848C1795.8 794.937 1795.91 794.14 1795.91 793.229C1796.37 785.94 1793.41 779.789 1788.96 774.322C1784.18 768.4 1778.14 764.299 1772.56 759.174C1769.15 755.985 1767.89 750.973 1768.92 746.418C1769.94 741.52 1775.52 740.267 1779.74 741.52C1780.99 741.862 1782.02 742.431 1783.15 743.115C1783.84 743.456 1784.52 743.912 1785.43 743.912C1787.03 744.026 1787.26 742.773 1787.6 741.52C1788.39 738.673 1789.76 736.395 1790.33 733.661C1790.9 730.586 1788.39 730.017 1785.89 729.219C1782.93 728.422 1780.08 727.853 1777 727.966V727.966ZM1938.05 749.493C1940.45 756.554 1941.01 764.185 1941.01 771.703C1941.01 777.967 1939.88 784.003 1938.28 790.04C1936.23 797.215 1932.81 803.707 1926.66 807.921C1922.11 811.224 1917.32 813.388 1911.74 813.958C1910.95 813.958 1910.26 814.072 1909.47 814.072C1908.78 814.072 1908.1 813.958 1907.3 813.958C1901.72 813.388 1896.94 811.224 1892.27 807.921C1886.23 803.707 1882.7 797.215 1880.76 790.04C1879.06 784.003 1878.03 777.967 1878.03 771.703C1878.03 764.185 1878.6 756.554 1880.99 749.493C1885.21 737.306 1896.82 728.65 1909.47 728.422C1922.11 728.65 1933.73 737.306 1938.05 749.493V749.493ZM1927.01 780.017C1928.14 773.069 1927.69 766.008 1926.32 759.06C1924.96 752.796 1922.22 746.645 1916.98 742.887C1916.07 742.203 1915.05 741.634 1914.02 741.292C1912.54 740.609 1910.95 740.381 1909.47 740.381C1907.98 740.381 1906.5 740.609 1905.02 741.292C1903.88 741.634 1902.97 742.203 1902.06 742.887C1896.71 746.645 1893.98 752.796 1892.72 759.06C1891.36 766.008 1890.9 773.069 1892.04 780.017C1893.18 786.281 1895.46 794.71 1901.38 797.899C1903.88 799.265 1906.62 800.177 1909.47 800.29C1912.31 800.177 1915.16 799.265 1917.67 797.899C1923.59 794.71 1925.87 786.281 1927.01 780.017V780.017ZM1973.65 790.609H1973.53C1973.53 793.457 1973.42 796.418 1973.53 799.379C1973.65 803.024 1973.76 806.669 1973.99 810.313C1974.1 811.566 1974.33 811.908 1975.58 812.136C1977.86 812.705 1980.25 812.819 1982.64 812.819C1988.79 812.591 1988.79 811.566 1988.79 807.352C1988.57 805.188 1988.68 804.277 1988.68 801.657C1988.68 797.899 1988.57 797.443 1988.57 792.09C1988.68 787.762 1988.68 782.181 1988.68 777.739C1988.68 775.347 1989.02 774.55 1991.19 774.55H2007.81C2010.21 774.892 2009.3 773.297 2009.3 770.905C2009.3 768.513 2009.64 768.4 2009.52 766.008C2009.52 764.869 2009.3 763.73 2009.18 762.591C2008.95 760.655 2008.27 759.971 2006.33 759.971C2005.08 759.971 2006.22 760.085 2005.08 760.199C2000.18 760.541 1995.51 759.857 1990.62 760.199C1989.02 760.199 1988.79 759.971 1988.68 758.491C1988.34 754.049 1988.68 749.151 1989.14 744.709C1989.36 742.887 1989.71 742.545 1991.41 742.431L2007.47 742.317C2009.75 742.09 2010.43 742.203 2010.21 740.039C2009.98 736.736 2010.43 733.32 2009.98 730.017C2009.75 728.194 2009.3 727.853 2007.25 727.853C2003.83 727.966 2003.03 727.966 1999.61 728.194C1996.2 728.308 1982.42 728.308 1979.11 728.308C1974.44 728.308 1973.99 727.966 1973.87 733.775C1973.76 738.331 1973.76 743.001 1973.76 747.67C1973.76 755.643 1973.3 784.231 1973.65 790.609V790.609ZM2092.33 739.698C2092.21 746.759 2092.89 798.354 2092.78 802.113C2092.78 805.644 2092.78 809.174 2092.9 812.705C2092.9 813.275 2093.24 813.844 2093.81 813.844C2101.78 814.186 2109.64 813.502 2117.61 813.616C2120.23 813.73 2122.85 813.616 2125.36 813.616C2127.86 813.502 2128.09 812.477 2127.97 810.427C2127.86 807.238 2127.86 804.391 2127.86 801.315C2127.75 799.721 2126.84 799.151 2125.47 799.151C2120.8 799.265 2116.13 799.038 2111.46 799.265C2110.66 799.379 2109.87 799.379 2109.07 799.379C2107.7 799.265 2107.36 798.924 2107.25 797.443V795.735C2106.9 786.281 2107.59 776.486 2107.59 767.033C2107.47 759.06 2107.59 751.885 2107.47 744.823C2107.47 741.748 2107.47 738.673 2107.36 735.711C2107.25 733.889 2107.36 731.953 2106.9 730.13C2106.68 729.447 2106.33 728.536 2105.54 728.536H2094.83C2093.01 728.536 2092.44 729.789 2092.33 731.611V739.698V739.698ZM2176.21 784.573C2175.87 771.589 2175.98 757.807 2176.1 744.937C2176.1 740.951 2175.87 736.623 2175.87 732.636C2175.87 728.308 2174.16 728.536 2171.88 728.422C2168.58 728.308 2167.1 728.308 2163.8 728.308C2161.63 728.194 2160.72 728.764 2160.72 730.928C2160.72 742.09 2160.38 773.639 2160.49 778.195C2160.61 782.75 2161.06 803.48 2160.83 808.035C2160.72 809.63 2160.83 811.224 2160.95 812.819C2161.06 813.388 2161.4 813.958 2162.31 813.958C2166.07 813.73 2169.6 813.73 2173.36 813.616C2174.73 813.502 2175.87 813.161 2176.44 811.68C2176.55 810.883 2176.21 790.04 2176.21 784.573V784.573ZM2209.07 790.609H2208.96C2208.96 793.457 2208.84 796.418 2208.96 799.379C2209.07 803.024 2209.18 806.669 2209.41 810.313C2209.52 811.566 2209.75 811.908 2211.01 812.136C2213.28 812.705 2215.67 812.819 2218.07 812.819C2224.22 812.591 2224.22 811.566 2224.22 807.352C2223.99 805.188 2224.1 804.277 2224.1 801.657C2224.1 797.899 2223.99 797.443 2223.99 792.09C2224.1 787.762 2224.1 782.181 2224.1 777.739C2224.1 775.347 2224.44 774.55 2226.61 774.55H2243.24C2245.63 774.892 2244.72 773.297 2244.72 770.905C2244.72 768.513 2245.06 768.4 2244.95 766.008C2244.95 764.869 2244.72 763.73 2244.6 762.591C2244.38 760.655 2243.69 759.971 2241.76 759.971C2240.5 759.971 2241.64 760.085 2240.5 760.199C2235.61 760.541 2230.94 759.857 2226.04 760.199C2224.44 760.199 2224.22 759.971 2224.1 758.491C2223.76 754.049 2224.1 749.151 2224.56 744.709C2224.79 742.887 2225.13 742.545 2226.84 742.431L2242.9 742.317C2245.17 742.09 2245.86 742.203 2245.63 740.039C2245.4 736.736 2245.86 733.32 2245.4 730.017C2245.17 728.194 2244.72 727.853 2242.67 727.853C2239.25 727.966 2238.45 727.966 2235.04 728.194C2231.62 728.308 2217.84 728.308 2214.54 728.308C2209.87 728.308 2209.41 727.966 2209.3 733.775C2209.18 738.331 2209.18 743.001 2209.18 747.67C2209.18 755.643 2208.73 784.231 2209.07 790.609V790.609ZM2278.26 790.609H2278.15C2278.15 793.457 2278.03 796.418 2278.15 799.379C2278.26 803.024 2278.49 806.669 2278.72 810.313C2278.72 811.566 2279.06 811.908 2280.2 812.136C2282.59 812.705 2284.87 812.819 2287.26 812.819C2293.41 812.591 2299.56 813.047 2305.71 812.819C2308.22 812.705 2309.35 812.933 2311.86 812.477C2314.14 812.022 2314.94 810.769 2314.94 807.352C2314.71 805.188 2314.82 804.277 2314.82 801.657C2314.82 797.899 2312.2 796.646 2309.92 796.76C2308.33 796.874 2300.7 796.646 2297.62 796.646C2292.5 796.76 2293.3 797.443 2293.3 792.09C2293.3 787.762 2293.41 782.181 2293.41 777.739C2293.41 775.347 2293.64 774.55 2295.91 774.55H2310.15C2312.43 774.892 2314.02 773.297 2314.02 770.905C2314.02 768.513 2314.25 768.4 2314.25 766.008L2313.91 762.591C2313.68 760.655 2313 759.971 2311.06 759.971C2309.81 759.971 2308.56 760.085 2307.3 760.199C2302.41 760.541 2300.13 759.857 2295.35 760.199C2293.75 760.199 2293.52 759.971 2293.41 758.491C2292.95 754.049 2293.41 749.151 2293.86 744.709C2293.98 742.887 2294.43 742.545 2296.14 742.431L2312.2 742.317C2314.37 742.09 2315.05 742.203 2314.94 740.039C2314.71 736.736 2315.05 733.32 2314.71 730.017C2314.48 728.194 2313.91 727.853 2311.86 727.853C2308.44 727.966 2307.65 727.966 2304.23 728.194C2300.81 728.308 2287.14 728.308 2283.84 728.308C2279.06 728.308 2278.72 727.966 2278.6 733.775C2278.37 738.331 2278.49 743.001 2278.49 747.67C2278.49 755.643 2278.03 784.231 2278.26 790.609V790.609Z" fill="white"/>
<path d="M1318.85 522.436C1285.8 602.699 1201.4 626.896 1148.29 626.896C1071.57 626.896 1010.78 586.765 987.172 567.879L997.205 537.191L1008.42 529.518L996.615 510.633L1021.99 473.452C1053.27 498.239 1091.63 523.617 1145.93 523.617C1184.88 523.617 1222.65 501.19 1232.09 468.141C1220.29 464.01 1205.53 461.649 1187.24 459.879C1164.22 457.518 1139.44 456.338 1115.83 452.797C1069.21 446.305 1018.45 430.37 1010.19 373.714C996.615 278.697 1150.06 160.664 1216.75 146.5L1226.19 168.926L1248.03 170.107L1256.29 191.353L1278.71 203.746L1276.94 311.747L1237.99 325.321L1207.3 305.255L1178.98 321.189L1179.57 272.796C1155.37 288.14 1134.12 314.107 1117.01 348.927C1140.62 353.649 1165.4 356.009 1189.6 358.96C1222.06 362.501 1257.47 368.403 1285.21 381.977C1329.47 404.403 1350.13 444.534 1318.85 522.436V522.436ZM1762.06 171.287L1800.42 178.959L1734.91 612.142L1705.41 606.24L1684.16 624.535L1654.65 605.06L1631.63 628.076L1580.88 473.452L1535.44 620.994L1499.44 619.224L1482.32 610.371L1461.67 633.388L1428.62 626.896L1350.72 183.09L1381.99 191.353L1406.19 164.205L1433.34 176.008L1458.72 171.287L1494.72 408.534L1556.09 183.09L1574.98 207.877L1590.91 180.139L1659.96 400.862L1693.01 161.254L1727.83 151.221L1746.72 178.959L1762.06 171.287ZM1956.82 432.731L2004.62 428.01L1980.42 335.944L1956.82 432.731ZM2040.03 154.762L2161.6 610.371L2132.1 608.601L2118.52 625.125L2086.65 608.011L2058.92 632.207L2031.18 528.928L1930.85 539.551L1910.78 622.175L1871.24 625.716L1841.73 605.06L1805.73 612.732L1890.13 268.665L1850 271.025L1854.72 241.517L1840.55 220.861L1855.31 194.894L1831.7 169.516L2040.03 154.762ZM2428.36 159.484L2462 170.697L2349.87 408.534L2353.41 608.011L2326.26 604.47L2302.65 615.093L2282 604.47L2250.72 621.584L2246.59 415.026L2106.72 201.976L2153.93 197.844L2156.88 174.828L2198.2 152.992L2290.26 292.861L2366.39 131.746L2402.39 133.516L2412.43 163.615L2428.36 159.484Z" fill="white"/>
<path d="M0.0761233 522.79C5.16163 259.723 280.595 68.6221 584.74 43.1289C658.799 36.9456 784.098 35.2098 876.838 64.2403L789.089 226.123C727.838 210.538 655.524 206.1 583.436 209.262C273.201 219.996 77.9632 402.023 73.6095 586.068C71.3201 683.799 118.506 777.919 212.194 832.349L206.077 837.575C70.1003 769.906 -2.69182 663.438 0.0761233 522.79Z" fill="white"/>
<path d="M144.469 584.548C175.235 430.931 346.331 313.59 615.188 327.617C652.419 329.578 694.688 333.228 732.417 341.494L654.699 484.798C630.51 481.477 592.744 474.749 560.326 473.004C348.508 461.923 218.18 549.559 196.562 661.309C184.956 721.312 209.557 788.362 270.949 830.519L264.794 835.248C159.669 777.074 125.618 678.46 144.469 584.548Z" fill="white"/>
<path d="M271.428 662.331C322.883 575.803 477.954 547.785 616.407 581.414L575.817 655.82C465.756 630.495 338.337 647.694 301.819 711.141C281.965 745.67 293.036 793.119 315.461 826.606L311.352 830.744C259.587 784.44 240.755 713.956 271.428 662.331Z" fill="white"/>
</svg>
