<svg xmlns="http://www.w3.org/2000/svg" width="14.983" height="14.983" viewBox="0 0 14.983 14.983">
  <g id="reddit" style="isolation: isolate">
    <path id="Path_32" data-name="Path 32" d="M194.163,341.371a2.924,2.924,0,0,1-3.134,0,.2.2,0,1,0-.286.286,3.28,3.28,0,0,0,3.707,0,.2.2,0,0,0,0-.286A.2.2,0,0,0,194.163,341.371Zm0,0" transform="translate(-185.103 -331.324)" fill="#fff"/>
    <path id="Path_33" data-name="Path 33" d="M172.21,256.781a.781.781,0,1,0-.781.781A.782.782,0,0,0,172.21,256.781Zm0,0" transform="translate(-165.655 -248.509)" fill="#fff"/>
    <path id="Path_34" data-name="Path 34" d="M7.491,0a7.491,7.491,0,1,0,7.491,7.491A7.492,7.492,0,0,0,7.491,0Zm4.347,8.491a2.173,2.173,0,0,1,.025.328c0,1.681-1.957,3.043-4.371,3.043S3.122,10.5,3.122,8.819a2.2,2.2,0,0,1,.025-.331A1.092,1.092,0,1,1,4.349,6.7a5.357,5.357,0,0,1,2.974-.926c0-.015.545-2.613.545-2.613a.192.192,0,0,1,.084-.123A.2.2,0,0,1,8.1,3.015L9.916,3.4a.78.78,0,1,1-.079.382L8.211,3.437l-.5,2.342a5.345,5.345,0,0,1,2.922.927,1.091,1.091,0,0,1,1.85.785A1.1,1.1,0,0,1,11.838,8.491Zm0,0" fill="#fff"/>
    <path id="Path_35" data-name="Path 35" d="M288.781,256a.781.781,0,1,0,.781.781A.782.782,0,0,0,288.781,256Zm0,0" transform="translate(-279.572 -248.509)" fill="#fff"/>
  </g>
</svg>
