<svg xmlns="http://www.w3.org/2000/svg" width="40.933" height="43.228" viewBox="0 0 40.933 43.228"><g style="isolation:isolate"><path d="M187.118,151.461a20.643,20.643,0,0,1,0-41.284l.017,1.622a19.022,19.022,0,0,0,0,38.041Z" transform="translate(-166.69 -109.125)" fill="#fff"/><path d="M249.065,143.436h-9.753a.811.811,0,1,1,0-1.621h8.943V133.2a.811.811,0,1,1,1.621,0v9.423A.811.811,0,0,1,249.065,143.436Z" transform="translate(-220.859 -125.882)" fill="#fff"/><path d="M249.392,175.862H227.2a.811.811,0,0,1,0-1.621h21.382v-3.033a.811.811,0,1,1,1.621,0v3.843A.811.811,0,0,1,249.392,175.862Z" transform="translate(-211.723 -154.551)" fill="#fff"/><path d="M247.439,202.958H225.4a.811.811,0,1,1,0-1.621h22.034a.811.811,0,1,1,0,1.621Z" transform="translate(-210.369 -177.89)" fill="#fff"/><path d="M252.776,224.194h-3.313a.811.811,0,0,1-.811-.811V218.9H238.415a.811.811,0,1,1,0-1.621h11.048a.811.811,0,0,1,.811.811v4.479h2.5a.811.811,0,1,1,0,1.621Z" transform="translate(-220.183 -189.918)" fill="#fff"/><path d="M251.635,271.473a.992.992,0,1,1-.992-.992A.992.992,0,0,1,251.635,271.473Z" transform="translate(-229.27 -230.047)" fill="#fff"/><path d="M248.154,270.786a1.8,1.8,0,1,1,1.8-1.8A1.8,1.8,0,0,1,248.154,270.786Zm0-1.984a.181.181,0,1,0,.181.181A.181.181,0,0,0,248.154,268.8Z" transform="translate(-226.781 -227.558)" fill="#fff"/><path d="M251.635,110.186a.992.992,0,1,1-.992-.992A.992.992,0,0,1,251.635,110.186Z" transform="translate(-229.27 -108.383)" fill="#fff"/><path d="M248.154,109.5a1.8,1.8,0,1,1,1.8-1.8A1.8,1.8,0,0,1,248.154,109.5Zm0-1.984a.181.181,0,1,0,.181.181A.181.181,0,0,0,248.154,107.515Z" transform="translate(-226.781 -105.893)" fill="#fff"/><g transform="translate(0.505 4.874)"><path d="M178.526,147.2a3.758,3.758,0,0,1-1.25-.23c-2.522-.887-5-4.133-5.289-5.782-.109-.63-.532-.808-1.624-1.123a9.016,9.016,0,0,1-1.133-.383.811.811,0,1,1,.651-1.485,7.7,7.7,0,0,0,.931.31c1.047.3,2.482.715,2.773,2.406a8.389,8.389,0,0,0,4.229,4.528,1.389,1.389,0,0,0,1.45-.116,8.415,8.415,0,0,0-1.292-2.148c-1.019-1.411-1.9-2.629-1.548-3.7a1.583,1.583,0,0,1,1.1-1.015,5.309,5.309,0,0,1,2.206-.276c.425.027.539.035,1.337-1.209,1.091-1.7,3.119-2.159,4.6-2.492a5.727,5.727,0,0,0,1.538-.473,2.308,2.308,0,0,0-1.149-1.484,2.8,2.8,0,0,0-2.557-.371c-1.718.776-3.223.217-3.766-.7a1.717,1.717,0,0,1,.588-2.3,2.978,2.978,0,0,0,1.089-1.564,1.724,1.724,0,0,0-.443.042,7.174,7.174,0,0,1-4.045-.33.811.811,0,1,1,.619-1.5,5.6,5.6,0,0,0,3.107.239c1.51-.3,2.057.374,2.249.8.525,1.174-.594,2.847-1.6,3.6a.473.473,0,0,0-.17.185.609.609,0,0,0,.227.162,1.8,1.8,0,0,0,1.481-.117,4.325,4.325,0,0,1,4.1.487,3.708,3.708,0,0,1,1.892,2.88c0,1.391-1.49,1.726-2.8,2.022-1.34.3-2.859.643-3.59,1.785-1.124,1.753-1.687,2.025-2.807,1.952a3.709,3.709,0,0,0-1.6.2c-.022.007-.04.014-.055.02a8.518,8.518,0,0,0,1.318,2.2c1.136,1.574,2.312,3.2,1.11,4.263A2.77,2.77,0,0,1,178.526,147.2Z" transform="translate(-168.744 -125.734)" fill="#fff"/></g><g transform="translate(6.71 26.518)"><path d="M196.1,225.767a.808.808,0,0,1-.489-.164,3.832,3.832,0,0,1-1.331-4.442,6.15,6.15,0,0,1,2.451-2.8,5.254,5.254,0,0,0,.963-.786,4.962,4.962,0,0,0,.659-1.385c.378-1.027.849-2.305,2.124-2.352.962-.029,1.633.8,2.41,1.765a6.871,6.871,0,0,0,2.7,2.371,5.637,5.637,0,0,0,1.435.237,4.329,4.329,0,0,1,1.873.43.811.811,0,0,1-.823,1.4,3.425,3.425,0,0,0-1.18-.211,6.969,6.969,0,0,1-1.859-.329,8.216,8.216,0,0,1-3.413-2.879c-.354-.44-.889-1.106-1.112-1.162-.163.009-.5.91-.637,1.294a5.975,5.975,0,0,1-.957,1.888,6.612,6.612,0,0,1-1.255,1.05,4.585,4.585,0,0,0-1.889,2.1,2.277,2.277,0,0,0,.816,2.519.811.811,0,0,1-.49,1.457Z" transform="translate(-194.001 -213.837)" fill="#fff"/></g><path d="M231.815,126.67a.811.811,0,0,1-.811-.811v-2.651a.811.811,0,1,1,1.621,0v2.651A.811.811,0,0,1,231.815,126.67Z" transform="translate(-215.204 -118.343)" fill="#fff"/><path d="M241.17,127.885a.811.811,0,0,1-.811-.811v-3.865a.811.811,0,1,1,1.621,0v3.865A.811.811,0,0,1,241.17,127.885Z" transform="translate(-222.261 -118.343)" fill="#fff"/><path d="M250.975,129.965a.811.811,0,0,1-.811-.811v-5.945a.811.811,0,0,1,1.621,0v5.945A.811.811,0,0,1,250.975,129.965Z" transform="translate(-229.657 -118.343)" fill="#fff"/><path d="M233.167,244.431h-3.851a.811.811,0,1,1,0-1.621h3.851a.811.811,0,1,1,0,1.621Z" transform="translate(-213.319 -209.174)" fill="#fff"/><path d="M242.982,253.192h-3.217a.811.811,0,0,1,0-1.621h3.217a.811.811,0,0,1,0,1.621Z" transform="translate(-221.202 -215.783)" fill="#fff"/><path d="M234.182,261.952h-3.217a.811.811,0,1,1,0-1.621h3.217a.811.811,0,1,1,0,1.621Z" transform="translate(-214.564 -222.391)" fill="#fff"/><g transform="translate(26.028 3.108)"><path d="M274.847,122.96a2.208,2.208,0,1,1,2.208-2.208A2.211,2.211,0,0,1,274.847,122.96Zm0-3.014a.806.806,0,1,0,.806.806A.807.807,0,0,0,274.847,119.946Z" transform="translate(-272.639 -118.544)" fill="#fff"/></g><g transform="translate(35.487 12.228)"><path d="M313.348,160.085a2.208,2.208,0,1,1,2.208-2.208A2.211,2.211,0,0,1,313.348,160.085Zm0-3.014a.806.806,0,1,0,.806.806A.807.807,0,0,0,313.348,157.071Z" transform="translate(-311.14 -155.669)" fill="#fff"/></g><g transform="translate(36.517 22.126)"><path d="M317.542,200.374a2.208,2.208,0,1,1,2.208-2.208A2.211,2.211,0,0,1,317.542,200.374Zm0-3.014a.806.806,0,1,0,.806.806A.807.807,0,0,0,317.542,197.36Z" transform="translate(-315.334 -195.958)" fill="#fff"/></g><g transform="translate(32.08 31.134)"><path d="M299.483,237.041a2.208,2.208,0,1,1,2.208-2.208A2.211,2.211,0,0,1,299.483,237.041Zm0-3.014a.806.806,0,1,0,.806.806A.807.807,0,0,0,299.483,234.027Z" transform="translate(-297.275 -232.625)" fill="#fff"/></g></g></svg>